<svg xmlns="http://www.w3.org/2000/svg" viewBox="0 -0.5 32 32" shape-rendering="crispEdges">
<metadata>Made with Pixels to Svg https://codepen.io/shshaw/pen/XbxvNj</metadata>
<path stroke="#1c121c" d="M26 3h3M23 4h3M29 4h1M20 5h3M26 5h1M29 5h1M18 6h2M29 6h1M17 7h1M28 7h1M10 8h7M28 8h1M9 9h1M15 9h1M27 9h1M9 10h1M14 10h1M26 10h1M10 11h1M13 11h1M26 11h1M10 12h1M13 12h1M26 12h1M10 13h1M12 13h1M26 13h1M9 14h1M12 14h1M26 14h1M9 15h1M11 15h1M22 15h2M26 15h1M8 16h1M11 16h1M21 16h1M24 16h2M7 17h1M10 17h1M21 17h1M7 18h1M10 18h1M21 18h1M8 19h2M21 19h1M9 20h1M17 20h2M21 20h1M8 21h1M16 21h1M19 21h2M7 22h1M15 22h1M5 23h2M15 23h1M2 24h3M11 24h2M15 24h1M2 25h1M10 25h1M13 25h2M2 26h1M9 26h1M3 27h2M9 27h1M5 28h1M8 28h1M5 29h1M8 29h1M6 30h3" />
<path stroke="#dba463" d="M26 4h3M24 5h2M27 5h2M23 6h6M23 7h5M22 8h1M24 8h3M10 9h3M19 9h1M22 9h1M19 10h2M23 10h2M11 11h1M20 11h6M16 12h1M18 12h1M21 12h3M11 13h1M16 13h1M19 13h3M14 14h1M17 14h1M20 14h3M25 14h1M10 15h1M14 15h1M17 15h5M24 15h1M15 16h1M18 16h1M8 17h1M13 17h1M16 17h4M14 18h2M17 18h2M11 19h1M15 19h2M20 19h1M12 20h4M19 20h1M10 21h1M13 21h1M11 22h2M14 23h1M6 24h1M13 24h1M4 25h2M7 25h1M3 26h2M6 26h1M8 26h1M5 27h1M7 27h1M6 28h2M6 29h1" />
<path stroke="#bb7547" d="M23 5h1M21 7h1M19 8h1M21 8h1M27 8h1M13 9h2M20 9h1M23 9h1M10 10h2M21 10h2M25 10h1M12 11h1M16 11h1M18 11h1M11 12h1M19 12h2M24 12h1M14 13h1M17 13h1M22 13h2M25 13h1M10 14h1M16 14h1M18 14h2M24 14h1M15 15h1M25 15h1M12 16h1M14 16h1M16 16h2M19 16h2M9 17h1M12 17h1M15 17h1M8 18h1M12 18h2M16 18h1M20 18h1M13 19h2M17 19h1M19 19h1M11 20h1M16 20h1M20 20h1M12 21h1M9 22h2M14 22h1M10 23h2M13 23h1M5 24h1M7 24h1M14 24h1M3 25h1M6 25h1M8 25h1M5 26h1M7 26h1M6 27h1M8 27h1M7 29h1" />
<path stroke="#71413b" d="M20 6h3M18 7h3M22 7h1M17 8h2M20 8h1M23 8h1M16 9h3M21 9h1M24 9h3M12 10h2M15 10h4M14 11h2M17 11h1M19 11h1M12 12h1M14 12h2M17 12h1M25 12h1M13 13h1M15 13h1M18 13h1M24 13h1M11 14h1M13 14h1M15 14h1M23 14h1M12 15h2M16 15h1M9 16h2M13 16h1M11 17h1M14 17h1M20 17h1M9 18h1M11 18h1M19 18h1M10 19h1M12 19h1M18 19h1M10 20h1M9 21h1M11 21h1M14 21h2M8 22h1M13 22h1M7 23h3M12 23h1M8 24h3M9 25h1" />
</svg>