<svg xmlns="http://www.w3.org/2000/svg" viewBox="0 -0.5 32 32" shape-rendering="crispEdges">
<metadata>Made with Pixels to Svg https://codepen.io/shshaw/pen/XbxvNj</metadata>
<path stroke="#1b1f21" d="M20 4h7M17 5h3M26 5h1M12 6h5M26 6h2M11 7h1M25 7h2M28 7h1M10 8h1M25 8h1M28 8h1M10 9h1M24 9h1M28 9h1M10 10h1M27 10h1M11 11h1M27 11h1M10 12h1M26 12h1M8 13h2M25 13h1M7 14h1M24 14h1M6 15h1M24 15h1M5 16h1M23 16h1M5 17h1M22 17h1M6 18h2M21 18h1M8 19h1M19 19h2M7 20h1M17 20h2M4 21h3M17 21h1M3 22h1M11 22h1M16 22h1M2 23h1M10 23h2M16 23h1M2 24h1M9 24h1M12 24h1M15 24h1M3 25h1M9 25h1M13 25h2M4 26h1M9 26h1M5 27h1M8 27h1M6 28h2" />
<path stroke="#bb7547" d="M20 5h1M17 6h1M12 7h3M11 8h1M16 8h1M18 8h1M24 8h1M11 9h1M15 9h1M18 9h1M27 9h1M11 10h2M14 10h1M23 10h1M13 11h2M26 11h1M12 12h2M18 12h1M21 12h1M25 12h1M10 13h1M12 13h2M16 13h1M20 13h1M8 14h2M11 14h2M16 14h1M19 14h1M7 15h1M11 15h2M17 15h2M6 16h1M9 16h1M11 16h1M6 17h3M11 17h1M15 17h2M11 18h1M13 18h2M9 20h1M16 20h1M8 21h1M11 21h1M13 21h1M16 21h1M5 22h2M10 22h1M12 22h1M15 22h1M3 23h3M12 23h1M15 23h1M3 24h2M8 24h1M13 24h2M4 25h2M7 25h2M5 26h3M6 27h2" />
<path stroke="#dba463" d="M21 5h5M18 6h5M24 6h2M15 7h10M27 7h1M14 8h2M17 8h1M19 8h5M26 8h2M13 9h2M16 9h2M19 9h5M25 9h2M13 10h1M15 10h3M19 10h4M24 10h3M12 11h1M15 11h3M20 11h6M11 12h1M14 12h4M22 12h3M11 13h1M14 13h2M17 13h3M10 14h1M13 14h3M17 14h2M20 14h4M10 15h1M13 15h4M19 15h2M23 15h1M10 16h1M12 16h8M10 17h1M12 17h3M17 17h1M10 18h1M12 18h1M15 18h1M20 18h1M9 19h5M18 19h1M8 20h1M10 20h6M7 21h1M9 21h2M7 22h3M8 23h2" />
<path stroke="#1c121c" d="M23 6h1" />
<path stroke="#71413b" d="M12 8h2M12 9h1M18 10h1M18 11h2M19 12h2M21 13h4M8 15h2M7 16h2M9 17h1M8 18h2M12 21h1M14 21h2M4 22h1M13 22h2M6 23h2M13 23h2M5 24h3M6 25h1M8 26h1" />
<path stroke="#f6ca9f" d="M21 15h2M20 16h3M18 17h4M16 18h4M14 19h4" />
</svg>