<svg xmlns="http://www.w3.org/2000/svg" viewBox="0 -0.5 32 32" shape-rendering="crispEdges">
<metadata>Made with Pixels to Svg https://codepen.io/shshaw/pen/XbxvNj</metadata>
<path stroke="#1c121c" d="M27 2h2M25 3h2M29 3h1M23 4h2M29 4h1M21 5h2M25 5h1M29 5h1M20 6h1M29 6h1M18 7h2M28 7h1M17 8h1M28 8h1M10 9h7M28 9h1M10 10h1M15 10h1M27 10h1M10 11h1M14 11h1M27 11h1M11 12h1M13 12h1M26 12h1M12 13h1M26 13h1M12 14h1M25 14h1M8 15h4M19 15h1M22 15h1M24 15h1M7 16h1M11 16h1M19 16h3M23 16h1M7 17h1M10 17h1M22 17h1M7 18h1M10 18h1M21 18h1M8 19h2M20 19h2M9 20h1M19 20h1M21 20h1M8 21h1M17 21h2M21 21h1M7 22h1M15 22h2M18 22h1M21 22h1M5 23h2M13 23h2M16 23h1M18 23h3M3 24h2M11 24h2M16 24h1M2 25h1M10 25h1M12 25h1M15 25h1M1 26h1M9 26h1M13 26h2M1 27h4M9 27h1M5 28h1M8 28h1M5 29h1M8 29h1M5 30h1M7 30h1M5 31h2" />
<path stroke="#edab50" d="M27 3h1M25 4h2M24 5h1M26 5h1M28 5h1M22 6h1M24 6h4M22 7h2M26 7h2M23 8h4M24 9h3M21 11h5M19 12h4M24 12h2M18 13h1M20 13h1M23 13h2M17 14h3M16 15h3M16 16h1M18 16h1M15 17h6M14 18h1M16 18h1M18 18h3M13 19h6M12 20h1M14 20h4M11 21h5M10 22h1M12 22h2M9 23h3M8 24h2M7 25h2M7 26h2" />
<path stroke="#e07438" d="M28 3h1M27 4h2M23 5h1M27 5h1M23 6h1M28 6h1M24 7h2M22 8h1M27 8h1M21 9h1M23 9h1M18 10h1M20 10h3M19 11h2M26 11h1M16 12h1M18 12h1M23 12h1M17 13h1M19 13h1M22 13h1M25 13h1M14 14h1M16 14h1M21 14h2M24 14h1M15 15h1M20 15h2M23 15h1M14 16h2M17 16h1M22 16h1M13 17h2M21 17h1M12 18h2M15 18h1M17 18h1M11 19h2M19 19h1M10 20h2M13 20h1M18 20h1M9 21h2M16 21h1M8 22h2M11 22h1M14 22h1M7 23h2M12 23h1M7 24h1M10 24h1M6 25h1M9 25h1M6 26h1M7 27h1" />
<path stroke="#8e251d" d="M21 6h1M21 7h1M18 8h1M21 8h1M22 9h1M27 9h1M23 10h4M12 11h2M9 17h1M19 21h1M20 22h1M14 24h1" />
<path stroke="#c64524" d="M20 7h1M19 8h2M17 9h4M11 10h4M16 10h2M19 10h1M11 11h1M15 11h4M12 12h1M14 12h2M17 12h1M13 13h4M21 13h1M13 14h1M15 14h1M20 14h1M23 14h1M12 15h3M8 16h3M12 16h2M8 17h1M11 17h2M8 18h2M11 18h1M10 19h1M20 20h1M20 21h1M19 22h1M15 23h1M5 24h2M13 24h1M15 24h1M3 25h3M13 25h2M2 26h4M5 27h2M8 27h1M6 28h2M6 29h2M6 30h1" />
</svg>