<svg xmlns="http://www.w3.org/2000/svg" viewBox="0 -0.5 32 32" shape-rendering="crispEdges">
<metadata>Made with Pixels to Svg https://codepen.io/shshaw/pen/XbxvNj</metadata>
<path stroke="#391f21" d="M29 0h3M27 1h2M31 1h1M25 2h2M31 2h1M24 3h1M31 3h1M23 4h1M26 4h1M31 4h1M21 5h2M29 5h3M20 6h1M28 6h3M19 7h1M27 7h1M30 7h1M18 8h1M29 8h1M10 9h8M28 9h1M10 10h1M27 10h1M10 11h1M27 11h1M11 12h1M26 12h1M12 13h1M25 13h1M12 14h1M24 14h1M11 15h1M24 15h1M10 16h1M24 16h1M10 17h1M20 17h1M24 17h1M9 18h1M19 18h2M24 18h1M9 19h1M18 19h1M21 19h1M24 19h1M8 20h1M17 20h1M22 20h1M24 20h1M7 21h1M16 21h1M23 21h2M6 22h1M14 22h2M6 23h1M11 23h3M5 24h1M9 24h2M1 25h4M8 25h1M0 26h1M7 26h1M0 27h2M7 27h1M2 28h2M7 28h1M4 29h1M7 29h1M5 30h1M7 30h1M6 31h2" />
<path stroke="#c64524" d="M29 1h1M27 2h1M29 3h1M30 4h1M28 5h1M21 6h1M27 6h1M20 7h1M23 7h1M28 7h2M19 8h1M21 8h1M24 8h1M22 9h1M24 9h1M22 10h2M11 11h5M23 11h1M12 12h3M13 13h1M23 13h1M22 14h2M21 15h3M11 16h1M20 16h4M21 17h3M10 18h1M21 18h3M22 19h2M23 20h1M7 22h1M10 23h1M7 25h1M1 26h4M2 27h5M4 28h3M5 29h2M6 30h1" />
<path stroke="#e07438" d="M30 1h1M28 2h3M25 3h4M24 4h2M27 4h1M23 5h4M22 6h4M21 7h2M24 7h1M20 8h1M22 8h2M18 9h4M23 9h1M25 9h1M11 10h11M25 10h1M16 11h7M26 11h1M15 12h9M14 13h9M13 14h9M12 15h9M12 16h7M11 17h7M11 18h5M10 19h5M9 20h5M8 21h5M8 22h4M13 22h1M7 23h3M6 24h3M5 25h2M5 26h2" />
<path stroke="#edab50" d="M30 3h1M28 4h2M27 5h1M26 6h1M25 7h2M25 8h4M26 9h2M24 10h1M26 10h1M24 11h2M24 12h2M24 13h1M19 16h1M18 17h2M16 18h3M15 19h3M14 20h3M13 21h3M12 22h1" />
</svg>