<svg xmlns="http://www.w3.org/2000/svg" viewBox="0 -0.5 32 32" shape-rendering="crispEdges">
<metadata>Made with Pixels to Svg https://codepen.io/shshaw/pen/XbxvNj</metadata>
<path stroke="#391f21" d="M15 0h3M13 1h2M18 1h2M12 2h1M20 2h2M11 3h1M22 3h3M11 4h1M25 4h2M10 5h1M27 5h1M10 6h1M27 6h1M9 7h1M28 7h1M9 8h1M28 8h1M9 9h1M28 9h1M8 10h1M29 10h1M8 11h1M29 11h1M8 12h1M30 12h1M8 13h1M30 13h1M8 14h1M31 14h1M8 15h1M31 15h1M8 16h1M31 16h1M7 17h3M30 17h1M6 18h1M10 18h2M30 18h1M6 19h1M10 19h1M29 19h1M7 20h1M9 20h1M13 20h1M27 20h2M7 21h2M12 21h2M25 21h2M5 22h2M11 22h1M14 22h1M22 22h3M4 23h1M9 23h2M14 23h8M3 24h1M6 24h3M11 24h1M14 24h1M3 25h1M5 25h1M12 25h2M3 26h1M5 26h1M2 27h1M5 27h1M2 28h1M4 28h1M1 29h2M4 29h1M0 30h1M4 30h1M0 31h4" />
<path stroke="#e07438" d="M15 1h2M13 2h6M13 3h5M12 4h5M20 4h4M12 5h4M18 5h8M11 6h4M17 6h10M11 7h3M17 7h3M24 7h3M10 8h4M17 8h2M21 8h3M25 8h3M10 9h4M16 9h8M25 9h3M10 10h3M16 10h8M25 10h3M9 11h4M16 11h7M25 11h3M9 12h4M16 12h7M24 12h3M9 13h4M16 13h11M29 13h1M9 14h4M15 14h11M28 14h2M10 15h2M15 15h8M27 15h4M14 16h4M26 16h5M13 17h3M25 17h5M12 18h3M22 18h8M12 19h2M17 19h11M16 20h10M16 21h8M17 22h4" />
<path stroke="#c64524" d="M17 1h1M19 2h1M12 3h1M18 3h4M17 4h3M24 4h1M11 5h1M16 5h2M26 5h1M15 6h2M10 7h1M14 7h3M22 7h2M27 7h1M14 8h3M24 8h1M14 9h2M24 9h1M9 10h1M13 10h3M28 10h1M13 11h3M28 11h1M13 12h3M27 12h3M13 13h3M27 13h2M13 14h2M26 14h2M30 14h1M9 15h1M12 15h3M23 15h4M9 16h5M18 16h8M10 17h3M16 17h9M7 18h3M15 18h7M7 19h3M11 19h1M14 19h3M28 19h1M8 20h1M10 20h3M14 20h2M26 20h1M9 21h3M14 21h2M24 21h1M8 22h2M12 22h2M15 22h2M21 22h1M5 23h3M11 23h3M4 24h1M12 24h2M4 25h1" />
<path stroke="#000000" d="M20 7h2M19 8h2M24 10h1M23 11h2M23 12h1" />
<path stroke="#8e251d" d="M7 22h1M10 22h1M8 23h1M5 24h1M4 26h1M3 27h2M3 28h1M3 29h1M1 30h3" />
</svg>