<svg xmlns="http://www.w3.org/2000/svg" viewBox="0 -0.5 32 32" shape-rendering="crispEdges">
<metadata>Made with Pixels to Svg https://codepen.io/shshaw/pen/XbxvNj</metadata>
<path stroke="#2c354d" d="M8 0h1M15 0h1M7 1h1M14 1h1M7 2h1M13 2h1M7 3h1M13 3h1M7 4h1M12 4h1M6 5h1M11 5h1M5 6h1M11 6h1M5 7h1M11 7h1M5 8h1M11 8h1M6 9h1M11 9h1M6 10h1M11 10h1M6 11h1M12 11h1M6 12h1M12 12h1M6 13h1M7 14h1M8 15h1M31 17h1M20 18h3M30 18h1M23 19h1M25 19h3M29 19h1M24 20h1M28 20h1M19 23h1M29 23h3M20 24h4M28 24h1M24 25h4" />
<path stroke="#b9bffb" d="M9 0h1M13 0h2M8 1h2M8 2h1M8 3h1M11 3h1M10 4h1M7 5h1M6 6h2M6 7h1M6 8h1M9 8h1M9 10h2M7 11h4M7 12h2M10 13h1M8 14h2M31 18h1M30 19h2M21 20h3M26 20h2M30 20h1M21 21h3M25 21h1M28 21h1M30 21h1M22 22h2M31 22h1M27 23h1" />
<path stroke="#dfe0e8" d="M10 0h2M10 1h1M12 1h1M10 2h1M12 2h1M12 3h1M11 4h1M8 5h2M10 6h1M8 7h1M10 7h1M10 8h1M26 21h2M26 22h3M28 23h1M26 24h2" />
<path stroke="#3b768f" d="M12 0h1M13 1h1M8 4h2M10 5h1M8 9h3M7 10h1M20 19h1M29 20h1M24 21h1M29 21h1M19 22h1M24 22h1M29 22h1M20 23h1M23 23h1M24 24h1" />
<path stroke="#f5ffe8" d="M11 1h1M11 2h1M8 6h2M9 7h1" />
<path stroke="#849be4" d="M9 2h1M9 3h2M7 7h1M7 8h2M7 9h1M8 10h1M11 11h1M9 12h3M7 13h3M21 19h2M20 20h1M25 20h1M31 20h1M20 21h1M31 21h1M20 22h2M25 22h1M21 23h2M24 23h3M25 24h1" />
<path stroke="#0e071b" d="M11 13h6M10 14h1M17 14h1M9 15h1M18 15h1M8 16h1M19 16h1M8 17h1M19 17h1M8 18h1M19 18h1M8 19h1M19 19h1M8 20h1M19 20h1M8 21h1M19 21h1M9 22h1M18 22h1M10 23h1M17 23h1M11 24h6" />
<path stroke="#e54286" d="M11 14h1M10 15h1M13 15h5M10 16h6M18 16h1M9 17h1M18 17h1M18 18h1M11 20h1M15 20h1M9 21h1M18 21h1M10 22h1M17 22h1M12 23h4" />
<path stroke="#ffa5d5" d="M12 14h4M11 15h1M10 17h2M10 18h2M17 18h1M17 19h1M10 20h1M10 21h3M14 21h1M11 22h2M14 22h1" />
<path stroke="#ff6eaf" d="M16 14h1M12 15h1M9 18h1M9 19h1M18 19h1M9 20h1M16 20h3M13 21h1M15 21h3M13 22h1M15 22h2" />
<path stroke="#b22e69" d="M9 16h1M16 16h2M12 17h6M12 18h5M10 19h7M12 20h3M11 23h1M16 23h1" />
<path stroke="#588dbe" d="M30 22h1" />
</svg>