<svg xmlns="http://www.w3.org/2000/svg" viewBox="0 -0.5 32 32" shape-rendering="crispEdges">
<metadata>Made with Pixels to Svg https://codepen.io/shshaw/pen/XbxvNj</metadata>
<path stroke="#21181b" d="M19 0h1M21 0h1M18 1h1M21 1h1M18 2h1M20 2h1M18 3h1M20 3h1M17 4h1M20 4h1M17 5h1M19 5h1M17 6h1M19 6h1M31 6h1M17 7h1M19 7h1M30 7h1M17 8h1M19 8h1M28 8h2M17 9h1M19 9h1M26 9h2M31 9h1M17 10h1M20 10h1M23 10h3M29 10h2M21 11h2M27 11h2M24 12h3M20 13h4" />
<path stroke="#f0b541" d="M20 0h1M19 3h1M18 6h1M18 7h1M31 7h1M18 8h1M18 9h1M18 10h1M27 10h1M19 11h1M23 11h3M20 12h3" />
<path stroke="#ffee83" d="M19 1h1M19 2h1M18 4h1M18 5h1M30 8h1M28 9h2M26 10h1" />
<path stroke="#cf752b" d="M20 1h1M19 4h1M31 8h1M30 9h1M19 10h1M28 10h1M20 11h1M26 11h1M23 12h1" />
<path stroke="#571c27" d="M14 10h3M13 11h1M12 12h1M11 13h1M10 14h1M20 14h1M9 15h1M20 15h1M9 16h1M20 16h1M9 17h1M19 17h1M10 18h1M18 18h1M11 19h1M17 19h1M12 20h1M16 20h1M13 21h3" />
<path stroke="#f5a097" d="M14 11h1M13 12h1M12 13h1M16 13h1M18 13h1M11 14h1M18 14h1M10 15h1M12 15h1M15 15h1M18 15h1M10 16h1M12 16h2M17 16h1M10 17h1M13 17h2M16 17h1M15 18h1M14 19h1" />
<path stroke="#fad6b8" d="M15 11h2M17 12h1M14 13h2M13 14h4M13 15h1M16 15h1M11 18h1M12 19h2" />
<path stroke="#e86a73" d="M17 11h1M14 12h3M18 12h1M13 13h1M17 13h1M19 13h1M12 14h1M17 14h1M19 14h1M11 15h1M14 15h1M17 15h1M19 15h1M11 16h1M14 16h3M18 16h2M11 17h2M15 17h1M17 17h2M12 18h3M16 18h2M15 19h2M13 20h3" />
<path stroke="#14182e" d="M18 11h1M19 12h1" />
</svg>