<svg xmlns="http://www.w3.org/2000/svg" viewBox="0 -0.5 32 32" shape-rendering="crispEdges">
<metadata>Made with Pixels to Svg https://codepen.io/shshaw/pen/XbxvNj</metadata>
<path stroke="#3b2027" d="M19 0h1M21 0h1M18 1h1M21 1h1M18 2h1M20 2h1M18 3h1M20 3h1M17 4h1M20 4h1M17 5h1M19 5h1M17 6h1M19 6h1M31 6h1M17 7h1M19 7h1M30 7h1M17 8h1M19 8h1M28 8h2M17 9h1M19 9h1M26 9h2M31 9h1M17 10h1M20 10h1M23 10h3M29 10h2M18 11h1M21 11h2M27 11h2M19 12h1M24 12h3M20 13h4" />
<path stroke="#cf752b" d="M20 0h1M19 1h1M19 2h1M19 3h1M18 4h1M18 5h1M18 6h1M18 7h1M31 7h1M18 8h1M30 8h1M18 9h1M28 9h2M19 10h1M26 10h2M20 11h1M23 11h3M21 12h2" />
<path stroke="#ab5130" d="M20 1h1M19 4h1M31 8h1M30 9h1M18 10h1M28 10h1M19 11h1M26 11h1M20 12h1M23 12h1" />
<path stroke="#1c121c" d="M11 10h6M10 11h1M17 11h1M9 12h1M18 12h1M8 13h1M19 13h1M7 14h1M20 14h1M7 15h1M20 15h1M7 16h1M20 16h1M7 17h1M20 17h1M7 18h1M20 18h1M7 19h1M20 19h1M8 20h1M19 20h1M9 21h1M18 21h1M10 22h1M17 22h1M11 23h6" />
<path stroke="#dba463" d="M11 11h1M16 11h1M14 12h2M11 13h6M8 14h1M10 14h5M17 14h1M19 14h1M10 15h4M17 15h2M10 16h3M16 16h3M9 17h3M15 17h3M9 18h2M14 18h4M8 19h1M10 19h1M13 19h5M19 19h1M11 20h6M12 21h2M11 22h1M16 22h1" />
<path stroke="#f4d29c" d="M12 11h4M10 12h2M16 12h2M9 13h1M18 13h1M9 14h1M18 14h1M8 15h1M19 15h1M8 16h1M19 16h1M8 17h1M19 17h1M8 18h1M19 18h1M9 19h1M18 19h1M9 20h1M18 20h1M10 21h2M16 21h2M12 22h4" />
<path stroke="#bb7547" d="M12 12h2M9 15h1M9 16h1M13 16h1M14 17h1M18 17h1M18 18h1M14 21h2" />
<path stroke="#5d2c28" d="M10 13h1M17 13h1M10 20h1M17 20h1" />
<path stroke="#ea323c" d="M15 14h2M14 15h3M14 16h2" />
<path stroke="#ffffff" d="M12 17h2M11 18h3M11 19h2" />
</svg>