<svg xmlns="http://www.w3.org/2000/svg" viewBox="0 -0.5 32 32" shape-rendering="crispEdges">
<metadata>Made with Pixels to Svg https://codepen.io/shshaw/pen/XbxvNj</metadata>
<path stroke="#391f21" d="M11 1h12M10 2h1M23 2h2M10 3h1M14 3h6M25 3h2M10 4h1M14 4h1M16 4h2M26 4h1M11 5h3M15 5h1M24 5h2M14 6h1M25 6h1M13 7h1M24 7h1M28 7h2M12 8h1M24 8h1M26 8h2M29 8h1M11 9h1M24 9h2M27 9h1M29 9h2M10 10h1M25 10h1M27 10h1M31 10h1M9 11h1M31 11h1M8 12h1M31 12h1M8 13h1M31 13h1M7 14h1M30 14h1M7 15h1M30 15h1M7 16h1M29 16h1M7 17h1M28 17h1M6 18h2M27 18h1M5 19h1M7 19h1M26 19h1M4 20h1M25 20h1M3 21h1M24 21h1M3 22h1M22 22h2M3 23h2M14 23h2M20 23h2M3 24h1M12 24h3M16 24h4M2 25h1M13 25h1M1 26h1M12 26h1M0 27h1M8 27h1M11 27h1M0 28h1M7 28h4M0 29h1M6 29h1M1 30h1M5 30h1M2 31h3" />
<path stroke="#edab50" d="M11 2h2M15 2h1M17 2h5M11 3h3M21 3h3M12 4h2M21 4h2M21 5h2M15 6h1M22 6h1M15 7h1M22 7h1M15 8h1M22 8h1M15 9h1M21 9h2M15 10h1M21 10h3M30 10h1M15 11h1M22 11h3M29 11h2M15 12h2M23 12h8M16 13h1M25 13h5M16 14h2M14 15h1M17 15h3M27 15h2M13 16h2M19 16h10M13 17h4M22 17h5M14 18h2M5 20h1M4 21h2M4 22h1M4 24h2M3 25h2M2 26h2M7 26h1M10 26h2M2 27h1M6 27h2M9 27h2M1 28h2M5 28h2M1 29h5M2 30h2" />
<path stroke="#e07438" d="M13 2h2M16 2h1M22 2h1M20 3h1M24 3h1M11 4h1M19 4h2M17 5h4M23 5h1M16 6h2M20 6h1M14 7h1M17 7h1M20 7h1M23 7h1M13 8h2M17 8h4M12 9h3M23 9h1M11 10h4M18 10h3M24 10h1M29 10h1M10 11h5M16 11h1M18 11h4M25 11h1M27 11h1M10 12h5M18 12h5M9 13h7M17 13h1M19 13h6M30 13h1M9 14h5M15 14h1M18 14h1M21 14h7M9 15h4M15 15h2M20 15h1M25 15h2M29 15h1M8 16h4M15 16h4M8 17h4M18 17h1M21 17h1M27 17h1M8 18h4M13 18h1M17 18h4M25 18h2M6 19h1M8 19h4M16 19h10M6 20h1M8 20h11M22 20h3M7 21h10M20 21h3M6 22h15M8 23h5M17 23h3M6 24h1M9 24h2M5 25h3M9 25h1M11 25h2M4 26h3M1 27h1M3 27h3M3 28h2M4 30h1" />
<path stroke="#c64524" d="M18 4h1M16 5h1M21 6h1M16 7h1M21 7h1M16 8h1M21 8h1M16 9h5M16 10h2M17 11h1M9 12h1M17 12h1M18 13h1M8 14h1M14 14h1M19 14h2M28 14h2M8 15h1M13 15h1M21 15h4M12 16h1M12 17h1M17 17h1M19 17h2M12 18h1M16 18h1M21 18h4M12 19h4M7 20h1M19 20h3M6 21h1M17 21h3M23 21h1M5 22h1M21 22h1M5 23h3M13 23h1M16 23h1M7 24h2M11 24h1M8 25h1M10 25h1M8 26h2" />
<path stroke="#c7cfdd" d="M23 4h3M23 6h2M23 8h1M28 8h1M26 9h1M28 9h1M26 10h1M28 10h1M26 11h1M28 11h1" />
<path stroke="#1c2323" d="M18 6h2M18 7h2" />
</svg>