<svg xmlns="http://www.w3.org/2000/svg" viewBox="0 -0.5 32 32" shape-rendering="crispEdges">
<metadata>Made with Pixels to Svg https://codepen.io/shshaw/pen/XbxvNj</metadata>
<path stroke="#221c1a" d="M10 0h2M9 1h1M12 1h1M9 2h1M13 2h1M9 3h1M13 3h1M15 3h2M9 4h1M13 4h2M16 4h1M8 5h1M12 5h2M16 5h1M7 6h1M13 6h1M16 6h1M7 7h1M13 7h1M16 7h1M6 8h1M15 8h1M6 9h1M15 9h1M6 10h1M15 10h1M5 11h1M16 11h1M5 12h1M16 12h1M5 13h1M16 13h1M5 14h1M17 14h1M5 15h1M17 15h1M5 16h1M14 16h1M18 16h1M6 17h1M14 17h1M18 17h1M7 18h1M13 18h1M15 18h1M19 18h1M8 19h5M15 19h1M19 19h1M16 20h1M20 20h1M16 21h1M21 21h1M17 22h1M21 22h1M18 23h1M22 23h1M18 24h1M22 24h1M19 25h1M23 25h1M19 26h1M24 26h1M20 27h1M25 27h1M20 28h1M26 28h1M21 29h1M26 29h1M22 30h1M26 30h1M23 31h3" />
<path stroke="#bb7547" d="M10 1h2M10 2h2M10 3h1M15 4h1M15 5h1M11 6h1M14 6h2M11 7h2M14 7h1M12 8h1M14 8h1M12 9h3M12 10h3M13 11h2M13 12h3M14 13h2M14 14h2M15 15h2M15 16h3M16 17h2M16 18h3M17 19h2M17 20h3M18 21h2M19 22h2M19 23h2M20 24h2M20 25h2M21 26h3M21 27h3M22 28h2M25 29h1M23 30h2" />
<path stroke="#8f4d57" d="M12 2h1M14 5h1M12 6h1M15 7h1M11 8h1M13 8h1M12 11h1M15 11h1M13 13h1M16 14h1M14 15h1M15 17h1M16 19h1M17 21h1M20 21h1M18 22h1M21 23h1M19 24h1M22 25h1M20 26h1M24 27h1M21 28h1M24 28h2M22 29h3M25 30h1" />
<path stroke="#a08662" d="M11 3h2M12 4h1M11 5h1M8 6h1M10 6h1M10 7h1M7 8h1M9 9h1M6 11h1M10 11h1M11 12h1M9 13h1M6 16h1M7 17h1M11 17h1M8 18h2" />
<path stroke="#c7b08b" d="M10 4h2M9 5h2M9 6h1M8 7h2M8 8h2M7 9h2M7 10h2M7 11h2M6 12h3M10 12h1M6 13h3M10 13h2M6 14h7M6 15h7M7 16h5M8 17h3" />
<path stroke="#796755" d="M10 8h1M10 9h2M9 10h3M9 11h1M11 11h1M9 12h1M12 12h1M12 13h1M13 14h1M13 15h1M12 16h2M12 17h2M10 18h3" />
</svg>