<svg xmlns="http://www.w3.org/2000/svg" viewBox="0 -0.5 32 32" shape-rendering="crispEdges">
<metadata>Made with Pixels to Svg https://codepen.io/shshaw/pen/XbxvNj</metadata>
<path stroke="#21181b" d="M13 6h7M10 7h3M20 7h2M8 8h2M22 8h2M7 9h1M24 9h1M6 10h1M25 10h1M5 11h1M26 11h1M5 12h1M26 12h1M4 13h1M27 13h1M4 14h1M27 14h1M4 15h1M27 15h1M4 16h1M27 16h1M4 17h1M27 17h1M4 18h1M27 18h1M4 19h1M26 19h1M5 20h1M26 20h1M5 21h1M25 21h1M6 22h1M24 22h1M7 23h1M22 23h2M8 24h2M20 24h2M10 25h10" />
<path stroke="#cf752b" d="M13 7h7M11 8h10M8 9h12M23 9h1M7 10h4M15 10h1M18 10h3M24 10h1M6 11h1M8 11h2M13 11h1M17 11h7M8 12h2M11 12h1M14 12h12M5 13h1M8 13h2M12 13h1M19 13h8M5 14h1M8 14h3M20 14h6M9 15h3M20 15h6M9 16h4M19 16h6M6 17h1M9 17h16M7 18h1M10 18h12M23 18h1M26 18h1M5 19h1M7 19h2M12 19h8M22 19h1M7 20h1M10 20h1M15 20h2M20 20h1M25 20h1M6 21h2M12 21h2M18 21h1M7 22h1M12 22h1M23 22h1M8 23h1M21 23h1M10 24h1M12 24h1M19 24h1" />
<path stroke="#ab5130" d="M10 8h1M21 8h1M7 11h1M14 11h3M25 11h1M6 12h2M12 12h2M6 13h2M11 13h1M6 14h2M11 14h1M6 15h3M6 16h3M7 17h2M8 18h2M22 18h1M9 19h3M20 19h2M11 20h4M17 20h3" />
<path stroke="#f0b541" d="M20 9h3M11 10h1M14 10h1M16 10h2M21 10h3M24 11h1M10 13h1M15 13h4M13 14h7M26 14h1M5 15h1M12 15h1M14 15h4M19 15h1M26 15h1M5 16h1M13 16h1M18 16h1M25 16h2M5 17h1M25 17h2M5 18h2M24 18h2M6 19h1M25 19h1M6 20h1M8 20h2M21 20h1M8 21h4M14 21h4M21 21h1M24 21h1M8 22h4M13 22h6M21 22h2M9 23h12M11 24h1M13 24h6" />
<path stroke="#ffee83" d="M12 10h2M10 11h3M10 12h1M13 13h2M12 14h1M23 19h2M22 20h3M19 21h2M22 21h2M19 22h2" />
<path stroke="#7d3833" d="M13 15h1M18 15h1M14 16h4" />
</svg>