<svg xmlns="http://www.w3.org/2000/svg" viewBox="0 -0.5 32 32" shape-rendering="crispEdges">
<metadata>Made with Pixels to Svg https://codepen.io/shshaw/pen/XbxvNj</metadata>
<path stroke="#5d2c28" d="M9 6h2M8 7h1M11 7h2M7 8h1M13 8h2M7 9h1M15 9h2M6 10h1M17 10h2M5 11h1M19 11h2M4 12h1M21 12h2M4 13h1M23 13h2M3 14h1M25 14h1M2 15h1M26 15h1M1 16h1M26 16h1M1 17h1M26 17h1M2 18h1M27 18h1M3 19h2M28 19h1M5 20h2M28 20h1M7 21h2M28 21h1M9 22h2M29 22h1M11 23h2M30 23h1M13 24h2M30 24h1M15 25h2M19 25h3M24 25h3M29 25h1M17 26h2M22 26h2M27 26h2" />
<path stroke="#f0b541" d="M9 7h1M8 8h1M11 8h1M8 9h3M13 9h1M9 10h4M15 10h1M6 11h1M11 11h1M13 11h2M17 11h1M5 12h1M8 12h1M13 12h4M18 12h2M5 13h3M9 13h2M15 13h1M17 13h2M21 13h1M6 14h1M8 14h2M12 14h1M17 14h5M23 14h2M3 15h1M8 15h4M13 15h2M19 15h2M22 15h1M25 15h1M2 16h2M10 16h1M12 16h2M16 16h1M22 16h1M25 16h1M3 17h2M7 17h1M12 17h4M18 17h1M23 17h2M4 18h4M9 18h1M14 18h5M20 18h2M25 18h2M6 19h1M8 19h1M11 19h1M16 19h2M19 19h1M22 19h1M24 19h1M27 19h1M8 20h4M13 20h1M19 20h1M22 20h1M24 20h1M27 20h1M10 21h1M12 21h1M15 21h1M20 21h2M25 21h2M12 22h4M17 22h2M22 22h2M27 22h2M14 23h1M16 23h1M19 23h1M21 23h1M24 23h1M26 23h1M29 23h1M16 24h1M19 24h1M21 24h1M24 24h1M26 24h1M29 24h1M17 25h2M22 25h2M27 25h2" />
<path stroke="#cf752b" d="M10 7h1M12 8h1M14 9h1M8 10h1M13 10h1M16 10h1M7 11h1M10 11h1M12 11h1M18 11h1M9 12h1M12 12h1M17 12h1M20 12h1M8 13h1M11 13h1M14 13h1M16 13h1M22 13h1M5 14h1M7 14h1M13 14h1M16 14h1M4 15h1M7 15h1M12 15h1M15 15h1M18 15h1M6 16h1M9 16h1M11 16h1M17 16h1M20 16h1M2 17h1M8 17h1M11 17h1M19 17h1M3 18h1M8 18h1M10 18h1M13 18h1M5 19h1M7 19h1M12 19h1M15 19h1M7 20h1M12 20h1M14 20h1M17 20h1M9 21h1M11 21h1M16 21h1M11 22h1M13 23h1" />
<path stroke="#ffd541" d="M9 8h2M11 9h2M14 10h1M15 11h2M6 12h2M19 13h2M10 14h2M4 16h2M14 16h2M5 17h2M16 17h2M9 19h2M13 21h2" />
<path stroke="#7d3833" d="M7 10h1M8 11h2M10 12h2M12 13h2M4 14h1M14 14h2M22 14h1M5 15h2M16 15h2M21 15h1M23 15h2M7 16h2M18 16h2M21 16h1M9 17h2M20 17h1M22 17h1M25 17h1M11 18h2M19 18h1M23 18h2M13 19h2M18 19h1M20 19h2M23 19h1M25 19h2M15 20h2M18 20h1M23 20h1M17 21h1M23 21h1M27 21h1M16 22h1M19 22h3M24 22h1M15 23h1M17 23h2M20 23h1M22 23h2M25 23h1M27 23h2M15 24h1M20 24h1M25 24h1" />
<path stroke="#ab5130" d="M23 16h2M21 17h1M22 18h1M20 20h2M25 20h2M18 21h2M22 21h1M24 21h1M25 22h2M17 24h2M22 24h2M27 24h2" />
</svg>