<svg xmlns="http://www.w3.org/2000/svg" viewBox="0 -0.5 32 32" shape-rendering="crispEdges">
<metadata>Made with Pixels to Svg https://codepen.io/shshaw/pen/XbxvNj</metadata>
<path stroke="#5d2c28" d="M20 7h4M18 8h2M24 8h2M16 9h2M26 9h2M14 10h2M28 10h2M12 11h2M30 11h2M10 12h2M31 12h1M8 13h2M31 13h1M6 14h2M31 14h1M4 15h2M29 15h2M2 16h2M27 16h2M0 17h2M25 17h2M0 18h1M23 18h2M0 19h1M21 19h2M0 20h1M19 20h2M1 21h2M17 21h2M3 22h2M15 22h2M5 23h2M13 23h2M7 24h2M11 24h2M9 25h2" />
<path stroke="#cf752b" d="M20 8h1M18 9h2M22 9h2M16 10h1M20 10h2M25 10h2M14 11h2M18 11h2M23 11h2M28 11h2M12 12h1M16 12h2M20 12h3M26 12h2M10 13h1M14 13h2M19 13h2M24 13h2M29 13h2M8 14h1M12 14h3M17 14h2M22 14h3M27 14h3M6 15h2M10 15h2M15 15h2M20 15h2M25 15h3M4 16h1M8 16h2M13 16h2M18 16h2M23 16h3M2 17h1M6 17h2M10 17h3M15 17h3M20 17h4M4 18h2M9 18h2M14 18h2M19 18h3M2 19h2M7 19h2M12 19h3M17 19h3M6 20h1M10 20h2M15 20h3M6 21h1M8 21h2M13 21h3M8 22h1M11 22h3M10 23h2" />
<path stroke="#f0b541" d="M21 8h3M20 9h2M24 9h2M17 10h3M22 10h3M27 10h1M16 11h2M20 11h3M25 11h3M13 12h3M18 12h2M23 12h3M28 12h3M11 13h3M16 13h3M21 13h3M26 13h3M9 14h3M15 14h2M19 14h3M25 14h2M8 15h2M12 15h3M17 15h3M22 15h3M5 16h3M10 16h3M15 16h3M20 16h3M3 17h3M8 17h2M13 17h2M18 17h2M1 18h3M6 18h3M11 18h3M16 18h3M4 19h3M9 19h3M15 19h2M5 20h1M7 20h3M12 20h3M7 21h1M10 21h3M9 22h2" />
<path stroke="#ab5130" d="M30 14h1M28 15h1M26 16h1M24 17h1M22 18h1M1 19h1M20 19h1M1 20h4M18 20h1M3 21h3M16 21h1M5 22h3M14 22h1M7 23h3M12 23h1M9 24h2" />
</svg>