<svg xmlns="http://www.w3.org/2000/svg" viewBox="0 -0.5 32 32" shape-rendering="crispEdges">
<metadata>Made with Pixels to Svg https://codepen.io/shshaw/pen/XbxvNj</metadata>
<path stroke="#221c1a" d="M16 6h2M19 6h2M15 7h1M18 7h1M21 7h1M14 8h1M19 8h1M21 8h1M14 9h1M20 9h1M13 10h1M21 10h1M13 11h1M22 11h1M13 12h1M23 12h1M14 13h1M24 13h1M14 14h3M25 14h1M14 15h1M17 15h3M26 15h1M14 16h1M17 16h1M20 16h3M26 16h1M13 17h1M16 17h1M23 17h4M13 18h1M16 18h1M12 19h1M15 19h1M12 20h1M15 20h1M11 21h1M14 21h1M11 22h1M14 22h1M10 23h1M13 23h1M9 24h1M13 24h1M8 25h1M12 25h1M8 26h1M12 26h1M8 27h1M11 27h1M9 28h2" />
<path stroke="#3d3d3d" d="M16 7h1M15 8h1M17 8h2M17 9h1M14 10h1M16 10h1M14 11h1M16 11h1M14 12h3M15 13h2" />
<path stroke="#5d5d5d" d="M17 7h1M16 8h1M15 9h2M18 9h1M15 10h1M17 10h1M15 11h1M17 13h1M17 14h2M20 15h1M23 16h1" />
<path stroke="#8f4d57" d="M19 7h1M15 15h2M15 16h2M15 18h1M12 24h1M9 25h1M9 26h3M9 27h2" />
<path stroke="#bb7547" d="M20 7h1M20 8h1M14 17h2M14 18h1M13 19h2M13 20h2M12 21h2M12 22h2M11 23h2M10 24h2M10 25h2" />
<path stroke="#858585" d="M19 9h1M18 10h3M17 11h5M17 12h6M18 13h6M19 14h6M21 15h5M24 16h2" />
</svg>