<svg xmlns="http://www.w3.org/2000/svg" viewBox="0 -0.5 32 32" shape-rendering="crispEdges">
<metadata>Made with Pixels to Svg https://codepen.io/shshaw/pen/XbxvNj</metadata>
<path stroke="#1c121c" d="M12 4h2M15 4h2M20 4h2M8 5h2M11 5h1M13 5h1M15 5h1M17 5h1M19 5h1M21 5h1M8 6h1M10 6h2M13 6h1M15 6h1M18 6h1M21 6h1M8 7h1M10 7h1M14 7h2M18 7h1M20 7h1M6 8h2M21 8h4M6 9h1M24 9h1M7 10h2M21 10h1M23 10h1M6 11h1M21 11h4M6 12h3M24 12h1M8 13h2M23 13h2M5 14h3M21 14h2M5 15h1M22 15h1M6 16h1M9 16h1M23 16h2M7 17h3M25 17h1M6 18h1M23 18h3M5 19h1M22 19h1M5 20h3M23 20h1M7 21h1M24 21h1M6 22h1M20 22h5M5 23h1M9 23h2M13 23h1M17 23h1M21 23h1M5 24h4M10 24h1M13 24h2M16 24h1M18 24h1M22 24h1M9 25h1M12 25h1M14 25h1M16 25h1M19 25h1M22 25h1M9 26h3M15 26h2M20 26h3" />
<path stroke="#bf6f4a" d="M12 5h1M16 5h1M9 6h1M20 6h1M17 7h1M10 8h1M12 8h1M14 8h1M16 8h1M19 8h1M7 9h3M12 9h2M17 9h2M20 9h1M23 9h1M8 11h1M10 11h1M13 11h2M17 11h1M13 12h1M18 12h1M20 12h1M23 12h1M18 13h1M20 13h1M9 14h3M20 14h1M8 15h1M13 15h1M15 15h1M19 15h1M7 16h1M20 16h2M17 17h1M24 17h1M7 18h1M10 18h2M13 18h1M20 18h1M6 19h1M9 19h2M15 19h1M20 19h1M12 20h1M16 20h1M18 20h1M20 20h2M8 21h1M12 21h1M20 21h1M10 22h1M13 22h2M16 22h1M19 22h1M8 23h1M11 23h2M16 23h1M18 23h1M11 24h2M20 24h1M10 25h2M15 25h1M20 25h2" />
<path stroke="#e69c69" d="M20 5h1M12 6h1M16 6h1M19 6h1M9 7h1M12 7h1M16 7h1M19 7h1M9 8h1M17 8h1M21 9h2M9 11h1M11 11h2M15 11h2M18 11h2M21 12h2M13 13h1M22 13h1M13 14h1M6 15h2M9 15h3M16 15h3M20 15h2M13 16h1M22 16h1M13 17h1M22 17h2M8 18h2M17 18h1M7 19h2M11 19h4M17 19h1M19 19h1M17 20h1M19 20h1M16 21h1M21 21h3M7 22h3M11 22h2M15 22h1M6 23h2M15 23h1M19 23h1M15 24h1" />
<path stroke="#5d2c28" d="M17 6h1M18 8h1M13 10h1M16 10h1M12 12h1M16 12h2M16 13h1M15 16h1M22 18h1M17 21h1" />
<path stroke="#8a4836" d="M11 7h1M13 7h1M8 8h1M11 8h1M13 8h1M15 8h1M20 8h1M10 9h2M14 9h1M19 9h1M9 10h1M12 10h1M17 10h2M20 10h1M22 10h1M7 11h1M20 11h1M9 12h2M14 12h1M10 13h1M21 13h1M8 14h1M12 14h1M14 14h2M18 14h2M12 15h1M14 15h1M8 16h1M12 16h1M14 16h1M17 16h1M19 16h1M10 17h1M14 17h1M20 17h2M12 18h1M14 18h1M16 18h1M18 18h1M21 18h1M16 19h1M18 19h1M13 20h1M22 20h1M9 21h1M11 21h1M15 21h1M18 21h2M17 22h2M14 23h1M20 23h1M19 24h1M21 24h1" />
<path stroke="#391f21" d="M15 9h2M10 10h2M14 10h2M19 10h1M11 12h1M15 12h1M19 12h1M11 13h2M14 13h2M17 13h1M19 13h1M16 14h2M10 16h2M16 16h1M18 16h1M11 17h2M15 17h2M18 17h2M15 18h1M19 18h1M21 19h1M8 20h4M14 20h2M10 21h1M13 21h2" />
</svg>