<svg xmlns="http://www.w3.org/2000/svg" viewBox="0 -0.5 32 32" shape-rendering="crispEdges">
<metadata>Made with Pixels to Svg https://codepen.io/shshaw/pen/XbxvNj</metadata>
<path stroke="#221c1a" d="M16 6h3M16 7h1M19 7h1M15 8h2M19 8h1M15 9h1M20 9h1M15 10h1M20 10h1M15 11h1M20 11h1M15 12h1M20 12h1M15 13h1M20 13h1M15 14h1M20 14h1M15 15h1M20 15h1M15 16h1M20 16h1M16 17h1M19 17h1M16 18h1M19 18h1M15 19h1M18 19h1M14 20h1M18 20h1M13 21h1M17 21h1M12 22h1M16 22h1M11 23h1M15 23h1M11 24h1M14 24h1M12 25h2" />
<path stroke="#8f4d57" d="M17 7h2M17 8h1M19 9h1M19 16h1M17 17h1M17 20h1M13 22h1M15 22h1M12 23h3M12 24h2" />
<path stroke="#bb7547" d="M18 8h1M18 9h1M18 10h2M18 11h2M18 12h2M18 13h2M18 14h2M18 15h2M18 16h1M18 17h1M17 18h2M16 19h2M15 20h2M14 21h3M14 22h1" />
<path stroke="#5d5d5d" d="M16 9h1M17 10h1M17 15h1M16 16h1" />
<path stroke="#3d3d3d" d="M17 9h1M17 16h1" />
<path stroke="#858585" d="M16 10h1M16 11h2M16 12h2M16 13h2M16 14h2M16 15h1" />
</svg>