<svg xmlns="http://www.w3.org/2000/svg" viewBox="0 -0.5 32 32" shape-rendering="crispEdges">
<metadata>Made with Pixels to Svg https://codepen.io/shshaw/pen/XbxvNj</metadata>
<path stroke="#221c1a" d="M19 5h3M18 6h1M22 6h1M16 7h4M22 7h1M15 8h1M20 8h2M15 9h1M22 9h2M14 10h1M24 10h1M14 11h1M25 11h1M14 12h1M25 12h1M15 13h2M25 13h1M15 14h1M17 14h2M25 14h1M14 15h1M17 15h1M19 15h2M24 15h1M14 16h1M17 16h1M21 16h3M13 17h1M16 17h1M13 18h1M16 18h1M12 19h1M15 19h1M12 20h1M15 20h1M11 21h1M14 21h1M11 22h1M14 22h1M10 23h1M13 23h1M9 24h1M13 24h1M8 25h1M12 25h1M8 26h1M12 26h1M8 27h1M11 27h1M9 28h2" />
<path stroke="#8f4d57" d="M19 6h1M16 14h1M15 15h2M16 16h1M12 24h1M9 25h1M9 26h3M9 27h2" />
<path stroke="#bb7547" d="M20 6h2M20 7h2M15 16h1M14 17h2M14 18h2M13 19h2M13 20h2M12 21h2M12 22h2M11 23h2M10 24h2M10 25h2" />
<path stroke="#3d3d3d" d="M16 8h1M18 8h2M17 9h3M17 10h2M16 11h3M15 12h3M17 13h1M19 14h1" />
<path stroke="#5d5d5d" d="M17 8h1M16 9h1M20 9h2M15 10h2M19 10h1M23 10h1M15 11h1M18 12h1M18 13h1M21 15h1" />
<path stroke="#858585" d="M20 10h3M19 11h6M19 12h6M19 13h6M20 14h5M22 15h2" />
</svg>