<svg xmlns="http://www.w3.org/2000/svg" viewBox="0 -0.5 32 32" shape-rendering="crispEdges">
<metadata>Made with Pixels to Svg https://codepen.io/shshaw/pen/XbxvNj</metadata>
<path stroke="#3b1443" d="M6 10h4M12 10h2M18 10h2M22 10h4M5 11h1M10 11h1M12 11h1M14 11h4M19 11h1M21 11h1M26 11h1M4 12h1M11 12h2M19 12h2M27 12h1M3 13h1M28 13h1M3 14h1M28 14h1M3 15h1M28 15h1M3 16h1M28 16h1M3 17h1M28 17h1M3 18h1M5 18h2M25 18h2M28 18h1M3 19h2M7 19h1M9 19h2M21 19h2M24 19h1M27 19h2M7 20h2M11 20h1M20 20h1M23 20h2M11 21h2M19 21h2M13 22h1M18 22h1M14 23h1M17 23h1M15 24h2" />
<path stroke="#f68187" d="M6 11h3M23 11h3M5 12h4M13 12h6M23 12h4M5 13h1M13 13h1M15 13h2M18 13h1M26 13h1M13 14h1M15 14h2M18 14h1M4 15h1M15 15h2M27 15h1M4 17h1M27 17h1M4 18h1M27 18h1" />
<path stroke="#c959c0" d="M9 11h1M13 11h1M18 11h1M22 11h1M9 12h2M21 12h2M6 13h6M20 13h6M4 14h5M11 14h1M20 14h1M23 14h5M5 15h3M14 15h1M17 15h1M24 15h3M4 16h4M24 16h4M5 17h3M14 17h4M24 17h3M7 18h2M13 18h6M23 18h2M8 19h1M13 19h6M23 19h1M13 20h6M14 21h4M14 22h4" />
<path stroke="#793a80" d="M4 13h1M12 13h1M14 13h1M17 13h1M19 13h1M27 13h1M9 14h2M12 14h1M14 14h1M17 14h1M19 14h1M21 14h2M8 15h6M18 15h6M8 16h16M8 17h6M18 17h6M9 18h4M19 18h4M11 19h2M19 19h2M12 20h1M19 20h1M13 21h1M18 21h1M15 23h2" />
</svg>