<svg xmlns="http://www.w3.org/2000/svg" viewBox="0 -0.5 32 32" shape-rendering="crispEdges">
<metadata>Made with Pixels to Svg https://codepen.io/shshaw/pen/XbxvNj</metadata>
<path stroke="#391f21" d="M12 7h6M4 8h2M7 8h3M11 8h1M18 8h1M4 9h1M6 9h1M9 9h2M19 9h1M2 10h2M20 10h1M1 11h1M6 11h1M21 11h1M1 12h1M6 12h1M21 12h1M1 13h1M22 13h1M1 14h1M22 14h1M1 15h4M22 15h1M27 15h4M3 16h2M22 16h1M24 16h3M31 16h1M2 17h1M22 17h2M31 17h1M2 18h1M31 18h1M3 19h7M30 19h1M7 20h1M11 20h2M26 20h4M6 21h1M10 21h1M19 21h7M6 22h4M16 22h3M9 23h7" />
<path stroke="#8a4836" d="M12 8h1M17 8h1M5 9h1M7 9h1M2 11h1M20 11h1M11 13h1M21 13h1M9 14h2M14 14h4M5 15h5M14 15h1M18 15h1M7 16h1M13 16h2M27 16h3M3 17h1M6 17h1M13 17h1M25 17h6M3 18h1M6 18h1M11 18h3M23 18h8M10 19h3M23 19h6M8 20h3M21 20h1M23 20h2M7 21h3M18 21h1M15 22h1" />
<path stroke="#bf6f4a" d="M13 8h4M8 9h1M11 9h8M4 10h16M3 11h3M7 11h13M2 12h4M7 12h14M4 13h7M12 13h9M4 14h5M11 14h3M18 14h4M10 15h4M15 15h3M19 15h3M5 16h2M8 16h5M15 16h7M4 17h2M7 17h6M14 17h8M4 18h2M7 18h4M14 18h8M13 19h9M13 20h8M11 21h7M10 22h5" />
<path stroke="#f4d29c" d="M2 13h2M2 14h2" />
<path stroke="#5d2c28" d="M30 16h1M24 17h1M22 18h1M22 19h1M29 19h1M22 20h1M25 20h1" />
</svg>