<svg xmlns="http://www.w3.org/2000/svg" viewBox="0 -0.5 32 32" shape-rendering="crispEdges">
<metadata>Made with Pixels to Svg https://codepen.io/shshaw/pen/XbxvNj</metadata>
<path stroke="#14182e" d="M9 6h7M7 7h2M16 7h2M6 8h1M18 8h1M5 9h1M19 9h1M5 10h1M19 10h1M4 11h1M20 11h1M4 12h1M16 12h7M4 13h1M14 13h2M23 13h2M4 14h1M13 14h1M25 14h1M5 15h1M12 15h1M26 15h1M5 16h1M12 16h1M26 16h1M6 17h1M11 17h1M27 17h1M7 18h2M11 18h1M27 18h1M9 19h3M27 19h1M11 20h1M27 20h1M12 21h1M26 21h1M12 22h1M26 22h1M13 23h1M25 23h1M14 24h2M23 24h2M16 25h7" />
<path stroke="#9c2a70" d="M9 7h2M14 7h1M8 8h2M11 8h5M17 8h1M7 9h7M15 9h1M7 10h1M10 10h1M14 10h1M6 11h1M19 11h1M5 12h2M15 12h1M5 13h1M16 13h2M21 13h1M5 14h1M7 14h1M12 14h1M15 14h2M18 14h1M22 14h1M24 14h1M8 15h1M15 15h3M21 15h1M6 16h1M9 16h3M16 16h2M7 17h1M13 17h1M15 17h1M9 18h1M12 18h3M12 19h1M14 19h1M12 20h1M14 20h1M26 20h1M15 21h1M13 22h1M16 22h1M25 22h1M14 23h1M19 23h1M21 23h3M16 24h1M20 24h1M22 24h1" />
<path stroke="#692464" d="M11 7h3M7 8h1M10 8h1M6 9h1M14 9h1M6 10h1M11 10h3M5 11h1M6 13h1M18 13h3M6 14h1M14 14h1M17 14h1M6 15h2M13 15h2M22 15h1M7 16h2M13 16h3M18 16h4M8 17h3M12 17h1M14 17h1M10 18h1M13 19h1M13 20h1M13 21h2M14 22h2M15 23h4M20 23h1M24 23h1M17 24h3M21 24h1" />
<path stroke="#cc2f7b" d="M15 7h1M16 8h1M16 9h3M9 10h1M15 10h2M18 10h1M8 11h1M10 11h9M7 12h1M9 12h2M13 12h2M7 13h7M22 13h1M8 14h2M11 14h1M19 14h3M23 14h1M9 15h3M18 15h3M23 15h3M22 16h1M25 16h1M16 17h6M23 17h2M26 17h1M15 18h4M21 18h1M23 18h2M26 18h1M15 19h4M21 19h2M25 19h2M15 20h11M16 21h6M23 21h3M17 22h8" />
<path stroke="#ff5277" d="M8 10h1M17 10h1M7 11h1M9 11h1M8 12h1M11 12h2M10 14h1M23 16h2M22 17h1M25 17h1M19 18h2M22 18h1M25 18h1M19 19h2M23 19h2M22 21h1" />
</svg>