<svg xmlns="http://www.w3.org/2000/svg" viewBox="0 -0.5 32 32" shape-rendering="crispEdges">
<metadata>Made with Pixels to Svg https://codepen.io/shshaw/pen/XbxvNj</metadata>
<path stroke="#391f21" d="M17 7h6M15 8h2M23 8h2M13 9h2M25 9h1M12 10h1M25 10h1M11 11h1M26 11h1M10 12h1M26 12h1M9 13h1M26 13h1M8 14h1M26 14h1M7 15h1M26 15h1M7 16h1M25 16h1M6 17h1M25 17h1M6 18h1M24 18h1M5 19h1M24 19h1M5 20h1M23 20h1M5 21h1M22 21h1M5 22h1M21 22h1M5 23h1M20 23h1M5 24h1M19 24h1M6 25h1M17 25h2M7 26h2M15 26h2M9 27h6" />
<path stroke="#cf752b" d="M17 8h1M20 8h2M15 9h1M22 9h2M18 10h1M23 10h2M13 11h1M17 11h1M20 11h1M23 11h3M12 12h1M19 12h1M21 12h5M14 13h1M20 13h5M10 14h1M16 14h1M20 14h5M15 15h1M18 15h6M9 16h1M17 16h1M19 16h4M13 17h1M18 17h5M8 18h5M15 18h1M18 18h4M7 19h8M16 19h5M6 20h14M6 21h13M6 22h12M7 23h9M8 24h5" />
<path stroke="#f0b541" d="M18 8h2M16 9h6M19 10h4M14 11h3M21 11h2M13 12h6M15 13h5M11 14h3M17 14h3M9 15h6M10 16h7M14 17h4M16 18h2" />
<path stroke="#ab5130" d="M22 8h1M24 9h1M14 10h4M12 11h1M18 11h2M11 12h1M20 12h1M13 13h1M25 13h1M9 14h1M14 14h2M8 15h1M16 15h2M25 15h1M8 16h1M18 16h1M23 16h1M11 17h2M24 17h1M7 18h1M13 18h2M22 18h1M6 19h1M15 19h1M21 19h1M22 20h1M19 21h1M21 21h1M18 22h1M20 22h1M6 23h1M16 23h1M7 24h1M13 24h1M18 24h1M8 25h3M16 25h1M10 26h2M14 26h1" />
<path stroke="#7d3833" d="M13 10h1M10 13h3M25 14h1M24 15h1M24 16h1M7 17h4M23 17h1M23 18h1M22 19h2M20 20h2M20 21h1M19 22h1M17 23h3M6 24h1M14 24h4M7 25h1M11 25h5M9 26h1M12 26h2" />
</svg>