<svg xmlns="http://www.w3.org/2000/svg" viewBox="0 -0.5 32 32" shape-rendering="crispEdges">
<metadata>Made with Pixels to Svg https://codepen.io/shshaw/pen/XbxvNj</metadata>
<path stroke="#1c121c" d="M14 7h5M12 8h2M19 8h2M11 9h1M21 9h1M10 10h1M22 10h1M9 11h1M23 11h1M8 12h1M24 12h1M8 13h1M24 13h1M7 14h1M25 14h1M7 15h1M25 15h1M7 16h1M25 16h1M7 17h1M25 17h1M7 18h1M25 18h1M8 19h1M24 19h1M8 20h1M24 20h1M9 21h1M23 21h1M10 22h1M22 22h1M11 23h1M21 23h1M12 24h2M19 24h2M14 25h5" />
<path stroke="#fa6a0a" d="M14 8h5M12 9h2M19 9h2M11 10h1M21 10h1M10 11h1M13 11h7M22 11h1M9 12h1M12 12h9M23 12h1M9 13h1M11 13h11M23 13h1M8 14h1M11 14h4M18 14h4M24 14h1M8 15h1M11 15h3M17 15h1M19 15h3M24 15h1M8 16h1M11 16h3M19 16h3M24 16h1M8 17h1M11 17h3M19 17h3M24 17h1M8 18h1M11 18h4M18 18h4M24 18h1M9 19h1M11 19h11M23 19h1M9 20h1M12 20h9M23 20h1M10 21h1M13 21h7M22 21h1M11 22h1M21 22h1M12 23h2M19 23h2M14 24h5" />
<path stroke="#df3e23" d="M14 9h5M12 10h9M11 11h2M20 11h2M10 12h2M21 12h2M10 13h1M22 13h1M9 14h2M16 14h2M22 14h2M9 15h2M15 15h2M18 15h1M22 15h2M9 16h2M15 16h4M22 16h2M9 17h2M16 17h2M22 17h2M9 18h2M22 18h2M10 19h1M22 19h1M10 20h2M21 20h2M11 21h2M20 21h2M12 22h9M14 23h5" />
<path stroke="#b4202a" d="M15 14h1M14 15h1M14 16h1M14 17h2M18 17h1M15 18h3" />
</svg>