<svg xmlns="http://www.w3.org/2000/svg" viewBox="0 -0.5 32 32" shape-rendering="crispEdges">
<metadata>Made with Pixels to Svg https://codepen.io/shshaw/pen/XbxvNj</metadata>
<path stroke="#3b2027" d="M18 6h2M17 7h1M20 7h1M20 8h1M15 11h1M14 12h1M14 13h1M16 13h1M13 14h1M16 14h1M13 15h1M15 15h1M12 16h1M15 16h1M12 17h1M14 17h1M11 18h1M14 18h1M11 19h1M13 19h1M10 20h1M13 20h1M10 21h1M12 21h1M9 22h1M12 22h1M9 23h1M11 23h1M8 24h1M11 24h1M8 25h1M11 25h1M9 26h2" />
<path stroke="#571c27" d="M15 7h2M14 8h1M17 8h2M14 9h1M19 9h2M15 10h1M21 10h2M16 11h1M23 11h1M17 12h1M24 12h1M18 13h1M24 13h1M19 14h1M23 14h1M19 15h1M22 15h1M20 16h2" />
<path stroke="#7d3833" d="M18 7h1M19 8h1M16 12h1M15 14h1M14 16h1M13 18h1M12 20h1M11 22h1M10 25h1" />
<path stroke="#ab5130" d="M19 7h1M15 12h1M15 13h1M14 14h1M14 15h1M13 16h1M13 17h1M12 18h1M12 19h1M11 20h1M11 21h1M10 22h1M10 23h1M9 24h2M9 25h1" />
<path stroke="#fa6a0a" d="M15 8h1M20 10h1M21 11h2M22 12h2M19 13h1M21 13h3M20 14h3M21 15h1" />
<path stroke="#df3e23" d="M16 8h1M15 9h1M18 9h1M19 10h1M18 11h3M18 12h4M20 13h1M20 15h1" />
<path stroke="#b4202a" d="M16 9h2M16 10h3M17 11h1" />
</svg>