<svg xmlns="http://www.w3.org/2000/svg" viewBox="0 -0.5 32 32" shape-rendering="crispEdges">
<metadata>Made with Pixels to Svg https://codepen.io/shshaw/pen/XbxvNj</metadata>
<path stroke="#1c121c" d="M13 4h4M12 5h1M17 5h2M12 6h1M19 6h1M11 7h1M20 7h1M11 8h1M20 8h1M10 9h1M21 9h1M10 10h1M22 10h1M9 11h1M22 11h1M9 12h1M23 12h1M8 13h1M23 13h1M8 14h1M24 14h1M7 15h1M25 15h1M7 16h1M25 16h1M6 17h1M25 17h1M6 18h1M25 18h1M5 19h1M24 19h1M5 20h1M24 20h1M5 21h1M23 21h1M5 22h1M23 22h1M6 23h1M22 23h1M7 24h2M22 24h1M9 25h2M21 25h1M11 26h2M21 26h1M13 27h2M20 27h1M15 28h5" />
<path stroke="#5d2c28" d="M13 5h1M16 5h1M16 6h2M16 7h1M19 7h1M16 8h1M11 9h2M15 9h1M20 9h1M15 10h1M19 10h3M14 11h1M17 11h1M14 12h1M21 12h2M13 13h1M21 13h1M13 14h1M19 14h1M23 14h1M8 15h2M12 15h1M18 15h1M23 15h2M12 16h1M18 16h1M24 16h1M11 17h1M17 17h1M24 17h1M11 18h1M17 18h1M23 18h2M10 19h1M23 19h1M10 20h1M16 20h1M22 20h2M9 21h1M20 21h1M22 21h1M9 22h1M14 22h1M21 22h2M11 23h1M21 23h1M13 24h1M20 24h2M15 25h1M20 25h1M18 26h3M19 27h1" />
<path stroke="#bf6f4a" d="M14 5h1M13 6h1M13 7h3M18 7h1M14 8h1M17 8h1M17 9h2M11 10h1M18 10h1M11 11h2M10 12h3M15 12h1M10 13h3M15 13h1M11 14h1M14 14h1M17 14h1M20 14h1M14 15h2M17 15h1M20 15h1M22 15h1M8 16h1M14 16h3M19 16h2M22 16h1M8 17h2M15 17h2M19 17h3M7 18h3M20 18h2M7 19h1M9 19h1M12 19h1M11 20h2M14 20h1M11 21h3M17 21h2M11 22h3M16 22h4M16 23h3M17 24h2" />
<path stroke="#8a4836" d="M15 5h1M14 6h2M18 6h1M12 7h1M17 7h1M12 8h2M15 8h1M18 8h2M13 9h2M16 9h1M19 9h1M12 10h1M16 10h2M10 11h1M13 11h1M18 11h4M13 12h1M16 12h1M19 12h2M9 13h1M14 13h1M16 13h3M9 14h2M12 14h1M15 14h2M18 14h1M21 14h2M10 15h2M13 15h1M16 15h1M19 15h1M21 15h1M9 16h1M13 16h1M17 16h1M21 16h1M7 17h1M10 17h1M14 17h1M18 17h1M22 17h1M10 18h1M12 18h2M16 18h1M18 18h2M6 19h1M8 19h1M11 19h1M13 19h3M18 19h4M6 20h4M13 20h1M15 20h1M17 20h1M20 20h1M7 21h2M10 21h1M14 21h1M16 21h1M19 21h1M10 22h1M12 23h2M15 23h1M19 23h1M15 24h2M16 25h3" />
<path stroke="#391f21" d="M13 10h2M15 11h2M17 12h2M19 13h2M22 13h1M10 16h2M23 16h1M12 17h2M23 17h1M14 18h2M22 18h1M16 19h2M22 19h1M18 20h2M21 20h1M6 21h1M15 21h1M21 21h1M6 22h3M15 22h1M20 22h1M7 23h4M14 23h1M20 23h1M9 24h4M14 24h1M19 24h1M11 25h4M19 25h1M13 26h5M15 27h4" />
</svg>