<svg xmlns="http://www.w3.org/2000/svg" viewBox="0 -0.5 32 32" shape-rendering="crispEdges">
<metadata>Made with Pixels to Svg https://codepen.io/shshaw/pen/XbxvNj</metadata>
<path stroke="#141013" d="M15 0h4M14 1h1M19 1h1M14 2h1M16 2h2M19 2h1M14 3h1M19 3h1M11 4h4M19 4h2M10 5h1M14 5h1M19 5h1M21 5h1M9 6h1M14 6h1M19 6h1M22 6h1M8 7h1M14 7h1M19 7h1M23 7h1M8 8h1M23 8h1M8 9h1M23 9h1M8 10h1M23 10h1M8 11h1M23 11h1M8 12h1M23 12h1M8 13h1M23 13h1M8 14h1M23 14h1M8 15h1M23 15h1M8 16h1M23 16h1M8 17h1M23 17h1M8 18h1M23 18h1M8 19h1M23 19h1M8 20h1M23 20h1M8 21h1M23 21h1M8 22h1M23 22h1M8 23h1M23 23h1M8 24h1M23 24h1M8 25h1M23 25h1M8 26h1M23 26h1M8 27h1M23 27h1M8 28h1M23 28h1M9 29h1M22 29h1M10 30h2M20 30h2M12 31h8" />
<path stroke="#cc2f7b" d="M15 1h1M18 1h1M15 5h1M18 5h1M15 6h4M16 7h2" />
<path stroke="#ff5277" d="M16 1h2M15 2h1M18 2h1M15 3h4M15 4h4M16 5h2" />
<path stroke="#92a1b9" d="M11 5h3M20 5h1M9 11h1M11 11h1M9 12h2M9 13h1M12 13h4M9 18h1M9 19h1M9 20h1M9 21h1M9 22h1M9 23h1M9 24h1M22 24h1M9 25h1M9 26h1M9 27h1M22 27h1M9 28h2M21 28h2M10 29h3M19 29h3M12 30h8" />
<path stroke="#c7cfdd" d="M10 6h1M21 6h1M9 7h1M22 7h1M9 8h1M22 8h1M9 9h1M9 10h1M10 11h1M22 11h1M11 12h3M21 12h2M16 13h4M9 14h1M22 14h1M9 15h1M9 16h1M9 17h1M22 18h1M22 19h1M22 20h1M22 21h1M22 22h1M22 23h1M22 25h1M22 26h1" />
<path stroke="#8a4836" d="M11 6h3M20 6h1M10 7h2M21 7h1M10 8h1M21 8h1M10 9h1M21 9h1M10 10h1M21 10h1M12 11h1M19 11h1M11 13h1M20 13h2M11 14h3M11 15h3M11 16h3M12 17h2M21 17h1M12 18h1M21 18h1M10 19h1M12 19h1M21 19h1M10 20h1M12 20h2M21 20h1M10 21h1M12 21h2M21 21h1M10 22h1M12 22h2M21 22h1M10 23h1M12 23h2M21 23h1M10 24h1M12 24h2M21 24h1M10 25h1M12 25h2M21 25h1M10 26h1M12 26h2M21 26h1M10 27h1M12 27h3M21 27h1M11 28h10M13 29h6" />
<path stroke="#bf6f4a" d="M12 7h2M20 7h1M14 8h1M19 8h1M11 10h1M20 10h1M13 11h6M10 13h1M14 14h1M20 14h2M16 15h2M21 15h1M10 16h1M15 16h2M21 16h1M11 17h1M15 17h1M10 18h2M13 18h1M11 19h1M13 19h1M15 24h1M18 24h2M11 25h1M15 25h5M14 26h1M16 26h3M11 27h1M15 27h1M20 27h1" />
<path stroke="#9c2a70" d="M15 7h1M18 7h1M15 8h4" />
<path stroke="#e69c69" d="M11 8h3M20 8h1M11 9h10M12 10h8M10 14h1M15 14h5M10 15h1M14 15h2M18 15h3M14 16h1M17 16h4M10 17h1M14 17h1M16 17h5M14 18h7M14 19h7M11 20h1M14 20h7M11 21h1M14 21h7M11 22h1M14 22h7M11 23h1M14 23h7M11 24h1M14 24h1M16 24h2M20 24h1M14 25h1M20 25h1M11 26h1M15 26h1M19 26h2M16 27h4" />
<path stroke="#ffffff" d="M22 9h1M22 10h1M20 11h2M14 12h7M22 13h1M22 15h1M22 16h1M22 17h1" />
</svg>