<svg xmlns="http://www.w3.org/2000/svg" viewBox="0 -0.5 32 32" shape-rendering="crispEdges">
<metadata>Made with Pixels to Svg https://codepen.io/shshaw/pen/XbxvNj</metadata>
<path stroke="#221c1a" d="M23 3h2M21 4h2M24 4h1M19 5h2M24 5h1M18 6h1M23 6h1M18 7h1M22 7h1M17 8h1M21 8h1M17 9h1M21 9h1M10 10h8M20 10h1M9 11h1M17 11h1M20 11h1M8 12h1M16 12h2M20 12h1M7 13h1M16 13h1M20 13h2M7 14h1M13 14h3M20 14h1M22 14h1M7 15h1M20 15h1M22 15h1M8 16h1M19 16h1M22 16h1M9 17h1M18 17h1M22 17h1M10 18h9M22 18h1M18 19h1M22 19h1M11 20h7M22 20h1M10 21h1M21 21h1M9 22h1M20 22h1M8 23h1M12 23h8M8 24h1M11 24h1M8 25h1M10 25h1M8 26h1M10 26h1M9 27h2" />
<path stroke="#71413b" d="M23 4h1M23 5h1M19 6h1M22 6h1M21 7h1M18 8h1M20 9h1M13 11h4M14 12h2M14 13h2M17 13h1M12 14h1M16 14h1M21 14h1M8 15h1M20 16h1M10 17h1M17 17h1M19 17h1M19 18h1M18 20h1M21 20h1M11 21h1M19 22h1M9 23h1M11 23h1M9 24h2M9 25h1M9 26h1" />
<path stroke="#bb7547" d="M21 5h1M19 7h1M19 8h2M18 9h2M19 10h1M12 11h1M11 12h3M8 13h6M8 14h1M11 14h1M17 14h1M14 15h1M19 15h1M21 15h1M9 16h1M14 16h1M18 16h1M11 17h6M20 17h1M19 19h1M12 21h2M16 21h1M20 21h1M10 22h9M10 23h1" />
<path stroke="#dba463" d="M22 5h1M20 6h2M20 7h1M18 10h1M10 11h2M18 11h2M9 12h2M18 12h2M18 13h2M9 14h2M18 14h2M9 15h5M15 15h4M10 16h4M15 16h3M21 16h1M21 17h1M20 18h2M20 19h2M19 20h2M14 21h2M17 21h3" />
</svg>