<svg xmlns="http://www.w3.org/2000/svg" viewBox="0 -0.5 32 32" shape-rendering="crispEdges">
<metadata>Made with Pixels to Svg https://codepen.io/shshaw/pen/XbxvNj</metadata>
<path stroke="#122020" d="M20 3h2M19 4h1M21 4h1M18 5h1M21 5h1M17 6h1M21 6h1M11 7h7M21 7h1M9 8h2M21 8h1M8 9h1M22 9h1M7 10h1M23 10h1M7 11h1M24 11h1M6 12h1M25 12h1M6 13h1M25 13h1M6 14h1M26 14h1M5 15h1M26 15h1M5 16h1M26 16h1M5 17h1M26 17h1M5 18h1M26 18h1M5 19h1M26 19h1M5 20h1M25 20h1M5 21h1M25 21h1M6 22h1M24 22h1M6 23h1M23 23h1M7 24h1M22 24h1M8 25h2M20 25h2M9 26h1M12 26h8M9 27h3" />
<path stroke="#ff0040" d="M20 4h1M19 5h2M19 6h2M18 7h3M17 8h4M16 9h5M16 10h4M15 11h5M14 12h6M13 13h7M15 14h4M17 15h2" />
<path stroke="#891e2b" d="M18 6h1M15 10h1M20 10h1M14 11h1M13 14h2M19 14h1M14 15h3M16 16h3" />
<path stroke="#e07438" d="M11 8h1M16 8h1M9 9h1M21 9h1M8 10h1M12 10h1M12 11h1M20 11h1M7 12h1M9 12h1M22 12h1M24 12h1M9 13h2M21 13h1M10 14h1M12 14h1M19 15h1M8 17h2M11 17h1M22 17h2M17 18h1M21 18h2M24 18h1M7 19h1M9 20h1M16 20h1M18 20h2M24 21h1M10 22h1M23 22h1M14 23h1M19 23h1M21 23h2M20 24h2M16 25h4" />
<path stroke="#edab50" d="M12 8h4M10 9h6M9 10h3M13 10h2M21 10h2M8 11h4M13 11h1M21 11h3M8 12h1M10 12h4M20 12h2M23 12h1M7 13h2M11 13h2M20 13h1M22 13h3M7 14h3M11 14h1M20 14h5M7 15h5M20 15h5M7 16h5M19 16h6M7 17h1M10 17h1M18 17h4M24 17h1M7 18h4M18 18h3M23 18h1M8 19h3M17 19h7M8 20h1M10 20h1M17 20h1M20 20h3M8 21h3M16 21h6M9 22h1M15 22h6M15 23h4" />
<path stroke="#c64524" d="M25 14h1M6 15h1M25 15h1M6 16h1M25 16h1M6 17h1M25 17h1M6 18h1M25 18h1M6 19h1M24 19h2M6 20h2M23 20h2M6 21h2M22 21h2M7 22h2M21 22h2M7 23h3M20 23h1M8 24h2M14 24h6M13 25h3" />
<path stroke="#c7cfdd" d="M12 15h1M15 16h1M17 17h1M11 18h1M16 19h1M15 21h1M10 23h1M13 24h1" />
<path stroke="#ffffff" d="M13 15h1M12 16h3M12 17h5M12 18h5M11 19h5M11 20h5M11 21h4M11 22h4M11 23h3M10 24h3M10 25h3M10 26h2" />
</svg>