<svg xmlns="http://www.w3.org/2000/svg" viewBox="0 -0.5 32 32" shape-rendering="crispEdges">
<metadata>Made with Pixels to Svg https://codepen.io/shshaw/pen/XbxvNj</metadata>
<path stroke="#2b2b45" d="M16 6h6M15 7h1M22 7h1M14 8h1M23 8h1M13 9h1M24 9h1M12 10h1M25 10h1M11 11h1M25 11h1M11 12h1M25 12h1M10 13h1M25 13h1M9 14h1M25 14h1M9 15h1M25 15h1M8 16h1M24 16h1M8 17h1M23 17h1M7 18h1M22 18h1M7 19h1M21 19h1M6 20h1M19 20h2M6 21h1M18 21h1M6 22h1M16 22h2M6 23h1M14 23h2M6 24h1M12 24h2M7 25h5" />
<path stroke="#0098dc" d="M16 7h1M21 7h1M14 9h1M13 10h3M13 11h2M12 12h3M16 12h1M12 13h4M12 14h2M15 14h1M17 14h1M24 14h1M10 15h1M13 15h1M15 15h2M19 15h1M23 15h2M10 16h2M13 16h1M16 16h2M21 16h3M10 17h5M17 17h5M10 18h10M8 19h1M10 19h5M8 20h2M11 20h3M16 20h3M7 21h3M15 21h2M7 22h2M11 23h2M8 24h3" />
<path stroke="#00cdf9" d="M17 7h2M16 8h2M22 8h1M16 9h2M22 9h1M16 10h1M21 10h2M24 10h1M16 11h1M21 11h2M20 12h2M20 13h2M19 14h2M20 15h1" />
<path stroke="#94fdff" d="M19 7h2M18 8h4M18 9h4M23 9h1M17 10h4M23 10h1M17 11h4M23 11h2M17 12h3M22 12h3M17 13h3M22 13h3M18 14h1M21 14h3M21 15h2" />
<path stroke="#0069aa" d="M15 8h1M15 9h1M12 11h1M15 11h1M15 12h1M11 13h1M16 13h1M10 14h2M14 14h1M16 14h1M11 15h2M14 15h1M17 15h2M9 16h1M12 16h1M14 16h2M18 16h3M9 17h1M15 17h2M22 17h1M8 18h2M20 18h2M9 19h1M15 19h6M7 20h1M10 20h1M14 20h2M10 21h5M17 21h1M9 22h7M7 23h4M13 23h1M7 24h1M11 24h1" />
</svg>