<svg xmlns="http://www.w3.org/2000/svg" viewBox="0 -0.5 32 32" shape-rendering="crispEdges">
<metadata>Made with Pixels to Svg https://codepen.io/shshaw/pen/XbxvNj</metadata>
<path stroke="#221c1a" d="M22 0h2M22 1h1M24 1h1M28 1h3M22 2h1M24 2h1M27 2h1M30 2h1M22 3h1M24 3h1M26 3h1M30 3h1M21 4h1M24 4h2M29 4h1M21 5h1M24 5h1M28 5h1M21 6h1M27 6h1M21 7h1M26 7h5M21 8h1M31 8h1M20 9h1M28 9h4M19 10h1M23 10h5M18 11h1M22 11h1M17 12h1M21 12h1M16 13h1M20 13h1M15 14h1M19 14h1M14 15h1M18 15h1M13 16h1M17 16h1M12 17h1M16 17h1M11 18h1M15 18h1M10 19h1M14 19h1M9 20h1M13 20h1M8 21h1M12 21h1M7 22h1M11 22h1M6 23h1M10 23h1M5 24h1M9 24h1M4 25h1M8 25h1M3 26h1M7 26h1M2 27h1M6 27h1M1 28h1M5 28h1M0 29h1M4 29h1M0 30h1M3 30h1M1 31h2" />
<path stroke="#a1c4aa" d="M23 1h1M23 2h1M28 2h2M23 3h1M27 3h3M23 4h1M26 4h3M23 5h1M25 5h3M23 6h1M25 6h2M25 8h6" />
<path stroke="#525e56" d="M22 4h1M22 8h1M22 9h2M27 9h1" />
<path stroke="#6c8e75" d="M22 5h1M22 6h1M24 6h1M22 7h4M23 8h2M24 9h3" />
<path stroke="#9d8b2a" d="M21 9h1M21 10h2M2 28h1M1 29h3M1 30h2" />
<path stroke="#d4b541" d="M20 10h1M19 11h3M18 12h3M17 13h3M16 14h3M15 15h3M14 16h3M13 17h3M12 18h3M11 19h3M10 20h3M9 21h3M8 22h3M7 23h3M6 24h3M5 25h3M4 26h3M3 27h3M3 28h2" />
</svg>