<svg xmlns="http://www.w3.org/2000/svg" viewBox="0 -0.5 32 32" shape-rendering="crispEdges">
<metadata>Made with Pixels to Svg https://codepen.io/shshaw/pen/XbxvNj</metadata>
<path stroke="#221c1a" d="M23 7h3M21 8h2M26 8h2M19 9h2M28 9h2M17 10h2M30 10h1M15 11h2M31 11h1M13 12h2M31 12h1M11 13h2M31 13h1M9 14h2M29 14h2M7 15h2M27 15h2M5 16h2M25 16h2M3 17h2M23 17h2M1 18h2M21 18h2M0 19h1M19 19h2M0 20h1M17 20h2M0 21h1M15 21h2M0 22h2M13 22h2M2 23h2M11 23h2M4 24h2M9 24h2M6 25h3" />
<path stroke="#d4b541" d="M23 8h3M22 9h6M20 10h10M18 11h13M15 12h4M21 12h3M25 12h4M13 13h4M19 13h3M24 13h3M11 14h3M17 14h3M22 14h3M9 15h4M14 15h1M16 15h3M20 15h3M8 16h4M15 16h6M6 17h4M12 17h7M3 18h14M1 19h14M3 20h10M8 21h3M7 22h2" />
<path stroke="#9d8b2a" d="M21 9h1M19 10h1M17 11h1M19 12h2M24 12h1M29 12h2M17 13h2M22 13h2M27 13h4M14 14h3M20 14h2M25 14h4M13 15h1M15 15h1M19 15h1M23 15h4M7 16h1M12 16h3M21 16h4M5 17h1M10 17h2M19 17h4M17 18h4M15 19h4M2 20h1M13 20h4M4 21h4M11 21h4M6 22h1M9 22h4M8 23h3M8 24h1" />
<path stroke="#696a2a" d="M1 20h1M1 21h3M2 22h4M4 23h4M6 24h2" />
</svg>