<svg xmlns="http://www.w3.org/2000/svg" viewBox="0 -0.5 32 32" shape-rendering="crispEdges">
<metadata>Made with Pixels to Svg https://codepen.io/shshaw/pen/XbxvNj</metadata>
<path stroke="#221c1a" d="M13 0h4M12 1h1M17 1h1M10 2h2M18 2h3M9 3h1M21 3h1M8 4h1M22 4h1M8 5h1M22 5h1M8 6h1M22 6h1M8 7h1M22 7h1M9 8h1M22 8h1M9 9h1M22 9h1M9 10h1M21 10h1M10 11h1M21 11h1M10 12h1M21 12h1M10 13h1M21 13h1M10 14h1M20 14h1M8 15h3M20 15h1M7 16h1M11 16h1M20 16h4M7 17h1M11 17h1M20 17h1M24 17h1M7 18h1M20 18h1M25 18h1M8 19h1M19 19h1M25 19h1M8 20h1M19 20h1M25 20h1M9 21h1M25 21h1M10 22h1M24 22h1M11 23h1M23 23h1M11 24h1M23 24h1M11 25h1M22 25h1M12 26h1M22 26h1M12 27h1M21 27h1M12 28h1M20 28h1M12 29h1M20 29h1M13 30h1M19 30h1M14 31h5" />
<path stroke="#d4b541" d="M13 1h2M16 1h1M14 2h3M10 3h1M13 3h3M19 3h2M9 4h4M14 4h3M18 4h4M9 5h1M11 5h2M14 5h1M16 5h3M20 5h2M9 6h3M13 6h4M18 6h4M10 7h4M15 7h5M21 7h1M10 8h1M12 8h4M17 8h5M10 9h4M15 9h3M19 9h2M11 10h1M13 10h3M17 10h4M11 11h8M20 11h1M11 12h10M11 13h2M14 13h4M19 13h1M11 14h9M12 15h4M17 15h3M8 16h2M12 16h8M8 17h3M12 17h8M22 17h2M9 18h3M13 18h1M15 18h4M21 18h1M23 18h1M9 19h3M13 19h4M18 19h1M21 19h4M10 20h1M12 20h7M20 20h3M24 20h1M10 21h9M20 21h4M11 22h2M14 22h5M20 22h1M22 22h2M12 23h11M12 24h10M13 25h9M13 26h8M13 27h8M14 28h5" />
<path stroke="#c8cec1" d="M15 1h1M13 2h1M11 3h1M16 3h1M10 5h1M15 5h1M19 5h1M12 6h1M17 6h1M14 7h1M20 7h1M11 8h1M16 8h1M14 9h1M18 9h1M12 10h1M16 10h1M19 11h1M13 13h1M18 13h1M16 15h1M14 18h1M22 18h1M17 19h1M11 20h1M23 20h1M13 22h1M21 22h1" />
<path stroke="#9d8b2a" d="M12 2h1M17 2h1M12 3h1M17 3h2M13 4h1M17 4h1M13 5h1M9 7h1M21 9h1M10 10h1M20 13h1M11 15h1M10 16h1M21 17h1M8 18h1M12 18h1M19 18h1M24 18h1M12 19h1M20 19h1M9 20h1M19 21h1M24 21h1M19 22h1M22 24h1M12 25h1M21 26h1M13 28h1M19 28h1M13 29h7M14 30h5" />
</svg>