<svg xmlns="http://www.w3.org/2000/svg" viewBox="0 -0.5 32 32" shape-rendering="crispEdges">
<metadata>Made with Pixels to Svg https://codepen.io/shshaw/pen/XbxvNj</metadata>
<path stroke="#1c121c" d="M6 2h4M4 3h2M10 3h1M3 4h1M11 4h1M3 5h1M11 5h1M2 6h1M10 6h1M2 7h1M9 7h2M2 8h1M6 8h1M11 8h2M2 9h1M5 9h2M13 9h1M3 10h2M6 10h1M14 10h1M6 11h1M15 11h2M6 12h1M17 12h1M7 13h1M18 13h1M7 14h1M19 14h2M7 15h1M21 15h2M8 16h1M23 16h1M8 17h1M24 17h1M9 18h1M25 18h1M9 19h1M26 19h1M10 20h1M27 20h1M10 21h1M28 21h1M11 22h1M28 22h1M11 23h1M28 23h1M12 24h1M28 24h1M13 25h1M28 25h1M14 26h1M28 26h1M15 27h1M27 27h1M16 28h2M26 28h1M18 29h8" />
<path stroke="#3b7d4f" d="M6 3h1M9 3h1M4 4h1M6 5h2M9 5h1M3 6h1M5 6h1M9 8h2M4 9h1M7 9h2M12 9h1M7 10h1M10 10h2M13 10h1M7 11h1M11 11h1M9 12h1M13 12h2M16 12h1M9 13h2M14 13h1M17 13h1M8 14h1M17 14h1M8 15h4M13 15h2M16 15h4M9 16h2M22 16h1M13 17h2M16 17h2M19 17h2M14 18h1M17 18h1M20 18h1M22 18h2M10 19h1M12 19h1M23 19h1M25 19h1M12 20h2M15 20h1M25 20h2M11 21h1M15 21h2M18 21h1M24 21h1M13 22h1M18 22h2M25 22h1M27 22h1M12 23h1M15 23h1M21 23h1M26 23h2M13 24h1M19 24h1M27 24h1M14 25h1M18 25h3M27 25h1M15 26h1M17 26h4M26 26h1M16 27h1M19 27h3M25 27h2M18 28h1M22 28h3" />
<path stroke="#5fb387" d="M7 3h2M5 4h6M4 5h2M10 5h1M4 6h1M6 6h2M3 7h2M6 7h3M3 8h1M7 8h2M3 9h1M9 9h3M8 10h2M12 10h1M8 11h3M12 11h3M8 12h1M10 12h3M15 12h1M8 13h1M11 13h3M15 13h2M9 14h8M12 15h1M15 15h1M11 16h11M10 17h3M15 17h1M18 17h1M21 17h3M10 18h4M15 18h2M18 18h2M21 18h1M24 18h1M11 19h1M13 19h10M24 19h1M11 20h1M14 20h1M16 20h9M12 21h3M17 21h1M19 21h5M26 21h1M14 22h4M20 22h3M26 22h1M16 23h5M23 23h3M22 24h1M26 24h1M21 25h1M26 25h1M16 26h1M21 26h1M25 26h1M17 27h2M22 27h3M19 28h3" />
<path stroke="#2f5753" d="M8 5h1M8 6h2M5 7h1M4 8h2M7 12h1M18 14h1M20 15h1M9 17h1M25 21h1M27 21h1M12 22h1M23 22h2M13 23h2M22 23h1M14 24h5M20 24h2M23 24h1M15 25h3M24 26h1M27 26h1M25 28h1" />
<path stroke="#283540" d="M24 24h2M22 25h4M22 26h2" />
</svg>