<svg xmlns="http://www.w3.org/2000/svg" viewBox="0 -0.5 32 32" shape-rendering="crispEdges">
<metadata>Made with Pixels to Svg https://codepen.io/shshaw/pen/XbxvNj</metadata>
<path stroke="#391f21" d="M21 4h4M20 5h1M25 5h1M19 6h1M22 6h2M25 6h1M19 7h1M21 7h1M23 7h1M25 7h1M18 8h1M21 8h1M23 8h2M16 9h3M20 9h1M15 10h1M20 10h1M15 11h1M21 11h1M14 12h1M21 12h1M14 13h1M21 13h1M13 14h1M20 14h1M13 15h1M20 15h1M12 16h1M19 16h1M12 17h1M19 17h1M11 18h1M18 18h1M11 19h1M18 19h1M10 20h1M17 20h1M10 21h1M17 21h1M9 22h1M16 22h1M9 23h1M16 23h1M8 24h1M15 24h1M8 25h1M15 25h1M8 26h1M14 26h1M9 27h1M14 27h1M10 28h4" />
<path stroke="#f4d29c" d="M21 5h3M20 6h1M24 6h1M20 7h1M24 7h1M19 8h1M19 9h1M19 10h1" />
<path stroke="#dba463" d="M24 5h1M21 6h1M20 8h1M18 10h1M17 11h4M18 12h2" />
<path stroke="#c42430" d="M16 10h1M15 12h1M18 13h1M14 14h1M17 15h1M13 16h1M16 17h1M12 18h1M15 19h1M17 19h1M11 20h1M16 20h1M14 21h1M16 21h1M10 22h1M15 22h1M13 23h1M15 23h1M9 24h1M14 24h1M12 25h1M14 25h1M13 26h1" />
<path stroke="#bb7547" d="M17 10h1M17 12h1" />
<path stroke="#ff0040" d="M16 11h1M16 12h1M15 13h3M15 14h3M14 15h3M14 16h3M13 17h3M13 18h3M12 19h3M12 20h3M11 21h3M11 22h3M10 23h3M10 24h3M10 25h2" />
<path stroke="#891e2b" d="M20 12h1M19 13h2M18 14h2M18 15h2M17 16h2M17 17h2M16 18h2M16 19h1M15 20h1M15 21h1M14 22h1M14 23h1M13 24h1M9 25h1M13 25h1M9 26h4M10 27h4" />
</svg>