<svg xmlns="http://www.w3.org/2000/svg" viewBox="0 -0.5 32 32" shape-rendering="crispEdges">
<metadata>Made with Pixels to Svg https://codepen.io/shshaw/pen/XbxvNj</metadata>
<path stroke="#21181b" d="M15 3h5M14 4h1M20 4h3M13 5h1M23 5h2M12 6h1M25 6h1M11 7h1M26 7h1M11 8h1M26 8h1M11 9h1M26 9h1M11 10h1M19 10h1M25 10h1M11 11h1M19 11h6M12 12h1M20 12h1M13 13h1M21 13h1M14 14h1M22 14h1M14 15h2M22 15h1M12 16h3M22 16h1M10 17h2M22 17h1M9 18h1M21 18h1M8 19h1M20 19h1M7 20h1M19 20h1M7 21h1M14 21h5M6 22h1M12 22h2M6 23h1M11 23h1M6 24h1M11 24h1M6 25h1M10 25h1M7 26h1M10 26h1M7 27h1M9 27h1M7 28h2" />
<path stroke="#3b7d4f" d="M15 4h1M19 4h1M16 6h1M12 7h1M15 7h1M23 7h1M23 9h3M12 11h1M14 11h1" />
<path stroke="#63ab3f" d="M16 4h3M14 5h2M22 5h1M13 6h2M24 6h1M13 7h1M12 8h2M15 8h1M12 9h2M22 9h1M12 10h2M18 10h1M20 10h1M24 10h1M13 11h1M13 12h2M14 13h1M15 14h1M21 14h1M16 15h1M15 16h2M12 17h1M10 18h1M8 20h1M18 20h1M13 21h1M7 22h1M7 23h1M7 24h2M10 24h1M7 25h3M8 26h2M8 27h1" />
<path stroke="#2f5753" d="M16 5h2M15 6h1M14 7h1M14 8h1M14 9h1M14 10h1" />
<path stroke="#c8d45d" d="M18 5h4M17 6h7M16 7h7M24 7h2M16 8h10M15 9h7M15 10h3M21 10h3M15 11h4M15 12h5M15 13h6M16 14h5M17 15h5M17 16h5M13 17h9M11 18h10M9 19h11M9 20h9M8 21h5M8 22h4M8 23h3M9 24h1" />
</svg>