<svg xmlns="http://www.w3.org/2000/svg" viewBox="0 -0.5 32 32" shape-rendering="crispEdges">
<metadata>Made with Pixels to Svg https://codepen.io/shshaw/pen/XbxvNj</metadata>
<path stroke="#03193f" d="M15 2h2M14 3h1M17 3h1M13 4h1M18 4h1M12 5h1M19 5h1M11 6h1M20 6h1M10 7h1M21 7h1M9 8h1M22 8h1M9 9h1M22 9h1M9 10h1M22 10h1M9 11h1M22 11h1M9 12h1M22 12h1M9 13h1M22 13h1M9 14h1M22 14h1M9 15h1M22 15h1M9 16h1M22 16h1M9 17h1M22 17h1M9 18h1M22 18h1M9 19h1M22 19h1M9 20h1M22 20h1M9 21h1M22 21h1M9 22h1M22 22h1M10 23h1M21 23h1M11 24h1M20 24h1M12 25h1M19 25h1M13 26h1M18 26h1M14 27h1M17 27h1M15 28h2" />
<path stroke="#7a09fa" d="M15 3h2M14 4h1M13 5h1M16 5h1M16 6h1M20 7h1M16 8h1M21 8h1M15 9h2M20 9h1M14 10h2M21 10h1M13 11h2M18 11h1M20 11h1M13 12h1M17 12h2M16 13h3M20 13h1M15 14h3M20 14h2M14 15h3M21 15h1M13 16h3M13 17h2M18 17h1M21 17h1M13 18h1M17 18h2M20 18h2M16 19h3M20 19h1M15 20h3M11 21h1M14 21h3M12 22h2M12 23h2M17 24h1M18 25h1M16 26h1" />
<path stroke="#3003d9" d="M15 4h1M14 5h2M13 6h3M11 7h4M11 8h2M15 8h1M14 9h1M21 9h1M10 10h2M13 10h1M20 10h1M10 11h2M21 11h1M20 12h2M10 13h2M21 13h1M10 15h2M10 16h2M21 16h1M10 18h1M10 19h2M21 19h1M10 20h2M18 20h1M20 20h2M10 21h1M17 21h1M19 21h3M15 22h2M18 22h2M21 22h1M14 23h1M17 23h1M20 23h1M13 24h2M16 24h1M15 25h2M17 26h1M15 27h2" />
<path stroke="#f389f5" d="M16 4h1M17 5h2M17 6h1M19 6h1M18 7h1M20 8h1M17 9h1M17 10h1M17 11h1M19 11h1M12 12h1M14 12h1M19 12h1M12 13h1M14 13h1M19 13h1M12 14h1M14 14h1M19 14h1M12 15h1M19 15h1M12 16h1M19 16h1M12 17h1M15 17h1M19 17h1M15 18h1M19 18h1M15 19h1M14 22h1" />
<path stroke="#db3ffd" d="M17 4h1M15 7h1M17 7h1M14 8h1M18 8h2M13 9h1M19 9h1M12 10h1M18 10h1M12 11h1M13 13h1M13 14h1M18 14h1M13 15h1M18 15h1M20 15h1M18 16h1M20 16h1M20 17h1M14 18h1M13 19h2M19 19h1M13 20h2M19 20h1M18 21h1M17 22h1M20 22h1M15 23h2M18 23h2M18 24h2M17 25h1" />
<path stroke="#0c0293" d="M12 6h1M10 8h1M13 8h1M10 9h3M10 12h2M10 14h2M10 17h2M11 18h1M12 21h1M10 22h2M11 23h1M12 24h1M15 24h1M13 25h2M14 26h2" />
<path stroke="#fdd2ed" d="M18 6h1M16 7h1M19 7h1M17 8h1M18 9h1M16 10h1M19 10h1M15 11h2M15 12h2M15 13h1M17 15h1M16 16h2M16 17h2M12 18h1M16 18h1M12 19h1M12 20h1M13 21h1" />
</svg>