<svg xmlns="http://www.w3.org/2000/svg" viewBox="0 -0.5 32 32" shape-rendering="crispEdges">
<metadata>Made with Pixels to Svg https://codepen.io/shshaw/pen/XbxvNj</metadata>
<path stroke="#1b1f21" d="M18 4h3M17 5h1M20 5h1M16 6h1M20 6h1M15 7h1M20 7h1M14 8h1M20 8h1M13 9h1M20 9h3M12 10h1M20 10h1M23 10h1M27 10h3M11 11h1M20 11h1M24 11h1M26 11h1M29 11h1M4 12h5M11 12h1M24 12h2M29 12h1M4 13h1M9 13h2M24 13h1M29 13h1M4 14h1M16 14h3M23 14h1M29 14h1M4 15h1M15 15h1M18 15h1M22 15h1M29 15h1M5 16h1M14 16h1M18 16h1M21 16h1M29 16h1M5 17h1M13 17h1M18 17h1M29 17h1M5 18h1M29 18h1M5 19h1M28 19h1M5 20h1M28 20h1M6 21h1M28 21h1M6 22h1M27 22h1M7 23h1M27 23h1M7 24h1M27 24h1M8 25h3M24 25h3M11 26h3M21 26h3M14 27h7" />
<path stroke="#4fa4b8" d="M18 5h2M17 6h3M19 7h1M18 8h1M14 9h3M21 10h1M12 11h3M19 11h1M21 11h2M28 11h1M20 12h2M28 12h1M5 13h1M15 13h2M19 13h1M27 13h1M25 14h3M10 15h1M23 15h1M25 15h2M7 16h3M11 16h1M15 16h1M24 16h2M7 17h2M12 17h1M17 17h1M8 18h9M19 18h2M23 18h3M27 18h1M12 19h3M21 19h4M10 20h1M20 20h2M26 20h1M16 21h5M22 21h2M25 21h1" />
<path stroke="#92e8c0" d="M16 7h3M15 8h3M13 10h3M22 10h1M23 11h1M27 11h1M18 12h2M26 12h2M6 13h2M17 13h2M25 13h2M6 14h3M24 14h1M7 15h3M17 15h1M24 15h1M10 16h1M16 16h2M9 17h3M15 17h2M26 18h1M9 19h3M18 19h3M25 19h2M11 20h3M17 20h3M23 20h3M24 21h1" />
<path stroke="#4c6885" d="M19 8h1M17 9h3M16 10h4M15 11h4M12 12h6M22 12h1M8 13h1M13 13h2M23 13h1M28 13h1M5 14h1M9 14h1M19 14h4M28 14h1M6 15h1M11 15h2M16 15h1M19 15h2M27 15h2M6 16h1M12 16h2M23 16h1M26 16h3M14 17h1M20 17h1M25 17h4M7 18h1M17 18h2M21 18h2M28 18h1M7 19h2M15 19h3M27 19h1M8 20h2M14 20h1M22 20h1M27 20h1M9 21h2M15 21h1M21 21h1M26 21h2M13 22h6M20 22h3M24 22h3M13 23h6M20 23h3M24 23h1M14 24h3M21 24h1" />
<path stroke="#3a3f5e" d="M23 12h1M12 13h1M20 13h3M10 14h2M14 14h2M5 15h1M13 15h1M21 15h1M20 16h1M6 17h1M19 17h1M21 17h2M24 17h1M6 18h1M7 20h1M15 20h2M7 21h2M11 21h1M14 21h1M12 22h1M19 22h1M23 22h1M8 23h1M10 23h3M23 23h1M25 23h2M12 24h2M17 24h2M20 24h1M22 24h1M24 24h2M13 25h5M20 25h3M15 26h2" />
<path stroke="#2b2b45" d="M11 13h1M12 14h2M14 15h1M19 16h1M22 16h1M23 17h1M6 19h1M6 20h1M12 21h2M7 22h5M9 23h1M19 23h1M8 24h4M19 24h1M23 24h1M26 24h1M11 25h2M18 25h2M23 25h1M14 26h1M17 26h4" />
</svg>