<svg xmlns="http://www.w3.org/2000/svg" viewBox="0 -0.5 32 32" shape-rendering="crispEdges">
<metadata>Made with Pixels to Svg https://codepen.io/shshaw/pen/XbxvNj</metadata>
<path stroke="#221c1a" d="M19 4h4M18 5h1M22 5h1M18 6h1M22 6h1M13 7h3M17 7h1M21 7h1M13 8h1M16 8h2M20 8h1M13 9h1M20 9h1M14 10h1M19 10h1M15 11h1M19 11h1M15 12h1M18 12h1M15 13h1M18 13h1M14 14h1M17 14h1M14 15h1M17 15h1M13 16h1M16 16h1M13 17h1M16 17h1M12 18h1M15 18h1M12 19h1M15 19h1M11 20h1M14 20h1M11 21h1M14 21h1M10 22h1M13 22h1M9 23h1M13 23h1M8 24h1M12 24h1M8 25h1M12 25h1M8 26h1M11 26h1M9 27h2" />
<path stroke="#bb7547" d="M19 5h1M20 7h1M19 8h1M14 9h1M16 9h1M18 9h1M15 10h4M16 11h2M15 14h1M15 15h2M14 16h2M14 17h2M13 18h2M13 19h2M12 20h2M12 21h2M11 22h2M10 23h2M10 24h2" />
<path stroke="#dba463" d="M20 5h2M19 6h3M19 7h1M14 8h2M15 9h1" />
<path stroke="#8f4d57" d="M18 7h1M18 8h1M17 9h1M19 9h1M18 11h1M16 12h2M16 13h2M16 14h1M12 23h1M9 24h1M9 25h3M9 26h2" />
</svg>