<svg xmlns="http://www.w3.org/2000/svg" viewBox="0 -0.5 32 32" shape-rendering="crispEdges">
<metadata>Made with Pixels to Svg https://codepen.io/shshaw/pen/XbxvNj</metadata>
<path stroke="#1c121c" d="M21 2h5M21 3h1M25 3h4M22 4h1M28 4h1M21 5h1M28 5h1M21 6h1M28 6h2M20 7h1M29 7h1M20 8h1M29 8h1M20 9h1M27 9h1M29 9h1M19 10h1M21 10h1M25 10h2M28 10h2M18 11h1M22 11h3M17 12h1M21 12h1M16 13h1M20 13h1M15 14h1M19 14h1M14 15h1M18 15h1M13 16h1M17 16h1M12 17h1M16 17h1M11 18h1M15 18h1M10 19h1M14 19h1M9 20h1M13 20h1M8 21h1M12 21h1M7 22h1M11 22h1M6 23h1M10 23h1M5 24h1M9 24h1M4 25h1M8 25h1M3 26h1M7 26h1M2 27h1M6 27h1M2 28h1M5 28h1M3 29h2" />
<path stroke="#c7cfdd" d="M22 3h3M24 4h1M26 4h2M23 5h1M25 5h3M25 6h2M24 7h1M27 7h2M23 8h1M26 8h1M28 8h1M28 9h1" />
<path stroke="#92a1b9" d="M23 4h1M22 6h1M24 6h1M22 7h2M25 7h1M21 8h2M24 8h1M27 8h1M22 9h4M23 10h1" />
<path stroke="#2a2f4e" d="M25 4h1M24 5h1M27 6h1M26 7h1" />
<path stroke="#657392" d="M22 5h1M21 7h1M21 9h1M26 9h1M22 10h1M24 10h1" />
<path stroke="#424c6e" d="M23 6h1M25 8h1" />
<path stroke="#bf6f4a" d="M20 10h1M19 11h2M18 12h2M17 13h2M16 14h2M16 15h1M14 16h1M13 17h2M12 18h2M11 19h2M11 20h1M8 22h1M7 23h2M6 24h2M5 25h2M5 26h1" />
<path stroke="#8a4836" d="M21 11h1M20 12h1M19 13h1M18 14h1M15 15h1M17 15h1M15 16h2M15 17h1M14 18h1M13 19h1M10 20h1M12 20h1M9 21h3M9 22h2M9 23h1M8 24h1M7 25h1M4 26h1M6 26h1M3 27h3M3 28h2" />
</svg>