<svg xmlns="http://www.w3.org/2000/svg" viewBox="0 -0.5 32 32" shape-rendering="crispEdges">
<metadata>Made with Pixels to Svg https://codepen.io/shshaw/pen/XbxvNj</metadata>
<path stroke="#0c2e44" d="M11 1h3M10 2h1M14 2h1M9 3h1M15 3h1M9 4h1M15 4h1M9 5h1M15 5h1M10 6h1M13 6h2M18 6h2M11 7h2M14 7h1M16 7h2M20 7h1M12 8h1M15 8h1M21 8h1M13 9h1M15 9h1M21 9h1M13 10h1M16 10h1M21 10h1M14 11h1M16 11h1M19 11h2M13 12h2M17 12h2M11 13h2M15 13h1M17 13h1M10 14h1M15 14h1M18 14h1M10 15h1M16 15h1M18 15h1M10 16h1M16 16h1M18 16h1M20 16h2M11 17h1M14 17h2M18 17h2M21 17h1M12 18h3M18 18h1M21 18h1M14 19h1M18 19h1M21 19h1M15 20h1M18 20h1M21 20h1M16 21h1M20 21h1M16 22h1M20 22h1M16 23h1M19 23h1M17 24h1M19 24h1M17 25h1M19 25h1M17 26h1M19 26h1M17 27h1M19 27h1M17 28h1M19 28h1M17 29h2" />
<path stroke="#0069aa" d="M11 2h1M12 3h1M14 3h1M11 4h1M13 4h1M10 5h1M12 5h1M18 8h1M20 8h1M17 9h1M19 9h1M18 10h1M13 14h1M12 15h1M14 15h1M11 16h1M13 16h1" />
<path stroke="#0098dc" d="M12 2h2M10 3h2M13 3h1M10 4h1M14 4h1M11 5h1M13 5h2M11 6h2M18 7h2M16 8h2M19 8h1M16 9h1M20 9h1M17 10h1M19 10h2M17 11h2M13 13h2M11 14h2M14 14h1M11 15h1M15 15h1M12 16h1M14 16h2M12 17h2" />
<path stroke="#ffeb57" d="M12 4h1M18 9h1M13 15h1" />
<path stroke="#33984b" d="M13 7h1M13 8h1M14 10h1M15 12h2M16 13h1M16 14h2M17 15h1M20 17h1M15 18h1M19 18h2M15 19h1M19 19h2M16 20h1M19 20h1M18 21h2M17 23h1" />
<path stroke="#5ac54f" d="M14 8h1M14 9h1M15 10h1M15 11h1M17 16h1M17 17h1M17 18h1M16 19h2M17 20h1M17 21h1M17 22h2M18 23h1M18 24h1M18 25h1M18 26h1M18 27h1M18 28h1" />
<path stroke="#1e6f50" d="M16 17h1M16 18h1M20 20h1M19 22h1" />
</svg>