<svg xmlns="http://www.w3.org/2000/svg" viewBox="0 -0.5 32 32" shape-rendering="crispEdges">
<metadata>Made with Pixels to Svg https://codepen.io/shshaw/pen/XbxvNj</metadata>
<path stroke="#1b1f21" d="M8 7h3M6 8h2M4 9h2M3 10h1M2 11h1M2 12h1M2 13h1M3 14h2M5 15h1M6 16h1M29 16h1M7 17h1M29 17h1M7 18h1M28 18h1M7 19h1M28 19h1M8 20h1M24 20h4M8 21h1M13 21h3M22 21h2M9 22h4M16 22h6" />
<path stroke="#21181b" d="M12 7h6M12 8h1M18 8h6M8 9h2M12 9h1M14 9h1M23 9h2M7 10h1M9 10h1M12 10h1M15 10h2M22 10h1M25 10h2M6 11h1M10 11h1M13 11h2M16 11h1M23 11h1M27 11h1M5 12h1M11 12h2M16 12h1M23 12h1M27 12h1M5 13h4M17 13h1M24 13h1M28 13h1M9 14h1M18 14h1M25 14h4M10 15h1M19 15h1M21 15h2M28 15h1M10 16h1M20 16h1M23 16h1M27 16h1M11 17h1M21 17h1M24 17h1M26 17h1M10 18h1M19 18h1M21 18h1M24 18h2M10 19h6M21 19h1M16 20h6" />
<path stroke="#3b7d4f" d="M8 8h1M7 9h1M10 10h1M23 10h1M5 11h1M11 11h2M26 11h1M25 12h1M4 13h1M25 13h1M5 14h1M7 15h1M9 15h1M8 16h1M21 16h2M28 16h1M10 17h1M22 17h2M8 19h1M27 19h1M12 20h3M11 21h1M17 21h1M19 21h1" />
<path stroke="#63ab3f" d="M9 8h2M6 9h1M10 9h2M4 10h1M6 10h1M11 10h1M24 10h1M24 11h2M4 12h1M24 12h1M3 13h1M26 13h2M6 14h3M6 15h1M9 16h1M8 17h2M27 17h2M8 18h1M22 18h2M26 18h1M22 19h1M26 19h1M10 20h2M22 20h2M18 21h1M20 21h2" />
<path stroke="#1c121c" d="M11 8h1M1 14h1M29 14h1M1 15h1M30 15h1M1 16h1M31 16h1M1 17h1M31 17h1M1 18h1M31 18h1M2 19h2M31 19h1M4 20h2M31 20h1M6 21h2M29 21h2M8 22h1M27 22h2M10 23h2M25 23h2M12 24h2M23 24h2M14 25h2M21 25h2M16 26h5" />
<path stroke="#ed7614" d="M13 8h4M13 9h1M15 9h2M18 9h2M18 10h4M7 11h2M17 11h2M20 11h2M6 12h2M14 12h1M20 12h3M10 13h7M18 13h6M10 14h2M14 14h4M20 14h4M11 15h1M13 15h2M17 15h2M26 15h2M12 16h3M16 16h2M25 16h2M12 17h5M18 17h3M14 18h2M17 18h2M20 18h1M17 19h4" />
<path stroke="#ab5130" d="M17 8h1M17 9h1M20 9h3M8 10h1M13 10h2M17 10h1M9 11h1M15 11h1M19 11h1M22 11h1M8 12h3M13 12h1M15 12h1M17 12h3M9 13h1M12 14h2M19 14h1M24 14h1M12 15h1M15 15h2M20 15h1M23 15h3M11 16h1M15 16h1M18 16h2M24 16h1M17 17h1M25 17h1M11 18h3M16 18h1M16 19h1" />
<path stroke="#c8d45d" d="M5 10h1M3 11h2M3 12h1M9 18h1M27 18h1M9 19h1M23 19h3M9 20h1M9 21h2" />
<path stroke="#2f5753" d="M26 12h1M8 15h1M7 16h1M15 20h1M12 21h1M16 21h1" />
<path stroke="#8a4836" d="M2 14h1M2 15h2M4 16h2M30 16h1M6 17h1M2 18h1M29 18h1M4 19h1M6 20h1M30 20h1M24 21h1M22 22h1M12 23h1M19 23h1M14 24h1M16 25h1M18 25h1" />
<path stroke="#bf6f4a" d="M4 15h1M29 15h1M2 16h1M2 17h1M5 17h1M30 17h1M3 18h1M6 18h1M30 18h1M6 19h1M29 19h2M7 20h1M28 20h2M28 21h1M13 22h1M15 22h1M23 22h1M26 22h1M13 23h1M17 23h1M20 23h1M23 23h1M17 24h1M19 24h1M17 25h1M19 25h2" />
<path stroke="#e69c69" d="M3 16h1M3 17h2M4 18h2M5 19h1M25 21h3M14 22h1M24 22h2M14 23h3M21 23h2M24 23h1M15 24h2M20 24h3" />
<path stroke="#5d2c28" d="M18 23h1M18 24h1" />
</svg>