<svg xmlns="http://www.w3.org/2000/svg" viewBox="0 -0.5 32 32" shape-rendering="crispEdges">
<metadata>Made with Pixels to Svg https://codepen.io/shshaw/pen/XbxvNj</metadata>
<path stroke="#1c121c" d="M5 4h3M25 4h3M5 5h1M8 5h3M22 5h3M27 5h1M5 6h1M11 6h11M27 6h1M5 7h1M27 7h1M5 8h1M27 8h1M5 9h1M27 9h1M5 10h1M27 10h1M5 11h1M27 11h1M5 12h1M27 12h1M5 13h1M27 13h1M5 14h1M27 14h1M5 15h1M27 15h1M5 16h1M27 16h1M5 17h1M27 17h1M5 18h1M27 18h1M6 19h1M26 19h1M6 20h1M26 20h1M6 21h1M26 21h1M7 22h1M25 22h1M7 23h1M25 23h1M8 24h1M24 24h1M9 25h1M23 25h1M10 26h1M22 26h1M11 27h1M21 27h1M12 28h9" />
<path stroke="#f0b541" d="M6 5h1M26 5h1M6 6h4M23 6h4M6 7h21M6 8h2M11 8h11M25 8h2M6 9h2M25 9h2M6 10h2M16 10h1M25 10h2M6 11h2M16 11h1M25 11h2M6 12h2M15 12h3M25 12h2M6 13h2M13 13h3M17 13h3M25 13h2M6 14h2M15 14h3M25 14h2M6 15h2M16 15h1M25 15h2M6 16h2M16 16h1M25 16h2M6 17h2M25 17h2M7 18h1M25 18h1M7 19h1M25 19h1M7 20h1M25 20h1M8 21h1M24 21h1M8 22h1M24 22h1M9 23h1M23 23h1M10 24h1M22 24h1M10 25h2M21 25h2M11 26h2M20 26h2M13 27h7" />
<path stroke="#cf752b" d="M7 5h1M25 5h1M10 6h1M22 6h1M15 11h1M17 11h1M14 12h1M18 12h1M14 14h1M18 14h1M15 15h1M17 15h1M6 18h1M26 18h1M7 21h1M25 21h1M8 23h1M24 23h1M9 24h1M23 24h1M13 26h1M19 26h1M12 27h1M20 27h1" />
<path stroke="#4d869e" d="M8 8h2M23 8h2M10 9h3M20 9h3M15 10h1M17 10h1M11 11h1M21 11h1M13 12h1M19 12h1M9 13h1M23 13h1M13 14h1M19 14h1M8 16h1M15 16h1M17 16h1M24 16h1M8 17h1M12 17h1M20 17h1M24 17h1M11 18h2M20 18h2M15 19h1M17 19h1M9 20h1M23 20h1M9 21h1M13 21h1M19 21h1M23 21h1M12 22h2M19 22h2" />
<path stroke="#4fa4b8" d="M10 8h1M22 8h1M8 9h2M13 9h7M23 9h2M8 10h7M18 10h7M8 11h1M12 11h3M18 11h3M24 11h1M8 12h1M12 12h1M20 12h1M24 12h1M8 13h1M12 13h1M20 13h1M24 13h1M8 14h5M20 14h5M8 15h1M11 15h4M18 15h4M24 15h1M12 16h3M18 16h3M9 17h1M13 17h7M23 17h1M9 18h2M13 18h7M22 18h2M9 19h1M12 19h3M18 19h3M23 19h1M13 20h2M18 20h2M10 21h1M14 21h1M18 21h1M22 21h1M10 22h2M14 22h1M18 22h1M21 22h2M11 23h4M18 23h4M12 24h4M17 24h4M13 25h7M15 26h3" />
<path stroke="#e12937" d="M9 11h2M22 11h2M9 12h3M21 12h3M10 13h2M21 13h2" />
<path stroke="#92e8c0" d="M16 13h1" />
<path stroke="#c8d45d" d="M9 15h2M22 15h2M9 16h3M21 16h3M10 17h2M21 17h2" />
<path stroke="#4c6885" d="M8 18h1M24 18h1M8 19h1M24 19h1M8 20h1M24 20h1M9 22h1M23 22h1M10 23h1M22 23h1M11 24h1M21 24h1M12 25h1M20 25h1M14 26h1M18 26h1" />
<path stroke="#ffd541" d="M10 19h2M21 19h2M10 20h3M20 20h3M11 21h2M20 21h2" />
<path stroke="#00cdf9" d="M16 19h1M15 20h3M15 21h3M15 22h3M15 23h3M16 24h1" />
</svg>