<svg xmlns="http://www.w3.org/2000/svg" viewBox="0 -0.5 32 32" shape-rendering="crispEdges">
<metadata>Made with Pixels to Svg https://codepen.io/shshaw/pen/XbxvNj</metadata>
<path stroke="#3b2027" d="M19 7h3M17 8h2M22 8h2M15 9h2M24 9h2M13 10h2M26 10h2M11 11h2M28 11h1M9 12h2M29 12h1M7 13h2M29 13h1M5 14h2M29 14h1M4 15h1M29 15h1M3 16h1M29 16h1M3 17h1M27 17h2M3 18h1M25 18h2M3 19h1M23 19h2M3 20h1M21 20h2M4 21h2M19 21h2M6 22h2M17 22h2M8 23h2M15 23h2M10 24h5" />
<path stroke="#ffc825" d="M19 8h1M21 8h1M17 9h1M23 9h1M15 10h1M25 10h1M13 11h1M27 11h1M11 12h1M28 12h1M9 13h1M26 13h1M7 14h1M24 14h1M27 14h1M5 15h1M22 15h1M25 15h4M20 16h1M23 16h5M4 17h1M6 17h1M21 17h5M4 18h1M8 18h1M16 18h1M19 18h5M10 19h1M14 19h1M17 19h5M13 20h1M15 20h5M14 21h4M14 22h2M13 23h2" />
<path stroke="#ffeb57" d="M20 8h1M18 9h5M16 10h9M14 11h13M12 12h16M10 13h16M28 13h1M8 14h16M28 14h1M6 15h15M5 16h14M8 17h8M18 17h1M11 18h3M13 21h1M13 22h1" />
<path stroke="#ffa214" d="M27 13h1M25 14h2M23 15h2M4 16h1M21 16h2M28 16h1M5 17h1M19 17h2M26 17h1M5 18h3M17 18h2M24 18h1M4 19h6M15 19h2M22 19h1M4 20h9M14 20h1M20 20h1M6 21h7M18 21h1M8 22h5M16 22h1M10 23h3" />
<path stroke="#ffffff" d="M21 15h1M19 16h1M7 17h1M16 17h2M9 18h2M14 18h2M11 19h3" />
</svg>