<svg xmlns="http://www.w3.org/2000/svg" viewBox="0 -0.5 32 32" shape-rendering="crispEdges">
<metadata>Made with Pixels to Svg https://codepen.io/shshaw/pen/XbxvNj</metadata>
<path stroke="#1c121c" d="M12 8h6M11 9h1M18 9h2M10 10h1M20 10h1M9 11h1M21 11h1M9 12h1M22 12h1M8 13h1M13 13h2M22 13h1M8 14h1M12 14h1M15 14h1M23 14h1M8 15h1M12 15h1M16 15h1M23 15h1M8 16h1M12 16h1M17 16h1M23 16h1M8 17h1M12 17h1M17 17h1M23 17h1M9 18h1M13 18h1M17 18h1M23 18h1M9 19h1M14 19h3M22 19h1M10 20h1M22 20h1M11 21h1M21 21h1M12 22h2M19 22h2M14 23h5" />
<path stroke="#f9a31b" d="M12 9h1M11 10h1M19 10h1M10 11h2M10 12h2M14 12h1M10 13h1M15 13h1M16 14h1M22 14h1M17 15h1M18 16h1M22 18h1M21 19h1M19 20h3M18 21h2" />
<path stroke="#ffd541" d="M13 9h2M17 9h1M12 10h2M16 10h3M12 11h2M16 11h3M15 12h3M16 13h1M21 14h1M20 15h3M19 16h3M19 17h1M19 18h1M19 19h2" />
<path stroke="#ffee83" d="M15 9h2M14 10h2M14 11h2M19 11h2M18 12h4M17 13h5M17 14h4M18 15h2M22 16h1M20 17h3M20 18h2" />
<path stroke="#cf752b" d="M12 12h2M9 13h1M9 14h1M11 14h1M9 15h3M9 16h3M10 17h2M18 17h1M10 18h3M11 19h2M11 20h6M18 20h1M13 21h3M17 21h1M20 21h1M15 22h4" />
<path stroke="#ab5130" d="M11 13h2M10 14h1M9 17h1M18 18h1M10 19h1M13 19h1M17 19h2M17 20h1M12 21h1M16 21h1M14 22h1" />
</svg>