<svg xmlns="http://www.w3.org/2000/svg" viewBox="0 -0.5 32 32" shape-rendering="crispEdges">
<metadata>Made with Pixels to Svg https://codepen.io/shshaw/pen/XbxvNj</metadata>
<path stroke="#283540" d="M18 6h5M17 7h1M23 7h1M16 8h1M24 8h1M15 9h1M25 9h1M14 10h1M25 10h1M14 11h1M25 11h1M14 12h1M25 12h1M14 13h1M25 13h1M14 14h1M24 14h1M15 15h1M23 15h1M16 16h1M22 16h1M17 17h5" />
<path stroke="#c8d45d" d="M18 7h5M17 8h1M23 8h1M16 9h1M24 9h1M16 10h1M21 10h2M24 10h1M16 11h1M20 11h2M24 11h1M16 12h1M19 12h2M22 12h1M24 12h1M16 13h1M19 13h1M21 13h1M24 13h1M17 14h1M23 14h1M18 15h5" />
<path stroke="#21181b" d="M12 8h4M11 9h1M10 10h1M9 11h1M9 12h1M8 13h1M13 13h1M8 14h1M12 14h1M8 15h1M12 15h1M8 16h1M12 16h1M23 16h1M8 17h1M12 17h1M23 17h1M9 18h1M13 18h1M17 18h1M23 18h1M9 19h1M14 19h3M23 19h1M10 20h1M22 20h1M11 21h1M21 21h1M12 22h2M19 22h2M14 23h5" />
<path stroke="#3b7d4f" d="M18 8h2M22 8h1M17 9h1M23 9h1M15 10h1M17 10h1M15 11h1M15 12h1M17 12h1M23 12h1M15 13h1M17 13h2M23 13h1M15 14h2M18 14h5M16 15h2M17 16h5" />
<path stroke="#63ab3f" d="M20 8h2M18 9h1M22 9h1M23 10h1M17 11h1M23 11h1M22 13h1" />
<path stroke="#f0b541" d="M12 9h1M10 11h1M12 12h1M9 13h1M9 14h1M11 14h1M9 15h3M9 16h3M10 17h2M10 18h2M19 18h1M11 19h2M22 19h1M11 20h6M18 20h1M13 21h3M17 21h1M20 21h1M15 22h4" />
<path stroke="#ffee83" d="M13 9h2M21 9h1M11 10h3M18 10h1M11 11h3M19 11h1M22 11h1M10 12h2M18 12h1M10 13h1M20 13h1M22 17h1M20 18h3M19 19h3M19 20h3M18 21h2" />
<path stroke="#ffffff" d="M19 9h2M19 10h2M18 11h1M21 12h1" />
<path stroke="#cf752b" d="M13 12h1M11 13h2M10 14h1M9 17h1M12 18h1M18 18h1M10 19h1M13 19h1M17 19h2M17 20h1M12 21h1M16 21h1M14 22h1" />
</svg>