<svg xmlns="http://www.w3.org/2000/svg" viewBox="0 -0.5 32 32" shape-rendering="crispEdges">
<metadata>Made with Pixels to Svg https://codepen.io/shshaw/pen/XbxvNj</metadata>
<path stroke="#571c27" d="M19 4h2M18 5h1M21 5h1M18 6h1M21 6h1M17 7h1M22 7h1M17 8h1M22 8h1M15 9h2M23 9h2M13 10h2M25 10h2M12 11h1M27 11h1M12 12h1M27 12h1M13 13h2M25 13h2M15 14h2M23 14h2M17 15h1M22 15h1M17 16h1M22 16h1M18 17h1M21 17h1M18 18h1M21 18h1M19 19h2" />
<path stroke="#ffa214" d="M19 5h1M18 7h1M20 8h1M19 9h2M24 10h1M16 11h2M22 11h1M26 11h1M13 12h1M17 12h1M22 12h2M15 13h1M19 14h2M19 15h1M21 16h1M20 18h1" />
<path stroke="#ffeb57" d="M20 5h1M19 6h2M19 7h2M18 8h2M23 10h1M13 11h3M23 11h3M14 12h3M24 12h3M16 13h1M20 15h2M19 16h2M19 17h2M19 18h1" />
<path stroke="#ed7614" d="M21 7h1M21 8h1M17 9h2M21 9h2M15 10h3M22 10h1M17 13h1M22 13h3M17 14h2M21 14h2M18 15h1M18 16h1" />
<path stroke="#21181b" d="M12 8h5M11 9h1M10 10h1M9 11h1M9 12h1M8 13h1M8 14h1M12 14h1M8 15h1M12 15h1M23 15h1M8 16h1M12 16h1M23 16h1M8 17h1M12 17h1M17 17h1M23 17h1M9 18h1M13 18h1M17 18h1M23 18h1M9 19h1M14 19h3M23 19h1M10 20h1M22 20h1M11 21h1M21 21h1M12 22h2M19 22h2M14 23h5" />
<path stroke="#f0b541" d="M12 9h1M14 9h1M10 11h1M9 13h1M9 14h1M11 14h1M9 15h3M9 16h3M10 17h2M22 17h1M10 18h2M11 19h2M22 19h1M11 20h6M18 20h1M13 21h3M17 21h1M20 21h1M15 22h4" />
<path stroke="#ffee83" d="M13 9h1M11 10h2M11 11h1M10 12h2M10 13h1M22 18h1M21 19h1M19 20h3M18 21h2" />
<path stroke="#4c6885" d="M18 10h1M21 10h1M18 13h1M21 13h1" />
<path stroke="#3a3f5e" d="M19 10h2M18 11h1M21 11h1M18 12h1M21 12h1M19 13h2" />
<path stroke="#92e8c0" d="M19 11h2M19 12h2" />
<path stroke="#cf752b" d="M11 13h2M10 14h1M9 17h1M12 18h1M10 19h1M13 19h1M17 19h2M17 20h1M12 21h1M16 21h1M14 22h1" />
</svg>