<svg xmlns="http://www.w3.org/2000/svg" viewBox="0 -0.5 32 32" shape-rendering="crispEdges">
<metadata>Made with Pixels to Svg https://codepen.io/shshaw/pen/XbxvNj</metadata>
<path stroke="#1b1f21" d="M12 3h5M21 3h3M10 4h2M17 4h4M24 4h1M9 5h1M25 5h1M7 6h2M26 6h1M5 7h2M26 7h1M4 8h1M26 8h1M3 9h1M26 9h1M2 10h1M27 10h2M2 11h1M29 11h1M2 12h1M30 12h1M2 13h1M30 13h1M3 14h1M30 14h1M4 15h1M30 15h1M4 16h1M30 16h1M4 17h1M30 17h1M3 18h1M30 18h1M3 19h1M29 19h1M3 20h1M29 20h1M4 21h1M28 21h1M5 22h3M27 22h1M8 23h3M22 23h5M11 24h1M20 24h2M11 25h1M19 25h1M11 26h1M19 26h1M11 27h1M19 27h1M12 28h7" />
<path stroke="#525e56" d="M12 4h1M16 4h1M22 4h2M10 5h3M16 5h1M19 5h1M9 6h1M25 6h1M9 7h1M13 7h1M25 7h1M5 8h1M8 8h1M15 8h1M18 8h1M21 8h2M4 9h2M11 9h1M18 9h1M14 10h1M17 10h1M20 10h1M7 11h2M12 11h1M14 11h2M21 11h1M24 11h1M26 11h3M9 12h1M15 12h1M20 12h1M24 12h1M27 12h1M3 13h1M9 13h2M16 13h1M19 13h1M22 13h1M28 13h1M4 14h1M6 14h2M11 14h1M13 14h1M29 14h1M18 15h1M23 15h1M5 16h1M12 16h1M14 16h1M17 16h2M26 16h1M28 16h1M6 17h1M11 17h2M15 17h1M21 17h1M29 17h1M7 18h1M13 18h1M15 18h2M19 18h1M21 18h2M28 18h2M7 19h1M10 19h1M13 19h1M20 19h2M24 19h1M8 20h1M13 20h1M20 20h1M25 20h1M9 21h1M16 21h2M20 21h1M27 21h1M8 22h5M16 22h1M22 22h5M12 23h1M14 23h1M16 23h1M19 23h2M12 24h1M18 24h2M12 25h2M15 25h1M18 25h1M12 26h2M15 26h1M17 26h2M13 27h5" />
<path stroke="#6c8e75" d="M13 4h3M21 4h1M13 5h1M17 5h2M20 5h2M23 5h2M10 6h4M17 6h1M20 6h1M24 6h1M7 7h2M10 7h1M14 7h1M17 7h1M20 7h2M24 7h1M6 8h2M10 8h1M14 8h1M16 8h2M23 8h3M6 9h1M10 9h1M14 9h1M17 9h1M19 9h3M25 9h1M3 10h2M6 10h1M9 10h5M21 10h2M25 10h2M3 11h1M6 11h1M9 11h1M17 11h1M22 11h1M25 11h1M3 12h1M6 12h1M12 12h1M16 12h4M21 12h3M28 12h2M4 13h3M12 13h1M15 13h1M23 13h1M27 13h1M29 13h1M5 14h1M10 14h1M12 14h1M15 14h1M19 14h1M23 14h1M26 14h2M5 15h1M7 15h4M12 15h4M19 15h2M22 15h1M24 15h3M29 15h1M8 16h1M15 16h2M20 16h3M25 16h1M29 16h1M5 17h1M8 17h1M16 17h1M18 17h1M20 17h1M24 17h5M4 18h3M8 18h5M18 18h1M20 18h1M23 18h2M27 18h1M4 19h1M11 19h1M14 19h5M26 19h3M4 20h2M7 20h1M9 20h3M15 20h1M18 20h2M23 20h2M26 20h1M28 20h1M5 21h4M11 21h3M15 21h1M18 21h1M21 21h3M25 21h2M13 22h3M17 22h5M15 23h1M15 24h1" />
<path stroke="#2f2a30" d="M14 5h2M22 5h1M14 6h3M18 6h2M21 6h3M11 7h2M15 7h2M18 7h2M22 7h2M9 8h1M11 8h3M19 8h2M7 9h3M12 9h2M15 9h2M22 9h3M5 10h1M7 10h2M15 10h2M18 10h2M23 10h2M4 11h2M10 11h2M13 11h1M16 11h1M18 11h3M23 11h1M4 12h2M7 12h2M10 12h2M13 12h2M25 12h2M7 13h2M11 13h1M13 13h2M17 13h2M20 13h2M24 13h3M8 14h2M14 14h1M16 14h3M20 14h3M24 14h2M28 14h1M6 15h1M11 15h1M16 15h2M21 15h1M27 15h2M6 16h2M9 16h3M13 16h1M19 16h1M23 16h2M27 16h1M7 17h1M9 17h2M13 17h2M17 17h1M19 17h1M22 17h2M14 18h1M17 18h1M25 18h2M5 19h2M8 19h2M12 19h1M19 19h1M22 19h2M25 19h1M6 20h1M12 20h1M14 20h1M16 20h2M21 20h2M27 20h1M10 21h1M14 21h1M19 21h1M24 21h1M11 23h1M13 23h1M17 23h2M21 23h1M13 24h2M16 24h2M14 25h1M16 25h2M14 26h1M16 26h1M12 27h1M18 27h1" />
</svg>