<svg xmlns="http://www.w3.org/2000/svg" viewBox="0 -0.5 32 32" shape-rendering="crispEdges">
<metadata>Made with Pixels to Svg https://codepen.io/shshaw/pen/XbxvNj</metadata>
<path stroke="#2b2b45" d="M16 3h6M14 4h2M22 4h2M13 5h1M24 5h3M13 6h4M27 6h1M16 7h1M20 7h8M14 8h4M22 8h1M12 9h2M18 9h2M23 9h1M11 10h1M20 10h1M23 10h1M10 11h1M23 11h1M9 12h1M23 12h1M8 13h1M22 13h1M8 14h1M21 14h1M7 15h1M19 15h2M7 16h1M17 16h2M6 17h1M11 17h2M15 17h2M6 18h1M9 18h2M12 18h1M14 18h1M6 19h3M12 19h1M14 19h1M11 20h1M14 20h1M11 21h1M13 21h1M11 22h1M13 22h1M11 23h1M13 23h1M9 24h3M13 24h1M9 25h1M14 25h3M10 26h2M16 26h1M12 27h4" />
<path stroke="#4c6885" d="M16 4h2M14 5h3M21 5h1M23 5h1M19 6h1M17 7h1M18 8h1M21 8h1M14 9h1M17 9h1M22 9h1M19 10h1M9 13h1M18 15h1M16 16h1M10 17h1M12 26h1" />
<path stroke="#4fa4b8" d="M18 4h2M17 5h2M17 6h2M26 6h1M18 7h2M19 8h2M15 9h2M20 9h2M14 10h5M12 11h9M10 12h5M16 12h4M10 13h4M16 13h2M9 14h3M15 14h3M8 15h1M14 15h4M12 16h4M7 17h1M9 17h1M13 17h2M7 18h2M13 18h1M13 19h1M12 20h2M12 21h1M12 22h1M10 25h2M15 26h1" />
<path stroke="#92e8c0" d="M20 4h2M19 5h2M22 5h1M20 6h6M12 10h2M21 10h2M11 11h1M21 11h2M15 12h1M20 12h3M14 13h2M18 13h4M12 14h3M18 14h3M9 15h5M8 16h4M8 17h1M12 23h1M12 24h1M12 25h2M13 26h2" />
</svg>