<svg xmlns="http://www.w3.org/2000/svg" viewBox="0 -0.5 32 32" shape-rendering="crispEdges">
<metadata>Made with Pixels to Svg https://codepen.io/shshaw/pen/XbxvNj</metadata>
<path stroke="#122020" d="M23 3h2M23 4h1M25 4h1M22 5h1M25 5h1M27 5h2M22 6h1M26 6h1M28 6h1M21 7h1M28 7h1M21 8h1M28 8h2M18 9h3M29 9h1M17 10h1M28 10h1M16 11h1M26 11h2M15 12h1M23 12h3M14 13h1M23 13h1M13 14h1M23 14h1M12 15h1M23 15h1M11 16h1M22 16h1M10 17h1M21 17h1M9 18h1M20 18h1M8 19h1M19 19h1M7 20h1M18 20h1M7 21h1M16 21h2M6 22h1M15 22h1M5 23h1M13 23h2M5 24h1M11 24h2M4 25h1M9 25h2M4 26h1M7 26h2M4 27h3" />
<path stroke="#63ab3f" d="M24 4h1M24 5h1M23 6h1M27 6h1M22 7h2M26 7h2M22 8h1M24 8h2M23 9h2M27 9h2M25 10h3" />
<path stroke="#3b7d4f" d="M23 5h1M24 6h1M23 8h1M26 8h1M22 9h1M25 9h1M23 10h2M25 11h1" />
<path stroke="#2f5753" d="M25 6h1M24 7h2M27 8h1M26 9h1M24 11h1" />
<path stroke="#283540" d="M21 9h1M22 10h1M23 11h1" />
<path stroke="#c64524" d="M18 10h1M21 10h1M17 11h1M22 11h1M15 13h2M18 13h1M19 14h1M22 14h1M13 15h2M19 15h1M21 15h2M15 16h1M19 16h3M11 17h2M18 17h2M10 18h1M13 18h1M17 18h2M9 19h1M15 19h3M8 20h1M11 20h1M15 20h2M12 21h1M14 21h1M7 22h2M12 22h2M6 23h1M11 23h2M10 24h1M8 25h1M5 26h2" />
<path stroke="#fa6a0a" d="M19 10h2M20 11h2M16 12h3M21 12h2M17 13h1M19 13h1M21 13h2M14 14h1M17 14h2M20 14h2M15 15h1M18 15h1M20 15h1M12 16h1M16 16h3M13 17h1M15 17h3M20 17h1M11 18h2M14 18h3M19 18h1M10 19h5M18 19h1M9 20h2M12 20h3M17 20h1M8 21h4M13 21h1M15 21h1M9 22h3M14 22h1M7 23h4M6 24h4M5 25h3" />
<path stroke="#f9a31b" d="M18 11h2M19 12h2M20 13h1M15 14h2M16 15h2M13 16h2M14 17h1" />
</svg>