<svg xmlns="http://www.w3.org/2000/svg" viewBox="0 -0.5 32 32" shape-rendering="crispEdges">
<metadata>Made with Pixels to Svg https://codepen.io/shshaw/pen/XbxvNj</metadata>
<path stroke="#221c1a" d="M15 1h8M13 2h2M23 2h2M12 3h1M25 3h1M11 4h1M26 4h1M10 5h1M16 5h6M26 5h1M10 6h1M14 6h2M22 6h1M27 6h1M10 7h1M13 7h1M23 7h1M27 7h1M10 8h1M12 8h1M23 8h1M27 8h1M10 9h2M23 9h1M27 9h1M23 10h1M27 10h1M22 11h1M27 11h1M22 12h1M26 12h1M20 13h2M26 13h1M16 14h4M25 14h1M14 15h2M24 15h1M13 16h1M23 16h1M12 17h1M18 17h5M12 18h1M17 18h1M11 19h1M16 19h1M11 20h1M15 20h1M10 21h1M14 21h1M10 22h1M14 22h1M9 23h1M13 23h1M9 24h1M13 24h1M8 25h1M12 25h1M8 26h1M12 26h1M7 27h1M11 27h1M7 28h1M11 28h1M8 29h3" />
<path stroke="#6c8e75" d="M15 2h1M22 2h1M13 3h1M11 5h1M15 5h1M22 5h1M23 6h1M26 6h1M23 11h1M26 11h1M20 14h1M14 16h1M22 16h1M13 17h1M15 17h3M13 18h3M13 19h3" />
<path stroke="#a1c4aa" d="M16 2h6M14 3h11M12 4h14M12 5h3M23 5h3M11 6h3M24 6h2M11 7h2M24 7h3M11 8h1M24 8h3M24 9h3M24 10h3M24 11h2M23 12h3M22 13h4M21 14h4M16 15h8M15 16h7M14 17h1" />
<path stroke="#525e56" d="M16 18h1M12 19h1" />
<path stroke="#9d8b2a" d="M12 20h1M11 21h1M13 22h1M12 24h1M11 25h1M10 26h2M8 27h3M8 28h3" />
<path stroke="#d4b541" d="M13 20h2M12 21h2M11 22h2M10 23h3M10 24h2M9 25h2M9 26h1" />
</svg>