<svg xmlns="http://www.w3.org/2000/svg" viewBox="0 -0.5 32 32" shape-rendering="crispEdges">
<metadata>Made with Pixels to Svg https://codepen.io/shshaw/pen/XbxvNj</metadata>
<path stroke="#2f2a30" d="M9 4h10M8 5h1M19 5h1M7 6h1M20 6h1M7 7h1M21 7h4M7 8h1M25 8h1M6 9h2M26 9h1M5 10h1M27 10h1M4 11h1M25 11h1M27 11h1M3 12h1M25 12h1M27 12h1M3 13h1M23 13h1M25 13h1M27 13h1M3 14h1M23 14h1M27 14h1M3 15h1M17 15h1M23 15h1M26 15h1M28 15h1M3 16h1M17 16h1M25 16h1M28 16h1M3 17h3M7 17h2M10 17h8M24 17h1M27 17h2M3 18h1M18 18h2M22 18h2M26 18h3M3 19h1M18 19h1M23 19h1M25 19h2M28 19h1M3 20h1M18 20h1M23 20h1M25 20h1M27 20h2M3 21h1M18 21h1M23 21h1M26 21h3M3 22h1M18 22h1M23 22h1M25 22h2M28 22h1M3 23h1M18 23h1M23 23h1M25 23h1M27 23h1M4 24h1M18 24h1M23 24h1M26 24h1M5 25h1M18 25h1M23 25h3M6 26h19" />
<path stroke="#a1c4aa" d="M9 5h8M8 6h8M21 8h4M20 9h4M6 10h10M19 10h4M5 11h12M18 11h4M4 12h13M18 12h4M4 13h12M4 19h1M4 20h1M4 21h1M4 22h1M4 23h2M5 24h2M6 25h2" />
<path stroke="#6c8e75" d="M17 5h2M16 6h4M8 7h11M8 8h10M14 9h1M24 9h1M16 10h1M18 10h1M23 10h1M22 11h1M16 13h1M18 13h4M4 14h13M18 14h1M21 14h1M4 15h2M8 15h1M11 15h1M15 15h2M18 15h1M21 15h1M5 16h11M18 16h2M21 16h1M19 17h3M5 18h12M5 19h2M9 19h2M12 19h3M16 19h2M19 19h4M5 20h3M10 20h1M12 20h1M14 20h1M17 20h1M19 20h1M22 20h1M5 21h1M7 21h2M10 21h3M14 21h2M17 21h1M19 21h4M5 22h2M8 22h3M12 22h1M15 22h1M17 22h1M19 22h1M22 22h1M6 23h3M10 23h1M12 23h2M15 23h1M17 23h1M19 23h1M22 23h1M7 24h2M10 24h1M12 24h2M15 24h3M19 24h4M8 25h9M20 25h2" />
<path stroke="#525e56" d="M19 7h2M18 8h3M8 9h6M15 9h5M25 9h1M17 10h1M24 10h3M17 11h1M23 11h2M26 11h1M17 12h1M22 12h3M26 12h1M17 13h1M22 13h1M24 13h1M26 13h1M17 14h1M19 14h2M22 14h1M24 14h3M6 15h2M9 15h2M12 15h3M19 15h2M22 15h1M24 15h2M27 15h1M4 16h1M16 16h1M20 16h1M22 16h3M26 16h2M6 17h1M9 17h1M18 17h1M22 17h2M25 17h2M4 18h1M17 18h1M20 18h2M24 18h2M7 19h2M11 19h1M15 19h1M24 19h1M27 19h1M8 20h2M11 20h1M13 20h1M15 20h2M20 20h2M24 20h1M26 20h1M6 21h1M9 21h1M13 21h1M16 21h1M24 21h2M7 22h1M11 22h1M13 22h2M16 22h1M20 22h2M24 22h1M27 22h1M9 23h1M11 23h1M14 23h1M16 23h1M20 23h2M24 23h1M26 23h1M9 24h1M11 24h1M14 24h1M24 24h2M17 25h1M19 25h1M22 25h1" />
</svg>