<svg xmlns="http://www.w3.org/2000/svg" viewBox="0 -0.5 32 32" shape-rendering="crispEdges">
<metadata>Made with Pixels to Svg https://codepen.io/shshaw/pen/XbxvNj</metadata>
<path stroke="#221c1a" d="M20 1h3M9 2h11M23 2h1M8 3h1M23 3h1M7 4h1M24 4h1M7 5h1M25 5h1M7 6h1M26 6h1M6 7h1M26 7h1M6 8h1M26 8h1M6 9h1M26 9h1M6 10h1M12 10h4M25 10h1M5 11h1M11 11h1M15 11h1M19 11h1M24 11h1M5 12h1M10 12h1M14 12h1M18 12h1M20 12h4M5 13h1M10 13h1M14 13h1M18 13h1M5 14h1M9 14h1M13 14h1M17 14h1M5 15h4M13 15h1M17 15h1M12 16h1M16 16h1M12 17h1M16 17h1M11 18h1M15 18h1M11 19h1M15 19h1M10 20h1M14 20h1M10 21h1M14 21h1M9 22h1M13 22h1M9 23h1M13 23h1M8 24h1M12 24h1M8 25h1M12 25h1M7 26h1M11 26h1M7 27h1M11 27h1M6 28h1M10 28h1M6 29h1M10 29h1M7 30h3" />
<path stroke="#d4b541" d="M20 2h3M20 3h2M16 12h1M15 13h2M14 14h3M14 15h2M13 16h3M13 17h3M12 18h3M12 19h2M11 20h3M11 21h3M11 22h2M10 23h3M9 24h3M9 25h2" />
<path stroke="#a1c4aa" d="M9 3h9M8 4h2M12 4h7M8 5h2M16 5h3M23 5h2M8 6h2M19 6h7M8 7h1M23 7h3M7 8h2M7 9h2M7 10h2M7 11h1M6 12h2M6 13h2M6 14h2" />
<path stroke="#6c8e75" d="M18 3h1M10 4h2M10 5h1M14 5h2M19 5h1M10 6h4M18 6h1M9 7h9M21 7h2M9 8h12M9 9h16M9 10h2M17 10h8M8 11h2M21 11h2M8 12h2M8 13h1M8 14h1" />
<path stroke="#525e56" d="M19 3h1M23 4h1M11 5h3M22 5h1M14 6h4M7 7h1M18 7h3M21 8h5M25 9h1M11 10h1M16 10h1M6 11h1M10 11h1M20 11h1M23 11h1M9 13h1" />
<path stroke="#9d8b2a" d="M22 3h1M19 4h4M20 5h2M16 11h3M15 12h1M17 12h1M17 13h1M16 15h1M14 19h1M10 22h1M11 25h1M8 26h3M8 27h3M7 28h3M7 29h3" />
</svg>