<svg xmlns="http://www.w3.org/2000/svg" viewBox="0 -0.5 32 32" shape-rendering="crispEdges">
<metadata>Made with Pixels to Svg https://codepen.io/shshaw/pen/XbxvNj</metadata>
<path stroke="#2f2a30" d="M12 3h7M11 4h1M19 4h1M10 5h1M13 5h5M20 5h1M10 6h1M13 6h5M20 6h1M10 7h1M20 7h1M9 8h1M21 8h1M8 9h1M22 9h1M7 10h1M23 10h1M5 11h2M13 11h5M24 11h2M4 12h1M12 12h1M18 12h1M26 12h1M3 13h1M11 13h1M14 13h3M19 13h1M27 13h1M3 14h1M5 14h2M10 14h1M13 14h3M17 14h1M20 14h1M24 14h2M27 14h1M3 15h1M5 15h2M10 15h1M12 15h5M18 15h1M20 15h1M24 15h2M27 15h1M3 16h1M5 16h2M10 16h1M12 16h1M14 16h5M20 16h1M24 16h2M27 16h1M3 17h1M5 17h2M10 17h1M12 17h1M15 17h4M20 17h1M24 17h2M27 17h1M3 18h1M5 18h2M10 18h1M13 18h1M16 18h2M20 18h1M24 18h2M27 18h1M3 19h1M11 19h1M14 19h3M19 19h1M27 19h1M4 20h1M12 20h1M18 20h1M26 20h1M5 21h3M13 21h5M23 21h3M7 22h1M23 22h1M8 23h1M22 23h1M7 24h1M9 24h2M20 24h2M23 24h1M6 25h1M11 25h9M24 25h1M6 26h1M24 26h1M6 27h1M24 27h1M7 28h2M22 28h2M9 29h13" />
<path stroke="#6c8e75" d="M12 4h4M14 7h5M10 8h1M20 8h1M9 9h3M19 9h3M9 10h1M11 10h9M21 10h1M9 11h3M19 11h3M9 12h2M13 12h2M20 12h2M9 13h1M12 13h1M21 13h1M9 14h1M11 14h1M21 14h1M4 15h1M9 15h1M11 15h1M21 15h1M26 15h1M4 16h1M9 16h1M11 16h1M21 16h1M26 16h1M4 17h1M7 17h1M9 17h1M19 17h1M21 17h1M23 17h1M26 17h1M4 18h1M9 18h1M19 18h1M21 18h1M26 18h1M4 19h1M7 19h1M9 19h1M18 19h1M21 19h1M23 19h1M26 19h1M5 20h2M9 20h2M15 20h3M20 20h2M24 20h2M9 21h3M19 21h3M9 22h1M11 22h9M21 22h1M10 23h2M13 23h1M15 23h1M17 23h1M19 23h2M12 24h7M7 25h3M21 25h3M7 26h1M9 26h13M23 26h1M7 27h4M13 27h1M17 27h1M20 27h4M10 28h11" />
<path stroke="#a1c4aa" d="M16 4h3M11 5h1M19 5h1M11 6h1M19 6h1M12 7h2M5 12h2M15 12h3M24 12h2M4 13h1M7 13h1M18 13h1M23 13h1M26 13h1M4 14h1M7 14h1M19 14h1M23 14h1M26 14h1M7 15h1M19 15h1M23 15h1M7 16h1M19 16h1M23 16h1M11 17h1M7 18h1M11 18h1M23 18h1M12 19h1M13 20h2" />
<path stroke="#525e56" d="M12 5h1M18 5h1M12 6h1M18 6h1M11 7h1M19 7h1M11 8h9M12 9h7M8 10h1M10 10h1M20 10h1M22 10h1M7 11h2M12 11h1M18 11h1M22 11h2M7 12h2M11 12h1M19 12h1M22 12h2M5 13h2M8 13h1M10 13h1M13 13h1M17 13h1M20 13h1M22 13h1M24 13h2M8 14h1M12 14h1M16 14h1M18 14h1M22 14h1M8 15h1M17 15h1M22 15h1M8 16h1M13 16h1M22 16h1M8 17h1M13 17h2M22 17h1M8 18h1M12 18h1M14 18h2M18 18h1M22 18h1M5 19h2M8 19h1M10 19h1M13 19h1M17 19h1M20 19h1M22 19h1M24 19h2M7 20h2M11 20h1M19 20h1M22 20h2M8 21h1M12 21h1M18 21h1M22 21h1M8 22h1M10 22h1M20 22h1M22 22h1M9 23h1M12 23h1M14 23h1M16 23h1M18 23h1M21 23h1M8 24h1M11 24h1M19 24h1M22 24h1M10 25h1M20 25h1M8 26h1M22 26h1M11 27h2M14 27h3M18 27h2M9 28h1M21 28h1" />
</svg>