<svg xmlns="http://www.w3.org/2000/svg" viewBox="0 -0.5 32 32" shape-rendering="crispEdges">
<metadata>Made with Pixels to Svg https://codepen.io/shshaw/pen/XbxvNj</metadata>
<path stroke="#221c1a" d="M20 1h3M11 2h9M23 2h1M8 3h3M23 3h1M6 4h2M24 4h1M5 5h1M25 5h1M4 6h1M26 6h1M4 7h11M27 7h1M15 8h2M20 8h1M27 8h1M16 9h1M20 9h3M28 9h1M15 10h1M19 10h1M23 10h3M28 10h1M15 11h1M19 11h1M26 11h1M28 11h1M14 12h1M18 12h1M27 12h2M14 13h1M18 13h1M13 14h1M17 14h1M13 15h1M17 15h1M12 16h1M16 16h1M12 17h1M16 17h1M11 18h1M15 18h1M11 19h1M15 19h1M10 20h1M14 20h1M10 21h1M14 21h1M9 22h1M13 22h1M9 23h1M13 23h1M8 24h1M12 24h1M8 25h1M12 25h1M7 26h1M11 26h1M7 27h1M11 27h1M6 28h1M10 28h1M6 29h1M10 29h1M7 30h3" />
<path stroke="#d4b541" d="M20 2h3M20 3h2M17 9h2M17 10h2M16 11h2M15 12h3M15 13h2M14 14h3M14 15h3M13 16h3M13 17h3M12 18h3M12 19h2M11 20h3M11 21h3M11 22h2M10 23h3M9 24h3M9 25h2" />
<path stroke="#6c8e75" d="M11 3h1M18 3h1M8 4h1M6 5h1M23 5h2M25 6h1M16 7h3M26 7h1M22 8h4M25 9h3M27 10h1M27 11h1" />
<path stroke="#a1c4aa" d="M12 3h6M9 4h11M7 5h16M5 6h20M19 7h7M26 8h1" />
<path stroke="#525e56" d="M19 3h1M22 4h2M15 7h1M17 8h1M21 8h1M23 9h2M26 10h1" />
<path stroke="#9d8b2a" d="M22 3h1M20 4h2M18 8h2M19 9h1M16 10h1M18 11h1M17 13h1M14 19h1M10 22h1M11 25h1M8 26h3M8 27h3M7 28h3M7 29h3" />
</svg>