<svg xmlns="http://www.w3.org/2000/svg" viewBox="0 -0.5 32 32" shape-rendering="crispEdges">
<metadata>Made with Pixels to Svg https://codepen.io/shshaw/pen/XbxvNj</metadata>
<path stroke="#2f2a30" d="M10 3h12M8 4h2M22 4h2M4 5h5M11 5h10M23 5h5M3 6h1M8 6h1M11 6h10M23 6h1M28 6h1M3 7h1M5 7h2M8 7h1M13 7h6M23 7h1M25 7h2M28 7h1M2 8h1M5 8h2M8 8h1M23 8h1M25 8h2M29 8h1M2 9h1M4 9h2M9 9h1M22 9h1M26 9h2M29 9h1M2 10h1M4 10h2M9 10h2M21 10h2M26 10h2M29 10h1M2 11h1M4 11h1M9 11h1M11 11h3M18 11h3M22 11h1M27 11h1M29 11h1M2 12h1M4 12h1M9 12h1M22 12h1M27 12h1M29 12h1M2 13h1M6 13h1M8 13h2M22 13h2M25 13h1M29 13h1M3 14h3M8 14h1M10 14h1M21 14h1M23 14h1M26 14h3M3 15h1M8 15h1M11 15h10M23 15h1M28 15h1M2 16h1M8 16h1M23 16h1M29 16h1M2 17h1M7 17h1M24 17h1M29 17h1M1 18h1M7 18h1M10 18h2M20 18h2M24 18h1M30 18h1M1 19h1M7 19h1M9 19h3M20 19h3M24 19h1M30 19h1M1 20h1M7 20h1M9 20h3M20 20h3M24 20h1M30 20h1M1 21h1M4 21h4M9 21h3M20 21h3M24 21h4M30 21h1M1 22h3M7 22h1M9 22h2M21 22h2M24 22h1M28 22h3M0 23h1M7 23h1M24 23h1M31 23h1M0 24h1M7 24h1M24 24h1M31 24h1M0 25h1M5 25h3M24 25h3M31 25h1M1 26h4M7 26h1M24 26h1M27 26h4M8 27h1M23 27h1M9 28h14" />
<path stroke="#525e56" d="M10 4h1M21 4h1M9 5h1M22 5h1M4 6h1M7 6h1M24 6h1M27 6h1M12 7h1M19 7h1M3 8h1M9 8h1M11 8h1M20 8h1M22 8h1M28 8h1M6 9h1M8 9h1M12 9h2M15 9h2M18 9h2M23 9h1M25 9h1M8 10h1M11 10h1M20 10h1M23 10h1M5 11h1M8 11h1M10 11h1M14 11h4M21 11h1M23 11h1M26 11h1M7 12h2M10 12h1M21 12h1M23 12h2M3 13h1M7 13h1M10 13h1M13 13h2M17 13h2M21 13h1M24 13h1M28 13h1M6 14h2M9 14h1M11 14h1M20 14h1M22 14h1M24 14h2M4 15h4M9 15h2M21 15h2M24 15h4M6 16h2M9 16h3M14 16h4M20 16h3M24 16h2M6 17h1M8 17h1M12 17h1M15 17h2M19 17h1M23 17h1M25 17h1M4 18h3M9 18h1M13 18h1M15 18h2M18 18h1M22 18h1M25 18h3M5 19h2M13 19h6M25 19h2M5 20h2M13 20h1M18 20h1M25 20h2M2 21h2M13 21h1M18 21h1M28 21h2M4 22h3M12 22h1M19 22h1M25 22h3M1 23h1M6 23h1M8 23h1M11 23h2M14 23h1M17 23h1M19 23h2M23 23h1M25 23h1M30 23h1M6 24h1M8 24h4M20 24h4M25 24h1M4 25h1M8 25h2M13 25h1M18 25h1M22 25h2M27 25h1M8 26h2M11 26h1M20 26h1M22 26h2M9 27h2M21 27h2" />
<path stroke="#a1c4aa" d="M11 4h2M18 4h3M10 5h1M21 5h1M21 6h1M20 7h1M7 8h1M16 8h4M24 8h1M3 9h1M7 9h1M24 9h1M28 9h1M3 10h1M6 10h2M24 10h2M28 10h1M6 11h1M25 11h1M6 12h1M25 12h1M5 13h1M26 13h1M8 19h1M23 19h1M8 20h1M12 20h1M19 20h1M23 20h1M8 21h1M12 21h1M19 21h1M23 21h1M8 22h1M11 22h1M20 22h1M23 22h1M9 23h2M21 23h2" />
<path stroke="#6c8e75" d="M13 4h5M5 6h2M9 6h2M22 6h1M25 6h2M4 7h1M7 7h1M9 7h3M21 7h2M24 7h1M27 7h1M4 8h1M10 8h1M12 8h4M21 8h1M27 8h1M10 9h2M14 9h1M17 9h1M20 9h2M12 10h8M3 11h1M7 11h1M24 11h1M28 11h1M3 12h1M5 12h1M11 12h10M26 12h1M28 12h1M4 13h1M11 13h2M15 13h2M19 13h2M27 13h1M12 14h8M3 16h3M12 16h2M18 16h2M26 16h3M3 17h3M9 17h3M13 17h2M17 17h2M20 17h3M26 17h3M2 18h2M8 18h1M12 18h1M14 18h1M17 18h1M19 18h1M23 18h1M28 18h2M2 19h3M12 19h1M19 19h1M27 19h3M2 20h3M14 20h4M27 20h3M14 21h4M13 22h6M2 23h4M13 23h1M15 23h2M18 23h1M26 23h4M1 24h5M12 24h8M26 24h5M1 25h3M10 25h3M14 25h4M19 25h3M28 25h3M10 26h1M12 26h8M21 26h1M11 27h10" />
</svg>