<svg xmlns="http://www.w3.org/2000/svg" viewBox="0 -0.5 32 32" shape-rendering="crispEdges">
<metadata>Made with Pixels to Svg https://codepen.io/shshaw/pen/XbxvNj</metadata>
<path stroke="#2f2a30" d="M9 1h14M8 2h1M23 2h1M7 3h1M11 3h10M24 3h1M7 4h1M10 4h12M24 4h1M7 5h1M12 5h8M24 5h1M7 6h1M24 6h1M6 7h1M8 7h2M22 7h2M25 7h1M6 8h1M10 8h1M21 8h1M25 8h1M5 9h1M7 9h1M11 9h1M20 9h1M24 9h1M26 9h1M5 10h1M7 10h2M11 10h1M20 10h1M23 10h2M26 10h1M4 11h1M7 11h2M11 11h1M20 11h1M23 11h2M26 11h1M4 12h1M6 12h3M12 12h1M19 12h1M23 12h3M27 12h1M4 13h1M6 13h3M12 13h1M19 13h1M23 13h3M27 13h1M4 14h1M6 14h3M13 14h6M24 14h2M27 14h1M4 15h1M6 15h2M14 15h4M24 15h2M27 15h1M5 16h1M14 16h4M26 16h1M5 17h5M13 17h6M22 17h5M5 18h1M10 18h5M17 18h5M26 18h1M4 19h1M14 19h1M17 19h1M27 19h1M4 20h1M14 20h1M17 20h1M27 20h1M4 21h1M13 21h2M17 21h2M27 21h1M3 22h1M5 22h2M12 22h2M18 22h2M25 22h2M28 22h1M3 23h1M5 23h2M11 23h3M18 23h3M25 23h2M28 23h1M3 24h1M5 24h3M10 24h2M13 24h1M18 24h1M20 24h2M24 24h3M28 24h1M3 25h1M6 25h2M10 25h1M13 25h1M18 25h1M21 25h1M24 25h2M28 25h1M4 26h1M6 26h2M10 26h1M13 26h1M18 26h1M21 26h1M24 26h2M27 26h1M4 27h1M13 27h1M18 27h1M27 27h1M5 28h2M12 28h1M19 28h1M25 28h2M7 29h6M19 29h6" />
<path stroke="#525e56" d="M9 2h1M22 2h1M10 3h1M21 3h1M11 5h1M20 5h1M8 6h1M23 6h1M7 7h1M13 7h1M15 7h2M18 7h1M24 7h1M11 8h1M20 8h1M10 9h1M13 9h1M15 9h2M18 9h1M21 9h1M23 9h1M5 11h1M12 11h1M15 11h2M19 11h1M11 12h1M20 12h1M13 13h1M18 13h1M12 14h1M19 14h1M23 14h1M12 15h2M18 15h2M11 16h3M18 16h3M10 17h3M19 17h3M9 18h1M22 18h1M5 19h1M11 19h3M18 19h3M26 19h1M5 20h3M12 20h2M18 20h2M24 20h3M8 21h1M12 21h1M19 21h1M23 21h1M8 22h1M11 22h1M20 22h1M23 22h1M8 23h1M23 23h1M9 24h1M12 24h1M19 24h1M22 24h1M4 25h1M9 25h1M11 25h2M19 25h2M22 25h1M27 25h1M9 26h1M11 26h2M19 26h2M22 26h1M5 27h1M8 27h5M19 27h5M26 27h1M7 28h5M20 28h5" />
<path stroke="#a1c4aa" d="M10 2h3M19 2h3M8 3h2M22 3h2M8 4h2M22 4h2M8 5h2M22 5h2M9 6h3M20 6h3M9 11h1M22 11h1M9 12h1M22 12h1M9 13h1M22 13h1M5 14h1M9 14h1M22 14h1M26 14h1M5 15h1M8 15h1M23 15h1M26 15h1M6 16h2M24 16h2M5 21h2M25 21h2M4 22h1M7 22h1M24 22h1M27 22h1M4 23h1M7 23h1M24 23h1M27 23h1M4 24h1M27 24h1" />
<path stroke="#6c8e75" d="M13 2h6M10 5h1M21 5h1M12 6h8M10 7h3M14 7h1M17 7h1M19 7h3M7 8h3M12 8h8M22 8h3M6 9h1M8 9h2M12 9h1M14 9h1M17 9h1M19 9h1M22 9h1M25 9h1M6 10h1M9 10h2M12 10h8M21 10h2M25 10h1M6 11h1M10 11h1M13 11h2M17 11h2M21 11h1M25 11h1M5 12h1M10 12h1M13 12h6M21 12h1M26 12h1M5 13h1M10 13h2M14 13h4M20 13h2M26 13h1M10 14h2M20 14h2M9 15h3M20 15h3M8 16h3M21 16h3M6 18h3M23 18h3M6 19h5M21 19h5M8 20h4M20 20h4M7 21h1M9 21h3M20 21h3M24 21h1M9 22h2M21 22h2M9 23h2M21 23h2M8 24h1M23 24h1M5 25h1M8 25h1M23 25h1M26 25h1M5 26h1M8 26h1M23 26h1M26 26h1M6 27h2M24 27h2" />
</svg>