<svg xmlns="http://www.w3.org/2000/svg" viewBox="0 -0.5 32 32" shape-rendering="crispEdges">
<metadata>Made with Pixels to Svg https://codepen.io/shshaw/pen/XbxvNj</metadata>
<path stroke="#221c1a" d="M14 0h5M12 1h2M19 1h2M11 2h1M20 2h1M11 3h1M21 3h1M11 4h1M21 4h1M11 5h1M22 5h1M11 6h1M22 6h1M11 7h1M23 7h1M11 8h1M23 8h1M11 9h1M23 9h1M11 10h1M23 10h1M11 11h1M23 11h1M11 12h1M23 12h1M12 13h2M23 13h1M13 14h3M22 14h1M13 15h1M16 15h2M22 15h1M13 16h1M17 16h3M22 16h1M13 17h1M17 17h1M20 17h3M13 18h1M17 18h1M13 19h1M17 19h1M12 20h1M16 20h1M12 21h1M16 21h1M12 22h1M16 22h1M12 23h1M16 23h1M12 24h1M16 24h1M12 25h1M16 25h1M11 26h1M15 26h1M11 27h1M15 27h1M11 28h1M15 28h1M11 29h1M15 29h1M11 30h1M15 30h1M12 31h3" />
<path stroke="#a1c4aa" d="M14 1h4M13 2h2M18 2h2M12 3h2M19 3h2M12 4h2M20 4h1M13 5h2M16 6h2M20 6h2M18 7h4M19 8h4M21 9h2M22 11h1M22 12h1M21 13h1M21 14h1M21 15h1" />
<path stroke="#6c8e75" d="M18 1h1M12 2h1M21 5h1M12 6h1M15 6h1M12 7h2M17 7h1M22 7h1M12 8h2M15 8h1M12 9h2M15 9h3M20 9h1M12 10h2M15 10h8M12 11h2M15 11h7M13 12h1M15 12h7M15 13h6M22 13h1M17 14h4M19 15h2M20 16h2" />
<path stroke="#9d8b2a" d="M15 2h3M14 3h1M18 3h1M14 4h1M15 5h2M20 5h1M18 6h2M14 15h2M14 16h3M15 17h2M16 18h1M16 19h1M13 20h1M15 25h1M12 26h1M14 30h1" />
<path stroke="#d4b541" d="M15 3h3M15 4h5M17 5h3M14 17h1M14 18h2M14 19h2M14 20h2M13 21h3M13 22h3M13 23h3M13 24h3M13 25h2M13 26h2M12 27h3M12 28h3M12 29h3M12 30h2" />
<path stroke="#525e56" d="M12 5h1M13 6h2M14 7h3M14 8h1M16 8h3M14 9h1M18 9h2M14 10h1M14 11h1M12 12h1M14 12h1M14 13h1M16 14h1M18 15h1" />
</svg>