<svg xmlns="http://www.w3.org/2000/svg" viewBox="0 -0.5 32 32" shape-rendering="crispEdges">
<metadata>Made with Pixels to Svg https://codepen.io/shshaw/pen/XbxvNj</metadata>
<path stroke="#1b1b1b" d="M15 5h2M14 6h1M17 6h1M13 7h1M18 7h1M12 8h1M18 8h1M11 9h1M17 9h1M10 10h1M16 10h1M9 11h1M15 11h1M8 12h1M14 12h1M8 13h1M13 13h1M23 13h2M7 14h1M12 14h1M22 14h1M25 14h1M7 15h1M12 15h1M21 15h1M26 15h1M7 16h1M11 16h1M20 16h1M26 16h1M7 17h1M11 17h1M19 17h1M25 17h1M7 18h1M11 18h1M18 18h1M24 18h1M7 19h1M12 19h1M16 19h2M23 19h1M8 20h1M13 20h3M22 20h1M8 21h1M21 21h1M9 22h1M20 22h1M10 23h2M18 23h2M12 24h6" />
<path stroke="#ff8933" d="M15 6h2M14 7h4M15 8h3M16 9h1" />
<path stroke="#6c8e75" d="M13 8h1M12 9h3M11 10h5M10 11h5M10 12h4M9 13h4M9 14h3M8 15h3M8 16h3M21 16h1M8 17h3M20 17h3M8 18h3M19 18h5M9 19h3M18 19h5M9 20h4M17 20h5M10 21h11M11 22h8M13 23h4" />
<path stroke="#e64539" d="M14 8h1M15 9h1" />
<path stroke="#525e56" d="M9 12h1M8 14h1M11 15h1M8 19h1M16 20h1M9 21h1M10 22h1M19 22h1M12 23h1M17 23h1" />
<path stroke="#c8d45d" d="M23 14h2M22 15h4M23 16h3M24 17h1" />
<path stroke="#63ab3f" d="M22 16h1M23 17h1" />
</svg>