<svg xmlns="http://www.w3.org/2000/svg" viewBox="0 -0.5 32 32" shape-rendering="crispEdges">
<metadata>Made with Pixels to Svg https://codepen.io/shshaw/pen/XbxvNj</metadata>
<path stroke="#3b2027" d="M18 6h2M17 7h1M20 7h1M17 8h1M20 8h1M18 9h2M14 12h1M17 12h1M14 13h1M16 13h1M13 14h1M16 14h1M13 15h1M15 15h1M12 16h1M15 16h1M12 17h1M14 17h1M11 18h1M14 18h1M11 19h1M13 19h1M10 20h1M13 20h1M10 21h1M12 21h1M9 22h1M12 22h1M9 23h1M11 23h1M8 24h1M11 24h1M8 25h1M11 25h1M9 26h2" />
<path stroke="#1a1932" d="M12 7h5M10 8h2M21 8h1M9 9h1M22 9h2M9 10h6M24 10h1M15 11h6M25 11h1M21 12h5" />
<path stroke="#7d3833" d="M18 7h1M18 8h2M16 12h1M15 14h1M14 16h1M13 18h1M12 20h1M11 22h1M10 25h1" />
<path stroke="#ab5130" d="M19 7h1M15 12h1M15 13h1M14 14h1M14 15h1M13 16h1M13 17h1M12 18h1M12 19h1M11 20h1M11 21h1M10 22h1M10 23h1M9 24h2M9 25h1" />
<path stroke="#657392" d="M12 8h1M15 8h1M11 9h6M21 9h1M19 10h5M22 11h3" />
<path stroke="#92a1b9" d="M13 8h2" />
<path stroke="#424c6e" d="M16 8h1M10 9h1M17 9h1M20 9h1M15 10h4M21 11h1" />
</svg>