<svg xmlns="http://www.w3.org/2000/svg" viewBox="0 -0.5 32 32" shape-rendering="crispEdges">
<metadata>Made with Pixels to Svg https://codepen.io/shshaw/pen/XbxvNj</metadata>
<path stroke="#1a1932" d="M6 6h3M6 7h1M9 7h1M6 8h1M10 8h1M7 9h1M11 9h1M8 10h1M12 10h1M9 11h1M13 11h1M10 12h1M14 12h1M11 13h1M15 13h1M12 14h1M16 14h1M13 15h1M17 15h1M14 16h1M18 16h1M15 17h1M19 17h1M16 18h1M17 19h1" />
<path stroke="#92a1b9" d="M7 7h2M8 8h2M8 9h3M9 10h3M12 12h2M13 13h2" />
<path stroke="#657392" d="M7 8h1M10 11h3M11 12h1M12 13h1M13 14h3M14 15h3M15 16h2" />
<path stroke="#424c6e" d="M17 16h1M16 17h3M17 18h2" />
<path stroke="#131313" d="M21 16h2M20 17h1M22 17h1M19 18h1M22 18h1M18 19h1M21 19h1M17 20h1M20 20h1M22 20h1M16 21h1M19 21h1M23 21h1M16 22h3M20 22h1M24 22h1M21 23h1M25 23h1M22 24h1M25 24h1M23 25h2" />
<path stroke="#858585" d="M21 17h1M20 18h2M18 20h1M17 21h2" />
<path stroke="#5d5d5d" d="M19 19h2M19 20h1" />
<path stroke="#8a4836" d="M21 20h1M20 21h1M21 22h1M22 23h1M23 24h2" />
<path stroke="#bf6f4a" d="M21 21h2M22 22h2M23 23h2" />
</svg>