<svg xmlns="http://www.w3.org/2000/svg" viewBox="0 -0.5 32 32" shape-rendering="crispEdges">
<metadata>Made with Pixels to Svg https://codepen.io/shshaw/pen/XbxvNj</metadata>
<path stroke="#1a1932" d="M16 6h5M16 7h1M21 7h1M17 8h2M22 8h1M19 9h1M23 9h1M20 10h1M23 10h1M20 11h1M24 11h1M21 12h1M24 12h1M21 13h1M24 13h1M21 14h1M24 14h1M20 15h1M24 15h1M20 16h1M23 16h1M14 17h6M23 17h1M13 18h1M22 18h1M21 19h1M15 20h6" />
<path stroke="#657392" d="M17 7h1M19 8h1M21 11h1M22 13h1M22 14h2M22 15h2M21 16h2M20 17h2M16 18h6M17 19h3" />
<path stroke="#92a1b9" d="M18 7h3M20 8h2M20 9h3M21 10h2M22 11h2M22 12h2M23 13h1" />
<path stroke="#424c6e" d="M21 15h1M22 17h1M14 18h2M15 19h2M20 19h1" />
<path stroke="#3b2027" d="M12 19h1M12 20h1M11 21h1M14 21h1M11 22h1M14 22h1M10 23h1M13 23h1M10 24h1M13 24h1M10 25h1M13 25h1M11 26h2" />
<path stroke="#7d3833" d="M13 19h2M14 20h1M12 21h1M13 22h1M11 23h1M12 25h1" />
<path stroke="#ab5130" d="M13 20h1M13 21h1M12 22h1M12 23h1M11 24h2M11 25h1" />
</svg>