<svg xmlns="http://www.w3.org/2000/svg" viewBox="0 -0.5 32 32" shape-rendering="crispEdges">
<metadata>Made with Pixels to Svg https://codepen.io/shshaw/pen/XbxvNj</metadata>
<path stroke="#283540" d="M12 6h8M10 7h2M20 7h2M9 8h1M22 8h1M8 9h1M23 9h1M7 10h1M24 10h1M7 11h1M24 11h1M6 12h1M25 12h1M6 13h1M25 13h1M6 14h1M25 14h1M6 15h1M25 15h1M6 16h1M25 16h1M6 17h1M25 17h1M6 18h1M25 18h1M6 19h1M25 19h1M7 20h1M24 20h1M7 21h1M24 21h1M8 22h1M23 22h1M9 23h1M22 23h1M10 24h2M20 24h2M12 25h8" />
<path stroke="#3b7d4f" d="M12 7h1M10 8h2M9 9h3M8 10h1M11 10h2M12 11h1M7 12h1M11 12h1M9 13h1M10 14h1M10 18h1M7 19h1M9 19h1M20 19h1M24 19h1M8 20h1M19 20h1M13 21h1M17 21h2M23 21h1M12 22h1M18 22h2M11 23h2M18 23h2M21 23h1M12 24h2M17 24h3" />
<path stroke="#63ab3f" d="M13 7h1M19 7h1M13 8h6M21 8h1M13 9h6M9 10h2M14 10h4M23 10h1M8 11h4M19 11h1M10 12h1M14 12h2M20 12h1M24 12h1M7 13h2M13 13h2M18 13h2M22 13h2M9 14h1M12 14h2M17 14h2M21 14h3M10 15h1M12 15h1M16 15h2M22 15h2M7 16h1M10 16h1M15 16h2M19 16h1M22 16h2M7 17h4M14 17h2M18 17h2M21 17h3M7 18h3M13 18h2M17 18h2M22 18h3M8 19h1M10 19h2M13 19h1M16 19h2M21 19h1M9 20h1M11 20h2M20 20h4M8 21h1M12 21h1M14 21h3M20 21h3M9 22h1M11 22h1M13 22h5M21 22h2M10 23h1M13 23h5M14 24h3" />
<path stroke="#c8d45d" d="M14 7h2M12 8h1M20 8h1M12 9h1M19 9h1M22 9h1M13 10h1M18 10h2M20 11h1M23 11h1M8 12h2M13 12h1M16 12h3M21 12h3M10 13h1M12 13h1M16 13h2M21 13h1M24 13h1M7 14h2M16 14h1M19 14h1M7 15h3M13 15h1M19 15h1M21 15h1M8 16h2M12 16h2M21 16h1M24 16h1M12 17h2M16 17h1M24 17h1M12 18h1M15 18h2M19 18h1M21 18h1M14 19h2M18 19h1M22 19h2M10 20h1M9 21h3M19 21h1M10 22h1M20 22h1M20 23h1" />
<path stroke="#ffee83" d="M16 7h1M18 7h1M19 8h1M20 9h1M13 11h3M22 11h1M12 12h1M11 13h1M15 13h1M11 14h1M14 14h2M24 14h1M11 15h1M14 15h2M18 15h1M24 15h1M11 16h1M14 16h1M17 16h2M20 16h1M17 17h1M20 17h1M20 18h1M19 19h1M15 20h4" />
<path stroke="#ffffff" d="M17 7h1M21 9h1M20 10h3M16 11h3M21 11h1M19 12h1M20 13h1M20 14h1M20 15h1M11 17h1M11 18h1M12 19h1M13 20h2" />
</svg>