<svg xmlns="http://www.w3.org/2000/svg" viewBox="0 -0.5 32 32" shape-rendering="crispEdges">
<metadata>Made with Pixels to Svg https://codepen.io/shshaw/pen/XbxvNj</metadata>
<path stroke="#283540" d="M13 0h1M19 0h1M12 1h1M18 1h1M11 2h1M17 2h1M8 3h4M17 3h1M8 4h1M16 4h1M9 5h1M16 5h1M10 6h1M15 6h1M9 7h1M15 7h1M9 8h1M15 8h1M8 9h1M15 9h1M8 10h1M15 10h1M8 11h3M15 11h1M9 12h1M15 12h1M31 12h1M9 13h1M16 13h1M30 13h1M9 14h1M17 14h1M29 14h1M9 15h1M18 15h2M27 15h2M8 16h1M20 16h7M8 17h1M11 17h1M8 18h4M12 19h1M13 20h2M31 20h1M14 21h1M16 21h2M29 21h1M31 21h1M14 22h2M17 22h1M20 22h1M24 22h1M27 22h2M30 22h2M17 23h3M21 23h3M25 23h2" />
<path stroke="#3b7d4f" d="M14 0h1M13 1h1M16 1h2M14 2h3M14 3h2M15 4h1M13 5h1M14 6h1M11 11h3M10 12h3M10 13h1M12 13h1M15 13h1M13 14h1M30 15h1M17 16h2M28 16h2M31 16h1M17 17h4M22 17h1M25 17h3M30 17h2M18 18h1M20 18h1M27 18h1M29 18h1M31 18h1M31 19h1M17 20h1M25 20h1M28 20h1M19 22h1" />
<path stroke="#2f5753" d="M15 0h4M14 1h2M12 2h2M16 3h1M14 4h1M14 5h2M14 10h1M11 13h1M31 13h1M11 14h2M30 14h2M12 15h1M16 15h2M29 15h1M31 15h1M19 16h1M27 16h1M30 16h1M28 17h2M19 18h1M26 18h1M28 18h1M18 19h1M25 19h2M28 19h1M18 20h1M28 21h1" />
<path stroke="#63ab3f" d="M12 3h2M9 4h5M10 5h3M9 9h1M9 10h2M14 11h1M13 12h2M13 13h2M10 14h1M14 14h3M10 15h2M9 16h3M9 17h2M21 17h1M23 17h2M17 18h1M24 18h2M30 18h1M16 19h2M19 19h1M27 19h1M29 19h2M15 20h2M19 20h1M26 20h2M29 20h2M15 21h1M18 21h2M25 21h3M30 21h1M18 22h1M25 22h2" />
<path stroke="#ffffff" d="M11 6h2M10 7h1M13 7h1M10 8h1M13 8h1M11 9h2M22 19h2M21 20h1M24 20h1M21 21h1M24 21h1M22 22h2" />
<path stroke="#c7cfdd" d="M13 6h1M11 7h2M14 7h1M12 8h1M14 8h1M10 9h1M14 9h1M11 10h3M21 18h3M20 19h1M24 19h1M20 20h1M22 20h2M20 21h1M23 21h1M21 22h1" />
<path stroke="#dae0ea" d="M11 8h1M13 9h1M21 19h1M22 21h1" />
<path stroke="#ffa214" d="M13 15h3M12 16h1M16 16h1M13 17h2M16 17h1M13 18h1M16 18h1M15 19h1" />
<path stroke="#ffeb57" d="M13 16h2M12 17h1M15 17h1M12 18h1M15 18h1M13 19h2" />
<path stroke="#ffc825" d="M15 16h1M14 18h1" />
</svg>