<svg xmlns="http://www.w3.org/2000/svg" viewBox="0 -0.5 32 32" shape-rendering="crispEdges">
<metadata>Made with Pixels to Svg https://codepen.io/shshaw/pen/XbxvNj</metadata>
<path stroke="#221c1a" d="M13 1h7M12 2h1M20 2h2M11 3h1M22 3h1M11 4h1M23 4h1M10 5h1M24 5h1M10 6h1M24 6h1M10 7h1M24 7h1M9 8h1M25 8h1M9 9h1M25 9h1M9 10h1M25 10h1M9 11h1M26 11h1M9 12h1M26 12h1M9 13h1M26 13h1M9 14h1M26 14h1M9 15h1M26 15h1M9 16h1M26 16h1M9 17h1M26 17h1M9 18h1M26 18h1M8 19h1M26 19h1M8 20h1M26 20h1M7 21h1M12 21h2M26 21h1M7 22h1M11 22h1M13 22h1M26 22h1M6 23h1M11 23h1M13 23h1M26 23h1M6 24h1M10 24h1M14 24h1M25 24h1M5 25h1M10 25h1M14 25h1M25 25h1M5 26h1M9 26h1M15 26h1M24 26h1M5 27h1M9 27h1M16 27h1M24 27h1M4 28h1M8 28h1M17 28h1M23 28h1M4 29h1M8 29h1M18 29h5M4 30h1M8 30h1M5 31h3" />
<path stroke="#9d8b2a" d="M13 2h1M19 2h1M18 4h1M11 5h1M23 5h1M10 8h1M12 9h1M20 12h1M19 14h1M12 17h1M16 17h1M20 17h1M19 18h1M9 19h1M17 19h1M12 20h1M8 21h1M10 23h1M6 25h1M8 27h1M5 28h3M5 29h3M5 30h3" />
<path stroke="#d4b541" d="M14 2h5M12 3h10M12 4h3M19 4h4M12 5h2M20 5h3M11 6h3M21 6h3M11 7h2M22 7h2M11 8h2M22 8h2M10 9h2M22 9h2M10 10h2M21 10h3M10 11h2M21 11h3M10 12h2M21 12h2M10 13h2M20 13h3M10 14h2M20 14h2M10 15h2M19 15h3M10 16h2M18 16h3M10 17h2M17 17h3M10 18h9M10 19h7M9 20h3M9 21h3M8 22h3M7 23h3M7 24h3M7 25h3M6 26h3M6 27h2" />
<path stroke="#2a2f4e" d="M15 4h3M15 5h5M14 6h1M16 6h1M19 6h2M14 7h1M16 7h1M20 7h1M13 8h1M16 8h1M18 8h3M13 9h1M16 9h2M20 9h1M13 10h1M15 10h3M20 10h1M12 11h3M17 11h1M19 11h1M12 12h2M17 12h1M19 12h1M12 13h2M17 13h2M13 14h2M17 14h2M14 15h1M17 15h1M12 16h1M14 16h3M13 17h1" />
<path stroke="#424c6e" d="M14 5h1M15 6h1M17 6h2M13 7h1M15 7h1M17 7h3M21 7h1M14 8h2M17 8h1M21 8h1M14 9h2M18 9h2M21 9h1M12 10h1M14 10h1M18 10h2M15 11h2M18 11h1M20 11h1M14 12h3M18 12h1M14 13h3M19 13h1M12 14h1M15 14h2M12 15h2M15 15h2M18 15h1M13 16h1M17 16h1M23 16h1M14 17h2M23 17h1M23 18h1M25 18h1M23 19h1M25 19h1M13 20h1M16 20h1M23 20h2M16 21h2M23 21h1M17 22h1M20 22h4M14 23h1M17 23h3M22 23h1M15 24h3M22 24h1M17 25h1M22 25h1M17 26h2M18 27h2" />
<path stroke="#657392" d="M24 8h1M25 11h1M23 12h1M22 14h1M22 15h2M21 16h2M25 17h1M20 18h1M18 19h1M24 19h1M14 20h2M17 20h2M14 21h2M18 21h1M22 21h1M24 21h1M14 22h3M18 22h2M15 23h2M20 23h1M23 23h1M25 23h1M18 24h1M15 25h2M18 25h1M16 26h1M19 26h1M22 26h1M17 27h1M20 27h2M23 27h1M18 28h5" />
<path stroke="#92a1b9" d="M24 9h1M24 10h1M24 11h1M24 12h2M23 13h3M23 14h3M24 15h2M24 16h2M21 17h2M24 17h1M21 18h2M24 18h1M19 19h4M19 20h4M25 20h1M19 21h3M25 21h1M24 22h2M21 23h1M24 23h1M19 24h3M23 24h2M19 25h3M23 25h2M20 26h2M23 26h1M22 27h1" />
</svg>