<svg xmlns="http://www.w3.org/2000/svg" viewBox="0 -0.5 32 32" shape-rendering="crispEdges">
<metadata>Made with Pixels to Svg https://codepen.io/shshaw/pen/XbxvNj</metadata>
<path stroke="#3b2027" d="M14 2h5M12 3h2M19 3h2M11 4h1M21 4h1M10 5h1M22 5h1M9 6h1M23 6h1M8 7h1M23 7h1M8 8h1M24 8h1M7 9h1M24 9h1M6 10h1M24 10h1M6 11h1M25 11h1M6 12h1M25 12h1M6 13h1M25 13h1M7 14h1M25 14h1M8 15h1M23 15h2M7 16h1M9 16h2M22 16h1M24 16h1M6 17h1M11 17h10M22 17h1M24 17h1M6 18h1M9 18h2M13 18h1M16 18h1M19 18h1M22 18h1M25 18h1M5 19h1M8 19h1M10 19h1M13 19h1M16 19h1M19 19h1M22 19h1M25 19h1M5 20h3M9 20h1M12 20h2M16 20h1M19 20h2M23 20h1M26 20h1M9 21h1M12 21h2M16 21h1M19 21h2M23 21h4M8 22h1M11 22h1M13 22h1M16 22h1M19 22h3M23 22h1M8 23h1M11 23h1M13 23h1M15 23h1M17 23h1M19 23h1M21 23h1M24 23h1M7 24h1M10 24h1M12 24h1M15 24h1M17 24h1M19 24h1M22 24h1M25 24h1M7 25h3M12 25h1M14 25h1M17 25h1M20 25h1M23 25h3M11 26h1M14 26h1M18 26h1M20 26h1M11 27h1M13 27h1M18 27h1M20 27h1M10 28h1M12 28h1M19 28h1M21 28h1M10 29h2M20 29h2" />
<path stroke="#ab5130" d="M14 3h1M12 4h1M9 7h1M9 8h1M23 8h1M9 9h1M23 9h1M9 10h2M22 10h2M8 11h1M10 11h3M20 11h3M9 12h2M14 12h1M17 12h1M19 12h4M12 13h9M9 15h1M11 16h1M21 16h1M7 17h2M23 17h1M7 18h1M23 18h1M6 19h1M21 19h1M24 19h1M10 20h2M14 20h1M17 20h1M21 20h1M25 20h1M10 21h1M14 21h2M17 21h2M22 21h1M9 22h2M14 22h1M18 22h1M22 22h1M9 23h1M14 23h1M18 23h1M23 23h1M8 24h1M14 24h1M18 24h1M24 24h1M13 25h1M18 25h1M13 26h1M19 26h1M12 27h1M19 27h1M11 28h1M20 28h1" />
<path stroke="#cf752b" d="M15 3h2M13 4h3M11 5h1M14 5h6M10 6h1M12 6h2M15 6h4M22 6h1M10 7h1M12 7h2M15 7h1M17 7h1M10 8h2M14 8h4M10 9h6M18 9h1M21 9h2M7 10h1M11 10h3M15 10h1M18 10h4M13 11h7M24 11h1M8 12h1M7 13h2M11 13h1M21 13h1M8 14h1M14 14h3M24 14h1M10 15h1M14 15h3M22 15h1M12 16h9" />
<path stroke="#f0b541" d="M17 3h2M16 4h5M12 5h2M20 5h2M11 6h1M14 6h1M21 6h1M11 7h1M14 7h1M18 7h1M21 7h2M12 8h2M18 8h5M16 9h1M19 9h2M14 10h1M16 10h2M7 11h1M7 12h1M23 12h2M9 13h2M24 13h1M9 14h5M17 14h3M11 15h3M17 15h3" />
<path stroke="#ffee83" d="M19 6h2M16 7h1M19 7h2M17 9h1M22 13h2M20 14h4M20 15h2" />
<path stroke="#7d3833" d="M8 9h1M8 10h1M9 11h1M23 11h1M11 12h3M15 12h2M18 12h1M8 16h1M23 16h1M9 17h2M21 17h1M8 18h1M11 18h2M14 18h2M17 18h2M20 18h2M24 18h1M7 19h1M11 19h2M14 19h2M17 19h2M20 19h1M23 19h1M15 20h1M18 20h1M22 20h1M24 20h1M11 21h1M21 21h1M15 22h1M17 22h1M10 23h1M22 23h1M9 24h1M13 24h1M23 24h1M19 25h1M12 26h1" />
</svg>