<svg xmlns="http://www.w3.org/2000/svg" viewBox="0 -0.5 32 32" shape-rendering="crispEdges">
<metadata>Made with Pixels to Svg https://codepen.io/shshaw/pen/XbxvNj</metadata>
<path stroke="#1c121c" d="M13 3h3M11 4h2M16 4h2M9 5h2M18 5h2M7 6h2M20 6h2M5 7h2M22 7h2M3 8h2M24 8h2M2 9h1M26 9h2M1 10h1M28 10h2M1 11h1M30 11h1M1 12h1M31 12h1M1 13h1M31 13h1M1 14h1M31 14h1M2 15h1M31 15h1M1 16h1M31 16h1M1 17h1M30 17h1M1 18h1M31 18h1M1 19h1M31 19h1M2 20h1M31 20h1M3 21h2M31 21h1M5 22h1M30 22h1M6 23h3M28 23h2M9 24h2M27 24h1M11 25h1M24 25h3M12 26h3M22 26h2M15 27h2M20 27h2M17 28h3" />
<path stroke="#bf6f4a" d="M13 4h1M11 5h1M17 5h1M9 6h1M19 6h1M7 7h1M21 7h1M5 8h1M23 8h1M3 9h1M25 9h1M27 10h1M4 11h1M29 11h1M2 12h2M6 12h1M2 13h3M8 13h1M28 13h1M30 13h1M4 14h2M26 14h1M6 15h1M9 15h1M12 15h1M24 15h1M27 15h1M8 16h1M10 16h2M14 16h1M25 16h1M29 16h2M10 17h2M13 17h1M16 17h1M20 17h1M23 17h1M26 17h1M2 18h1M12 18h1M15 18h1M23 18h2M3 19h1M14 19h4M20 19h1M22 19h1M16 20h2M19 20h3M30 20h1M19 21h1M29 21h2M8 22h2M27 22h2M10 23h1M11 24h1M22 24h1M15 25h1M21 25h2M16 26h2M19 26h3" />
<path stroke="#e69c69" d="M14 4h2M12 5h5M10 6h3M16 6h3M8 7h3M18 7h3M6 8h3M20 8h3M4 9h3M22 9h3M3 10h4M24 10h3M5 11h3M26 11h3M7 12h3M26 12h4M5 13h1M9 13h3M25 13h3M6 14h2M10 14h4M23 14h3M29 14h2M7 15h2M13 15h3M21 15h3M28 15h3M9 16h1M15 16h8M26 16h3M12 17h1M17 17h3M24 17h2M13 18h2M21 18h2M25 18h1M21 19h1" />
<path stroke="#f6ca9f" d="M13 6h3M11 7h7M9 8h11M7 9h15M7 10h17M8 11h18M10 12h16M12 13h13M14 14h9M16 15h5" />
<path stroke="#8a4836" d="M2 10h1M2 11h2M4 12h2M30 12h1M6 13h2M29 13h1M2 14h1M8 14h2M27 14h2M5 15h1M10 15h2M25 15h2M7 16h1M12 16h2M23 16h2M11 18h1M2 19h1M19 19h1M3 20h1M18 21h1M29 22h1M9 23h1M27 23h1M20 25h1M23 25h1M15 26h1M18 26h1M17 27h3" />
<path stroke="#cc2f7b" d="M3 14h1M2 16h1M4 16h1M3 17h1M6 17h1M9 17h1M27 17h1M5 18h1M8 18h1M30 18h1M7 19h4M13 19h1M23 19h1M26 19h1M29 19h1M5 20h1M9 20h1M12 20h1M15 20h1M24 20h1M27 20h1M6 21h1M8 21h1M11 21h1M14 21h1M17 21h1M22 21h2M26 21h1M28 21h1M10 22h1M15 22h2M20 22h1M23 22h2M12 23h1M16 23h1M18 23h1M21 23h1M24 23h2M14 24h1M17 24h3M25 24h1M13 25h1M16 25h1" />
<path stroke="#692464" d="M3 15h2M5 16h2M2 17h1M7 17h2M28 17h2M3 18h2M9 18h2M26 18h2M4 19h1M11 19h2M24 19h2M30 19h1M4 20h1M7 20h2M13 20h2M22 20h2M28 20h2M5 21h1M7 21h1M9 21h2M15 21h2M20 21h2M27 21h1M6 22h2M11 22h1M17 22h3M11 23h1M22 23h2M12 24h1M15 24h2M20 24h2M23 24h2M12 25h1M14 25h1M17 25h3" />
<path stroke="#ff5277" d="M3 16h1M4 17h2M6 18h2M28 18h2M5 19h2M27 19h2M6 20h1M10 20h2M25 20h2M12 21h2M24 21h2M12 22h3M21 22h2M25 22h1M13 23h3M17 23h1M19 23h2M13 24h1" />
<path stroke="#5d2c28" d="M14 17h2M21 17h2M16 18h5M18 19h1M18 20h1" />
<path stroke="#4b1d52" d="M26 22h1M26 23h1M26 24h1" />
</svg>