<svg xmlns="http://www.w3.org/2000/svg" viewBox="0 -0.5 32 32" shape-rendering="crispEdges">
<metadata>Made with Pixels to Svg https://codepen.io/shshaw/pen/XbxvNj</metadata>
<path stroke="#1b1f21" d="M27 0h4M25 1h2M30 1h1M22 2h3M30 2h1M21 3h1M29 3h1M18 4h3M28 4h1M17 5h1M27 5h1M16 6h1M27 6h1M11 7h6M26 7h1M10 8h1M25 8h1M9 9h1M25 9h1M9 10h1M25 10h1M8 11h1M24 11h1M8 12h1M22 12h2M8 13h1M21 13h1M6 14h3M21 14h1M5 15h1M21 15h1M5 16h1M20 16h1M4 17h1M17 17h3M4 18h1M16 18h1M4 19h1M16 19h1M3 20h1M16 20h1M3 21h1M15 21h1M3 22h1M11 22h4M3 23h1M11 23h1M3 24h1M10 24h1M3 25h1M9 25h1M2 26h1M6 26h3M2 27h1M5 27h1M1 28h1M4 28h1M1 29h1M4 29h1M1 30h1M4 30h1M2 31h2" />
<path stroke="#63ab3f" d="M27 1h3M25 2h5M22 3h4M27 3h2M22 4h2M26 4h2M18 5h5M25 5h2M18 6h2M24 6h2M17 7h2M24 7h1M11 8h8M24 8h1M11 9h7M23 9h2M10 10h5M21 10h3M9 11h3M20 11h3M9 12h3M19 12h2M9 13h2M19 13h2M9 14h2M18 14h3M7 15h3M15 15h5M6 16h3M14 16h5M5 17h2M14 17h2M5 18h2M14 18h2M5 19h1M14 19h2M5 20h1M13 20h2M5 21h1M10 21h4M9 22h2M9 23h2M8 24h2" />
<path stroke="#3b7d4f" d="M26 3h1M21 4h1M24 4h2M23 5h1M17 6h1M20 6h2M26 6h1M19 7h2M23 7h1M25 7h1M19 8h1M22 8h2M10 9h1M18 9h1M20 9h3M15 10h3M19 10h2M24 10h1M12 11h4M18 11h2M23 11h1M12 12h3M17 12h2M21 12h1M11 13h3M16 13h3M11 14h2M15 14h3M6 15h1M10 15h2M14 15h1M20 15h1M9 16h2M19 16h1M7 17h3M13 17h1M16 17h1M7 18h2M12 18h2M6 19h2M11 19h3M4 20h1M6 20h1M10 20h3M15 20h1M4 21h1M9 21h1M14 21h1M4 22h2M4 23h1M8 23h1M7 24h1M6 25h2" />
<path stroke="#2f5753" d="M24 5h1M22 6h2M21 7h2M20 8h2M19 9h1M16 11h1M15 12h1M13 15h1M11 16h3M10 17h3M10 18h2M9 19h2M8 20h2M8 21h1M7 22h2M6 23h2M5 24h2M4 25h2M8 25h1M4 26h1M3 27h2M3 28h1M2 29h2M2 30h2" />
<path stroke="#283540" d="M18 10h1M17 11h1M16 12h1M14 13h2M13 14h2M12 15h1M9 18h1M8 19h1M7 20h1M6 21h2M6 22h1M5 23h1M4 24h1M3 26h1M5 26h1M2 28h1" />
</svg>