<svg xmlns="http://www.w3.org/2000/svg" viewBox="0 -0.5 32 32" shape-rendering="crispEdges">
<metadata>Made with Pixels to Svg https://codepen.io/shshaw/pen/XbxvNj</metadata>
<path stroke="#1c121c" d="M10 0h12M9 1h1M22 1h1M8 2h1M11 2h10M23 2h1M8 3h1M13 3h6M23 3h1M8 4h1M23 4h1M8 5h1M23 5h1M8 6h1M23 6h1M8 7h1M23 7h1M7 8h1M24 8h1M7 9h1M24 9h1M7 10h1M24 10h1M7 11h1M14 11h4M24 11h1M6 12h1M14 12h1M17 12h1M25 12h1M6 13h1M14 13h1M17 13h1M25 13h1M6 14h1M14 14h1M17 14h1M25 14h1M6 15h1M14 15h1M17 15h1M25 15h1M6 16h1M13 16h1M18 16h1M25 16h1M6 17h1M13 17h1M18 17h1M25 17h1M6 18h1M13 18h1M18 18h1M25 18h1M6 19h1M13 19h1M18 19h1M25 19h1M6 20h1M12 20h1M19 20h1M25 20h1M6 21h1M12 21h1M19 21h1M25 21h1M6 22h1M12 22h1M19 22h1M25 22h1M6 23h1M12 23h1M19 23h1M25 23h1M6 24h1M12 24h1M19 24h1M25 24h1M6 25h1M11 25h1M20 25h1M25 25h1M6 26h1M11 26h1M20 26h1M25 26h1M6 27h1M11 27h1M20 27h1M25 27h1M6 28h1M11 28h1M20 28h1M25 28h1M6 29h1M11 29h1M20 29h1M25 29h1M6 30h1M10 30h1M21 30h1M25 30h1M7 31h3M22 31h3" />
<path stroke="#2f5753" d="M10 1h1M21 1h1M9 2h1M22 2h1M12 3h1M19 3h1M9 6h1M22 6h1M9 7h1M22 7h1M8 8h1M10 8h2M20 8h2M23 8h1M12 9h2M18 9h2M12 10h8M12 11h2M18 11h2M7 12h1M12 12h2M18 12h2M24 12h1M12 13h2M18 13h2M11 14h3M18 14h3M11 15h3M18 15h3M11 16h2M19 16h2M11 17h2M19 17h2M10 18h3M19 18h3M7 19h1M10 19h3M19 19h3M24 19h1M7 20h5M20 20h5M8 21h2M11 21h1M20 21h1M22 21h2M11 22h1M20 22h1M11 23h1M20 23h1M11 24h1M20 24h1M10 26h1M21 26h1M7 27h1M10 27h1M21 27h1M24 27h1M7 28h4M21 28h4M7 29h4M21 29h4M7 30h3M22 30h3" />
<path stroke="#3b7d4f" d="M11 1h10M21 2h1M9 3h1M11 3h1M20 3h1M22 3h1M9 4h1M14 4h2M22 4h1M9 5h2M13 5h4M21 5h2M10 6h12M10 7h12M9 8h1M12 8h8M22 8h1M8 9h4M14 9h4M20 9h4M8 10h4M20 10h4M8 11h4M20 11h4M8 12h4M20 12h4M7 13h5M20 13h5M7 14h4M21 14h4M7 15h4M21 15h4M7 16h4M21 16h4M7 17h4M21 17h4M7 18h3M22 18h3M8 19h2M22 19h2M7 21h1M10 21h1M21 21h1M24 21h1M7 22h4M21 22h4M7 23h4M21 23h4M7 24h4M21 24h4M7 25h4M21 25h4M7 26h3M22 26h3M8 27h2M22 27h2" />
<path stroke="#63ab3f" d="M10 2h1M10 3h1M21 3h1M10 4h4M16 4h6M11 5h2M17 5h4" />
</svg>