<svg xmlns="http://www.w3.org/2000/svg" viewBox="0 -0.5 32 32" shape-rendering="crispEdges">
<metadata>Made with Pixels to Svg https://codepen.io/shshaw/pen/XbxvNj</metadata>
<path stroke="#1c121c" d="M12 5h4M9 6h3M16 6h2M7 7h2M18 7h1M6 8h1M19 8h3M4 9h2M22 9h2M2 10h2M24 10h1M1 11h1M25 11h1M0 12h1M26 12h1M0 13h1M27 13h2M0 14h1M29 14h1M0 15h1M30 15h1M0 16h1M30 16h1M0 17h1M31 17h1M1 18h1M31 18h1M2 19h2M31 19h1M4 20h2M31 20h1M5 21h1M31 21h1M6 22h1M29 22h2M7 23h1M27 23h2M8 24h2M26 24h1M10 25h2M25 25h1M12 26h1M23 26h2M13 27h1M21 27h2M14 28h2M19 28h2M16 29h3" />
<path stroke="#2f5753" d="M12 6h1M15 6h1M18 9h1M21 9h1M4 10h1M16 10h2M23 10h1M2 11h1M14 11h2M24 13h3M8 14h2M22 14h3M7 15h2M21 15h2M29 15h1M6 16h1M1 17h1M6 17h1M30 17h1M5 18h1M29 18h2M5 19h1M10 19h1M14 19h2M28 19h3M13 20h2M27 20h3M6 21h1M13 21h1M30 21h1M8 22h1M13 22h1M28 22h1M12 23h1M21 23h2M12 24h1M16 24h1M20 24h3M12 25h1M19 25h3M23 25h1M19 26h2M22 26h1" />
<path stroke="#3b7d4f" d="M13 6h2M11 7h6M13 8h3M18 8h1M14 9h1M17 9h1M19 9h2M15 10h1M18 10h5M3 11h3M16 11h9M1 12h7M17 12h5M25 12h1M1 13h1M5 13h2M9 13h1M18 13h2M23 13h1M1 14h1M3 14h1M6 14h2M10 14h1M21 14h1M25 14h4M1 15h1M6 15h1M9 15h2M20 15h1M23 15h6M1 16h1M7 16h5M23 16h6M2 17h1M5 17h1M9 17h4M25 17h3M2 18h3M6 18h1M11 18h1M14 18h1M4 19h1M6 19h1M12 19h2M27 19h1M6 20h1M11 20h1M15 20h4M30 20h1M7 21h1M14 21h7M28 21h2M7 22h1M12 22h1M16 22h4M8 23h4M13 23h1M18 23h1M10 24h2M19 24h1M23 24h1M22 25h1M14 26h1M21 26h1M18 27h3M16 28h3" />
<path stroke="#edab50" d="M9 7h1M9 8h3M6 9h2M10 9h4M6 10h4M12 10h2M7 11h5M13 11h1M10 12h3M14 12h2M11 13h1M15 13h3M12 14h2M16 14h3M11 15h5M18 15h2M13 16h4M20 16h3M15 17h3M21 17h4M16 18h1M18 18h2M22 18h4M17 19h5M24 19h2M20 20h3M25 20h2M21 21h3M25 21h1M23 22h1" />
<path stroke="#e07438" d="M10 7h1M7 8h2M12 8h1M8 9h2M5 10h1M10 10h2M6 11h1M12 11h1M9 12h1M16 12h1M10 13h1M13 13h2M14 14h2M16 15h2M12 16h1M17 16h2M14 17h1M19 17h2M15 18h1M20 18h2M22 19h2M26 19h1M19 20h1M23 20h2M24 21h1M26 21h1M22 22h1M24 22h1M27 22h1M25 23h2M24 24h2" />
<path stroke="#63ab3f" d="M17 7h1M16 8h2M15 9h2M14 10h1M8 12h1M22 12h3M2 13h3M7 13h2M20 13h3M4 14h2M19 14h2M5 15h1M5 16h1M29 16h1M7 17h2M13 17h1M28 17h2M7 18h4M12 18h2M26 18h3M7 19h1M11 19h1M7 20h1M12 20h1M12 21h1M14 22h2M20 22h2M14 23h4M19 23h2M13 24h1M17 24h2M13 25h1M18 25h1M13 26h1M18 26h1M14 27h4" />
<path stroke="#c64524" d="M13 12h1M12 13h1M11 14h1M19 16h1M18 17h1M17 18h1M16 19h1M27 21h1M25 22h2M23 23h2M24 25h1" />
<path stroke="#283540" d="M2 14h1M2 15h3M2 16h3M3 17h2M8 19h2M8 20h3M8 21h4M9 22h3M14 24h2M14 25h4M15 26h3" />
</svg>