<svg xmlns="http://www.w3.org/2000/svg" viewBox="0 -0.5 32 32" shape-rendering="crispEdges">
<metadata>Made with Pixels to Svg https://codepen.io/shshaw/pen/XbxvNj</metadata>
<path stroke="#1b1f21" d="M12 3h8M10 4h2M20 4h2M7 5h3M13 5h6M22 5h3M6 6h1M13 6h6M25 6h1M5 7h1M13 7h6M26 7h1M5 8h1M14 8h4M26 8h1M4 9h1M27 9h1M4 10h1M27 10h1M4 11h1M27 11h1M3 12h1M28 12h1M3 13h1M9 13h1M22 13h1M28 13h1M3 14h1M9 14h1M22 14h1M28 14h1M3 15h1M8 15h2M22 15h2M28 15h1M2 16h1M8 16h2M22 16h2M29 16h1M2 17h1M7 17h1M9 17h1M22 17h1M24 17h1M29 17h1M1 18h1M7 18h1M9 18h1M22 18h1M24 18h1M30 18h1M1 19h1M6 19h1M9 19h1M22 19h1M25 19h1M30 19h1M1 20h1M6 20h1M9 20h1M22 20h1M25 20h1M30 20h1M1 21h1M6 21h1M9 21h1M22 21h1M25 21h1M30 21h1M1 22h1M5 22h1M9 22h1M22 22h1M26 22h1M30 22h1M1 23h1M5 23h1M9 23h1M22 23h1M26 23h1M30 23h1M1 24h1M5 24h1M9 24h1M22 24h1M26 24h1M30 24h1M2 25h3M9 25h1M22 25h1M27 25h3M9 26h1M22 26h1M9 27h1M22 27h1M10 28h2M20 28h2M12 29h8" />
<path stroke="#3b7d4f" d="M12 4h1M15 4h3M11 5h1M8 6h2M22 6h2M7 7h4M19 7h6M6 8h4M20 8h1M22 8h4M6 9h4M14 9h1M22 9h4M6 10h3M13 10h3M23 10h3M5 11h1M11 11h2M15 11h2M19 11h2M26 11h1M5 12h3M10 12h12M24 12h3M4 13h4M10 13h12M24 13h4M4 14h3M10 14h12M25 14h3M4 15h3M10 15h12M25 15h3M5 16h1M11 16h10M26 16h1M3 17h2M27 17h2M3 18h3M10 18h1M21 18h1M26 18h3M2 19h4M10 19h2M14 19h4M20 19h2M26 19h4M2 20h4M10 20h2M13 20h6M20 20h2M26 20h4M2 21h3M10 21h2M13 21h6M20 21h2M27 21h3M2 22h3M10 22h1M13 22h6M21 22h1M27 22h3M2 23h3M10 23h1M12 23h8M21 23h1M27 23h3M3 24h2M10 24h1M12 24h8M21 24h1M27 24h2M12 25h8M12 26h8M12 27h8M13 28h6" />
<path stroke="#63ab3f" d="M13 4h2M18 4h2M12 5h1M19 5h2M11 6h2M19 6h2M11 7h2M11 8h2M19 8h1M12 9h2M15 9h5M16 10h3" />
<path stroke="#2f5753" d="M10 5h1M21 5h1M7 6h1M10 6h1M21 6h1M24 6h1M6 7h1M25 7h1M10 8h1M13 8h1M18 8h1M21 8h1M5 9h1M10 9h2M20 9h2M26 9h1M5 10h1M9 10h4M19 10h4M26 10h1M6 11h5M13 11h2M17 11h2M21 11h5M4 12h1M8 12h2M22 12h2M27 12h1M8 13h1M23 13h1M7 14h2M23 14h2M7 15h1M24 15h1M3 16h2M6 16h2M10 16h1M21 16h1M24 16h2M27 16h2M5 17h2M10 17h12M25 17h2M2 18h1M6 18h1M11 18h10M25 18h1M29 18h1M12 19h2M18 19h2M12 20h1M19 20h1M5 21h1M12 21h1M19 21h1M26 21h1M11 22h2M19 22h2M11 23h1M20 23h1M2 24h1M11 24h1M20 24h1M29 24h1M10 25h2M20 25h2M10 26h2M20 26h2M10 27h2M20 27h2M12 28h1M19 28h1" />
</svg>