<svg xmlns="http://www.w3.org/2000/svg" viewBox="0 -0.5 32 32" shape-rendering="crispEdges">
<metadata>Made with Pixels to Svg https://codepen.io/shshaw/pen/XbxvNj</metadata>
<path stroke="#1b1b1b" d="M10 3h12M8 4h2M22 4h2M6 5h2M24 5h2M5 6h1M10 6h12M26 6h1M4 7h1M8 7h2M22 7h2M27 7h1M4 8h1M7 8h1M24 8h1M27 8h1M3 9h1M6 9h1M25 9h1M28 9h1M3 10h1M6 10h1M25 10h1M28 10h1M3 11h1M6 11h1M25 11h1M28 11h1M3 12h1M6 12h1M25 12h1M28 12h1M3 13h1M6 13h8M18 13h8M28 13h1M3 14h1M14 14h4M28 14h1M3 15h1M28 15h1M3 16h1M6 16h8M18 16h8M28 16h1M3 17h1M5 17h1M14 17h1M17 17h1M26 17h1M28 17h1M3 18h1M14 18h1M17 18h1M28 18h1M3 19h1M14 19h1M17 19h1M28 19h1M3 20h1M28 20h1M3 21h1M13 21h1M18 21h1M28 21h1M3 22h1M13 22h1M18 22h1M28 22h1M3 23h1M5 23h1M12 23h1M19 23h1M26 23h1M28 23h1M3 24h1M6 24h6M13 24h1M18 24h1M20 24h6M28 24h1M4 25h1M14 25h4M27 25h1M5 26h1M11 26h2M19 26h2M26 26h1M6 27h5M13 27h6M21 27h5" />
<path stroke="#2f5753" d="M10 4h12M8 5h16M6 6h4M22 6h4M7 7h1M24 7h1M5 12h1M26 12h1M5 14h1M13 14h1M18 14h1M26 14h1M4 15h1M14 15h1M17 15h1M27 15h1M4 16h1M14 16h1M17 16h1M27 16h1M4 17h1M15 17h2M27 17h1M14 20h1M17 20h1M14 21h1M17 21h1M14 22h1M17 22h1M14 23h1M17 23h1M5 24h1M14 24h1M17 24h1M26 24h1M5 25h4M23 25h4M6 26h3M23 26h3" />
<path stroke="#3b7d4f" d="M5 7h2M25 7h2M5 8h2M25 8h2M4 9h2M26 9h2M4 10h2M26 10h2M4 11h2M26 11h2M4 12h1M27 12h1M6 14h1M8 14h1M20 14h1M5 15h2M8 15h2M11 15h1M13 15h1M18 15h1M20 15h1M23 15h1M25 15h2M15 18h2M15 19h2M15 20h2M15 21h2M15 22h2M15 23h2M15 24h2" />
<path stroke="#283540" d="M4 13h2M26 13h2M4 14h1M27 14h1M15 15h2M5 16h1M15 16h2M26 16h1M4 18h1M27 18h1M4 19h1M27 19h1M4 20h1M27 20h1M4 21h1M27 21h1M4 22h1M27 22h1M4 23h1M13 23h1M18 23h1M27 23h1M4 24h1M12 24h1M19 24h1M27 24h1M9 25h5M18 25h5M9 26h2M13 26h6M21 26h2" />
<path stroke="#63ab3f" d="M7 14h1M9 14h4M19 14h1M21 14h5M7 15h1M10 15h1M12 15h1M19 15h1M21 15h2M24 15h1" />
<path stroke="#657392" d="M6 17h8M18 17h8" />
<path stroke="#92a1b9" d="M5 18h3M12 18h2M20 18h2M26 18h1M5 19h2M11 19h2M19 19h2M25 19h2M5 20h1M10 20h2M13 20h1M18 20h2M24 20h2M5 21h1M9 21h2M23 21h2M5 22h1M8 22h2M12 22h1M19 22h1M22 22h2M26 22h1M6 23h3M11 23h1M20 23h3M25 23h1" />
<path stroke="#c7cfdd" d="M8 18h4M18 18h2M22 18h4M7 19h4M13 19h1M18 19h1M21 19h4M6 20h4M12 20h1M20 20h4M26 20h1M6 21h3M11 21h2M19 21h4M25 21h2M6 22h2M10 22h2M20 22h2M24 22h2M9 23h2M23 23h2" />
</svg>