<svg xmlns="http://www.w3.org/2000/svg" viewBox="0 -0.5 32 32" shape-rendering="crispEdges">
<metadata>Made with Pixels to Svg https://codepen.io/shshaw/pen/XbxvNj</metadata>
<path stroke="#1c121c" d="M6 3h3M10 3h2M5 4h1M9 4h1M12 4h1M15 4h2M5 5h1M12 5h1M14 5h1M17 5h1M19 5h3M24 5h3M6 6h2M13 6h1M17 6h2M22 6h2M27 6h1M5 7h4M27 7h1M4 8h1M8 8h1M26 8h1M4 9h1M24 9h3M5 10h1M23 10h1M27 10h1M4 11h4M27 11h1M3 12h1M27 12h1M3 13h1M23 13h4M4 14h1M23 14h1M26 14h1M5 15h1M27 15h1M6 16h2M27 16h1M5 17h2M25 17h2M4 18h1M23 18h2M4 19h1M23 19h3M5 20h1M26 20h1M6 21h2M26 21h1M5 22h1M7 22h1M24 22h2M4 23h1M26 23h1M4 24h1M26 24h1M5 25h3M25 25h1M8 26h1M11 26h1M15 26h2M21 26h2M25 26h1M7 27h1M11 27h2M15 27h1M17 27h1M20 27h1M22 27h1M25 27h1M7 28h1M10 28h1M13 28h2M17 28h1M20 28h1M23 28h2M8 29h2M18 29h2" />
<path stroke="#bf6f4a" d="M6 4h2M10 4h2M6 5h3M15 5h2M11 6h1M14 6h2M19 6h1M26 6h1M9 7h2M12 7h2M15 7h1M17 7h1M21 7h1M23 7h1M26 7h1M6 8h1M9 8h1M12 8h1M14 8h1M16 8h1M19 8h5M8 9h2M19 9h1M22 9h1M8 10h1M10 10h2M13 10h2M18 10h2M22 10h1M25 10h2M8 11h1M10 11h1M12 11h1M15 11h1M18 11h1M21 11h1M25 11h2M4 12h1M8 12h1M17 12h2M20 12h2M24 12h2M4 13h1M7 13h2M12 13h2M18 13h1M22 13h1M7 14h1M22 14h1M25 14h1M6 15h2M10 15h1M14 15h1M24 15h3M8 16h2M11 16h1M14 16h2M17 16h1M21 16h1M24 16h3M8 17h1M18 17h1M20 17h2M23 17h1M5 18h1M8 18h1M11 18h2M5 19h1M8 19h1M11 19h2M17 19h1M21 19h1M6 20h1M8 20h2M12 20h1M15 20h1M17 20h2M21 20h1M24 20h2M9 21h2M13 21h1M16 21h3M22 21h1M24 21h1M12 22h1M5 23h1M8 23h1M11 23h1M17 23h3M24 23h2M6 24h1M9 24h2M13 24h1M15 24h1M18 24h1M20 24h2M23 24h1M25 24h1M9 25h2M13 25h1M16 25h1M19 25h1M21 25h2M24 25h1M9 26h2M14 26h1M8 27h2M13 27h2M18 27h1M23 27h2M8 28h2M18 28h2" />
<path stroke="#8a4836" d="M8 4h1M9 5h1M8 6h1M12 6h1M24 6h1M11 7h1M18 7h1M22 7h1M7 8h1M11 8h1M17 8h2M25 8h1M14 9h2M18 9h1M20 9h1M23 9h1M12 10h1M24 10h1M11 11h1M14 11h1M7 12h1M11 12h1M14 12h1M19 12h1M26 12h1M21 13h1M5 14h1M9 14h1M12 14h2M24 14h1M15 15h1M19 15h1M22 15h1M16 16h1M19 16h1M7 17h1M9 17h1M11 17h2M15 17h2M19 17h1M24 17h1M7 18h1M21 18h2M10 19h1M16 19h1M16 20h1M19 20h1M8 21h1M19 21h3M25 21h1M6 22h1M8 22h1M11 22h1M13 22h1M18 22h2M22 22h2M9 23h1M16 23h1M23 23h1M5 24h1M14 24h1M16 24h2M22 24h1M8 25h1M12 25h1M15 25h1M17 25h1M20 25h1M12 26h1M17 26h1M20 26h1M10 27h1" />
<path stroke="#e69c69" d="M10 5h2M9 6h2M20 6h2M25 6h1M14 7h1M16 7h1M19 7h2M24 7h2M5 8h1M13 8h1M15 8h1M24 8h1M5 9h3M6 10h2M9 10h1M9 11h1M13 11h1M16 11h2M19 11h2M22 11h3M5 12h1M12 12h2M22 12h2M5 13h2M17 13h1M6 14h1M8 14h1M17 14h2M8 15h2M11 15h3M17 15h2M23 15h1M10 16h1M12 16h2M18 16h1M20 16h1M22 16h2M17 17h1M22 17h1M6 18h1M17 18h2M6 19h2M18 19h1M22 19h1M7 20h1M10 20h2M13 20h2M22 20h2M11 21h2M14 21h2M23 21h1M6 23h2M12 23h2M7 24h2M11 24h2M19 24h1M24 24h1M14 25h1M18 25h1M23 25h1M13 26h1M18 26h2M23 26h2M19 27h1" />
<path stroke="#5d2c28" d="M16 6h1M6 12h1M16 15h1M13 19h1M17 22h1M11 25h1" />
<path stroke="#391f21" d="M10 8h1M10 9h4M16 9h2M21 9h1M15 10h3M20 10h2M9 12h2M15 12h2M9 13h3M14 13h3M19 13h2M10 14h2M14 14h3M19 14h3M20 15h2M10 17h1M13 17h2M9 18h2M13 18h4M19 18h2M9 19h1M14 19h2M19 19h2M20 20h1M9 22h2M14 22h3M20 22h2M10 23h1M14 23h2M20 23h3" />
</svg>