<svg xmlns="http://www.w3.org/2000/svg" viewBox="0 -0.5 32 32" shape-rendering="crispEdges">
<metadata>Made with Pixels to Svg https://codepen.io/shshaw/pen/XbxvNj</metadata>
<path stroke="#3b1725" d="M18 0h7M16 1h2M25 1h1M27 1h2M15 2h1M25 2h1M27 2h1M29 2h2M14 3h1M22 3h4M27 3h1M29 3h1M31 3h1M14 4h1M20 4h2M23 4h1M26 4h1M28 4h1M31 4h1M13 5h1M17 5h3M23 5h3M27 5h1M30 5h1M10 6h2M13 6h1M21 6h3M29 6h1M9 7h1M11 7h1M13 7h2M19 7h4M26 7h3M9 8h1M11 8h1M13 8h1M15 8h4M21 8h2M26 8h1M28 8h3M9 9h1M11 9h1M13 9h1M16 9h1M25 9h1M28 9h1M31 9h1M9 10h1M11 10h1M13 10h1M16 10h1M22 10h2M25 10h4M31 10h1M9 11h1M12 11h2M15 11h1M22 11h2M25 11h1M28 11h1M31 11h1M9 12h1M13 12h3M24 12h1M27 12h1M31 12h1M7 13h4M13 13h1M24 13h1M27 13h1M31 13h1M5 14h2M11 14h1M13 14h1M23 14h1M26 14h1M31 14h1M4 15h1M12 15h1M23 15h1M26 15h1M31 15h1M3 16h1M7 16h6M22 16h2M26 16h1M30 16h1M3 17h1M5 17h2M10 17h1M12 17h1M21 17h1M23 17h1M30 17h1M3 18h2M9 18h1M13 18h1M20 18h1M23 18h1M29 18h1M8 19h1M14 19h2M19 19h2M24 19h2M27 19h2M6 20h2M16 20h4M21 20h2M27 20h1M1 21h3M5 21h1M17 21h1M19 21h1M23 21h4M0 22h1M4 22h1M17 22h1M20 22h2M0 23h1M4 23h1M16 23h1M18 23h1M22 23h6M0 24h1M3 24h1M14 24h2M18 24h2M27 24h1M0 25h1M3 25h1M12 25h2M15 25h1M18 25h1M20 25h2M25 25h2M0 26h1M3 26h1M8 26h4M15 26h1M18 26h1M22 26h3M1 27h1M4 27h1M7 27h2M14 27h1M17 27h1M2 28h1M5 28h2M9 28h1M14 28h1M17 28h1M3 29h1M9 29h1M14 29h1M16 29h1M4 30h1M9 30h1M14 30h2M5 31h4" />
<path stroke="#b4202a" d="M18 1h1M24 1h1M28 2h1M15 3h1M30 3h1M19 4h1M29 4h1M14 5h1M16 5h1M20 5h1M22 5h1M14 6h1M25 6h2M28 6h1M10 7h1M15 7h1M24 7h1M10 8h1M14 8h1M19 8h1M25 8h1M14 9h2M17 9h1M30 9h1M14 10h1M16 11h1M24 11h1M27 11h1M10 12h1M12 12h1M28 12h1M11 13h1M14 13h1M23 13h1M26 13h1M7 14h1M9 14h1M16 14h1M24 14h1M27 14h1M8 15h3M17 15h1M21 15h1M25 15h1M30 15h1M6 16h1M15 16h2M25 16h1M4 17h1M13 17h2M18 17h2M26 17h1M12 18h1M14 18h1M19 18h1M24 18h1M28 18h1M13 19h1M18 19h1M22 19h2M26 19h1M10 20h1M15 20h1M24 20h2M6 21h1M10 21h2M2 22h1M5 22h1M8 22h1M11 22h2M18 22h1M1 23h1M3 23h1M5 23h1M9 23h1M19 23h1M21 23h1M5 24h2M10 24h1M17 24h1M20 24h1M26 24h1M2 25h1M6 25h3M22 25h1M1 26h1M4 26h3M16 26h1M2 27h1M5 27h1M3 28h1M7 28h1M15 28h2M4 29h1M8 29h1M15 29h1M5 30h1M7 30h1" />
<path stroke="#df3e23" d="M19 1h5M16 2h9M16 3h6M28 3h1M15 4h4M22 4h1M27 4h1M30 4h1M15 5h1M21 5h1M26 5h1M28 5h2M15 6h6M27 6h1M16 7h3M23 7h1M20 8h1M23 8h2M10 9h1M18 9h7M29 9h1M10 10h1M17 10h5M24 10h1M29 10h2M10 11h2M17 11h5M26 11h1M29 11h2M11 12h1M16 12h8M25 12h2M29 12h2M12 13h1M16 13h7M25 13h1M28 13h3M8 14h1M14 14h1M17 14h6M25 14h1M28 14h3M5 15h3M13 15h3M18 15h3M24 15h1M27 15h3M4 16h2M13 16h2M24 16h1M27 16h3M15 17h3M24 17h2M27 17h3M11 18h1M15 18h4M25 18h3M9 19h1M11 19h2M16 19h2M9 20h1M11 20h4M7 21h1M9 21h1M12 21h4M1 22h1M3 22h1M6 22h2M9 22h2M13 22h2M19 22h1M2 23h1M6 23h3M10 23h3M20 23h1M2 24h1M4 24h1M7 24h3M21 24h5M4 25h2M17 25h1M23 25h2M17 26h1M16 27h1M8 28h1M6 29h2M8 30h1" />
<path stroke="#73172d" d="M24 6h1M25 7h1M15 10h1M14 11h1M15 13h1M10 14h1M12 14h1M15 14h1M11 15h1M16 15h1M22 15h1M17 16h5M11 17h1M20 17h1M22 17h1M10 18h1M21 18h2M10 19h1M21 19h1M8 20h1M23 20h1M26 20h1M8 21h1M16 21h1M18 21h1M15 22h2M13 23h3M17 23h1M1 24h1M11 24h3M16 24h1M1 25h1M9 25h3M16 25h1M2 26h1M7 26h1M3 27h1M6 27h1M15 27h1M4 28h1M5 29h1M6 30h1" />
</svg>