<svg xmlns="http://www.w3.org/2000/svg" viewBox="0 -0.5 32 32" shape-rendering="crispEdges">
<metadata>Made with Pixels to Svg https://codepen.io/shshaw/pen/XbxvNj</metadata>
<path stroke="#3b2027" d="M13 0h3M11 1h2M16 1h2M9 2h2M18 2h2M7 3h2M20 3h2M5 4h2M22 4h2M3 5h2M24 5h2M1 6h2M26 6h2M1 7h1M15 7h3M28 7h2M1 8h1M13 8h7M30 8h2M1 9h1M13 9h7M31 9h1M1 10h2M15 10h3M31 10h1M3 11h2M31 11h1M5 12h2M30 12h2M7 13h2M28 13h2M9 14h2M26 14h2M11 15h2M24 15h2M13 16h2M22 16h2M15 17h2M20 17h2M17 18h3M1 19h2M1 20h1M3 20h2M1 21h1M4 21h3M31 21h1M1 22h1M7 22h2M28 22h2M31 22h1M1 23h2M9 23h2M26 23h2M31 23h1M3 24h2M11 24h2M24 24h2M31 24h1M5 25h3M13 25h2M22 25h2M30 25h2M7 26h2M15 26h2M20 26h2M28 26h2M9 27h2M17 27h3M26 27h2M11 28h2M24 28h2M13 29h2M22 29h2M15 30h2M20 30h2M17 31h3" />
<path stroke="#cf752b" d="M13 1h3M12 2h6M12 3h8M8 4h4M13 4h9M5 5h9M19 5h5M6 6h6M21 6h4M2 7h4M8 7h3M22 7h5M3 8h5M9 8h2M22 8h8M5 9h7M21 9h10M7 10h7M19 10h11M9 11h19M11 12h9M21 12h4M13 13h8M23 13h1M15 14h7M17 15h3" />
<path stroke="#ab5130" d="M11 2h1M9 3h3M7 4h1M12 4h1M14 5h1M18 5h1M3 6h3M12 6h1M20 6h1M25 6h1M6 7h2M27 7h1M2 8h1M8 8h1M2 9h3M12 9h1M20 9h1M3 10h4M14 10h1M18 10h1M30 10h1M5 11h4M28 11h3M7 12h4M20 12h1M25 12h5M9 13h4M21 13h2M24 13h4M11 14h4M22 14h4M13 15h4M20 15h4M15 16h7M12 17h1M17 17h3M7 18h1M12 18h2M6 19h2M12 19h2M19 19h2M25 19h1M6 20h2M12 20h2M20 20h1M25 20h2M13 21h1M18 21h2M25 21h2M12 22h1M18 22h3M26 22h1M12 23h2M18 23h3M29 23h2M13 24h1M19 24h2M27 24h4M18 25h1M25 25h4M18 26h2M23 26h4M21 27h4M18 28h5M18 29h3" />
<path stroke="#7d3833" d="M15 5h3M13 6h7M11 7h4M18 7h4M11 8h2M20 8h2M12 16h1M7 17h1M13 17h1M6 18h1M20 18h1M25 18h1M18 19h1M26 19h1M2 20h1M18 20h2M2 21h2M7 21h1M12 21h1M20 21h1M2 22h5M13 22h1M25 22h1M30 22h1M3 23h6M25 23h1M28 23h1M5 24h6M18 24h1M26 24h1M8 25h5M19 25h2M24 25h1M29 25h1M9 26h6M22 26h1M27 26h1M11 27h6M20 27h1M25 27h1M13 28h5M23 28h1M15 29h3M21 29h1M17 30h3" />
<path stroke="#1a1932" d="M2 11h1M2 12h1M2 13h1M5 13h2M30 13h1M2 14h1M5 14h4M30 14h1M2 15h1M5 15h4M26 15h2M30 15h1M2 16h1M5 16h4M11 16h1M24 16h4M30 16h1M2 17h1M5 17h2M8 17h1M11 17h1M14 17h1M24 17h4M30 17h1M2 18h1M5 18h1M8 18h1M11 18h1M14 18h1M21 18h1M24 18h1M26 18h2M30 18h1M5 19h1M8 19h1M11 19h1M14 19h1M17 19h1M21 19h1M24 19h1M27 19h1M30 19h1M5 20h1M8 20h1M11 20h1M14 20h1M17 20h1M21 20h1M24 20h1M27 20h1M30 20h1M8 21h1M11 21h1M14 21h1M17 21h1M21 21h1M24 21h1M27 21h1M30 21h1M11 22h1M14 22h1M17 22h1M21 22h1M24 22h1M27 22h1M11 23h1M14 23h1M17 23h1M21 23h1M24 23h1M14 24h1M17 24h1M21 24h1M17 25h1M21 25h1M17 26h1" />
<path stroke="#657392" d="M3 12h2M4 13h1M28 14h2M9 15h2M28 15h1M10 16h1M22 17h2M15 18h2M22 18h1M3 19h1M16 19h1M29 21h1M9 22h1M23 24h1M15 25h1" />
<path stroke="#92a1b9" d="M3 13h1M3 14h2M3 15h2M29 15h1M3 16h2M9 16h1M28 16h2M3 17h2M9 17h2M28 17h2M3 18h2M9 18h2M23 18h1M28 18h2M4 19h1M9 19h2M15 19h1M22 19h2M28 19h2M9 20h2M15 20h2M22 20h2M28 20h2M9 21h2M15 21h2M22 21h2M28 21h1M10 22h1M15 22h2M22 22h2M15 23h2M22 23h2M15 24h2M22 24h1M16 25h1" />
</svg>