<svg xmlns="http://www.w3.org/2000/svg" viewBox="0 -0.5 32 32" shape-rendering="crispEdges">
<metadata>Made with Pixels to Svg https://codepen.io/shshaw/pen/XbxvNj</metadata>
<path stroke="#2f2a30" d="M13 5h6M11 6h2M19 6h2M9 7h2M21 7h2M7 8h2M23 8h2M5 9h2M25 9h2M3 10h2M27 10h2M2 11h1M29 11h1M1 12h1M30 12h1M0 13h1M31 13h1M0 14h1M29 14h1M31 14h1M0 15h1M27 15h3M31 15h1M0 16h1M25 16h5M31 16h1M0 17h1M23 17h7M31 17h1M0 18h1M21 18h9M31 18h1M1 19h1M19 19h12M2 20h2M16 20h14M4 21h2M16 21h12M6 22h2M16 22h10M8 23h2M16 23h8M10 24h2M16 24h6M12 25h2M16 25h4M14 26h4" />
<path stroke="#6c8e75" d="M13 6h1M18 6h1M11 7h1M20 7h1M9 8h1M22 8h1M7 9h1M24 9h1M5 10h1M26 10h1M3 11h1M28 11h1M1 13h1M1 14h1M3 14h1M28 14h1M1 15h1M5 15h1M26 15h1M1 16h1M7 16h1M24 16h1M1 17h1M9 17h1M22 17h1M1 18h1M11 18h1M20 18h1M13 19h1M18 19h1" />
<path stroke="#a1c4aa" d="M14 6h4M12 7h8M10 8h12M8 9h16M6 10h20M4 11h24M2 12h28M2 13h28M4 14h24M6 15h20M8 16h16M10 17h12M12 18h8M14 19h4" />
<path stroke="#525e56" d="M30 13h1M2 14h1M30 14h1M2 15h3M30 15h1M2 16h5M30 16h1M2 17h7M30 17h1M2 18h9M30 18h1M2 19h11M4 20h12M6 21h10M8 22h8M10 23h6M12 24h4M14 25h2" />
</svg>