<svg xmlns="http://www.w3.org/2000/svg" viewBox="0 -0.5 32 32" shape-rendering="crispEdges">
<metadata>Made with Pixels to Svg https://codepen.io/shshaw/pen/XbxvNj</metadata>
<path stroke="#1c121c" d="M11 6h4M9 7h2M15 7h2M8 8h1M17 8h1M7 9h1M18 9h1M7 10h1M19 10h1M7 11h1M20 11h1M7 12h1M21 12h1M7 13h1M22 13h1M8 14h1M23 14h1M8 15h1M23 15h1M9 16h1M24 16h1M10 17h1M24 17h1M11 18h1M25 18h1M12 19h1M25 19h1M12 20h1M25 20h1M12 21h1M25 21h1M13 22h1M25 22h1M14 23h1M24 23h1M15 24h2M22 24h2M17 25h5" />
<path stroke="#bb7547" d="M11 7h1M9 8h1M8 9h1M10 12h1M8 13h1M10 13h1M11 14h1M13 14h1M9 15h1M11 15h3M12 16h2M13 17h1M14 19h1M14 20h1M13 21h1M15 21h1M23 21h1M16 22h1M20 22h1M23 22h1M15 23h1M20 23h1M17 24h1" />
<path stroke="#dba463" d="M12 7h3M10 8h3M16 8h1M9 9h3M8 10h3M8 11h3M18 11h2M8 12h2M14 12h2M20 12h1M9 13h1M13 13h2M9 14h2M14 14h1M22 14h1M10 15h1M10 16h2M23 16h1M11 17h2M12 18h2M24 18h1M13 19h1M22 19h1M13 20h1M15 20h1M19 20h1M23 20h1M14 21h1M20 21h1M14 22h2M17 22h1M24 22h1M16 23h4M21 23h3M18 24h4" />
<path stroke="#f4d29c" d="M13 8h3M12 9h6M11 10h8M11 11h7M11 12h3M16 12h4M11 13h2M15 13h7M12 14h1M15 14h7M14 15h9M14 16h9M14 17h10M14 18h10M15 19h7M23 19h2M16 20h3M20 20h3M24 20h1M16 21h4M21 21h2M24 21h1M18 22h2M21 22h2" />
</svg>