<svg xmlns="http://www.w3.org/2000/svg" viewBox="0 -0.5 32 32" shape-rendering="crispEdges">
<metadata>Made with Pixels to Svg https://codepen.io/shshaw/pen/XbxvNj</metadata>
<path stroke="#1c121c" d="M11 2h10M9 3h2M21 3h2M8 4h1M23 4h1M7 5h1M12 5h8M24 5h1M6 6h1M10 6h2M20 6h2M25 6h1M5 7h1M9 7h1M22 7h1M26 7h1M5 8h1M8 8h1M23 8h1M26 8h1M4 9h1M8 9h1M23 9h1M27 9h1M4 10h1M7 10h1M24 10h1M27 10h1M3 11h2M7 11h1M22 11h3M27 11h1M2 12h1M8 12h2M21 12h1M27 12h1M2 13h1M10 13h1M21 13h1M28 13h1M2 14h1M10 14h1M21 14h1M29 14h1M2 15h1M10 15h1M29 15h1M2 16h1M10 16h1M29 16h1M2 17h1M10 17h1M29 17h1M2 18h1M10 18h1M29 18h1M2 19h1M10 19h1M29 19h1M2 20h1M10 20h1M29 20h1M2 21h1M10 21h1M29 21h1M2 22h1M10 22h1M29 22h1M2 23h1M10 23h1M29 23h1M2 24h1M10 24h1M29 24h1M2 25h1M10 25h2M29 25h1M2 26h1M29 26h1M3 27h2M29 27h1M5 28h2M29 28h1M7 29h22" />
<path stroke="#edab50" d="M11 3h1M20 3h1M9 4h1M22 4h1M11 5h1M20 5h1M9 6h1M22 6h1M6 7h1M8 7h1M23 7h1M25 7h1M6 8h1M5 9h3M24 9h1M26 9h1M5 10h2M26 10h1M5 11h2M25 11h2M3 12h1M7 12h1M5 13h1M8 14h1M27 14h1M8 15h2M27 15h1M8 16h2M27 16h2M8 17h2M27 17h2M8 18h2M27 18h2M8 19h2M27 19h2M8 20h2M27 20h2M8 21h2M27 21h2M8 22h2M27 22h2M8 23h2M27 23h2M8 24h2M27 24h2M8 25h2M27 25h2M8 26h2M27 26h2M8 27h2M11 27h1M27 27h2M9 28h19" />
<path stroke="#f4d29c" d="M12 3h8M10 4h12M8 5h3M21 5h3M7 6h2M23 6h2M7 7h1M24 7h1M7 8h1M24 8h2M25 9h1M25 10h1M4 12h3M24 12h3M6 13h3M26 13h2" />
<path stroke="#221c1a" d="M13 12h4M12 13h1M17 13h3M11 14h1M20 14h1M11 15h1M21 15h1M11 16h2M21 16h1M12 17h2M21 17h1M13 18h3M21 18h1M23 18h1M17 19h4M24 19h1M11 20h1M18 20h2M24 20h1M11 21h2M18 21h2M24 21h1M12 22h3M18 22h2M24 22h2M15 23h3M20 23h3M26 23h1M16 24h1M21 24h1M26 24h1M16 25h1M21 25h1M26 25h1M11 26h1M16 26h1M21 26h1M26 26h1M12 27h14" />
<path stroke="#e07438" d="M22 12h2M9 13h1M24 13h2M3 14h2M7 14h1M9 14h1M22 14h2M26 14h1M28 14h1M5 15h3M24 15h3M28 15h1M3 16h2M7 16h1M22 16h2M26 16h1M5 17h3M24 17h3M3 18h2M7 18h1M26 18h1M5 19h3M25 19h2M3 20h2M7 20h1M26 20h1M5 21h3M25 21h2M3 22h2M7 22h1M26 22h1M5 23h3M3 24h2M7 24h1M5 25h3M3 26h2M7 26h1M10 26h1M5 27h3M10 27h1M26 27h1M7 28h2M28 28h1" />
<path stroke="#c64524" d="M3 13h2M22 13h2M5 14h2M24 14h2M3 15h2M22 15h2M5 16h2M24 16h2M3 17h2M22 17h2M5 18h2M24 18h2M3 19h2M5 20h2M25 20h1M3 21h2M5 22h2M3 23h2M5 24h2M3 25h2M5 26h2" />
<path stroke="#7d3833" d="M13 13h1M16 13h1M12 14h2M19 14h1M12 15h4M20 15h1M13 16h4M11 17h1M14 17h3M11 18h2M16 18h2M20 18h1M22 18h1M11 19h4M23 19h1M12 20h2M13 21h1M11 22h1M17 22h1M20 22h1M23 22h1M11 23h2M25 23h1M11 24h1M12 26h1M15 26h1M17 26h1M20 26h1M22 26h1M25 26h1" />
<path stroke="#ab5130" d="M14 13h2M14 14h5M16 15h2" />
<path stroke="#e69c69" d="M18 15h2M17 16h3M18 17h3M19 18h1M15 19h2M21 19h2M14 20h4M20 20h1M23 20h1M15 21h3M20 21h1M23 21h1M16 22h1M21 22h2M13 23h2M18 23h2M23 23h2M12 24h1M15 24h1M17 24h4M22 24h1M25 24h1M12 25h1M15 25h1M17 25h3M22 25h1M24 25h2M13 26h2M23 26h2" />
<path stroke="#bf6f4a" d="M20 16h1M17 17h1M18 18h1M21 20h2M14 21h1M21 21h2M15 22h1M13 24h2M23 24h2M13 25h2M20 25h1M23 25h1M18 26h2" />
</svg>