<svg xmlns="http://www.w3.org/2000/svg" viewBox="0 -0.5 32 32" shape-rendering="crispEdges">
<metadata>Made with Pixels to Svg https://codepen.io/shshaw/pen/XbxvNj</metadata>
<path stroke="#322b41" d="M10 5h4M8 6h2M14 6h2M7 7h1M16 7h2M7 8h1M18 8h2M6 9h1M20 9h2M6 10h1M22 10h2M6 11h1M24 11h1M6 12h1M25 12h1M4 13h3M26 13h1M3 14h1M7 14h1M26 14h1M2 15h1M8 15h2M26 15h1M2 16h1M10 16h2M26 16h1M1 17h1M12 17h2M26 17h1M1 18h1M14 18h2M25 18h3M1 19h1M16 19h2M24 19h1M28 19h1M1 20h1M18 20h6M29 20h1M1 21h1M20 21h1M30 21h1M2 22h1M20 22h1M30 22h1M3 23h1M20 23h1M30 23h1M4 24h2M20 24h1M30 24h1M6 25h2M20 25h1M30 25h1M8 26h2M19 26h1M29 26h1M10 27h2M18 27h1M20 27h2M28 27h1M12 28h6M22 28h6" />
<path stroke="#79676d" d="M10 6h1M13 6h1M9 7h1M15 7h1M8 8h1M14 8h2M17 8h1M8 9h1M10 9h2M16 9h2M19 9h1M7 10h1M10 10h1M12 10h2M18 10h2M21 10h1M7 11h2M10 11h1M12 11h1M14 11h2M19 11h2M23 11h1M7 12h1M9 12h1M12 12h1M14 12h1M18 12h1M8 13h1M11 13h3M16 13h2M5 14h1M9 14h2M15 14h3M6 15h1M11 15h3M16 15h1M3 16h1M8 16h1M13 16h2M16 16h1M3 17h3M10 17h1M14 17h1M2 18h1M4 18h1M6 18h2M12 18h1M16 18h1M2 19h2M6 19h1M8 19h2M13 19h2M18 19h1M25 19h1M2 20h1M6 20h1M8 20h1M12 20h1M3 21h1M5 21h1M7 21h1M10 21h2M19 21h1M22 21h1M4 22h1M7 22h1M9 22h1M11 22h1M5 23h4M21 23h1M7 24h1M10 24h1M21 24h1M8 25h1M11 25h1M10 26h2M22 26h1M12 27h2" />
<path stroke="#a08681" d="M11 6h2M10 7h5M9 8h5M16 8h1M9 9h1M12 9h4M18 9h1M11 10h1M14 10h4M20 10h1M9 11h1M13 11h1M16 11h3M21 11h2M10 12h2M15 12h3M19 12h1M24 12h1M18 13h1M25 13h1M13 14h2M4 15h2M14 15h2M17 15h1M4 16h4M17 16h1M6 17h4M17 17h1M5 18h1M8 18h4M17 18h2M4 19h1M7 19h1M10 19h3M15 19h1M19 19h1M26 19h1M4 20h2M9 20h3M13 20h1M24 20h1M28 20h1M6 21h1M12 21h1M8 22h1M9 23h3M11 24h1M12 26h1M23 27h1" />
<path stroke="#5a4e6a" d="M8 7h1M7 9h1M8 10h2M11 11h1M8 12h1M13 12h1M7 13h1M9 13h2M14 13h2M4 14h1M6 14h1M8 14h1M11 14h2M3 15h1M7 15h1M10 15h1M9 16h1M12 16h1M15 16h1M2 17h1M11 17h1M15 17h2M3 18h1M13 18h1M5 19h1M3 20h1M7 20h1M2 21h1M4 21h1M8 21h2M21 21h1M3 22h1M5 22h2M10 22h1M21 22h1M4 23h1M6 24h1M8 24h2M9 25h2M21 25h1M20 26h2M22 27h1" />
<path stroke="#e07438" d="M20 12h1M23 12h1M18 14h1M25 14h1M18 17h1M25 17h1M20 19h1M23 19h1M27 19h1M14 20h1M17 20h1M23 21h1M29 21h1M12 22h1M19 22h1M12 25h1M19 25h1M22 25h1M29 25h1M14 27h1M17 27h1M24 27h1M27 27h1" />
<path stroke="#edab50" d="M21 12h2M19 13h6M19 14h6M18 15h4M23 15h3M18 16h3M22 16h4M19 17h6M19 18h6M21 19h2M15 20h2M25 20h3M13 21h6M24 21h5M13 22h6M22 22h8M12 23h3M16 23h4M22 23h3M26 23h4M12 24h4M17 24h3M22 24h4M27 24h3M13 25h6M23 25h6M13 26h6M23 26h6M15 27h2M25 27h2" />
<path stroke="#bb7547" d="M22 15h1M21 16h1M15 23h1M25 23h1M16 24h1M26 24h1" />
</svg>