<svg xmlns="http://www.w3.org/2000/svg" viewBox="0 -0.5 32 32" shape-rendering="crispEdges">
<metadata>Made with Pixels to Svg https://codepen.io/shshaw/pen/XbxvNj</metadata>
<path stroke="#423934" d="M6 4h1M12 4h1M5 5h1M7 5h1M11 5h1M13 5h1M4 6h1M8 6h1M10 6h1M14 6h1M3 7h1M9 7h1M15 7h1M2 8h1M10 8h1M16 8h1M2 9h1M11 9h1M17 9h1M2 10h1M12 10h1M18 10h1M3 11h1M13 11h1M19 11h1M4 12h1M14 12h1M20 12h1M5 13h1M15 13h1M21 13h1M6 14h1M16 14h1M22 14h1M7 15h1M17 15h1M23 15h1M8 16h1M18 16h1M24 16h1M9 17h1M19 17h1M25 17h1M10 18h1M20 18h1M26 18h1M11 19h1M21 19h1M27 19h1M12 20h1M22 20h1M28 20h1M13 21h1M23 21h1M29 21h1M14 22h1M24 22h1M30 22h1M15 23h1M24 23h1M30 23h1M16 24h1M24 24h1M30 24h1M17 25h1M23 25h1M29 25h1M18 26h1M22 26h1M24 26h1M28 26h1M19 27h1M21 27h1M25 27h1M27 27h1M20 28h1M26 28h1" />
<path stroke="#dba463" d="M6 5h1M5 6h1M7 6h1M11 6h1M13 6h1M5 7h2M8 7h1M11 7h2M14 7h1M3 8h2M6 8h2M9 8h1M12 8h2M15 8h1M4 9h2M7 9h4M12 9h3M16 9h1M5 10h2M8 10h4M14 10h4M6 11h2M9 11h4M15 11h4M7 12h4M12 12h2M16 12h1M18 12h2M8 13h4M13 13h2M16 13h2M19 13h2M9 14h4M14 14h2M17 14h2M20 14h2M10 15h4M15 15h2M18 15h2M21 15h2M11 16h4M16 16h2M19 16h5M12 17h1M14 17h2M17 17h2M20 17h2M23 17h2M13 18h1M15 18h5M21 18h2M24 18h1M14 19h1M16 19h5M22 19h4M15 20h1M17 20h2M20 20h2M23 20h4M16 21h4M21 21h2M25 21h4M17 22h4M22 22h1M26 22h3M18 23h4M25 23h1M27 23h2M19 24h3M25 24h2M20 25h1" />
<path stroke="#bb7547" d="M12 5h1M6 6h1M4 7h1M7 7h1M10 7h1M8 8h1M11 8h1M14 8h1M15 9h1M7 10h1M13 10h1M8 11h1M14 11h1M11 12h1M15 12h1M17 12h1M14 15h1M20 15h1M15 16h1M13 17h1M16 17h1M22 17h1M23 18h1M25 18h1M26 19h1M16 20h1M19 20h1M27 20h1M20 21h1M24 21h1M21 22h1M23 22h1M25 22h1M29 22h1M22 23h1M26 23h1M27 24h1M26 25h1" />
<path stroke="#5a4e44" d="M12 6h1M13 7h1M5 8h1M3 9h1M6 9h1M3 10h2M4 11h2M5 12h2M6 13h2M12 13h1M18 13h1M7 14h2M13 14h1M19 14h1M8 15h2M9 16h2M10 17h2M11 18h2M14 18h1M12 19h2M15 19h1M13 20h2M14 21h2M15 22h2M16 23h2M23 23h1M29 23h1M17 24h2M22 24h2M28 24h2M18 25h2M21 25h2M24 25h2M27 25h2M19 26h3M25 26h3M20 27h1M26 27h1" />
</svg>