<svg xmlns="http://www.w3.org/2000/svg" viewBox="0 -0.5 32 32" shape-rendering="crispEdges">
<metadata>Made with Pixels to Svg https://codepen.io/shshaw/pen/XbxvNj</metadata>
<path stroke="#1b1b1b" d="M12 10h8M9 11h3M20 11h5M7 12h2M25 12h1M5 13h2M26 13h1M4 14h1M27 14h1M3 15h1M13 15h5M28 15h1M3 16h1M11 16h2M18 16h1M28 16h1M3 17h1M10 17h1M18 17h1M28 17h1M4 18h1M9 18h1M19 18h1M28 18h1M5 19h4M20 19h1M28 19h1M21 20h1M27 20h1M22 21h5" />
<path stroke="#5d5d5d" d="M12 11h1M19 11h1M9 12h1M24 12h1M7 13h1M21 13h1M5 14h3M4 15h5M12 15h1M18 15h1M27 15h1M5 16h6M7 17h2M19 17h1M5 18h1M26 18h1M22 20h1M26 20h1" />
<path stroke="#858585" d="M13 11h1M15 11h1M18 11h1M10 12h4M15 12h1M18 12h2M23 12h1M8 13h11M24 13h2M8 14h11M25 14h2M9 15h3M26 15h1M4 16h1M19 16h1M27 16h1M4 17h3M9 17h1M20 17h2M6 18h3M20 18h3M21 19h3M27 19h1M23 20h3" />
<path stroke="#b4b4b4" d="M14 11h1M16 11h2M14 12h1M16 12h2M20 12h3M19 13h2M19 14h2M19 15h2M20 16h1M27 17h1M27 18h1M24 19h3" />
<path stroke="#3d3d3d" d="M22 13h2M21 14h4M21 15h5M21 16h6M22 17h5M23 18h3" />
</svg>