<svg xmlns="http://www.w3.org/2000/svg" viewBox="0 -0.5 32 32" shape-rendering="crispEdges">
<metadata>Made with Pixels to Svg https://codepen.io/shshaw/pen/XbxvNj</metadata>
<path stroke="#1b1b1b" d="M10 3h5M9 4h1M15 4h1M8 5h1M11 5h3M16 5h1M8 6h1M10 6h5M16 6h1M8 7h1M11 7h3M16 7h3M8 8h1M16 8h1M19 8h4M8 9h1M16 9h1M23 9h5M8 10h1M16 10h1M28 10h3M8 11h1M16 11h1M30 11h1M8 12h1M16 12h1M30 12h1M3 13h3M8 13h1M16 13h1M29 13h1M2 14h1M6 14h3M16 14h1M29 14h1M1 15h1M8 15h2M16 15h1M29 15h1M1 16h1M10 16h2M16 16h1M29 16h1M1 17h1M12 17h2M16 17h1M29 17h1M1 18h1M14 18h2M28 18h1M1 19h1M16 19h2M28 19h1M2 20h1M18 20h2M28 20h1M3 21h1M20 21h2M28 21h1M4 22h2M22 22h1M28 22h1M6 23h2M23 23h1M28 23h1M8 24h2M20 24h3M24 24h1M27 24h1M10 25h2M19 25h4M24 25h1M27 25h1M12 26h2M19 26h4M24 26h4M14 27h2M19 27h4M24 27h1M16 28h2M23 28h1M18 29h5" />
<path stroke="#858585" d="M10 4h3M14 4h1M9 5h1M9 6h1M9 7h1M15 7h1M11 8h1M13 8h3M11 9h1M13 9h2M19 9h3M18 10h2M21 10h4M18 11h1M20 11h3M24 11h1M18 12h3M22 12h1M24 12h1M15 13h1M17 13h2M20 13h1M22 13h3M4 14h2M11 14h1M13 14h3M17 14h1M19 14h3M23 14h2M3 15h2M11 15h1M13 15h2M17 15h5M23 15h3M3 16h1M17 16h7M25 16h2M8 17h3M20 17h2M23 17h1M25 17h3M7 18h4M20 18h2M23 18h2M26 18h2M7 19h6M20 19h3M24 19h1M26 19h2M8 20h9M21 20h2M24 20h4M9 21h2M12 21h7M22 21h6M12 22h4M18 22h3M23 22h4M14 23h1M17 23h1M19 23h4M18 24h1M23 24h1M23 26h1M18 27h1M20 28h1" />
<path stroke="#5d5d5d" d="M13 4h1M15 5h1M15 6h1M9 8h2M12 8h1M10 9h1M12 9h1M22 9h1M20 10h1M25 10h1M19 11h1M25 11h1M9 13h1M19 13h1M3 14h1M9 14h2M12 14h1M18 14h1M25 14h1M2 15h1M5 15h3M10 15h1M12 15h1M2 16h1M4 16h2M8 16h2M15 16h1M24 16h1M2 17h3M7 17h1M11 17h1M14 17h2M22 17h1M24 17h1M3 18h2M22 18h1M25 18h1M5 19h2M19 19h1M23 19h1M25 19h1M3 20h1M7 20h1M17 20h1M20 20h1M23 20h1M4 21h2M11 21h1M19 21h1M6 22h2M11 22h1M21 22h1M27 22h1M8 23h1M13 23h1M18 23h1M24 23h4M17 24h1M19 24h1M25 24h2M17 25h1M25 25h2M14 26h2" />
<path stroke="#3d3d3d" d="M10 5h1M14 5h1M10 7h1M14 7h1M15 9h1M12 10h3M15 12h1M12 13h3M15 15h1M12 16h3M2 18h1M2 19h3M4 20h3M6 21h3M8 22h3M10 23h3M12 24h3M14 25h3M16 26h2M16 27h2M18 28h1" />
<path stroke="#a55c41" d="M17 8h2M17 9h1M9 10h1M17 10h1M27 10h1M9 11h2M12 11h1M17 11h1M23 11h1M10 12h1M12 12h1M21 12h1M23 12h1M25 12h1M28 12h2M21 13h1M25 13h1M22 14h1M26 14h1M22 15h1M26 15h1M6 16h2M5 17h2M17 17h1M28 17h1M5 18h2M16 18h3M18 19h1M9 23h1M10 24h2M12 25h2" />
<path stroke="#804029" d="M9 9h1M10 10h2M9 12h1M10 13h2" />
<path stroke="#bd765c" d="M18 9h1M15 10h1M26 10h1M11 11h1M13 11h3M26 11h4M11 12h1M13 12h2M17 12h1M26 12h2M26 13h3M27 14h2M27 15h2M27 16h2M18 17h2M11 18h3M19 18h1M13 19h3M16 22h2M15 23h2M15 24h2M18 25h1M23 25h1M18 26h1M23 27h1M19 28h1M21 28h2" />
</svg>