<svg xmlns="http://www.w3.org/2000/svg" viewBox="0 -0.5 32 32" shape-rendering="crispEdges">
<metadata>Made with Pixels to Svg https://codepen.io/shshaw/pen/XbxvNj</metadata>
<path stroke="#2b102a" d="M13 2h6M12 3h1M19 3h1M11 4h1M20 4h1M9 5h2M21 5h1M8 6h1M22 6h1M8 7h1M23 7h1M7 8h1M23 8h1M6 9h1M24 9h1M6 10h1M24 10h1M6 11h1M24 11h1M7 12h3M24 12h1M10 13h3M22 13h2M13 14h2M17 14h5M14 15h1M17 15h1M14 16h1M17 16h1M14 17h1M17 17h1M17 18h1M17 19h1M14 23h1M14 24h1M18 24h1M14 25h1M17 25h1M15 26h1M17 26h1M14 27h1M17 27h1M14 28h1M17 28h1M14 29h3" />
<path stroke="#c85086" d="M13 3h2M16 3h2M12 4h1M15 4h2M18 4h2M12 5h1M14 5h1M17 5h2M20 5h1M9 6h1M11 6h1M13 6h1M15 6h1M17 6h3M21 6h1M9 7h3M13 7h4M18 7h1M21 7h1M10 8h1M14 8h2M19 8h2M22 8h1M8 9h1M12 9h2M19 9h1M21 9h1M7 10h3M11 10h1M13 10h2M16 10h2M20 10h2M23 10h1M8 11h1M11 11h3M15 11h1M17 11h2M22 11h1M12 12h1M15 12h3M22 12h1M16 13h1" />
<path stroke="#622461" d="M15 3h1M18 3h1M17 4h1M11 5h1M13 5h1M16 5h1M12 6h1M20 6h1M12 7h1M17 7h1M11 8h3M16 8h1M9 9h2M14 9h2M17 9h2M22 9h2M10 10h1M15 10h1M18 10h1M22 10h1M7 11h1M9 11h2M14 11h1M20 11h1M10 12h2M14 12h1M18 12h2M21 12h1M13 13h3M17 13h2M21 13h1M15 14h2" />
<path stroke="#de8c69" d="M13 4h1M22 7h1M7 9h1M23 11h1" />
<path stroke="#93388f" d="M14 4h1M15 5h1M16 6h1M19 7h2M8 8h2M17 8h2M21 8h1M11 9h1M16 9h1M19 10h1M19 11h1M21 11h1M13 12h1M20 12h1M23 12h1M19 13h2" />
<path stroke="#ffae70" d="M19 5h1M10 6h1M14 6h1M20 9h1M12 10h1M16 11h1" />
<path stroke="#1b1f21" d="M7 15h4M7 16h1M11 16h2M23 16h3M7 17h1M13 17h1M21 17h2M25 17h1M8 18h1M14 18h1M19 18h2M25 18h1M9 19h1M18 19h1M24 19h1M10 20h1M18 20h1M23 20h1M11 21h1M22 21h1M12 22h2M21 22h1M19 23h2" />
<path stroke="#52333f" d="M15 15h1M16 17h1M16 18h1M15 20h1M17 20h1M15 21h1M17 21h1M15 22h1M17 22h1M16 23h2M16 24h2M15 25h1M16 28h1" />
<path stroke="#8e5252" d="M16 15h1M15 16h2M15 17h1M15 18h1M15 19h2M16 20h1M16 21h1M16 22h1M15 23h1M15 24h1M16 25h1M16 26h1M15 27h2M15 28h1" />
<path stroke="#3b7d4f" d="M8 16h3M8 17h2M11 17h2M23 17h2M10 18h1M13 18h1M21 18h2M24 18h1M10 19h2M20 19h1M23 19h1M12 20h2M19 20h1M22 20h1M13 21h2M20 21h2M19 22h2" />
<path stroke="#2f5753" d="M10 17h1M9 18h1M11 18h2M23 18h1M12 19h3M19 19h1M21 19h2M11 20h1M14 20h1M20 20h2M12 21h1M18 21h2M14 22h1M18 22h1M18 23h1" />
</svg>