<svg xmlns="http://www.w3.org/2000/svg" viewBox="0 -0.5 32 32" shape-rendering="crispEdges">
<metadata>Made with Pixels to Svg https://codepen.io/shshaw/pen/XbxvNj</metadata>
<path stroke="#03193f" d="M13 2h5M12 3h1M18 3h1M11 4h1M19 4h1M11 5h1M19 5h1M11 6h1M19 6h1M11 7h1M19 7h1M12 8h1M18 8h1M11 9h1M19 9h1M10 10h1M20 10h1M9 11h1M21 11h1M9 12h1M21 12h1M9 13h1M21 13h1M9 14h1M21 14h1M9 15h1M21 15h1M9 16h1M21 16h1M9 17h1M21 17h1M9 18h1M21 18h1M9 19h1M21 19h1M9 20h1M21 20h1M9 21h1M21 21h1M9 22h1M21 22h1M9 23h1M21 23h1M9 24h1M21 24h1M9 25h1M21 25h1M9 26h1M21 26h1M9 27h1M21 27h1M10 28h1M20 28h1M11 29h9" />
<path stroke="#8a4836" d="M13 3h1M16 3h2M13 5h1M18 5h1M16 6h2" />
<path stroke="#bf6f4a" d="M14 3h2M13 4h4M18 4h1M14 5h1M17 5h1" />
<path stroke="#5d2c28" d="M12 4h1M12 5h1M13 6h3" />
<path stroke="#e69c69" d="M17 4h1M15 5h2" />
<path stroke="#0098dc" d="M12 6h1M18 6h1M13 7h2M15 10h1M18 10h1M15 11h3M20 11h1M20 12h1M20 13h1M20 14h1M10 15h1M20 15h1M10 16h1M20 16h1M10 17h1M20 17h1M20 18h1M20 19h1M20 20h1M20 21h1M10 22h1M20 22h1M10 23h1M20 23h1M10 24h1M20 24h1M10 25h1M15 28h3" />
<path stroke="#0069aa" d="M12 7h1M18 7h1M14 8h4M16 9h1M14 10h1M12 12h8M11 13h1M19 13h1M10 14h1M10 18h1M10 19h1M10 20h1M10 21h1M20 25h1M10 26h1M20 26h1M11 27h1M19 27h2M13 28h2" />
<path stroke="#00cdf9" d="M15 7h3M16 10h2" />
<path stroke="#00396d" d="M13 8h1M12 9h4M17 9h2M11 10h3M19 10h1M10 11h5M18 11h2M10 12h2M10 13h1M10 27h1M11 28h2M18 28h2" />
<path stroke="#c7cfdd" d="M12 13h1M18 13h1M11 14h1M19 14h1M11 15h1M18 15h1M11 16h1M15 16h1M11 17h1M13 17h1M11 18h1M11 19h1M11 20h1M11 21h1M11 22h1M11 23h1M11 24h1M11 25h1M11 26h1M19 26h1M12 27h1M14 27h1M18 27h1" />
<path stroke="#ffffff" d="M13 13h1M17 13h1M12 14h1M15 14h4M13 15h1M16 15h2M19 16h1M14 17h6M13 18h5M19 18h1M13 19h4M19 19h1M13 20h4M19 20h1M13 21h7M13 22h5M19 22h1M13 23h4M19 23h1M13 24h4M18 24h2M13 25h7M13 26h6M15 27h3" />
<path stroke="#fef3c0" d="M14 13h3M13 14h2M14 15h2M18 18h1M17 19h2M17 20h2M18 22h1M17 23h2M17 24h1" />
<path stroke="#92a1b9" d="M12 15h1M19 15h1M12 16h3M16 16h3M12 17h1M12 18h1M12 19h1M12 20h1M12 21h1M12 22h1M12 23h1M12 24h1M12 25h1M12 26h1M13 27h1" />
</svg>