<svg xmlns="http://www.w3.org/2000/svg" viewBox="0 -0.5 32 32" shape-rendering="crispEdges">
<metadata>Made with Pixels to Svg https://codepen.io/shshaw/pen/XbxvNj</metadata>
<path stroke="#272727" d="M14 2h2M17 2h2M12 3h2M16 3h1M19 3h2M11 4h1M21 4h2M10 5h1M22 5h1M9 6h1M20 6h2M10 7h2M21 7h1M10 8h1M13 8h1M16 8h1M19 8h2M11 9h2M14 9h1M16 9h3M15 10h1" />
<path stroke="#ffffff" d="M14 3h2M18 3h1M19 4h2M12 5h2M21 5h1M10 6h2M18 6h2M12 7h2M16 7h2M19 7h2M11 8h1M14 8h1M17 8h1" />
<path stroke="#c7cfdd" d="M17 3h1M12 4h1M18 4h1M11 5h1M19 5h2M12 6h1M14 7h1M18 7h1M12 8h1M15 8h1M18 8h1M15 9h1" />
<path stroke="#92a1b9" d="M13 4h2M18 5h1M13 6h1M17 6h1M15 7h1" />
<path stroke="#ffc825" d="M15 4h1M17 4h1M14 5h1M15 6h1" />
<path stroke="#ffeb57" d="M16 4h1M15 5h2" />
<path stroke="#ffa214" d="M17 5h1M14 6h1M16 6h1" />
<path stroke="#33984b" d="M16 10h1M20 15h1M13 16h1M20 16h1M17 17h1M19 17h1M17 18h1M19 18h1M13 19h1M14 22h1M17 22h1M14 23h1M16 26h1M16 27h1" />
<path stroke="#134c4c" d="M17 10h1M15 11h1M17 11h1M15 12h1M18 12h1M18 13h1M18 14h1M20 14h1M13 15h1M18 15h2M12 16h1M14 16h1M18 16h1M12 17h1M14 17h1M18 17h1M15 18h1M18 18h1M15 19h1M15 20h1M15 21h1M15 22h1" />
<path stroke="#5ac54f" d="M16 11h1M16 12h1M17 13h1M17 14h1M17 15h1M17 16h1M13 17h1M13 18h1M14 19h1M17 19h1M14 20h1M17 20h1M14 21h1M17 21h1M16 22h1M16 23h1M16 24h1M16 25h1" />
<path stroke="#1e6f50" d="M17 12h1M16 13h1M19 16h1M20 17h1M14 18h1M18 19h2M13 20h1M16 20h1M18 20h1M16 21h1M18 21h1M15 23h1M17 23h1M14 24h2M15 25h1M15 26h1M16 28h1M16 29h1" />
<path stroke="#0c2e44" d="M15 13h1M16 14h1M16 15h1M21 15h1M16 16h1M21 16h1M16 17h1M21 17h1M12 18h1M16 18h1M20 18h1M12 19h1M16 19h1M20 19h1M12 20h1M19 20h1M13 21h1M19 21h1M13 22h1M18 22h1M13 23h1M18 23h1M13 24h1M17 24h1M14 25h1M17 25h1M14 26h1M17 26h1M15 27h1M17 27h1M15 28h1M17 28h1M15 29h1M17 29h1M15 30h2" />
</svg>