<svg xmlns="http://www.w3.org/2000/svg" viewBox="0 -0.5 32 32" shape-rendering="crispEdges">
<metadata>Made with Pixels to Svg https://codepen.io/shshaw/pen/XbxvNj</metadata>
<path stroke="#1c121c" d="M12 5h7M11 6h1M19 6h2M8 7h3M21 7h2M7 8h1M23 8h1M6 9h1M24 9h1M5 10h1M25 10h1M4 11h1M26 11h1M4 12h1M27 12h1M4 13h1M27 13h1M4 14h1M27 14h1M4 15h1M27 15h1M3 16h1M28 16h1M2 17h1M29 17h1M1 18h1M30 18h1M1 19h1M30 19h1M1 20h1M29 20h1M2 21h3M25 21h4M5 22h4M18 22h7M2 23h2M9 23h9M25 23h5M1 24h1M4 24h3M20 24h5M30 24h1M1 25h1M7 25h7M20 25h1M30 25h1M2 26h1M13 26h1M21 26h1M27 26h3M3 27h2M11 27h2M22 27h5M5 28h6" />
<path stroke="#bf7958" d="M12 6h1M16 6h2M15 7h5M9 8h10M22 8h1M7 9h15M23 9h1M6 10h18M6 11h14M21 11h4M9 12h2M12 12h4M20 12h3M24 12h1M8 13h4M18 13h4M24 13h1M9 14h4M16 14h5M11 15h3M15 15h5M25 16h3M6 17h2M12 17h2M17 17h3M24 17h5M5 18h1M14 18h1M16 18h2M26 18h1M28 18h1M4 19h3M11 19h1M16 19h2M20 19h5M27 19h1M4 20h9M22 20h5M6 21h7M3 24h1M26 24h3M3 25h3M24 25h5M4 26h8M7 27h2" />
<path stroke="#e6a377" d="M13 6h3M19 8h3M22 9h1M23 12h1M22 13h2M21 14h2M5 17h1M6 18h2M27 18h1M7 19h4M25 19h2" />
<path stroke="#8a5546" d="M18 6h1M11 7h4M20 7h1M8 8h1M24 10h1M5 11h1M20 11h1M25 11h1M5 12h4M11 12h1M16 12h4M25 12h2M7 13h1M12 13h6M25 13h2M6 14h3M13 14h3M23 14h4M6 15h1M10 15h1M14 15h1M20 15h1M23 15h4M4 16h2M13 16h6M22 16h3M3 17h2M10 17h2M14 17h3M20 17h4M2 18h3M8 18h1M13 18h1M15 18h1M18 18h1M22 18h4M29 18h1M2 19h2M12 19h1M14 19h2M19 19h1M28 19h2M2 20h2M21 20h1M27 20h2M5 21h1M15 21h10M9 22h2M14 22h3M2 24h1M25 24h1M29 24h1M2 25h1M6 25h1M21 25h3M29 25h1M3 26h1M12 26h1M22 26h5M5 27h2M9 27h2" />
<path stroke="#5c3835" d="M5 13h2M5 14h1M5 15h1M7 15h3M21 15h2M6 16h7M19 16h3M8 17h2M9 18h4M19 18h3M13 19h1M18 19h1M13 20h8M13 21h2M11 22h3M17 22h1" />
</svg>