<svg xmlns="http://www.w3.org/2000/svg" viewBox="0 -0.5 32 32" shape-rendering="crispEdges">
<metadata>Made with Pixels to Svg https://codepen.io/shshaw/pen/XbxvNj</metadata>
<path stroke="#141013" d="M10 6h3M6 7h4M13 7h1M5 8h1M14 8h1M5 9h1M15 9h2M3 10h2M17 10h2M2 11h1M19 11h3M2 12h1M22 12h1M2 13h1M23 13h2M2 14h1M25 14h2M3 15h1M27 15h2M3 16h1M29 16h1M3 17h1M29 17h1M4 18h1M29 18h1M4 19h1M29 19h1M4 20h1M29 20h1M5 21h1M29 21h1M5 22h1M29 22h1M5 23h1M29 23h1M6 24h23" />
<path stroke="#8a5546" d="M10 7h1M8 8h1M13 8h1M10 9h2M6 10h1M8 10h2M7 11h1M5 12h1M4 13h1M3 14h1M4 15h1M5 16h1M12 16h1M7 17h3M14 17h1M18 17h1M24 17h1M6 18h4M11 18h5M17 18h5M26 18h1M28 18h1M6 19h1M8 19h21M5 20h1M8 20h2M11 20h18M8 21h2M12 21h2M17 21h4M24 21h4M9 22h2M14 22h1M22 22h2M6 23h1M12 23h1M14 23h1M18 23h2M21 23h1M26 23h1M28 23h1" />
<path stroke="#bf7958" d="M11 7h2M6 8h2M10 8h3M6 9h3M12 9h1M7 10h1M10 10h1M14 10h3M3 11h3M8 11h1M13 11h2M17 11h2M3 12h2M6 12h1M11 12h2M16 12h2M21 12h1M9 13h2M15 13h1M19 13h3M8 14h2M12 14h2M18 14h2M24 14h1M5 15h2M11 15h2M15 15h2M22 15h2M26 15h1M13 16h6M20 16h2M28 16h1M5 17h1M25 17h2M5 18h1M5 19h1M6 20h1M6 21h1M6 22h2M7 23h5M13 23h1M15 23h3M20 23h1M22 23h4M27 23h1" />
<path stroke="#5c3835" d="M9 8h1M9 9h1M5 10h1M6 11h1M3 13h1M4 14h1M4 16h1M6 16h6M4 17h1M6 17h1M10 17h4M15 17h3M19 17h5M27 17h2M10 18h1M16 18h1M22 18h4M27 18h1M7 19h1M7 20h1M10 20h1M7 21h1M10 21h2M14 21h3M21 21h3M28 21h1M8 22h1M11 22h3M15 22h7M24 22h5" />
<path stroke="#e6a377" d="M13 9h2M11 10h3M9 11h4M15 11h2M7 12h4M13 12h3M18 12h3M5 13h4M11 13h4M16 13h3M22 13h1M5 14h3M10 14h2M14 14h4M20 14h4M7 15h4M13 15h2M17 15h5M24 15h2M19 16h1M22 16h6" />
</svg>