<svg xmlns="http://www.w3.org/2000/svg" viewBox="0 -0.5 32 32" shape-rendering="crispEdges">
<metadata>Made with Pixels to Svg https://codepen.io/shshaw/pen/XbxvNj</metadata>
<path stroke="#1c121c" d="M10 4h12M7 5h3M22 5h3M5 6h2M25 6h2M4 7h1M27 7h1M3 8h1M28 8h1M3 9h1M28 9h1M3 10h1M28 10h1M3 11h1M28 11h1M3 12h1M28 12h1M3 13h1M28 13h1M3 14h1M28 14h1M3 15h1M28 15h1M3 16h1M28 16h1M3 17h1M28 17h1M3 18h1M28 18h1M4 19h1M27 19h1M4 20h1M27 20h1M5 21h1M26 21h1M5 22h1M26 22h1M6 23h1M25 23h1M7 24h1M24 24h1M8 25h2M22 25h2M10 26h12" />
<path stroke="#4fa4b8" d="M10 5h1M13 5h1M15 5h7M7 6h3M22 6h3M6 7h1M25 7h1M5 8h1M26 8h1M4 9h1M27 9h1M4 10h1M4 11h1M27 11h1M4 12h1M27 12h1M4 13h1M4 14h1M27 14h1M4 15h2M27 15h1M5 16h3M6 17h13M20 17h1M23 17h1M8 18h11M20 18h1M23 18h1M23 20h2M16 21h1M18 21h3M22 21h3M16 22h1M18 22h3M22 22h2" />
<path stroke="#92e8c0" d="M11 5h2M14 5h1M27 10h1M27 13h1M26 15h1M24 16h3M19 17h1M21 17h2M24 17h2M19 18h1M21 18h2" />
<path stroke="#fa6a0a" d="M10 6h12M7 7h1M24 7h1M5 9h1M8 9h1M13 9h2M17 9h3M22 9h2M26 9h1M7 10h1M14 10h3M18 10h1M21 10h2M24 10h2M6 11h2M12 11h1M14 11h1M17 11h2M23 11h1M25 11h1M5 12h1M10 12h1M12 12h4M18 12h1M25 12h2M5 13h1M11 13h1M13 13h1M19 13h1M24 13h1M26 13h1M5 14h2M9 14h3M18 14h1M21 14h2M25 14h2M6 15h3M10 15h1M12 15h1M18 15h1M21 15h1M25 15h1M8 16h4M13 16h1M15 16h1M20 16h1M22 16h2" />
<path stroke="#4c6885" d="M5 7h1M26 7h1M4 8h1M27 8h1M4 16h1M27 16h1M27 17h1M7 18h1M26 18h2M16 19h1M20 19h2M24 19h3M12 20h11M25 20h2M11 21h5M17 21h1M21 21h1M25 21h1M11 22h5M17 22h1M21 22h1M24 22h2M11 23h14M11 24h12M12 25h8" />
<path stroke="#df3e23" d="M8 7h16M6 8h9M18 8h8M6 9h2M24 9h2M5 10h1M26 10h1M5 11h1M11 11h1M22 11h1M26 11h1M8 13h1M17 15h1" />
<path stroke="#3b7d4f" d="M15 8h1M7 12h1M24 15h1" />
<path stroke="#63ab3f" d="M16 8h2M15 9h2M6 12h1M6 13h2M25 13h1M7 14h2M19 14h2M23 14h2M11 15h1M19 15h2M22 15h2" />
<path stroke="#f4d29c" d="M9 9h4M20 9h1M8 10h4M13 10h1M19 10h1M8 11h1M10 11h1M16 11h1M19 11h3M8 12h1M17 12h1M19 12h4M24 12h1M9 13h2M14 13h2M17 13h1M20 13h4M12 14h1M15 14h3M13 15h4" />
<path stroke="#dba463" d="M21 9h1M12 10h1M20 10h1M9 11h1M13 11h1M15 11h1M24 11h1M9 12h1M16 12h1M23 12h1M12 13h1M16 13h1M13 14h2" />
<path stroke="#f9a31b" d="M6 10h1M17 10h1M23 10h1M11 12h1M18 13h1M9 15h1M12 16h1M14 16h1M16 16h4M21 16h1" />
<path stroke="#3a3f5e" d="M4 17h2M26 17h1M4 18h3M24 18h2M5 19h11M17 19h3M22 19h2M5 20h7M6 21h5M6 22h5M7 23h4M8 24h3M23 24h1M10 25h2M20 25h2" />
</svg>