<svg xmlns="http://www.w3.org/2000/svg" viewBox="0 -0.5 32 32" shape-rendering="crispEdges">
<metadata>Made with Pixels to Svg https://codepen.io/shshaw/pen/XbxvNj</metadata>
<path stroke="#000000" d="M11 4h15M10 5h1M26 5h1M9 6h1M27 6h1M4 7h6M27 7h1M3 8h1M27 8h1M2 9h1M27 9h1M2 10h1M6 10h4M27 10h1M2 11h1M5 11h1M9 11h1M27 11h1M2 12h1M5 12h1M9 12h1M27 12h1M2 13h1M5 13h1M9 13h1M27 13h1M2 14h1M5 14h1M9 14h1M27 14h1M2 15h1M6 15h1M9 15h1M27 15h1M3 16h1M6 16h1M9 16h1M27 16h1M3 17h1M7 17h1M9 17h1M27 17h1M4 18h1M7 18h1M9 18h1M27 18h1M4 19h1M8 19h2M27 19h1M5 20h1M27 20h1M6 21h1M27 21h1M7 22h2M27 22h1M9 23h1M27 23h1M9 24h1M27 24h1M9 25h1M27 25h1M10 26h1M26 26h1M11 27h2M24 27h2M13 28h11" />
<path stroke="#c7cfdd" d="M11 5h1M25 5h1M11 6h1M25 6h1M8 8h1M11 8h1M25 8h1M8 9h1M5 10h1M12 10h1M24 10h1M3 12h2M3 13h2M3 14h2M4 15h1M4 16h2M4 17h2M5 18h2M5 19h2M6 20h3M8 21h1M11 24h1M25 24h1M12 25h1M24 25h1M11 26h1M25 26h1M13 27h1M23 27h1" />
<path stroke="#ffffff" d="M12 5h13M10 6h1M26 6h1M10 7h1M26 7h1M4 8h4M10 8h1M26 8h1M3 9h5M10 9h17M3 10h2M10 10h1M13 10h11M26 10h1M3 11h2M10 11h1M26 11h1M10 12h1M26 12h1M10 13h1M26 13h1M10 14h1M26 14h1M10 15h1M26 15h1M10 16h1M26 16h1M10 17h1M26 17h1M10 18h1M26 18h1M10 19h1M26 19h1M10 20h1M26 20h1M10 21h1M26 21h1M10 22h1M26 22h1M10 23h1M26 23h1M10 24h1M26 24h1M10 25h2M25 25h2M12 26h13M14 27h9" />
<path stroke="#3b7d4f" d="M12 6h4M20 6h5M11 7h3M17 7h3M24 7h2M12 8h1M16 8h2M21 8h2M24 8h1M25 10h1M17 11h4M25 11h1M12 12h1M15 12h3M24 12h1M12 13h2M21 13h3M14 14h8" />
<path stroke="#63ab3f" d="M16 6h4M14 7h3M20 7h4M13 8h3M18 8h3M23 8h1M11 10h1M11 11h6M21 11h4M11 12h1M13 12h2M18 12h6M25 12h1M14 13h7M24 13h1M13 14h1M22 14h1M23 15h2M12 16h1M14 16h2M18 16h1M21 16h1M24 16h1M12 17h1M19 17h1M22 17h1M24 17h1M12 18h3M16 18h1M20 18h1M25 18h1M14 19h1M16 19h1M18 19h1M20 19h2M25 19h1M14 20h1M18 20h1M21 20h2M14 21h4M22 21h1M17 22h3M25 22h1M11 23h1M19 23h2M25 23h1M12 24h2M21 24h4M13 25h4" />
<path stroke="#92a1b9" d="M9 8h1M9 9h1M3 15h1M5 15h1M6 17h1M7 19h1M9 20h1M7 21h1M9 21h1M9 22h1" />
<path stroke="#c8d45d" d="M11 13h1M11 14h2M12 15h11M13 16h1M16 16h2M19 16h2M22 16h2M13 17h6M20 17h2M23 17h1M15 18h1M17 18h3M21 18h4M13 19h1M15 19h1M17 19h1M19 19h1M22 19h3M15 20h3M19 20h2M23 20h3M18 21h4M23 21h3M16 22h1M20 22h5M12 23h1M18 23h1M21 23h4M14 24h1M17 25h7" />
<path stroke="#ffee83" d="M25 13h1M23 14h3M11 15h1M25 15h1M11 16h1M25 16h1M11 17h1M25 17h1M11 18h1M11 19h2M11 20h3M11 21h3M11 22h5M13 23h5M15 24h6" />
</svg>