<svg xmlns="http://www.w3.org/2000/svg" viewBox="0 -0.5 32 32" shape-rendering="crispEdges">
<metadata>Made with Pixels to Svg https://codepen.io/shshaw/pen/XbxvNj</metadata>
<path stroke="#283540" d="M14 0h2M14 1h1M16 1h1M14 2h1M17 2h1M14 3h1M17 3h1M13 4h1M18 4h1M13 5h1M18 5h1M13 6h1M18 6h1M10 7h4M18 7h4M8 8h2M14 8h1M17 8h1M22 8h2M7 9h1M14 9h1M16 9h1M24 9h1M6 10h1M16 10h1M19 10h2M25 10h1M6 11h1M8 11h3M21 11h2M25 11h1M6 12h2M9 12h1M17 12h1M23 12h3M8 13h6M17 13h7M6 14h2M14 14h1M24 14h2M5 15h1M26 15h1M4 16h1M17 16h4M27 16h1M3 17h1M9 17h1M14 17h1M21 17h2M28 17h1M3 18h1M7 18h2M12 18h3M17 18h1M23 18h2M28 18h1M3 19h4M8 19h1M18 19h2M23 19h1M25 19h4M9 20h1M14 20h1M17 20h1M20 20h4M8 21h1M13 21h1M17 21h1M21 21h1M8 22h1M12 22h1M17 22h1M22 22h1M7 23h1M11 23h2M17 23h1M22 23h1M7 24h1M11 24h2M14 24h1M17 24h2M23 24h1M7 25h1M10 25h1M12 25h3M17 25h1M19 25h1M23 25h1M7 26h1M9 26h1M14 26h1M16 26h1M19 26h1M23 26h1M7 27h2M14 27h1M16 27h1M20 27h1M23 27h1M14 28h1M17 28h1M21 28h1M23 28h1M14 29h1M17 29h1M22 29h2M14 30h1M17 30h1M15 31h2" />
<path stroke="#63ab3f" d="M15 1h1M15 2h2M16 3h1M14 4h1M16 4h2M14 5h2M17 5h1M14 6h2M17 6h1M15 7h1M10 8h1M12 8h1M21 8h1M8 9h1M13 9h1M23 9h1M7 10h6M15 10h1M21 10h2M24 10h1M15 11h1M23 11h2M15 12h1M15 14h1M18 14h2M23 14h1M6 15h1M10 15h2M15 15h1M20 15h3M25 15h1M5 16h1M8 16h2M15 16h1M22 16h3M26 16h1M4 17h4M15 17h1M24 17h4M5 18h2M15 18h1M26 18h2M11 19h1M16 19h1M10 20h1M12 20h2M9 21h1M11 21h2M16 21h1M10 22h2M16 22h1M8 23h1M10 23h1M16 23h1M19 23h1M21 23h1M8 24h3M15 24h1M19 24h1M21 24h1M8 25h1M15 25h1M20 25h1M22 25h1M15 26h1M21 26h2M15 27h1M22 27h1M15 28h1M16 29h1M16 30h1" />
<path stroke="#3b7d4f" d="M15 3h1M15 4h1M16 5h1M16 6h1M14 7h1M16 7h1M15 8h1M19 8h2M9 9h3M15 9h1M17 9h1M20 9h3M13 10h2M23 10h1M7 11h1M14 11h1M17 11h1M16 12h1M15 13h1M8 14h1M12 14h2M17 14h1M20 14h3M9 15h1M12 15h1M14 15h1M16 15h4M23 15h2M7 16h1M10 16h1M16 16h1M21 16h1M25 16h1M8 17h1M23 17h1M4 18h1M25 18h1M12 19h1M15 19h1M11 20h1M16 20h1M10 21h1M9 22h1M18 22h1M20 22h2M9 23h1M15 23h1M18 23h1M22 24h1M9 25h1M8 26h1M20 26h1M21 27h1M16 28h1M22 28h1M15 29h1M15 30h1" />
<path stroke="#c8d45d" d="M17 7h1M11 8h1M13 8h1M16 8h1M18 8h1M12 9h1M11 11h1M13 11h1M18 11h1M20 11h1M12 12h1M14 12h1M19 12h1M12 16h1M14 16h1M11 17h1M13 17h1M17 17h1M19 17h1M18 18h1M20 18h1M19 20h1M14 21h1M18 21h1M20 21h1M13 22h1" />
<path stroke="#2f5753" d="M18 9h2M17 10h2M12 11h1M16 11h1M19 11h1M10 12h2M13 12h1M18 12h1M20 12h3M14 13h1M16 13h1M9 14h3M16 14h1M7 15h2M13 15h1M6 16h1M11 16h1M13 16h1M10 17h1M12 17h1M16 17h1M18 17h1M20 17h1M9 18h3M16 18h1M19 18h1M21 18h2M9 19h2M13 19h2M17 19h1M20 19h3M15 20h1M18 20h1M15 21h1M19 21h1M14 22h2M19 22h1M13 23h2M20 23h1M13 24h1M16 24h1M20 24h1M16 25h1M21 25h1" />
</svg>