<svg xmlns="http://www.w3.org/2000/svg" viewBox="0 -0.5 32 32" shape-rendering="crispEdges">
<metadata>Made with Pixels to Svg https://codepen.io/shshaw/pen/XbxvNj</metadata>
<path stroke="#1c121c" d="M26 3h3M25 4h1M28 4h1M24 5h1M27 5h2M23 6h1M26 6h1M28 6h1M22 7h1M25 7h2M28 7h1M21 8h1M24 8h1M26 8h1M28 8h1M20 9h1M23 9h1M26 9h1M28 9h1M19 10h1M22 10h1M26 10h1M28 10h1M18 11h1M21 11h1M26 11h1M28 11h1M17 12h1M20 12h1M26 12h1M28 12h1M16 13h1M19 13h1M26 13h1M28 13h1M15 14h1M18 14h1M26 14h1M28 14h1M14 15h1M17 15h1M26 15h1M28 15h1M13 16h1M16 16h1M26 16h1M28 16h1M12 17h1M15 17h1M26 17h1M28 17h1M11 18h1M14 18h1M26 18h1M28 18h1M10 19h1M13 19h1M26 19h1M28 19h1M9 20h1M12 20h1M26 20h1M28 20h1M8 21h1M11 21h1M26 21h1M28 21h1M7 22h1M10 22h1M26 22h1M28 22h1M6 23h1M9 23h1M26 23h1M28 23h1M5 24h1M8 24h1M26 24h1M28 24h1M4 25h1M7 25h1M26 25h1M28 25h1M3 26h1M6 26h1M25 26h1M27 26h3M2 27h1M5 27h1M25 27h1M27 27h1M29 27h1M2 28h1M4 28h1M25 28h1M29 28h1M2 29h2M26 29h3" />
<path stroke="#a08662" d="M26 4h1M23 7h1M23 8h1M15 15h1M15 16h1M10 20h1M9 21h2M9 22h1M4 26h1M3 27h2M3 28h1" />
<path stroke="#c7b08b" d="M27 4h1M25 5h2M24 6h2M24 7h1M22 8h1M21 9h2M20 10h2M19 11h2M18 12h2M17 13h2M16 14h2M16 15h1M14 16h1M13 17h2M12 18h2M11 19h2M11 20h1M8 22h1M7 23h2M6 24h2M5 25h2M5 26h1" />
<path stroke="#657392" d="M27 6h1M27 7h1M27 24h1M26 28h1M28 28h1" />
<path stroke="#92a1b9" d="M27 8h1M27 9h1M27 12h1M27 13h1M27 15h1M27 23h1M27 25h1M26 26h1M26 27h1M28 27h1M27 28h1" />
<path stroke="#c7cfdd" d="M27 10h1M27 11h1M27 14h1M27 16h1M27 17h1M27 18h1M27 19h1M27 20h1M27 21h1M27 22h1" />
</svg>