<svg xmlns="http://www.w3.org/2000/svg" viewBox="0 -0.5 32 32" shape-rendering="crispEdges">
<metadata>Made with Pixels to Svg https://codepen.io/shshaw/pen/XbxvNj</metadata>
<path stroke="#2a2f4e" d="M14 5h4M12 6h2M18 6h2M11 7h1M20 7h1M10 8h1M21 8h1M10 9h1M21 9h1M9 10h1M22 10h1M9 11h1M22 11h1M9 12h1M22 12h1M8 13h1M23 13h1M8 14h1M23 14h1M8 15h1M23 15h1M8 16h1M23 16h1M8 17h1M23 17h1M8 18h1M23 18h1M8 19h1M23 19h1M9 20h1M22 20h1M9 21h1M22 21h1M9 22h1M22 22h1M10 23h1M21 23h1M10 24h1M21 24h1M11 25h1M20 25h1M12 26h2M18 26h2M14 27h4" />
<path stroke="#92e8c0" d="M14 6h3M13 7h2M12 8h1M11 9h1M20 23h1M18 24h2M17 25h2M15 26h2" />
<path stroke="#e3e6ff" d="M17 6h1M12 7h1M15 7h4M11 8h1M14 8h2M19 8h1M13 9h1M20 9h1M13 10h1M10 11h1M9 13h1M11 13h1M13 13h1M11 14h1M15 14h1M19 14h4M14 15h1M16 15h4M22 15h1M11 16h1M15 16h1M18 16h5M9 17h1M11 17h1M15 17h3M22 17h1M9 18h1M11 18h1M15 18h2M22 18h1M11 19h2M14 19h1M19 19h1M11 20h2M14 20h2M18 20h1M15 21h3M21 21h1M16 22h2M20 22h1M11 23h1M14 23h2M17 23h3M12 24h1M14 24h2M17 24h1M13 25h1M16 25h1M14 26h1" />
<path stroke="#b9bffb" d="M19 7h1M20 8h1M10 10h1M21 10h1M22 13h1M9 19h1M22 19h1M10 22h1M21 22h1M11 24h1M20 24h1M12 25h1M19 25h1M17 26h1" />
<path stroke="#ffffff" d="M13 8h1M16 8h3M12 9h1M15 9h1M17 9h2M11 10h2M16 10h4M11 11h2M16 11h4M10 12h3M16 12h4M10 13h1M12 13h1M17 13h2M10 14h1M12 14h1M10 15h3M10 16h1M12 16h1M10 17h1M12 17h2M18 17h2M10 18h1M12 18h2M17 18h3M10 19h1M13 19h1M16 19h3M10 20h1M13 20h1M16 20h2M11 21h2M14 22h2M13 23h1M16 23h1M13 24h1M16 24h1M14 25h2" />
<path stroke="#ffee83" d="M14 9h1M16 9h1M19 9h1M15 10h1M13 11h1M15 11h1M13 12h1M15 12h1M15 13h2M19 13h1M9 14h1M13 14h1M16 14h3M9 15h1M13 15h1M9 16h1M13 16h2M14 17h1M14 18h1M15 19h1M13 21h1" />
<path stroke="#fdd2ed" d="M14 10h1M20 10h1M14 11h1M20 11h2M14 12h1M20 12h2M14 13h1M20 13h2M14 14h1M15 15h1M20 15h2M16 16h2M20 17h2M20 18h2M20 19h2M19 20h3M10 21h1M14 21h1M18 21h3M11 22h3M18 22h2M12 23h1" />
</svg>