<svg xmlns="http://www.w3.org/2000/svg" viewBox="0 -0.5 32 32" shape-rendering="crispEdges">
<metadata>Made with Pixels to Svg https://codepen.io/shshaw/pen/XbxvNj</metadata>
<path stroke="#21181b" d="M11 5h9M8 6h3M20 6h3M6 7h2M23 7h2M5 8h1M25 8h1M4 9h1M26 9h1M4 10h1M26 10h1M4 11h1M26 11h1M4 12h1M26 12h1M5 13h1M26 13h1M5 14h1M27 14h1M5 15h1M27 15h1M5 16h1M27 16h1M5 17h1M27 17h1M4 18h1M26 18h1M4 19h1M26 19h1M4 20h1M26 20h1M4 21h1M26 21h1M5 22h1M25 22h1M6 23h1M24 23h1M7 24h3M22 24h2M10 25h12" />
<path stroke="#ab5130" d="M11 6h1M8 7h1M23 11h1M21 12h2M16 13h1M18 13h3M23 15h2M21 16h2M15 17h1M17 17h4M22 20h3M14 21h1M16 21h6" />
<path stroke="#cf752b" d="M12 6h8M9 7h14M7 8h5M19 8h5M6 9h7M19 9h6M6 10h7M20 10h5M7 11h16M24 11h1M5 12h1M8 12h13M23 12h1M11 13h5M17 13h1M21 13h1M7 14h1M24 14h1M26 14h1M6 15h1M9 15h1M22 15h1M25 15h1M8 16h1M12 16h1M20 16h1M23 16h1M6 17h1M11 17h1M21 17h1M26 17h1M5 18h1M7 18h1M9 19h1M24 19h1M7 20h2M12 20h1M21 20h1M25 20h1M5 21h1M11 21h1M22 21h1M24 21h2M7 23h2M23 23h1M10 24h1M21 24h1" />
<path stroke="#f0b541" d="M6 8h1M12 8h1M18 8h1M24 8h1M5 9h1M25 9h1M5 10h1M13 10h1M19 10h1M25 10h1M5 11h2M25 11h1M6 12h2M24 12h2M6 13h5M22 13h4M8 14h16M10 15h12M26 15h1M6 16h2M13 16h7M24 16h3M7 17h4M22 17h4M8 18h18M5 19h2M10 19h14M5 20h2M13 20h8M6 21h5M23 21h1M6 22h19M9 23h14M11 24h10" />
<path stroke="#ffee83" d="M13 8h5M13 9h6M14 10h5" />
<path stroke="#7d3833" d="M6 14h1M25 14h1M7 15h2M9 16h3M12 17h3M16 17h1M6 18h1M7 19h2M25 19h1M9 20h3M12 21h2M15 21h1" />
</svg>