<svg xmlns="http://www.w3.org/2000/svg" viewBox="0 -0.5 32 32" shape-rendering="crispEdges">
<metadata>Made with Pixels to Svg https://codepen.io/shshaw/pen/XbxvNj</metadata>
<path stroke="#1c121c" d="M14 3h3M13 4h1M17 4h1M12 5h1M17 5h1M12 6h1M14 6h1M18 6h1M12 7h2M15 7h1M18 7h1M15 8h1M18 8h1M12 9h4M18 9h4M10 10h2M22 10h2M9 11h1M24 11h1M8 12h1M24 12h1M8 13h1M25 13h1M7 14h1M25 14h1M7 15h1M25 15h1M7 16h1M25 16h1M7 17h1M25 17h1M7 18h1M25 18h1M7 19h1M25 19h1M7 20h1M25 20h1M7 21h1M25 21h1M7 22h1M25 22h1M8 23h1M24 23h1M8 24h1M24 24h1M8 25h1M24 25h1M8 26h1M23 26h1M9 27h1M23 27h1M10 28h1M15 28h2M22 28h1M11 29h4M17 29h5" />
<path stroke="#63ab3f" d="M14 4h2M13 5h4M13 6h1M16 6h1M16 7h2M16 8h2M16 9h2M16 10h2M16 11h1M16 12h1" />
<path stroke="#3b7d4f" d="M16 4h1M15 6h1M17 6h1M17 11h1M15 12h1M17 12h2" />
<path stroke="#891e2b" d="M12 10h1M18 10h1M12 11h1M18 11h1M22 12h1M16 13h7M15 14h6M15 15h1" />
<path stroke="#c42430" d="M13 10h1M19 10h1M15 11h1M13 12h1M19 12h1M21 12h1M13 13h3M24 13h1M14 14h1M21 14h1M16 15h1M15 16h1M15 19h1M15 20h1M14 21h2M8 22h1M14 22h2M14 23h1M14 24h1M14 25h1M9 26h1M14 26h1M10 27h1M15 27h1M14 28h1M17 28h1M21 28h1" />
<path stroke="#ff0040" d="M14 10h2M20 10h2M10 11h2M13 11h2M19 11h5M9 12h1M11 12h2M14 12h1M20 12h1M9 13h2M8 14h2M24 14h1M8 15h2M11 15h2M14 15h1M17 15h1M24 15h1M8 16h5M16 16h1M23 16h2M9 17h5M15 17h2M18 17h7M9 18h15M9 19h6M16 19h8M9 20h6M16 20h8M8 21h1M10 21h4M16 21h8M10 22h4M16 22h7M24 22h1M10 23h4M15 23h8M10 24h4M15 24h8M9 25h1M11 25h3M15 25h7M23 25h1M11 26h3M15 26h7M11 27h4M16 27h5M22 27h1M11 28h3M18 28h3" />
<path stroke="#f68187" d="M10 12h1M23 12h1M11 13h2M23 13h1M10 14h4M22 14h2M10 15h1M13 15h1M18 15h6M13 16h2M17 16h6M8 17h1M14 17h1M17 17h1M8 18h1M24 18h1M8 19h1M24 19h1M8 20h1M24 20h1M9 21h1M24 21h1M9 22h1M23 22h1M9 23h1M23 23h1M9 24h1M23 24h1M10 25h1M22 25h1M10 26h1M22 26h1M21 27h1" />
</svg>