<svg xmlns="http://www.w3.org/2000/svg" viewBox="0 -0.5 32 32" shape-rendering="crispEdges">
<metadata>Made with Pixels to Svg https://codepen.io/shshaw/pen/XbxvNj</metadata>
<path stroke="#1c121c" d="M8 5h16M7 6h1M24 6h1M6 7h1M25 7h1M6 8h1M25 8h1M6 9h1M25 9h1M7 10h1M24 10h1M6 11h1M25 11h1M5 12h1M26 12h1M5 13h1M26 13h1M6 14h1M10 14h2M15 14h1M20 14h2M25 14h1M6 15h4M12 15h3M16 15h4M22 15h4M6 16h1M25 16h1M6 17h1M25 17h1M6 18h1M25 18h1M6 19h1M25 19h1M6 20h1M25 20h1M6 21h1M25 21h1M6 22h1M25 22h1M6 23h1M25 23h1M7 24h1M24 24h1M8 25h2M22 25h2M10 26h12" />
<path stroke="#bb7547" d="M8 6h1M23 6h1M7 7h1M24 7h1M9 8h1M12 8h1M14 8h1M23 8h1M7 9h1M16 9h2M19 9h1M24 9h1M8 10h3M21 10h1M13 11h1M17 11h1M8 12h1M11 12h1M20 12h1M23 12h1M7 13h2M10 13h2M13 13h1M17 13h1M19 13h3M23 13h2M7 14h1M9 14h1M12 14h2M16 14h4M22 14h1M24 14h1" />
<path stroke="#dba463" d="M9 6h14M8 7h16M10 8h2M13 8h1M15 8h8M22 10h2M7 11h6M14 11h3M18 11h7M6 12h2M9 12h2M12 12h8M21 12h2M24 12h2M6 13h1M9 13h1M12 13h1M14 13h3M18 13h1M22 13h1M25 13h1M8 14h1M14 14h1M23 14h1" />
<path stroke="#71413b" d="M7 8h2M24 8h1M8 9h8M18 9h1M20 9h4M11 10h10" />
<path stroke="#1a7a3e" d="M10 15h2M21 15h1M9 16h1M13 16h1M19 16h1M24 16h1M12 17h1M20 17h1M7 18h1M20 18h1M11 19h1M24 19h1M8 20h1M11 20h2M23 20h1M7 21h1M11 21h4M8 23h1M23 23h1M9 24h4M15 24h3M21 24h2M14 25h1M16 25h1M19 25h1" />
<path stroke="#24523b" d="M15 15h1M7 16h2M23 16h1M8 17h1M23 17h1M8 18h1M12 18h1M16 18h2M23 18h1M8 19h1M12 19h1M15 19h1M18 19h2M23 19h1M9 20h2M13 20h3M19 20h1M22 20h1M24 20h1M8 21h1M15 21h1M20 21h2M24 21h1M7 22h2M16 22h1M24 22h1M7 23h1M9 23h1M15 23h3M24 23h1M8 24h1M13 24h2M18 24h3M23 24h1M10 25h4M20 25h2" />
<path stroke="#14a02e" d="M20 15h1M12 16h1M16 16h1M20 16h1M7 17h1M15 17h2M19 17h1M21 17h2M24 17h1M11 18h1M15 18h1M18 18h2M24 18h1M7 19h1M9 19h2M13 19h2M16 19h2M20 19h1M7 20h1M18 20h1M9 21h1M22 21h1M9 22h1M13 22h1M15 22h1M10 23h1M13 23h1M18 23h1M15 25h1M17 25h2" />
<path stroke="#9cdb43" d="M10 16h2M21 16h2M10 17h2M21 18h2M21 19h2M16 20h2M16 21h2M11 22h2M19 22h1M21 22h2M11 23h2M19 23h1M21 23h2" />
<path stroke="#59c135" d="M14 16h2M17 16h2M9 17h1M13 17h2M17 17h2M9 18h2M13 18h2M20 20h2M10 21h1M18 21h2M23 21h1M10 22h1M14 22h1M17 22h2M20 22h1M23 22h1M14 23h1M20 23h1" />
</svg>