<svg xmlns="http://www.w3.org/2000/svg" viewBox="0 -0.5 32 32" shape-rendering="crispEdges">
<metadata>Made with Pixels to Svg https://codepen.io/shshaw/pen/XbxvNj</metadata>
<path stroke="#1c121c" d="M29 0h2M28 1h1M31 1h1M26 2h2M31 2h1M24 3h2M31 3h1M23 4h1M26 4h1M30 4h1M21 5h2M30 5h1M20 6h1M29 6h1M19 7h1M29 7h1M18 8h1M28 8h1M17 9h1M28 9h1M16 10h1M27 10h1M15 11h1M26 11h1M14 12h1M25 12h1M27 12h1M13 13h1M24 13h1M27 13h1M12 14h1M23 14h2M27 14h1M11 15h1M22 15h1M25 15h3M7 16h4M21 16h1M5 17h2M9 17h1M20 17h1M22 17h1M4 18h1M8 18h1M19 18h1M22 18h1M3 19h1M8 19h1M18 19h1M22 19h1M3 20h1M7 20h1M17 20h2M21 20h1M3 21h1M6 21h2M16 21h1M19 21h2M4 22h2M7 22h1M15 22h1M6 23h1M13 23h2M4 24h2M11 24h2M14 24h1M2 25h2M6 25h1M10 25h1M14 25h1M1 26h1M7 26h1M9 26h1M14 26h1M1 27h1M8 27h1M10 27h1M13 27h1M1 28h3M8 28h1M10 28h3M4 29h1M7 29h1M4 30h1M7 30h1M4 31h3" />
<path stroke="#e07438" d="M29 1h1M28 2h1M30 2h1M26 3h3M30 3h1M25 4h1M27 4h1M29 4h1M23 5h5M29 5h1M23 6h6M23 7h5M22 8h1M24 8h4M20 9h1M23 9h1M26 9h1M19 10h1M22 10h1M21 11h1M25 11h1M15 12h1M18 12h1M26 12h1M14 13h1M17 13h1M26 13h1M20 14h1M25 14h2M13 15h1M16 15h1M19 15h1M12 16h1M15 16h1M20 16h1M17 17h1M19 17h1M21 17h1M5 18h3M13 18h1M16 18h1M21 18h1M4 19h2M10 19h1M12 19h1M19 19h1M21 19h1M5 20h2M9 20h1M14 20h1M20 20h1M12 21h1M8 22h1M14 22h1M7 23h1M12 23h1M13 24h1M5 25h1M8 25h1M13 25h1M3 26h3M11 26h1M13 26h1M2 27h2M6 27h2M11 27h2M6 28h1M5 29h2M5 30h1" />
<path stroke="#8e251d" d="M30 1h1M29 2h1M29 3h1M21 6h1M21 7h1M21 8h1M18 9h1M22 9h1M17 10h1M21 10h1M23 10h4M20 11h1M19 12h1M16 13h1M15 14h1M14 15h1M17 15h1M13 16h1M16 16h1M10 17h1M15 17h1M9 18h1M12 18h1M14 18h1M11 19h1M10 20h1M9 21h1" />
<path stroke="#c64524" d="M24 4h1M28 4h1M28 5h1M20 7h1M28 7h1M19 8h2M19 9h1M21 9h1M27 9h1M18 10h1M20 10h1M16 11h4M22 11h2M16 12h2M20 12h3M15 13h1M18 13h4M25 13h1M13 14h2M16 14h4M12 15h1M15 15h1M18 15h1M11 16h1M14 16h1M17 16h2M7 17h2M11 17h4M16 17h1M10 18h2M15 18h1M20 18h1M6 19h2M9 19h1M13 19h3M20 19h1M4 20h1M8 20h1M11 20h3M19 20h1M4 21h2M8 21h1M10 21h2M9 22h2M8 23h2M6 24h3M4 25h1M7 25h1M11 25h2M2 26h1M6 26h1M10 26h1M12 26h1M4 27h2M4 28h2M7 28h1M6 30h1" />
<path stroke="#edab50" d="M22 6h1M22 7h1M23 8h1M24 9h2M24 11h1M23 12h2M22 13h2M21 14h2M20 15h2M19 16h1M18 17h1M17 18h2M16 19h2M15 20h2M13 21h3M11 22h3M10 23h2M9 24h2M9 25h1M8 26h1" />
</svg>