<svg xmlns="http://www.w3.org/2000/svg" viewBox="0 -0.5 32 32" shape-rendering="crispEdges">
<metadata>Made with Pixels to Svg https://codepen.io/shshaw/pen/XbxvNj</metadata>
<path stroke="#0e071b" d="M14 7h5M12 8h2M19 8h2M10 9h2M21 9h2M9 10h1M23 10h1M9 11h1M23 11h1M8 12h1M24 12h1M8 13h1M24 13h1M7 14h1M25 14h1M7 15h1M25 15h1M7 16h1M25 16h1M7 17h1M25 17h1M7 18h1M25 18h1M8 19h1M24 19h1M8 20h1M24 20h1M9 21h1M23 21h1M9 22h1M23 22h1M10 23h2M21 23h2M12 24h2M19 24h2M14 25h5" />
<path stroke="#ff6eaf" d="M14 8h1M18 8h1M12 9h1M18 10h1M23 16h1M9 17h1M23 17h1M9 18h5M23 18h1M9 19h9M19 19h1M23 19h1M9 20h1M11 20h7M19 20h1M22 20h1M10 21h1M14 21h9M11 22h2M16 22h6M13 23h7" />
<path stroke="#ffa5d5" d="M15 8h3M13 9h7M19 10h2M19 12h2M18 13h4M18 14h4M19 15h2M22 18h1M18 19h1M20 19h3M18 20h1M20 20h2" />
<path stroke="#e54286" d="M20 9h1M10 10h1M12 10h6M22 10h1M12 11h10M11 12h1M13 12h6M21 12h1M11 13h2M14 13h4M12 14h2M23 14h1M18 15h1M21 15h1M23 15h2M9 16h1M24 16h1M10 17h1M21 17h2M24 17h1M14 18h8M10 20h1M23 20h1M11 21h3M10 22h1M13 22h3M22 22h1M12 23h1M20 23h1" />
<path stroke="#b22e69" d="M11 10h1M21 10h1M10 11h2M22 11h1M9 12h2M12 12h1M22 12h2M9 13h2M13 13h1M22 13h2M8 14h4M14 14h4M22 14h1M24 14h1M8 15h10M22 15h1M8 16h1M10 16h13M8 17h1M11 17h10M8 18h1M24 18h1M14 24h5" />
</svg>