<svg xmlns="http://www.w3.org/2000/svg" viewBox="0 -0.5 32 32" shape-rendering="crispEdges">
<metadata>Made with Pixels to Svg https://codepen.io/shshaw/pen/XbxvNj</metadata>
<path stroke="#1c121c" d="M12 5h8M10 6h2M20 6h2M8 7h2M22 7h2M6 8h2M24 8h2M5 9h1M7 9h1M24 9h1M26 9h1M4 10h1M6 10h1M25 10h1M27 10h1M3 11h1M6 11h1M25 11h1M28 11h1M3 12h1M5 12h1M26 12h1M28 12h1M3 13h1M5 13h1M26 13h1M28 13h1M3 14h1M5 14h1M26 14h1M28 14h1M3 15h1M5 15h1M26 15h1M28 15h1M3 16h1M6 16h1M25 16h1M28 16h1M3 17h1M7 17h2M23 17h2M28 17h1M3 18h1M9 18h14M28 18h1M3 19h1M28 19h1M4 20h1M27 20h1M4 21h1M27 21h1M5 22h1M26 22h1M6 23h1M25 23h1M7 24h2M23 24h2M9 25h3M20 25h3M12 26h8" />
<path stroke="#f4d29c" d="M12 6h1M15 6h1M17 6h2M11 7h1M15 7h4M10 8h1M12 8h6M20 8h3M11 9h3M16 9h1M18 9h3M22 9h2M9 10h2M12 10h2M17 10h3M23 10h1M8 11h7M18 11h1M23 11h1M8 12h3M13 12h3M17 12h2M22 12h1M24 12h1M8 13h2M14 13h1M17 13h4M9 14h2M14 14h3M18 14h1M20 14h1M25 14h1M11 15h4M24 15h2M12 16h4M19 16h1M22 16h2M14 17h4" />
<path stroke="#fef3c0" d="M13 6h2M16 6h1M12 7h3M11 8h1M14 9h2M14 10h3M21 10h2M15 11h3M19 11h4M11 12h2M19 12h3M11 13h3M23 13h2M12 14h2M19 14h1M21 14h4M15 15h5M21 15h3M16 16h3" />
<path stroke="#dba463" d="M19 6h1M10 7h1M19 7h3M9 8h1M18 8h2M23 8h1M8 9h3M17 9h1M21 9h1M7 10h1M11 10h1M20 10h1M24 10h1M24 11h1M6 12h1M16 12h1M23 12h1M25 12h1M6 13h2M10 13h1M15 13h2M21 13h2M25 13h1M6 14h1M8 14h1M11 14h1M17 14h1M6 15h2M10 15h1M20 15h1M7 16h5M20 16h2M24 16h1M10 17h4M18 17h5" />
<path stroke="#bb7547" d="M8 8h1M8 10h1M7 11h1M7 12h1M7 14h1M8 15h2M9 17h1" />
<path stroke="#bf6f4a" d="M6 9h1M25 9h1M5 10h1M26 10h1M4 11h1M27 11h1M4 12h1M27 13h1M4 14h1M5 16h1M26 16h1M4 17h1M25 17h1M5 18h3M25 18h1M7 19h12M20 19h1M10 20h9M20 20h1M24 22h1M21 23h3M19 24h3" />
<path stroke="#8a4836" d="M5 11h1M26 11h1M6 17h1M4 18h1M8 18h1M27 18h1M4 19h1M6 19h1M25 19h1M27 19h1M5 20h1M9 20h1M26 20h1M5 21h2M23 21h4M6 22h1M12 22h12M25 22h1M12 23h9M24 23h1M13 24h6M22 24h1M15 25h5" />
<path stroke="#e69c69" d="M27 12h1M4 13h1M27 14h1M4 15h1M27 15h1M4 16h1M27 16h1M5 17h1M26 17h2M23 18h2M26 18h1M19 19h1M21 19h4M19 20h1M21 20h2" />
<path stroke="#391f21" d="M5 19h1M6 20h2M8 21h5M15 21h2M18 21h1" />
<path stroke="#5d2c28" d="M26 19h1M8 20h1M23 20h3M7 21h1M13 21h2M17 21h1M19 21h4M7 22h5M7 23h5M9 24h4M12 25h3" />
</svg>