<svg xmlns="http://www.w3.org/2000/svg" viewBox="0 -0.5 32 32" shape-rendering="crispEdges">
<metadata>Made with Pixels to Svg https://codepen.io/shshaw/pen/XbxvNj</metadata>
<path stroke="#1c121c" d="M26 2h3M23 3h3M29 3h1M21 4h2M26 4h1M29 4h1M20 5h1M29 5h1M19 6h1M28 6h1M18 7h1M28 7h1M17 8h1M27 8h1M9 9h8M26 9h1M9 10h1M15 10h1M26 10h1M9 11h1M14 11h1M25 11h1M10 12h1M13 12h1M22 12h1M25 12h1M10 13h1M12 13h1M22 13h1M25 13h1M11 14h1M23 14h1M25 14h1M11 15h1M22 15h1M24 15h2M10 16h1M21 16h1M10 17h1M20 17h1M9 18h1M19 18h1M9 19h1M18 19h2M8 20h1M17 20h1M19 20h1M7 21h1M15 21h2M19 21h1M5 22h2M13 22h2M17 22h1M19 22h1M3 23h2M6 23h1M11 23h2M18 23h2M1 24h2M6 24h1M10 24h1M1 25h1M7 25h3M2 26h3M9 26h1M5 27h1M8 27h1M5 28h1M8 28h1M5 29h1M7 29h1M6 30h2" />
<path stroke="#82ab31" d="M26 3h2M25 4h1M27 4h1M25 5h3" />
<path stroke="#637d41" d="M28 3h1M24 4h1M23 5h1M20 6h2M23 6h1M19 7h1M21 7h2M24 7h1M19 8h2M17 9h3M17 10h1M15 11h3M14 12h1M16 12h1M13 13h3M13 14h1M12 15h2M12 16h1M11 17h2M11 18h1M10 19h1M9 20h1M8 21h1M7 22h2" />
<path stroke="#4a4430" d="M23 4h1M21 5h2M22 6h1M20 7h1M23 7h1M18 8h1M24 8h3M16 10h1M18 10h1M15 12h1M12 14h1M14 14h1M11 16h1M13 16h1M10 18h1M9 21h1M7 23h1" />
<path stroke="#92a1b9" d="M28 4h1M25 7h2M25 10h1M20 13h1M22 14h1M18 15h1M16 17h1M14 18h1M11 20h1M16 20h1M14 21h1M12 22h1M7 24h1M9 24h1" />
<path stroke="#e86a73" d="M24 5h1M24 6h1" />
<path stroke="#c7cfdd" d="M28 5h1M26 6h2M21 9h1M24 9h2M19 11h1M17 13h1M21 14h1M15 15h1M20 15h2M19 16h2M18 17h2M17 18h2M15 19h3M13 20h3M12 21h2M10 22h2M9 23h2M8 24h1" />
<path stroke="#f5a097" d="M25 6h1M21 8h3M20 9h1M22 9h1M19 10h3M18 11h1M20 11h1M17 12h3M16 13h1M18 13h1M15 14h3M14 15h1M16 15h1M14 16h2M13 17h1M12 18h1" />
<path stroke="#657392" d="M27 7h1M24 10h1M23 11h1" />
<path stroke="#f4d29c" d="M23 9h1M22 10h2M21 11h2M20 12h2M19 13h1M21 13h1M18 14h3M17 15h1M19 15h1M16 16h3M14 17h2M17 17h1M13 18h1M15 18h2M11 19h4M10 20h1M12 20h1M10 21h2M9 22h1M8 23h1" />
<path stroke="#dba463" d="M10 10h5M24 11h1M11 12h2M24 12h1M23 13h1M18 21h1M18 22h1M4 24h2M3 25h3M6 26h2M6 27h2M6 28h1" />
<path stroke="#bb7547" d="M10 11h2M23 12h1M11 13h1M24 13h1M24 14h1M18 20h1M17 21h1M5 23h1M3 24h1M2 25h1M6 25h1M5 26h1M8 26h1M7 28h1M6 29h1" />
<path stroke="#71413b" d="M12 11h2" />
</svg>