<svg xmlns="http://www.w3.org/2000/svg" viewBox="0 -0.5 32 32" shape-rendering="crispEdges">
<metadata>Made with Pixels to Svg https://codepen.io/shshaw/pen/XbxvNj</metadata>
<path stroke="#221c1a" d="M27 1h2M26 2h1M29 2h1M24 3h2M30 3h1M21 4h3M30 4h1M14 5h3M20 5h1M29 5h1M10 6h3M14 6h1M17 6h4M28 6h1M6 7h3M10 7h1M13 7h3M19 7h1M28 7h1M6 8h1M9 8h3M15 8h1M27 8h1M7 9h1M11 9h1M20 9h2M27 9h1M4 10h4M17 10h3M22 10h1M27 10h1M2 11h2M14 11h3M22 11h1M25 11h2M1 12h1M11 12h3M21 12h1M24 12h2M1 13h1M6 13h5M21 13h1M25 13h1M2 14h4M10 14h1M21 14h1M25 14h1M10 15h1M20 15h1M26 15h1M11 16h1M20 16h1M23 16h2M26 16h1M12 17h1M20 17h1M24 17h3M12 18h1M19 18h1M24 18h1M13 19h2M19 19h1M25 19h1M15 20h1M19 20h1M22 20h2M25 20h1M16 21h3M23 21h3M18 22h1M23 22h1M18 23h1M24 23h1M18 24h1M21 24h2M24 24h1M18 25h1M21 25h1M23 25h2M17 26h1M21 26h1M17 27h1M21 27h1M17 28h1M20 28h1M17 29h1M20 29h1M18 30h2" />
<path stroke="#92a1b9" d="M27 2h1M26 3h2M22 5h4M21 6h4M23 7h1M26 8h1M25 9h2M25 10h1" />
<path stroke="#657392" d="M28 2h1M24 4h3M21 5h1M26 5h1M27 6h1M22 7h1M27 7h1M23 8h1M24 9h1M26 10h1" />
<path stroke="#c7cfdd" d="M28 3h2M27 4h3M27 5h2M25 6h2M24 7h3M24 8h2" />
<path stroke="#858585" d="M15 6h2M11 7h2M16 7h2M7 8h2M12 8h2M17 8h2M8 9h2M13 9h2M9 10h2M18 11h3M15 12h6M12 13h4M17 13h4M23 13h1M11 14h4M16 14h4M23 14h2M12 15h1M15 15h3M19 15h1M24 15h2M14 16h3M18 16h2M25 16h1M14 17h2M17 17h2M22 17h1M17 18h2M22 18h2M16 19h3M23 19h2M17 20h1M24 20h1M21 21h1M21 22h2M22 23h2M23 24h1" />
<path stroke="#5d5d5d" d="M18 7h1M14 8h1M16 8h1M10 9h1M12 9h1M8 10h1M20 10h2M17 11h1M21 11h1M14 12h1M11 13h1M16 13h1M24 13h1M20 14h1M11 15h1M13 15h1M18 15h1M23 15h1M13 17h1M19 17h1M23 17h1M13 18h2M16 18h1M22 19h1M16 20h1M18 20h1M22 21h1M21 23h1" />
<path stroke="#bb7547" d="M20 7h2M15 9h1M19 9h1M11 10h1M16 10h1M24 10h1M5 11h1M13 11h1M24 11h1M3 12h4M10 12h1M22 12h1M3 13h2M21 15h1M22 16h1M20 18h1M21 20h1M19 21h1M19 25h1M19 26h2M18 27h2M18 28h2" />
<path stroke="#e69c69" d="M19 8h2M16 9h3M12 10h4M6 11h7M23 11h1M7 12h3M23 12h1M22 13h1M22 14h1M22 15h1M21 16h1M21 17h1M21 18h1M20 19h2M20 20h1M20 21h1M19 22h2M19 23h2M19 24h2M20 25h1" />
<path stroke="#71413b" d="M21 8h2M22 9h2M23 10h1M4 11h1M2 12h1M2 13h1M5 13h1M18 26h1M20 27h1M18 29h2" />
<path stroke="#3d3d3d" d="M15 14h1M14 15h1M12 16h2M17 16h1M16 17h1M15 18h1M15 19h1" />
</svg>