<svg xmlns="http://www.w3.org/2000/svg" viewBox="0 -0.5 32 32" shape-rendering="crispEdges">
<metadata>Made with Pixels to Svg https://codepen.io/shshaw/pen/XbxvNj</metadata>
<path stroke="#424c6e" d="M13 5h6M10 6h3M19 6h3M8 7h2M22 7h2M7 8h1M24 8h1M6 9h1M25 9h1M5 10h1M26 10h1M4 11h1M27 11h1M4 12h1M27 12h1M3 13h1M28 13h1M3 14h1M28 14h1M3 15h1M28 15h1M3 16h1M28 16h1M3 17h1M28 17h1M3 18h1M28 18h1M3 19h1M28 19h1M3 20h1M28 20h1M4 21h1M27 21h1M5 22h1M26 22h1M6 23h1M25 23h1M7 24h1M24 24h1M8 25h2M22 25h2M10 26h3M19 26h3M13 27h6" />
<path stroke="#dae0ea" d="M13 6h6M10 7h11M9 8h4M20 8h3M7 9h3M22 9h3M6 10h3M23 10h3M6 11h2M25 11h1M5 12h2M25 12h2M5 13h1M26 13h1M4 14h2M26 14h2M4 15h2M27 15h1M4 16h2M27 16h1M5 17h1M26 17h1M5 18h2M25 18h2M6 19h2M24 19h2M6 20h3M23 20h3M7 21h3M22 21h3M8 22h5M19 22h5M10 23h12M13 24h6" />
<path stroke="#b3b9d1" d="M21 7h1M8 8h1M13 8h4M23 8h1M10 9h1M9 10h1M5 11h1M8 11h2M26 11h1M7 12h1M4 13h1M6 13h2M27 13h1M6 14h1M6 15h1M6 16h1M4 17h1M6 17h1M27 17h1M7 18h1M24 18h1M5 19h1M8 19h1M23 19h1M26 19h1M9 20h1M21 20h2M10 21h2M19 21h3M13 22h1M18 22h1M9 23h1M22 23h1M12 24h1M19 24h1" />
<path stroke="#e07438" d="M17 8h2M11 9h1M19 9h3M10 10h1M13 10h4M21 10h2M10 11h4M18 11h1M11 12h1M15 12h1M23 15h4M20 16h1M25 16h2M17 17h1M24 17h2M15 18h1M18 18h2M23 18h1M15 19h4M21 19h2M17 20h4" />
<path stroke="#edab50" d="M19 8h1M12 9h7M11 10h2M17 10h4M14 11h4M12 12h3M21 16h4M18 17h6M16 18h2M20 18h3M19 19h2" />
<path stroke="#c42430" d="M19 11h1M16 12h1M14 13h1M21 13h2M16 14h5M18 15h1M7 16h1M10 17h1M12 17h1M11 18h1M12 19h2M13 20h2M16 20h1M12 21h1M17 21h2M14 22h4" />
<path stroke="#ff0040" d="M20 11h4M17 12h8M15 13h6M23 13h2M7 14h2M21 14h3M7 15h3M19 15h3M8 16h3M8 17h2M11 17h1M9 18h2M12 18h2M10 19h2M14 19h1M11 20h2M15 20h1M13 21h4" />
<path stroke="#8e251d" d="M24 11h1M25 13h1M24 14h2M22 15h1M7 17h1M8 18h1M9 19h1M10 20h1" />
<path stroke="#2f5753" d="M8 12h3M8 13h2M11 13h3M9 14h1M14 14h2M10 15h1M15 15h3M12 16h4M18 16h2M15 17h2" />
<path stroke="#3b7d4f" d="M10 13h1M10 14h4M11 15h4M16 16h2" />
<path stroke="#283540" d="M11 16h1M13 17h2M14 18h1" />
<path stroke="#8b93af" d="M4 18h1M27 18h1M4 19h1M27 19h1M4 20h2M26 20h2M5 21h2M25 21h2M6 22h2M24 22h2M7 23h2M23 23h2M8 24h4M20 24h4M10 25h12M13 26h6" />
</svg>