<svg xmlns="http://www.w3.org/2000/svg" viewBox="0 -0.5 32 32" shape-rendering="crispEdges">
<metadata>Made with Pixels to Svg https://codepen.io/shshaw/pen/XbxvNj</metadata>
<path stroke="#571c27" d="M14 5h10M11 6h3M24 6h1M9 7h2M25 7h1M8 8h1M26 8h1M8 9h1M26 9h1M26 10h1M26 11h1M26 12h1M26 13h1M26 14h1M27 15h1M27 16h1M27 17h1M27 18h1M27 19h1" />
<path stroke="#ffc825" d="M14 6h1M23 6h1M11 7h1M9 8h1M25 9h1M10 10h1M24 10h1M13 11h1M21 11h1M25 11h1M24 12h2M22 13h4M22 14h3M22 15h1M25 16h1M26 17h1M25 18h2M23 19h4M23 20h4M23 21h3M23 22h1" />
<path stroke="#ffee83" d="M15 6h8M12 7h13M10 8h15M9 9h16M11 10h13M14 11h7" />
<path stroke="#ffa214" d="M25 8h1M25 10h1M12 11h1M22 11h3M10 12h1M15 12h1M22 12h2M10 13h10M10 14h10M11 15h10M26 15h1M11 16h7M26 16h1M12 17h5M24 17h2M12 18h5M23 18h2M13 20h8M13 21h9M13 22h9M14 23h7" />
<path stroke="#221c1a" d="M7 10h1M6 11h1M5 12h1M5 13h1M5 14h1M4 15h1M4 16h1M4 17h1M4 18h1M4 19h1M4 20h1M27 20h1M4 21h1M27 21h1M5 22h1M27 22h1M6 23h1M26 23h1M7 24h2M25 24h1M9 25h3M21 25h4M12 26h9" />
<path stroke="#796755" d="M8 10h2M9 11h1M9 12h1M9 13h1M9 14h1M9 15h1M10 16h1M21 16h1M10 17h1M21 17h1M11 18h1M20 18h2M11 19h2M18 19h3M22 19h1M12 20h1M22 20h1M12 21h1M22 21h1M12 22h1M12 23h1M9 24h5M24 24h1M12 25h4M20 25h1" />
<path stroke="#c7b08b" d="M7 11h2M6 12h3M6 13h3M7 14h2M25 14h1M23 15h3M5 16h1M22 16h3M5 17h1M22 17h2M5 18h1M5 19h1M5 20h2M6 21h1M6 22h1" />
<path stroke="#ed7614" d="M10 11h2M11 12h4M16 12h6M20 13h2M20 14h2M21 15h1M13 19h5M22 22h1" />
<path stroke="#a08662" d="M6 14h1M5 15h4M10 15h1M6 16h4M18 16h3M6 17h4M11 17h1M17 17h4M6 18h5M17 18h3M22 18h1M6 19h5M21 19h1M7 20h5M21 20h1M5 21h1M7 21h5M26 21h1M7 22h5M24 22h3M7 23h5M13 23h1M21 23h5M14 24h10M16 25h4" />
</svg>