<svg xmlns="http://www.w3.org/2000/svg" viewBox="0 -0.5 32 32" shape-rendering="crispEdges">
<metadata>Made with Pixels to Svg https://codepen.io/shshaw/pen/XbxvNj</metadata>
<path stroke="#1c121c" d="M13 2h2M12 3h1M15 3h1M11 4h1M16 4h1M10 5h1M17 5h1M10 6h1M18 6h1M9 7h1M19 7h1M9 8h1M20 8h1M8 9h1M21 9h1M8 10h1M22 10h1M7 11h1M23 11h1M7 12h1M23 12h1M24 13h1M24 14h1" />
<path stroke="#c42430" d="M13 3h1M12 4h1M17 6h1M17 7h2M18 8h2M12 10h1M22 11h1M8 12h1M10 12h2M14 12h1M8 13h1M10 13h4M16 13h1M21 13h1M23 13h1M8 14h1M10 14h6M22 14h1M8 15h2M11 15h5M20 15h3M9 16h1M12 16h4M17 16h1M19 16h4M10 17h1M18 17h4" />
<path stroke="#ff0040" d="M14 3h1M13 4h2M12 5h2M12 6h2M12 7h1M16 7h1M12 8h1M16 8h2M12 9h1M15 9h3M20 9h1M15 10h2M19 10h3M13 11h1M15 11h2M19 11h3M15 12h7M17 13h4M23 14h1M18 15h2M23 15h1M18 16h1M23 16h1M17 17h1" />
<path stroke="#f68187" d="M15 4h1M14 5h3M14 6h3M13 7h3M13 8h3M13 9h2M18 9h2M13 10h2M17 10h2M14 11h1M17 11h2" />
<path stroke="#891e2b" d="M11 5h1M11 6h1M10 7h2M10 8h2M9 9h3M9 10h3M8 11h5M9 12h1M12 12h2M22 12h1M9 13h1M14 13h2M22 13h1M9 14h1M16 14h6M10 15h1M16 15h2M10 16h2M16 16h1M11 17h6" />
<path stroke="#221c1a" d="M6 13h1M5 14h1M5 15h1M25 15h1M5 16h1M26 16h1M5 17h1M26 17h1M5 18h1M26 18h1M5 19h1M25 19h1M6 20h1M24 20h1M6 21h1M24 21h1M6 22h1M23 22h1M7 23h1M22 23h1M7 24h1M21 24h1M8 25h1M20 25h1M9 26h1M19 26h1M10 27h2M18 27h1M12 28h6" />
<path stroke="#796755" d="M7 13h1M7 14h1M8 16h1M9 17h1M6 18h1M25 18h1M6 19h3M14 19h3M24 19h1M7 20h17M7 21h14M23 21h1M7 22h1M9 22h10M10 23h8M8 24h1M10 24h8M20 24h1M9 25h1M11 25h7M10 26h9M12 27h6" />
<path stroke="#a08662" d="M6 14h1M6 15h2M24 15h1M6 16h2M6 17h2M22 17h1M7 18h1M11 18h4M9 19h1M13 19h1M17 19h1M23 19h1M21 21h2M8 22h1M19 22h4M8 23h2M18 23h4M9 24h1M18 24h2M10 25h1M18 25h2" />
<path stroke="#c7b08b" d="M24 16h2M8 17h1M23 17h3M8 18h3M15 18h10M10 19h3M18 19h5" />
</svg>