<svg xmlns="http://www.w3.org/2000/svg" viewBox="0 -0.5 32 32" shape-rendering="crispEdges">
<metadata>Made with Pixels to Svg https://codepen.io/shshaw/pen/XbxvNj</metadata>
<path stroke="#2c354d" d="M16 8h6M14 9h2M22 9h1M13 10h1M23 10h1M11 11h2M24 11h1M10 12h1M25 12h1M9 13h1M26 13h1M8 14h1M26 14h1M7 15h1M26 15h1M6 16h1M26 16h1M6 17h1M26 17h1M6 18h1M26 18h1M6 19h1M25 19h1M7 20h1M24 20h1M8 21h2M23 21h1M10 22h2M22 22h1M12 23h2M21 23h1M14 24h7" />
<path stroke="#849be4" d="M16 9h1M21 9h1M14 10h1M11 12h1M25 13h1M8 15h1M25 17h1M25 18h1M7 19h1M23 19h1M8 20h1M19 20h4M10 21h1M15 21h7M12 22h1M16 22h4M14 23h1M20 23h1" />
<path stroke="#b9bffb" d="M17 9h4M15 10h3M13 11h2M16 11h1M12 12h1M15 12h2M23 12h2M10 13h1M14 13h3M23 13h1M9 14h7M22 14h2M9 15h2M21 15h2M7 16h2M21 16h2M7 17h2M21 17h1M7 18h2M20 18h2M24 18h1M8 19h5M18 19h5M24 19h1M9 20h10M23 20h1M11 21h4M22 21h1M13 22h3M20 22h2M15 23h5" />
<path stroke="#dfe0e8" d="M18 10h2M22 10h1M15 11h1M17 11h1M20 11h1M23 11h1M13 12h2M21 12h1M11 13h3M21 13h2M24 13h1M16 14h1M21 14h1M24 14h2M11 15h1M15 15h2M23 15h3M16 16h2M20 16h1M23 16h3M16 17h5M22 17h3M9 18h1M15 18h5M22 18h2M13 19h5" />
<path stroke="#f5ffe8" d="M20 10h2M18 11h2M21 11h2M17 12h4M22 12h1M17 13h4M17 14h4M12 15h3M17 15h4M9 16h7M18 16h2M9 17h7M10 18h5" />
</svg>