<svg xmlns="http://www.w3.org/2000/svg" viewBox="0 -0.5 32 32" shape-rendering="crispEdges">
<metadata>Made with Pixels to Svg https://codepen.io/shshaw/pen/XbxvNj</metadata>
<path stroke="#03193f" d="M11 4h3M10 5h1M13 5h1M9 6h1M13 6h1M15 6h3M9 7h1M13 7h1M15 7h1M18 7h1M8 8h1M13 8h2M19 8h1M8 9h1M20 9h1M7 10h1M21 10h5M25 11h1M25 12h1M24 13h1M24 14h1M24 15h4M27 16h1M27 17h1M26 18h1M25 19h1" />
<path stroke="#db3ffd" d="M11 5h1M12 6h1M10 7h1M10 8h2M16 8h1M18 8h1M10 9h1M16 9h1M17 10h1M13 11h1M21 11h1M14 12h1M20 12h1M24 12h1M15 13h1M17 13h2M20 13h1M23 13h1M13 14h1M17 14h3M21 14h2M18 15h2M23 16h2M19 17h3M23 17h1M20 18h3M24 18h1" />
<path stroke="#f389f5" d="M12 5h1M11 6h1M11 7h1M16 7h2M17 8h1M17 9h2M18 10h1M22 11h3M13 12h1M21 12h3M13 13h2M21 13h2M14 14h2M25 16h2M24 17h2" />
<path stroke="#7a09fa" d="M10 6h1M12 7h1M9 8h1M9 9h1M11 9h1M13 9h1M9 10h2M13 10h2M16 10h1M14 11h1M17 11h2M20 11h1M15 12h1M19 12h1M19 13h1M20 14h1M15 15h1M17 15h1M20 15h2M15 16h1M22 16h1M18 17h1M22 17h1M26 17h1M18 18h2M25 18h1M19 19h3" />
<path stroke="#3003d9" d="M12 8h1M15 8h1M14 9h2M19 9h1M11 10h1M15 10h1M19 10h2M9 11h1M12 11h1M15 11h2M19 11h1M9 12h2M12 12h1M16 12h3M10 13h1M12 13h1M16 13h1M12 14h1M23 14h1M9 15h1M12 15h3M22 15h2M11 16h1M13 16h2M17 16h1M21 16h1M13 17h1M17 17h1M15 18h1M23 18h1M18 19h1M22 19h3M19 20h3" />
<path stroke="#0c0293" d="M12 9h1M8 10h1M12 10h1M8 11h1M10 11h2M8 12h1M11 12h1M9 13h1M11 13h1M9 14h3M16 14h1M10 15h2M16 15h1M12 16h1M16 16h1M18 16h3M14 17h3M16 18h2M17 19h1" />
<path stroke="#221c1a" d="M6 11h1M5 12h1M5 13h1M4 14h1M4 15h1M4 16h1M4 17h1M4 18h1M4 19h1M4 20h1M24 20h1M4 21h1M24 21h1M4 22h1M24 22h1M5 23h1M23 23h1M5 24h1M21 24h2M6 25h1M19 25h2M7 26h2M16 26h3M9 27h7" />
<path stroke="#a08662" d="M7 11h1M6 14h1M5 16h1M10 16h1M5 17h1M8 17h1M5 18h1M11 18h1M5 19h1M9 19h1M14 19h1M16 19h1M5 20h2M9 20h4M22 20h1M5 21h2M10 21h5M16 21h1M20 21h2M6 22h2M12 22h4M18 22h1M23 22h1M6 23h3M14 23h3M7 24h5M18 24h2M8 25h10M10 26h5" />
<path stroke="#c7b08b" d="M6 12h2M6 13h2M7 14h1M7 15h2M8 16h2M9 17h4M12 18h3M15 19h1M15 20h4M23 20h1M17 21h3M22 21h2M19 22h4" />
<path stroke="#796755" d="M8 13h1M5 14h1M8 14h1M5 15h2M6 16h2M6 17h2M6 18h5M6 19h3M10 19h4M7 20h2M13 20h2M7 21h3M15 21h1M5 22h1M8 22h4M16 22h2M9 23h5M17 23h6M6 24h1M12 24h6M20 24h1M7 25h1M18 25h1M9 26h1M15 26h1" />
</svg>