<svg xmlns="http://www.w3.org/2000/svg" viewBox="0 -0.5 32 32" shape-rendering="crispEdges">
<metadata>Made with Pixels to Svg https://codepen.io/shshaw/pen/XbxvNj</metadata>
<path stroke="#221c1a" d="M24 5h3M7 6h5M21 6h3M26 6h1M7 7h1M12 7h3M18 7h3M26 7h1M7 8h1M15 8h3M26 8h1M7 9h1M26 9h1M8 10h1M25 10h1M7 11h1M24 11h1M6 12h1M23 12h1M6 13h1M23 13h1M6 14h1M24 14h1M5 15h1M24 15h1M5 16h1M24 16h1M4 17h1M25 17h1M4 18h1M25 18h1M4 19h1M25 19h1M5 20h1M24 20h1M6 21h1M23 21h1M6 22h1M22 22h1M6 23h1M22 23h1M7 24h1M21 24h1M8 25h3M18 25h3M11 26h7" />
<path stroke="#ffa214" d="M24 6h2M10 7h1M22 7h3M12 8h2M20 8h5M9 9h1M20 9h3M11 10h1M20 10h1M13 11h2M18 11h1" />
<path stroke="#ffc825" d="M8 7h2M8 8h4M10 9h10M12 10h8M15 11h3" />
<path stroke="#ed7614" d="M11 7h1M21 7h1M25 7h1M14 8h1M18 8h2M8 9h1M23 9h1M9 10h2M21 10h1M23 10h1M10 11h2M19 11h1M22 11h2M17 12h1M20 12h3M20 13h2" />
<path stroke="#c64524" d="M25 8h1M24 9h2M22 10h1M24 10h1M12 11h1M20 11h2M11 12h2M18 12h2M12 13h1M18 13h2M22 13h1M18 14h3" />
<path stroke="#a08662" d="M8 11h1M9 12h1M10 13h1M12 14h1M22 14h1M8 15h1M18 15h1M23 15h1M9 16h1M12 16h1M15 16h1M18 16h1M22 16h1M5 17h2M24 17h1M5 18h2M21 18h4M6 19h2M21 19h3M7 20h1M14 20h3M19 20h4M7 21h1M13 21h3M17 21h6M13 22h2M16 22h6M13 23h2M16 23h6M13 24h2M16 24h4" />
<path stroke="#796755" d="M9 11h1M7 12h1M10 12h1M7 13h1M11 13h1M7 14h1M13 14h1M21 14h1M6 15h2M6 16h3M13 16h2M23 16h1M7 17h17M7 18h14M5 19h1M8 19h13M24 19h1M6 20h1M8 20h6M17 20h2M23 20h1M8 21h5M16 21h1M7 22h6M15 22h1M7 23h6M15 23h1M8 24h5M15 24h1M20 24h1M11 25h7" />
<path stroke="#c7b08b" d="M8 12h1M8 13h2M8 14h4M23 14h1M9 15h9M19 15h4M10 16h2M16 16h2M19 16h3" />
<path stroke="#4c6885" d="M13 12h1M16 12h1M17 13h1M14 14h1M17 14h1" />
<path stroke="#4fa4b8" d="M14 12h2M13 13h4M15 14h2" />
</svg>