<svg xmlns="http://www.w3.org/2000/svg" viewBox="0 -0.5 32 32" shape-rendering="crispEdges">
<metadata>Made with Pixels to Svg https://codepen.io/shshaw/pen/XbxvNj</metadata>
<path stroke="#221c1a" d="M14 5h3M13 6h1M12 7h1M11 8h1M10 9h1M9 10h1M9 11h1M9 12h1M9 13h1M8 14h1M8 15h1M8 16h1M8 17h1M8 18h1M23 18h1M7 19h1M23 19h1M7 20h1M23 20h1M7 21h1M22 21h1M7 22h1M21 22h1M7 23h1M20 23h1M7 24h1M18 24h2M8 25h1M15 25h3M9 26h6" />
<path stroke="#03193f" d="M17 5h3M20 6h2M22 7h1M23 8h1M23 9h1M24 10h1M24 11h1M25 12h1M25 13h1M25 14h1M25 15h1M25 16h1M24 17h1" />
<path stroke="#a08662" d="M14 6h2M14 8h1M13 9h1M10 11h1M12 11h1M10 12h1M10 13h2M10 14h1M9 15h2M9 16h2M13 16h1M9 17h1M9 18h1M11 18h1M8 19h2M22 19h1M8 20h1M14 20h1M21 20h2M8 21h1M12 21h1M21 21h1M8 22h1M10 22h2M15 22h1M20 22h1M8 23h4M19 23h1M8 24h2M13 24h4M10 25h4" />
<path stroke="#0069aa" d="M16 6h1M15 7h1M14 9h1M13 10h2M23 10h1M13 11h2M22 11h2M13 12h1M15 12h1M20 12h3M13 13h1M18 13h2M21 13h1M13 14h1M21 14h1M13 15h1M21 15h1M24 15h1M21 16h4M20 17h4M19 18h4M19 19h2M18 20h2M15 21h1M18 21h1M16 22h2" />
<path stroke="#0098dc" d="M17 6h1M16 7h2M21 7h1M15 8h2M22 8h1M15 9h1M15 10h1M15 11h1M21 11h1M14 12h1M16 12h1M19 12h1M23 12h2M14 13h1M16 13h2M20 13h1M22 13h3M14 14h1M22 14h3M22 15h2M20 16h1M14 19h1M18 19h1M21 19h1M15 20h3M20 20h1M16 21h2M19 21h1" />
<path stroke="#94fdff" d="M18 6h2M18 7h2M17 8h2M21 8h1M17 9h2M21 9h1M16 10h2M20 10h1M16 11h2M20 11h1M18 14h2M14 15h2M19 15h2M14 16h4M15 17h5M17 18h2" />
<path stroke="#c7b08b" d="M13 7h2M12 8h2M11 9h2M11 10h2M11 11h1M12 13h1M11 14h2M11 15h2M11 16h2M11 17h3M12 18h2M12 19h2M12 20h2M13 21h2M20 21h1M13 22h2M18 22h2M14 23h5" />
<path stroke="#00cdf9" d="M20 7h1M19 8h2M16 9h1M19 9h2M22 9h1M18 10h2M21 10h2M18 11h2M17 12h2M15 13h1M15 14h3M20 14h1M16 15h3M18 16h2M14 17h1M14 18h3M15 19h3" />
<path stroke="#796755" d="M10 10h1M11 12h2M9 14h1M10 17h1M10 18h1M10 19h2M9 20h3M9 21h3M9 22h1M12 22h1M12 23h2M10 24h3M17 24h1M9 25h1M14 25h1" />
</svg>