<svg xmlns="http://www.w3.org/2000/svg" viewBox="0 -0.5 32 32" shape-rendering="crispEdges">
<metadata>Made with Pixels to Svg https://codepen.io/shshaw/pen/XbxvNj</metadata>
<path stroke="#221c1a" d="M16 4h5M10 5h6M21 5h2M6 6h4M23 6h1M5 7h1M23 7h1M4 8h1M24 8h1M4 9h1M24 9h1M3 10h1M25 10h1M3 11h1M25 11h1M3 12h1M25 12h1M3 13h1M26 13h1M3 14h1M26 14h1M3 15h1M26 15h1M4 16h1M27 16h1M4 17h1M27 17h1M5 18h1M27 18h1M5 19h1M27 19h1M6 20h1M27 20h1M6 21h1M27 21h1M7 22h1M27 22h1M7 23h1M26 23h1M8 24h1M24 24h2M9 25h2M23 25h1M11 26h2M21 26h2M13 27h2M19 27h2M15 28h4" />
<path stroke="#796755" d="M16 5h1M20 5h1M21 6h2M20 7h1M22 7h1M5 8h1M19 8h1M23 8h1M5 9h1M18 9h1M23 9h1M4 10h3M17 10h2M24 10h1M5 11h5M16 11h2M5 12h12M5 13h11M25 13h1M6 14h9M4 15h1M6 15h9M6 16h9M16 16h1M26 16h1M5 17h9M26 17h1M6 18h8M26 18h1M6 19h1M10 19h2M13 19h1M15 19h1M13 20h1M7 21h1M13 21h1M8 22h1M12 22h2M25 22h1M8 23h6M23 23h1M9 24h1M12 24h2M21 24h1M11 25h1M13 25h1M15 25h1M19 25h1M22 25h1M13 26h1M20 26h1M15 27h1M18 27h1" />
<path stroke="#a08662" d="M17 5h3M10 6h1M11 8h3M15 8h4M22 8h1M6 9h1M17 9h1M7 10h1M4 11h1M10 11h1M4 12h1M17 12h1M4 13h1M4 14h2M15 14h1M5 15h1M16 15h1M5 16h1M14 17h1M15 18h1M7 19h3M12 19h1M26 19h1M7 20h6M26 20h1M8 21h5M26 21h1M9 22h3M26 22h1M24 23h2M10 24h2M22 24h2M12 25h1M20 25h2M14 26h1M19 26h1M16 27h2" />
<path stroke="#c7b08b" d="M11 6h10M6 7h14M6 8h5M14 8h1M7 9h10M8 10h9M11 11h5M16 13h1M16 14h1M15 15h1M15 16h1M15 17h1M14 18h1M14 19h1M14 20h1M14 21h1M14 22h1M14 23h1M14 24h1M14 25h1M15 26h4" />
<path stroke="#3b7d4f" d="M21 7h1M20 8h2M19 9h1M18 11h1M24 11h1M24 12h1M17 13h1M24 13h1M24 14h2M25 15h1M25 16h1M16 17h1M23 17h1M16 18h1M24 18h1M16 19h1M15 20h1M22 20h1M15 21h1M17 21h1M20 21h1M15 22h1M18 23h1M21 23h2M16 24h1M20 24h1M18 25h1" />
<path stroke="#63ab3f" d="M20 9h2M19 10h2M23 10h1M19 11h2M18 12h2M18 13h2M23 13h1M17 14h3M23 14h1M17 15h2M20 15h4M17 16h1M22 16h2M17 17h1M22 17h1M25 17h1M21 18h2M25 18h1M21 19h2M24 19h2M17 20h1M20 20h2M23 20h3M19 21h1M22 21h3M16 22h1M21 22h3M16 23h2M17 24h3" />
<path stroke="#c8d45d" d="M22 9h1M21 10h2M21 11h3M20 12h4M20 13h3M20 14h3M19 15h1M18 16h4M18 17h4M17 18h4M17 19h4M18 20h2M18 21h1" />
<path stroke="#2f5753" d="M24 15h1M24 16h1M24 17h1M23 18h1M23 19h1M16 20h1M16 21h1M21 21h1M25 21h1M17 22h4M24 22h1M15 23h1M19 23h2M15 24h1M16 25h2" />
</svg>