<svg xmlns="http://www.w3.org/2000/svg" viewBox="0 -0.5 32 32" shape-rendering="crispEdges">
<metadata>Made with Pixels to Svg https://codepen.io/shshaw/pen/XbxvNj</metadata>
<path stroke="#322b28" d="M15 7h5M10 8h5M20 8h5M8 9h2M25 9h1M6 10h2M26 10h1M5 11h1M26 11h1M4 12h1M26 12h1M4 13h1M26 13h1M4 14h1M27 14h1M4 15h1M27 15h1M4 16h1M27 16h1M4 17h1M27 17h1M4 18h1M27 18h1M4 19h1M26 19h1M5 20h1M25 20h1M6 21h1M24 21h1M7 22h6M22 22h2M13 23h3M21 23h1M16 24h5" />
<path stroke="#a08662" d="M15 8h1M19 8h1M10 9h2M19 9h3M24 9h1M8 10h2M17 10h1M20 10h1M25 10h1M6 11h1M9 11h1M15 11h2M19 11h1M22 11h2M5 12h1M13 12h3M21 12h3M8 13h1M11 13h1M18 13h2M21 13h2M25 13h1M10 14h1M14 14h1M24 14h2M13 15h1M17 15h3M22 15h1M25 15h2M20 16h1M26 16h1M19 17h2M5 18h1M19 18h2M25 18h1M5 19h1M19 19h2M25 19h1M6 20h1M20 20h2M24 20h1M7 21h3M15 21h1M20 21h1M23 21h1M13 22h1M20 22h2M16 23h1M19 23h2" />
<path stroke="#c7b08b" d="M16 8h3M12 9h7M22 9h2M10 10h7M18 10h2M21 10h4M7 11h2M10 11h5M17 11h2M20 11h2M24 11h2M6 12h3M10 12h3M16 12h5M24 12h2M5 13h2M12 13h6M20 13h1M23 13h2M5 14h1M15 14h9M5 15h1M20 15h2M5 16h1M19 16h1M5 17h1M24 19h1M22 20h2M10 21h5M21 21h2M14 22h3M17 23h2" />
<path stroke="#796755" d="M9 12h1M9 13h2M11 14h3M26 14h1M14 15h3M23 15h2M21 16h2M26 17h1M26 18h1" />
<path stroke="#328464" d="M7 13h1M6 14h1M6 15h1M24 16h2M22 17h4M18 18h1M21 18h3M6 19h1M18 19h1M7 20h2M19 20h1" />
<path stroke="#5ac54f" d="M7 14h1M9 14h1M12 15h1M6 16h1M16 16h3M8 17h1M17 17h2M14 18h1M17 18h1M14 20h1" />
<path stroke="#fdd2ed" d="M8 14h1M8 15h1M15 17h2M15 18h2M10 19h1M15 19h1" />
<path stroke="#92e8c0" d="M7 15h1M9 15h3M7 16h2M10 16h1M15 16h1M10 17h2M14 17h1M7 18h1M8 19h2M11 19h1M9 20h2M15 20h2M18 20h1M16 21h1M19 21h1" />
<path stroke="#ffee83" d="M9 16h1M9 17h1M16 19h2M17 20h1M17 21h2" />
<path stroke="#e3e6ff" d="M11 16h4M12 17h2" />
<path stroke="#23674e" d="M23 16h1M23 19h1" />
<path stroke="#5daf8d" d="M6 17h2M6 18h1M8 18h1M13 18h1M7 19h1M11 20h1M17 22h3" />
<path stroke="#4c6885" d="M21 17h1M24 18h1M21 19h2" />
<path stroke="#4fa4b8" d="M9 18h4M12 19h3M12 20h2" />
</svg>