<svg xmlns="http://www.w3.org/2000/svg" viewBox="0 -0.5 32 32" shape-rendering="crispEdges">
<metadata>Made with Pixels to Svg https://codepen.io/shshaw/pen/XbxvNj</metadata>
<path stroke="#571c27" d="M15 6h2M14 7h1M17 7h1M13 8h1M18 8h1M12 9h1M19 9h1M11 10h1M20 10h1M10 11h1M21 11h1M9 12h1M22 12h1M8 13h1M23 13h1M7 14h1M24 14h1M6 15h1M25 15h1M6 16h1M25 16h1M7 17h1M24 17h1M8 18h1M23 18h1M9 19h1M22 19h1M10 20h1M21 20h1M11 21h1M20 21h1M12 22h1M19 22h1M13 23h1M18 23h1M14 24h1M17 24h1M15 25h2" />
<path stroke="#ff616b" d="M15 7h2M14 8h1M17 8h1M18 9h1M13 10h1M16 10h1M19 10h1M12 11h2M17 11h1M20 11h1M12 12h1M18 12h1M21 12h1M16 13h2M19 13h1M21 13h1M16 14h1M23 15h2M13 16h1M24 16h1M13 17h1M16 17h1M21 17h1M23 17h1M15 18h1M20 18h2M20 19h1M18 20h1M18 21h1" />
<path stroke="#e12937" d="M15 8h1M13 9h3M12 10h1M14 10h2M18 10h1M11 11h1M14 11h1M18 11h2M10 12h1M13 12h1M15 12h2M19 12h2M9 13h1M12 13h1M14 13h2M20 13h1M8 14h2M11 14h1M13 14h2M17 14h2M20 14h1M8 15h1M12 15h2M16 15h2M19 15h1M21 15h1M7 16h1M10 16h1M12 16h1M15 16h2M18 16h2M21 16h3M8 17h1M10 17h2M14 17h2M17 17h2M20 17h1M22 17h1M9 18h1M12 18h1M14 18h1M16 18h2M19 18h1M22 18h1M10 19h1M13 19h1M15 19h2M19 19h1M21 19h1M11 20h1M14 20h1M19 20h2M12 21h1M17 21h1M19 21h1M13 22h1M17 22h2M14 23h1M16 23h1M15 24h1" />
<path stroke="#ff9ba2" d="M16 8h1M16 9h2M17 10h1M15 11h1M14 12h1M13 13h1M22 13h1M12 14h1M15 14h1M21 14h3M11 15h1M14 15h2M18 15h1M22 15h1M11 16h1M14 16h1M17 16h1M20 16h1M19 17h1M18 18h1M17 19h1M15 20h2" />
<path stroke="#ffffff" d="M16 11h1M17 12h1M18 13h1M19 14h1M20 15h1M12 17h1M13 18h1M14 19h1" />
<path stroke="#9d2231" d="M11 12h1M10 13h2M10 14h1M7 15h1M9 15h2M8 16h2M9 17h1M10 18h2M11 19h2M18 19h1M12 20h2M17 20h1M13 21h4M14 22h3M15 23h1M17 23h1M16 24h1" />
</svg>