<svg xmlns="http://www.w3.org/2000/svg" viewBox="0 -0.5 32 32" shape-rendering="crispEdges">
<metadata>Made with Pixels to Svg https://codepen.io/shshaw/pen/XbxvNj</metadata>
<path stroke="#1c121c" d="M7 5h7M5 6h2M14 6h2M4 7h1M16 7h2M3 8h1M18 8h2M2 9h1M20 9h2M1 10h1M22 10h2M1 11h1M24 11h2M1 12h1M26 12h2M1 13h1M28 13h1M1 14h1M29 14h1M2 15h1M30 15h1M3 16h1M30 16h1M4 17h1M30 17h1M5 18h1M30 18h1M6 19h1M29 19h1M7 20h1M27 20h2M8 21h1M25 21h2M9 22h1M23 22h2M10 23h1M22 23h1M11 24h1M20 24h2M12 25h1M18 25h2M13 26h5" />
<path stroke="#cf752b" d="M7 6h1M13 6h1M5 7h1M12 7h4M9 8h1M17 8h1M7 9h2M6 10h2M13 10h3M18 10h4M2 11h1M4 11h3M12 11h2M23 11h1M2 12h1M5 12h2M11 12h1M25 12h1M2 13h1M5 13h3M10 13h2M20 13h2M24 13h4M3 14h1M6 14h5M18 14h2M3 15h2M6 15h5M16 15h2M4 16h2M7 16h5M15 16h2M5 17h9M15 17h1M6 18h7M14 18h1M7 19h2M10 19h3M28 19h1M8 20h2M12 20h1M26 20h1M9 21h2M13 21h1M24 21h1M10 22h2M11 23h1M21 23h1M19 24h1M13 25h1" />
<path stroke="#f0b541" d="M8 6h5M6 7h6M4 8h5M10 8h7M4 9h3M9 9h11M4 10h2M8 10h5M16 10h2M7 11h5M14 11h9M7 12h4M12 12h13M8 13h2M12 13h8M22 13h2M11 14h7M20 14h9M11 15h5M18 15h5M28 15h2M12 16h3M17 16h3M29 16h1M16 17h3M29 17h1M15 18h2M27 18h3M14 19h2M25 19h3M14 20h1M23 20h3M14 21h1M21 21h3M13 22h2M19 22h4M13 23h2M17 23h4M13 24h6M14 25h4" />
<path stroke="#ab5130" d="M3 9h1M2 10h2M3 11h1M3 12h2M3 13h2M2 14h1M4 14h2M5 15h1M6 16h1M14 17h1M13 18h1M9 19h1M13 19h1M10 20h2M13 20h1M11 21h2M12 22h1M12 23h1M12 24h1" />
<path stroke="#e64539" d="M23 15h2M27 15h1M20 16h1M25 16h2M28 16h1M19 17h3M27 17h2M17 18h1M21 18h2M26 18h1M16 19h3M23 19h2M15 20h1M18 20h2M22 20h1M20 21h1M15 22h1M18 22h1M15 23h2" />
<path stroke="#e86a73" d="M25 15h2M21 16h4M27 16h1M22 17h5M18 18h3M23 18h3M19 19h4M16 20h2M20 20h2M15 21h5M16 22h2" />
</svg>