<svg xmlns="http://www.w3.org/2000/svg" viewBox="0 -0.5 32 32" shape-rendering="crispEdges">
<metadata>Made with Pixels to Svg https://codepen.io/shshaw/pen/XbxvNj</metadata>
<path stroke="#1b1f21" d="M13 0h5M12 1h1M18 1h1M12 2h1M18 2h1M12 3h1M18 3h1M12 4h1M18 4h1M12 5h1M18 5h1M13 6h1M17 6h1M13 7h1M17 7h1M13 8h1M17 8h1M13 9h1M17 9h1M12 10h1M18 10h1M11 11h1M19 11h1M10 12h1M20 12h1M9 13h1M21 13h1M9 14h1M21 14h1M9 15h1M21 15h1M9 16h1M21 16h1M9 17h1M21 17h1M9 18h1M21 18h1M9 19h1M21 19h1M9 20h1M21 20h1M9 21h1M21 21h1M9 22h1M21 22h1M9 23h1M21 23h1M9 24h1M21 24h1M9 25h1M21 25h1M9 26h1M21 26h1M9 27h1M21 27h1M9 28h1M21 28h1M9 29h1M21 29h1M10 30h1M20 30h1M11 31h9" />
<path stroke="#5d2c28" d="M13 1h1M13 2h1M14 3h2M14 4h2" />
<path stroke="#8a4836" d="M14 1h1M17 2h1M13 3h1M16 3h2M16 4h1" />
<path stroke="#bf6f4a" d="M15 1h3M14 2h3" />
<path stroke="#2f5753" d="M13 4h1M17 4h1M13 5h1M17 5h1M15 6h1M14 8h1M14 10h4M16 11h1M14 12h1M10 13h1M20 13h1M11 14h9M11 15h1M19 15h1M10 16h1M10 20h1M10 21h1M10 22h1M10 23h1M20 27h1M10 28h1M20 28h1M11 29h1M19 29h1M13 30h2" />
<path stroke="#3b7d4f" d="M14 5h1M16 6h1M15 7h1M15 8h1M14 9h2M15 12h1M18 12h1M15 13h3M20 14h1M20 16h1M10 17h1M19 17h1M10 18h1M10 19h1M10 24h1M10 25h1M20 25h1M10 26h1M20 26h1M10 27h1M15 30h3" />
<path stroke="#63ab3f" d="M15 5h2M16 7h1M16 8h1M16 9h1M16 12h2M20 15h1M12 17h1M20 17h1M12 18h3M16 18h3M20 18h1M12 19h1M20 19h1M12 20h1M20 20h1M12 21h1M20 21h1M12 22h1M20 22h1M12 23h1M20 23h1M12 24h1M20 24h1M12 25h1M12 26h1M12 27h1M12 28h1M13 29h1" />
<path stroke="#283540" d="M14 6h1M14 7h1M13 10h1M12 11h4M17 11h2M11 12h3M19 12h1M11 13h4M18 13h2M10 14h1M10 15h1M10 29h1M20 29h1M11 30h2M18 30h2" />
<path stroke="#c8d45d" d="M12 15h1M18 15h1M11 16h1M19 16h1M11 17h1M18 17h1M11 18h1M15 18h1M11 19h1M13 19h1M11 20h1M11 21h1M11 22h1M11 23h1M11 24h1M11 25h1M11 26h1M11 27h1M11 28h1M19 28h1M12 29h1M14 29h1M18 29h1" />
<path stroke="#ffee83" d="M13 15h1M17 15h1M12 16h1M15 16h4M13 17h1M16 17h2M19 18h1M14 19h5M13 20h4M13 21h4M13 22h5M19 22h1M13 23h7M13 24h5M14 25h4M19 25h1M15 26h5M13 27h1M15 27h5M13 28h6M15 29h3" />
<path stroke="#f5ffe8" d="M14 15h3M13 16h2M14 17h2M19 19h1M17 20h3M17 21h3M18 22h1M18 24h2M13 25h1M18 25h1M13 26h2M14 27h1" />
</svg>