<svg xmlns="http://www.w3.org/2000/svg" viewBox="0 -0.5 32 32" shape-rendering="crispEdges">
<metadata>Made with Pixels to Svg https://codepen.io/shshaw/pen/XbxvNj</metadata>
<path stroke="#1a1932" d="M18 2h3M16 3h2M21 3h1M13 4h3M22 4h1M12 5h1M23 5h1M12 6h1M24 6h1M12 7h1M25 7h1M9 8h3M26 8h1M6 9h3M26 9h1M4 10h2M26 10h1M3 11h1M26 11h1M3 12h1M26 12h1M3 13h1M26 13h1M3 14h1M26 14h1M3 15h1M25 15h1M3 16h1M24 16h2M3 17h1M26 17h1M3 18h1M27 18h1M3 19h1M27 19h1M3 20h1M27 20h1M4 21h1M27 21h1M5 22h1M27 22h1M6 23h1M15 23h1M27 23h1M7 24h2M15 24h1M27 24h1M9 25h7M26 25h1M16 26h1M25 26h1M17 27h1M23 27h2M18 28h5" />
<path stroke="#92a1b9" d="M18 3h1M16 4h1M14 5h1M18 6h1M20 6h2M17 7h1M19 7h2M23 8h3M9 9h1M20 9h2M24 9h1M6 10h1M12 10h1M18 10h2M21 10h4M4 11h1M18 11h1M21 11h5M6 12h2M18 12h1M20 12h3M24 12h1M7 13h2M18 13h2M21 13h4M8 14h1M13 14h2M18 14h1M20 14h3M24 14h2M9 15h1M12 15h1M16 15h1M18 15h3M14 16h1M16 16h1M22 16h1M11 17h1M15 17h2M25 17h1M9 18h1M12 18h4M9 19h6M18 19h1M20 19h2M9 20h2M12 20h1M14 20h1M19 20h1M21 20h2M25 20h2M9 21h1M11 21h1M14 21h1M16 21h1M23 21h1M26 21h1M9 22h1M11 22h1M13 22h2M18 22h1M21 22h1M24 22h3M9 23h6M19 23h8M10 24h4M19 24h1M21 24h2M24 24h3M21 25h1M23 25h3M20 26h4M20 27h2" />
<path stroke="#c7cfdd" d="M19 3h2M17 4h5M15 5h8M14 6h4M19 6h1M22 6h2M15 7h2M18 7h1M21 7h4M16 8h7M10 9h2M17 9h3M25 9h1M7 10h5M20 10h1M25 10h1M5 11h9M19 11h2M4 12h2M8 12h7M19 12h1M25 12h1M5 13h2M9 13h7M20 13h1M25 13h1M6 14h2M9 14h4M15 14h2M19 14h1M7 15h2M10 15h2M13 15h3M8 16h6M19 16h3M9 17h2M17 17h8M16 18h11M15 19h3M19 19h1M22 19h5M11 20h1M13 20h1M16 20h3M20 20h1M23 20h2M10 21h1M12 21h2M17 21h6M10 22h1M12 22h1M19 22h2" />
<path stroke="#657392" d="M13 5h1M13 6h1M13 7h2M13 8h2M14 9h2M22 9h2M14 10h4M15 11h2M15 12h2M23 12h1M4 13h1M16 13h2M4 14h2M23 14h1M5 15h2M21 15h4M4 16h1M6 16h2M15 16h1M17 16h2M23 16h1M4 17h2M7 17h2M12 17h3M4 18h2M8 18h1M10 18h2M4 19h3M8 19h1M5 20h4M15 20h1M5 21h3M15 21h1M24 21h2M6 22h2M15 22h3M22 22h2M7 23h2M16 23h3M9 24h1M14 24h1M16 24h2M20 24h1M23 24h1M17 25h1M19 25h2M22 25h1M17 26h2M24 26h1M18 27h2M22 27h1" />
<path stroke="#424c6e" d="M12 8h1M15 8h1M12 9h2M16 9h1M13 10h1M14 11h1M17 11h1M17 12h1M17 14h1M4 15h1M17 15h1M5 16h1M6 17h1M6 18h2M7 19h1M4 20h1M8 21h1M8 22h1M18 24h1M16 25h1M18 25h1M19 26h1" />
</svg>