<svg xmlns="http://www.w3.org/2000/svg" viewBox="0 -0.5 32 32" shape-rendering="crispEdges">
<metadata>Made with Pixels to Svg https://codepen.io/shshaw/pen/XbxvNj</metadata>
<path stroke="#1b1f21" d="M14 3h7M12 4h2M21 4h1M11 5h1M22 5h1M10 6h1M22 6h1M10 7h1M23 7h1M9 8h1M23 8h1M9 9h1M23 9h1M9 10h1M24 10h1M8 11h1M24 11h1M7 12h1M24 12h1M6 13h1M24 13h1M6 14h1M24 14h1M6 15h2M23 15h1M8 16h1M23 16h1M8 17h1M24 17h1M8 18h1M24 18h1M8 19h1M22 19h3M9 20h1M22 20h1M9 21h1M21 21h1M9 22h1M21 22h1M9 23h1M21 23h1M9 24h2M20 24h1M11 25h1M20 25h1M11 26h1M19 26h1M12 27h1M18 27h1M13 28h1M16 28h2M14 29h2" />
<path stroke="#a08662" d="M14 4h2M19 4h1M13 5h1M15 5h1M19 5h2M14 6h1M17 6h1M20 6h1M11 7h1M15 7h1M17 7h2M11 8h2M15 8h1M18 8h2M15 9h2M18 9h2M21 9h1M16 10h2M21 10h2M9 11h2M22 11h1M8 12h3M8 13h1M10 13h1M11 14h1M15 14h1M17 14h1M10 15h3M14 15h1M17 15h2M21 15h1M10 16h1M14 16h1M16 16h3M21 16h2M10 17h1M15 17h2M22 17h1M20 18h1M11 19h1M19 19h2M10 20h3M16 20h1M18 20h2M21 20h1M11 21h1M13 22h2M20 22h1M13 23h1M16 23h2M12 24h2M15 24h3M12 25h1M14 25h2M13 27h1M14 28h1" />
<path stroke="#796755" d="M16 4h1M18 4h1M16 6h1M16 7h1M16 8h2M14 9h1M17 9h1M22 9h1M14 10h1M20 10h1M20 11h1M11 12h1M12 13h1M15 13h1M12 14h1M16 14h1M15 15h2M20 15h1M15 16h1M19 18h1M15 22h1M14 23h2M14 24h1M19 24h1M19 25h1M18 26h1" />
<path stroke="#2f5753" d="M17 4h1M20 4h1M16 5h1M18 5h1M11 6h1M18 6h1M19 7h1M22 7h1M13 8h1M20 8h2M10 10h1M13 10h1M23 10h1M12 11h3M12 12h1M15 12h1M18 12h1M20 12h1M11 13h1M14 13h1M16 13h1M20 13h1M13 14h1M18 14h1M20 14h1M13 15h1M19 16h1M12 17h1M18 17h1M20 17h1M21 18h1M13 21h1M18 21h1M17 22h1M18 23h1M12 26h1" />
<path stroke="#c7b08b" d="M12 5h1M14 5h1M12 6h2M19 6h1M21 6h1M20 7h2M10 8h1M10 9h2M15 10h1M18 10h1M15 11h4M21 11h1M23 11h1M16 12h2M21 12h3M7 13h1M9 13h1M22 13h2M7 14h2M11 16h1M9 17h1M11 17h1M14 17h1M17 17h1M21 17h1M23 17h1M9 18h2M15 18h3M22 18h2M15 19h2M20 20h1M10 21h1M12 21h1M19 21h2M10 22h2M13 25h1M16 25h1M13 26h4M14 27h2" />
<path stroke="#3b7d4f" d="M17 5h1M21 5h1M14 8h1M22 8h1M12 9h1M11 11h1M13 12h2M13 13h1M9 14h1M14 14h1M21 14h1M22 15h1M9 16h1M12 16h1M20 16h1M19 17h1M12 18h1M14 18h1M12 19h2M18 19h1M21 19h1M13 20h1M15 20h1M14 21h1M16 22h1M19 22h1M10 23h1M12 23h1M17 25h1M16 27h1M15 28h1" />
<path stroke="#283540" d="M15 6h1M12 7h3M13 9h1M20 9h1M11 10h2M19 10h1M19 11h1M19 12h1M17 13h3M21 13h1M10 14h1M19 14h1M22 14h2M8 15h2M19 15h1M13 16h1M13 17h1M11 18h1M13 18h1M18 18h1M9 19h2M14 19h1M17 19h1M14 20h1M17 20h1M15 21h3M12 22h1M18 22h1M11 23h1M19 23h2M11 24h1M18 24h1M18 25h1M17 26h1M17 27h1" />
</svg>