<svg xmlns="http://www.w3.org/2000/svg" viewBox="0 -0.5 32 32" shape-rendering="crispEdges">
<metadata>Made with Pixels to Svg https://codepen.io/shshaw/pen/XbxvNj</metadata>
<path stroke="#571c27" d="M8 5h4M6 6h2M12 6h2M5 7h1M14 7h1M4 8h1M15 8h1M4 9h1M16 9h1M3 10h1M9 10h2M16 10h1M3 11h1M8 11h1M11 11h1M17 11h1M23 11h2M3 12h1M7 12h1M12 12h2M17 12h1M22 12h1M25 12h1M3 13h1M7 13h1M14 13h4M21 13h1M26 13h1M3 14h1M6 14h1M21 14h1M27 14h1M3 15h1M7 15h1M21 15h4M27 15h1M4 16h1M8 16h3M25 16h1M28 16h1M4 17h1M10 17h1M25 17h1M28 17h1M5 18h1M10 18h1M14 18h4M24 18h1M28 18h1M6 19h1M9 19h1M14 19h1M18 19h2M24 19h1M28 19h1M7 20h2M14 20h1M20 20h1M23 20h1M28 20h1M15 21h1M21 21h2M28 21h1M15 22h1M27 22h1M16 23h1M27 23h1M17 24h1M26 24h1M18 25h2M24 25h2M20 26h4" />
<path stroke="#edab50" d="M8 6h2M7 7h2M12 7h2M7 8h2M11 8h4M11 9h2M4 11h1M4 12h2M24 12h1M4 13h2M25 13h1M23 14h2M26 16h1M7 17h2M26 17h2M6 18h1M26 18h2M7 19h1M27 19h1M19 21h2M25 21h1M19 22h3M24 22h2M18 23h3M23 23h3M23 24h2" />
<path stroke="#c64524" d="M10 6h1M9 7h1M5 8h1M5 9h1M10 9h1M15 9h1M6 10h1M8 10h1M11 10h1M12 11h1M16 11h1M14 12h1M6 13h1M22 13h2M4 15h1M25 15h1M6 16h1M27 16h1M8 18h2M25 18h1M17 19h1M15 20h1M19 20h1M23 21h1M27 21h1M16 22h1M26 23h1M18 24h1M22 24h1M21 25h1" />
<path stroke="#e07438" d="M11 6h1M6 7h1M10 7h2M6 8h1M10 8h1M6 9h3M13 9h2M4 10h1M7 10h1M12 10h2M15 10h1M5 11h1M13 11h3M6 12h1M15 12h2M23 12h1M24 13h1M4 14h2M22 14h1M25 14h1M5 15h1M26 15h1M5 16h1M6 17h1M9 17h1M7 18h1M8 19h1M15 19h2M25 19h2M16 20h3M26 20h2M16 21h1M18 21h1M24 21h1M17 22h2M23 22h1M26 22h1M17 23h1M21 23h1M19 24h3M25 24h1M20 25h1M22 25h2" />
<path stroke="#8e251d" d="M9 8h1M9 9h1M5 10h1M6 11h2M26 14h1M6 15h1M7 16h1M5 17h1M24 20h2M26 21h1M22 22h1M22 23h1" />
<path stroke="#1a1932" d="M14 10h1M17 21h1" />
</svg>