<svg xmlns="http://www.w3.org/2000/svg" viewBox="0 -0.5 32 32" shape-rendering="crispEdges">
<metadata>Made with Pixels to Svg https://codepen.io/shshaw/pen/XbxvNj</metadata>
<path stroke="#242234" d="M10 6h8M9 7h1M18 7h2M8 8h1M20 8h1M7 9h1M21 9h1M7 10h1M22 10h1M6 11h1M23 11h1M6 12h1M24 12h1M6 13h1M24 13h1M6 14h1M25 14h1M6 15h1M13 15h3M25 15h1M6 16h1M12 16h1M16 16h1M23 16h1M26 16h1M6 17h1M12 17h1M17 17h1M23 17h1M26 17h1M7 18h1M12 18h1M18 18h1M26 18h1M7 19h1M13 19h1M19 19h2M26 19h1M8 20h1M13 20h1M21 20h6M9 21h1M14 21h1M10 22h1M15 22h1M11 23h1M16 23h1M12 24h1M16 24h1M13 25h4" />
<path stroke="#bc4a9b" d="M10 7h1M15 7h1M17 7h1M14 8h1M8 9h1M13 9h2M13 10h1M7 11h1M13 11h1M13 12h1M8 13h1M9 14h2M14 14h1M7 15h1M10 15h3M7 16h2M7 17h4M8 19h1M12 19h1M11 22h1M14 22h1M12 23h4M13 24h3" />
<path stroke="#e86a73" d="M11 7h4M16 7h1M9 8h1M12 8h2M15 8h1M19 8h1M11 9h2M8 10h1M11 10h2M14 10h1M8 11h5M7 12h2M11 12h2M23 12h1M7 13h1M9 13h1M12 13h2M7 14h2M11 14h3M24 14h1M8 15h2M22 15h2M9 16h3M22 16h1M25 16h1M11 17h1M22 17h1M8 18h4M19 18h1M10 19h2M21 19h1M10 20h3M11 21h3M12 22h2" />
<path stroke="#f5a097" d="M10 8h2M16 8h3M9 9h2M15 9h2M20 9h1M9 10h2M15 10h3M21 10h1M14 11h6M22 11h1M9 12h2M14 12h7M22 12h1M10 13h2M14 13h10M15 14h9M17 15h5M24 15h1M18 16h4M24 16h1M18 17h4M24 17h2M20 18h6M9 19h1M22 19h4M9 20h1M10 21h1" />
<path stroke="#fad6b8" d="M17 9h3M18 10h3M20 11h2M21 12h1M16 15h1M17 16h1" />
</svg>