<svg xmlns="http://www.w3.org/2000/svg" viewBox="0 -0.5 32 32" shape-rendering="crispEdges">
<metadata>Made with Pixels to Svg https://codepen.io/shshaw/pen/XbxvNj</metadata>
<path stroke="#03193f" d="M21 5h6M20 6h1M26 6h1M19 7h1M26 7h1M18 8h1M26 8h1M17 9h1M26 9h1M16 10h1M26 10h1M15 11h1M25 11h1M15 12h1M24 12h1M15 13h1M23 13h1M15 14h1M22 14h1M15 15h1M21 15h1M15 16h6" />
<path stroke="#f389f5" d="M21 6h5M20 7h1M25 7h1M21 8h1M25 8h1M23 9h1M17 11h1M22 11h1M17 12h1M22 13h1M20 14h2" />
<path stroke="#7a09fa" d="M21 7h4M20 8h1M24 8h1M19 9h1M24 9h1M18 10h1M24 10h1M18 11h1M23 11h1M18 12h1M22 12h1M18 13h4" />
<path stroke="#1a1932" d="M12 8h6M11 9h1M10 10h1M9 11h1M9 12h1M8 13h1M13 13h2M8 14h1M12 14h1M23 14h1M8 15h1M12 15h1M23 15h1M8 16h1M12 16h1M23 16h1M8 17h1M12 17h1M17 17h1M23 17h1M9 18h1M13 18h1M17 18h1M23 18h1M9 19h1M14 19h3M23 19h1M10 20h1M22 20h1M11 21h1M21 21h1M12 22h2M19 22h2M14 23h5" />
<path stroke="#db3ffd" d="M19 8h1M18 9h1M25 9h1M17 10h1M19 10h5M25 10h1M24 11h1M19 12h3M23 12h1M17 13h1M17 14h3" />
<path stroke="#f1c9f5" d="M22 8h2M20 9h3M19 11h3" />
<path stroke="#92a1b9" d="M12 9h1M16 9h1M10 11h1M14 11h1M12 12h1M9 13h1M9 14h1M11 14h1M9 15h3M22 15h1M9 16h3M10 17h2M19 17h1M10 18h2M19 18h1M11 19h2M22 19h1M11 20h6M18 20h1M13 21h3M17 21h1M20 21h1M15 22h4" />
<path stroke="#c7cfdd" d="M13 9h3M11 10h5M11 11h3M10 12h2M10 13h1M21 16h2M20 17h3M20 18h3M19 19h3M19 20h3M18 21h2" />
<path stroke="#3003d9" d="M16 11h1M16 12h1M16 13h1M16 14h1M16 15h5" />
<path stroke="#657392" d="M13 12h2M11 13h2M10 14h1M9 17h1M18 17h1M12 18h1M18 18h1M10 19h1M13 19h1M17 19h2M17 20h1M12 21h1M16 21h1M14 22h1" />
</svg>