<svg xmlns="http://www.w3.org/2000/svg" viewBox="0 -0.5 32 32" shape-rendering="crispEdges">
<metadata>Made with Pixels to Svg https://codepen.io/shshaw/pen/XbxvNj</metadata>
<path stroke="#21181b" d="M11 8h7M10 9h1M18 9h2M9 10h1M20 10h1M8 11h1M21 11h1M8 12h1M22 12h1M7 13h1M23 13h1M7 14h1M24 14h1M7 15h1M24 15h1M7 16h1M25 16h1M7 17h1M25 17h1M8 18h1M25 18h1M9 19h1M25 19h1M10 20h2M24 20h1M12 21h2M23 21h1M14 22h2M21 22h2M16 23h5" />
<path stroke="#c7cfdd" d="M11 9h1M16 9h1M10 10h1M15 10h2M18 10h1M14 11h2M17 11h4M14 12h2M17 12h4M13 13h2M17 13h5M13 14h2M16 14h6M10 15h1M13 15h2M16 15h5M14 16h1M16 16h3M22 19h1M16 20h2M19 20h4M17 21h1M19 21h3" />
<path stroke="#ffffff" d="M12 9h4M11 10h4M17 10h1M10 11h4M16 11h1M10 12h4M16 12h1M21 12h1M10 13h3M15 13h2M22 13h1M10 14h3M15 14h1M22 14h1M11 15h2M15 15h1M21 15h2M15 16h1M19 16h3" />
<path stroke="#92a1b9" d="M17 9h1M19 10h1M9 11h1M9 12h1M8 13h2M8 14h1M8 15h1M8 16h1M12 16h2M22 16h1M8 17h2M9 18h2M23 18h1M11 19h3M23 19h1M13 20h3M18 20h1M23 20h1M15 21h2M18 21h1" />
<path stroke="#657392" d="M9 14h1M23 14h1M9 15h1M23 15h1M9 16h3M23 16h2M10 17h15M11 18h12M24 18h1M10 19h1M14 19h8M24 19h1M12 20h1M14 21h1M22 21h1M16 22h5" />
</svg>