<svg xmlns="http://www.w3.org/2000/svg" viewBox="0 -0.5 32 32" shape-rendering="crispEdges">
<metadata>Made with Pixels to Svg https://codepen.io/shshaw/pen/XbxvNj</metadata>
<path stroke="#2a2f4e" d="M15 6h6M14 7h1M21 7h1M13 8h1M22 8h1M13 9h1M23 9h1M13 10h1M24 10h1M13 11h1M24 11h1M13 12h1M24 12h1M14 13h1M24 13h1M15 14h1M24 14h1M16 15h1M24 15h1M17 16h1M23 16h1M18 17h5" />
<path stroke="#849be4" d="M15 7h1M20 7h1M14 8h1M23 10h1M14 12h1M23 15h1M18 16h2M22 16h1" />
<path stroke="#e3e6ff" d="M16 7h4M17 8h1M21 8h1M15 9h1M17 9h1M17 10h2M22 10h1M16 11h8M18 12h2M22 12h1M19 13h1M22 13h2M20 14h1" />
<path stroke="#1a1932" d="M12 8h1M11 9h1M10 10h1M9 11h1M9 12h1M8 13h1M13 13h1M8 14h1M12 14h1M8 15h1M12 15h1M8 16h1M12 16h1M8 17h1M12 17h1M17 17h1M23 17h1M9 18h1M13 18h1M17 18h1M23 18h1M9 19h1M14 19h3M23 19h1M10 20h1M22 20h1M11 21h1M21 21h1M12 22h2M19 22h2M14 23h5" />
<path stroke="#ffffff" d="M15 8h2M18 8h3M18 9h4M19 10h3M23 14h1M19 15h2" />
<path stroke="#c7cfdd" d="M12 9h1M11 10h2M11 11h2M10 12h2M10 13h1M20 18h3M19 19h3M19 20h3M18 21h2" />
<path stroke="#b9bffb" d="M14 9h1M15 10h1M15 11h1M16 12h1M16 13h1M17 14h1M18 15h1M20 16h2" />
<path stroke="#92e8c0" d="M16 9h1M16 10h1M17 12h1M17 13h2M18 14h2" />
<path stroke="#fdd2ed" d="M22 9h1M14 10h1M14 11h1M15 12h1M20 12h2M15 13h1M20 13h2M16 14h1M17 15h1" />
<path stroke="#92a1b9" d="M10 11h1M12 12h1M9 13h1M9 14h1M11 14h1M9 15h3M9 16h3M10 17h2M10 18h3M19 18h1M11 19h2M22 19h1M11 20h6M18 20h1M13 21h3M17 21h1M20 21h1M15 22h4" />
<path stroke="#ffee83" d="M23 12h1M21 14h2M21 15h2" />
<path stroke="#657392" d="M11 13h2M10 14h1M9 17h1M18 18h1M10 19h1M13 19h1M17 19h2M17 20h1M12 21h1M16 21h1M14 22h1" />
</svg>