<svg xmlns="http://www.w3.org/2000/svg" viewBox="0 -0.5 32 32" shape-rendering="crispEdges">
<metadata>Made with Pixels to Svg https://codepen.io/shshaw/pen/XbxvNj</metadata>
<path stroke="#1c121c" d="M17 1h6M16 2h1M23 2h2M16 3h1M25 3h1M16 4h1M23 4h5M2 5h4M16 5h1M20 5h3M27 5h1M2 6h1M6 6h1M16 6h1M18 6h2M27 6h2M2 7h1M7 7h1M17 7h1M27 7h1M29 7h1M3 8h1M8 8h1M16 8h1M27 8h1M29 8h1M4 9h2M8 9h1M15 9h1M26 9h1M30 9h1M5 10h1M8 10h1M14 10h1M26 10h1M30 10h1M4 11h1M8 11h1M12 11h2M26 11h1M30 11h1M4 12h1M8 12h1M11 12h1M25 12h1M30 12h1M3 13h1M7 13h1M10 13h1M25 13h1M30 13h1M3 14h1M6 14h1M10 14h1M24 14h1M30 14h1M2 15h1M5 15h1M9 15h1M23 15h1M25 15h5M2 16h1M5 16h1M8 16h1M11 16h2M22 16h1M2 17h1M6 17h2M11 17h2M21 17h1M3 18h1M20 18h1M0 19h2M4 19h1M8 19h1M14 19h2M20 19h1M0 20h1M2 20h1M4 20h4M14 20h2M19 20h1M0 21h1M3 21h1M17 21h2M0 22h1M5 22h2M9 22h1M16 22h1M21 22h5M1 23h1M4 23h1M8 23h1M13 23h1M16 23h1M20 23h1M26 23h1M2 24h2M7 24h1M10 24h1M13 24h1M16 24h1M19 24h1M27 24h1M2 25h1M6 25h1M9 25h1M12 25h1M14 25h1M16 25h1M19 25h1M22 25h2M27 25h1M1 26h1M5 26h1M8 26h1M11 26h1M14 26h1M17 26h2M21 26h1M24 26h1M27 26h1M1 27h1M5 27h1M8 27h1M11 27h1M14 27h1M21 27h1M25 27h3M1 28h1M4 28h1M8 28h1M11 28h1M15 28h1M19 28h2M1 29h4M8 29h1M12 29h1M16 29h3M4 30h1M7 30h1M9 30h1M13 30h1M4 31h3M10 31h4" />
<path stroke="#c64524" d="M17 2h1M24 3h1M22 4h1M19 5h1M23 5h1M17 6h1M20 6h1M25 6h1M18 7h1M25 7h1M28 7h1M4 8h1M17 8h1M24 8h2M6 9h1M16 9h1M24 9h1M27 9h1M29 9h1M15 10h1M23 10h2M5 11h1M14 11h1M22 11h2M25 11h1M7 12h1M12 12h1M21 12h3M26 12h1M11 13h2M20 13h3M24 13h1M5 14h1M11 14h3M19 14h3M23 14h1M25 14h1M29 14h1M10 15h4M18 15h3M22 15h1M9 16h1M13 16h2M17 16h3M21 16h1M3 17h1M5 17h1M8 17h1M13 17h3M17 17h2M20 17h1M4 18h1M7 18h2M13 18h4M19 18h1M5 19h3M16 19h4M8 20h1M16 20h3M4 21h1M6 21h4M16 21h1M1 22h1M3 22h1M7 22h2M10 22h1M15 22h1M5 23h1M7 23h1M9 23h4M14 23h1M21 23h1M6 24h1M9 24h1M11 24h2M14 24h1M20 24h1M3 25h1M8 25h1M10 25h1M24 25h1M2 26h1M6 26h1M9 26h1M4 27h1M15 27h1M20 27h1M3 28h1M5 28h1M16 28h3M7 29h1M6 30h1M10 30h1" />
<path stroke="#e07438" d="M18 2h5M17 3h7M17 4h5M17 5h2M24 5h3M3 6h3M21 6h1M23 6h2M26 6h1M3 7h4M19 7h1M22 7h3M26 7h1M5 8h3M18 8h2M22 8h2M26 8h1M28 8h1M7 9h1M17 9h7M25 9h1M28 9h1M6 10h2M16 10h1M19 10h4M25 10h1M27 10h3M6 11h2M15 11h1M17 11h1M19 11h3M24 11h1M27 11h3M5 12h2M13 12h3M18 12h3M24 12h1M27 12h3M4 13h3M13 13h2M16 13h4M23 13h1M26 13h4M4 14h1M14 14h5M22 14h1M26 14h3M3 15h2M14 15h4M21 15h1M3 16h2M10 16h1M15 16h2M20 16h1M4 17h1M9 17h2M16 17h1M19 17h1M5 18h2M9 18h4M17 18h2M9 19h5M1 20h1M9 20h5M1 21h2M5 21h1M10 21h6M2 22h1M4 22h1M11 22h4M2 23h2M6 23h1M15 23h1M22 23h4M4 24h2M8 24h1M15 24h1M21 24h6M4 25h2M7 25h1M11 25h1M15 25h1M20 25h2M25 25h2M3 26h2M7 26h1M10 26h1M15 26h2M19 26h2M25 26h2M2 27h2M6 27h2M9 27h2M16 27h4M2 28h1M6 28h2M9 28h2M5 29h2M9 29h3M5 30h1M11 30h2" />
<path stroke="#edab50" d="M22 6h1M20 7h2M20 8h2M17 10h2M16 11h1M18 11h1M16 12h2M15 13h1" />
</svg>