<svg xmlns="http://www.w3.org/2000/svg" viewBox="0 -0.5 32 32" shape-rendering="crispEdges">
<metadata>Made with Pixels to Svg https://codepen.io/shshaw/pen/XbxvNj</metadata>
<path stroke="#2c354d" d="M14 8h4M12 9h2M18 9h2M11 10h1M20 10h1M10 11h1M21 11h1M9 12h1M22 12h1M9 13h1M22 13h1M8 14h1M23 14h1M8 15h1M23 15h1M8 16h1M23 16h1M8 17h1M23 17h1M9 18h1M22 18h1M9 19h1M22 19h1M10 20h1M21 20h1M11 21h1M20 21h1M12 22h2M18 22h2M14 23h4" />
<path stroke="#b9bffb" d="M14 9h1M12 10h1M11 11h1M10 12h2M9 14h1M9 15h2M9 16h1M9 17h1M11 17h1M22 17h1M10 19h1M21 19h1M11 20h1M14 20h1M19 20h2M12 21h1M16 21h1M19 21h1M14 22h4" />
<path stroke="#dfe0e8" d="M15 9h3M13 10h7M12 11h1M14 11h3M19 11h2M13 12h3M20 12h2M11 13h1M13 13h3M20 13h2M11 14h6M19 14h4M11 15h12M11 16h1M13 16h10M13 17h9M12 18h1M14 18h6M21 18h1M13 19h1M16 19h2M20 19h1M15 20h4" />
<path stroke="#f5ffe8" d="M13 11h1M17 11h2M12 12h1M16 12h4M12 13h1M16 13h4M17 14h2M12 16h1M12 17h1M13 18h1M20 18h1M14 19h2M18 19h2" />
<path stroke="#849be4" d="M10 13h1M10 14h1M10 16h1M10 17h1M10 18h2M11 19h2M12 20h2M13 21h3M17 21h2" />
</svg>