<svg xmlns="http://www.w3.org/2000/svg" viewBox="0 -0.5 32 32" shape-rendering="crispEdges">
<metadata>Made with Pixels to Svg https://codepen.io/shshaw/pen/XbxvNj</metadata>
<path stroke="#1c121c" d="M7 7h3M23 7h3M7 8h1M10 8h2M21 8h2M25 8h1M7 9h1M12 9h9M25 9h1M7 10h1M25 10h1M7 11h1M25 11h1M7 12h1M25 12h1M7 13h1M25 13h1M7 14h1M25 14h1M7 15h1M25 15h1M7 16h1M25 16h1M7 17h1M25 17h1M7 18h1M25 18h1M8 19h1M24 19h1M8 20h1M24 20h1M9 21h1M23 21h1M9 22h1M23 22h1M10 23h1M22 23h1M11 24h1M21 24h1M12 25h1M20 25h1M13 26h7" />
<path stroke="#b9bffb" d="M8 8h1M24 8h1M8 9h1M10 9h1M22 9h1M24 9h1M8 10h1M24 10h1M8 11h1M24 11h1M8 12h1M10 12h2M21 12h2M24 12h1M8 13h1M10 13h5M18 13h5M24 13h1M8 14h1M11 14h5M17 14h5M24 14h1M8 15h1M11 15h5M17 15h5M24 15h1M8 16h1M11 16h11M24 16h1M10 17h1M12 17h9M22 17h1M12 18h9M9 19h1M12 19h9M23 19h1M11 20h1M13 20h7M21 20h1M10 21h1M13 21h7M22 21h1M12 22h1M14 22h5M20 22h1M11 23h1M13 23h7M21 23h1M13 24h7M14 25h5" />
<path stroke="#849be4" d="M9 8h1M23 8h1M11 9h1M21 9h1M10 14h1M22 14h1M10 15h1M22 15h1M10 16h1M22 16h1M8 17h1M11 17h1M21 17h1M24 17h1M8 18h1M11 18h1M21 18h1M24 18h1M11 19h1M21 19h1M9 20h1M12 20h1M20 20h1M23 20h1M12 21h1M20 21h1M10 22h1M13 22h1M19 22h1M22 22h1M12 24h1M20 24h1M13 25h1M19 25h1" />
<path stroke="#e3e6ff" d="M9 9h1M23 9h1M9 10h15M9 11h15M9 12h1M12 12h9M23 12h1M9 13h1M15 13h3M23 13h1M9 14h1M16 14h1M23 14h1M9 15h1M16 15h1M23 15h1M9 16h1M23 16h1M9 17h1M23 17h1M9 18h2M22 18h2M10 19h1M22 19h1M10 20h1M22 20h1M11 21h1M21 21h1M11 22h1M21 22h1M12 23h1M20 23h1" />
</svg>