<svg xmlns="http://www.w3.org/2000/svg" viewBox="0 -0.5 32 32" shape-rendering="crispEdges">
<metadata>Made with Pixels to Svg https://codepen.io/shshaw/pen/XbxvNj</metadata>
<path stroke="#3b2027" d="M18 4h2M17 5h1M20 5h1M20 6h1M15 9h1M14 10h1M14 11h1M16 11h1M13 12h1M16 12h1M13 13h1M15 13h1M12 14h1M15 14h1M12 15h1M14 15h1M11 16h1M14 16h1M11 17h1M13 17h1M10 18h1M13 18h1M10 19h1M12 19h1M9 20h1M12 20h1M9 21h1M11 21h1M8 22h1M11 22h1M8 23h1M10 23h1M7 24h1M10 24h1M7 25h1M9 25h1M6 26h1M9 26h1M6 27h1M9 27h1M7 28h2" />
<path stroke="#1a1932" d="M14 5h3M14 6h1M17 6h2M14 7h1M19 7h3M15 8h1M22 8h2M16 9h1M24 9h1M17 10h1M25 10h1M18 11h1M25 11h1M19 12h1M24 12h1M19 13h1M23 13h1M18 14h1M22 14h1M18 15h1M21 15h1M19 16h2" />
<path stroke="#7d3833" d="M18 5h1M19 6h1M16 10h1M15 12h1M14 14h1M13 16h1M12 18h1M11 20h1M10 22h1M9 24h1M8 27h1" />
<path stroke="#ab5130" d="M19 5h1M15 10h1M15 11h1M14 12h1M14 13h1M13 14h1M13 15h1M12 16h1M12 17h1M11 18h1M11 19h1M10 20h1M10 21h1M9 22h1M9 23h1M8 24h1M8 25h1M7 26h2M7 27h1" />
<path stroke="#b9bffb" d="M15 6h1M20 8h2M21 9h2M22 10h1M19 11h1M21 11h2M20 12h2M20 13h2M20 14h1M19 15h2" />
<path stroke="#849be4" d="M16 6h1M15 7h1M18 7h1M19 8h1M18 9h3M18 10h4M20 11h1M19 14h1" />
<path stroke="#588dbe" d="M16 7h2M16 8h3M17 9h1" />
<path stroke="#e3e6ff" d="M23 9h1M23 10h2M23 11h2M22 12h2M22 13h1M21 14h1" />
</svg>