<svg xmlns="http://www.w3.org/2000/svg" viewBox="0 -0.5 32 32" shape-rendering="crispEdges">
<metadata>Made with Pixels to Svg https://codepen.io/shshaw/pen/XbxvNj</metadata>
<path stroke="#131313" d="M19 6h3M17 7h2M22 7h2M15 8h2M24 8h2M13 9h2M26 9h2M11 10h2M28 10h1M9 11h2M29 11h1M7 12h2M29 12h1M5 13h2M30 13h1M4 14h1M30 14h1M3 15h1M30 15h1M3 16h1M30 16h1M2 17h1M29 17h1M2 18h1M27 18h2M2 19h1M25 19h2M2 20h1M23 20h2M3 21h1M21 21h2M4 22h2M19 22h2M6 23h2M17 23h2M8 24h2M15 24h2M10 25h5" />
<path stroke="#272727" d="M19 7h1M21 7h1M17 8h1M23 8h1M15 9h1M25 9h1M13 10h1M27 10h1M11 11h1M28 11h1M9 12h1M26 12h1M7 13h1M24 13h1M27 13h1M29 13h1M5 14h1M22 14h1M25 14h4M20 15h1M23 15h6M4 16h1M6 16h1M18 16h1M21 16h9M4 17h1M8 17h1M16 17h1M19 17h9M3 18h1M10 18h1M14 18h1M17 18h9M3 19h1M15 19h9M14 20h8M14 21h6M14 22h4M14 23h2M13 24h2" />
<path stroke="#3d3d3d" d="M20 7h1M18 8h2M22 8h1M16 9h6M24 9h1M14 10h10M26 10h1M12 11h14M10 12h16M28 12h1M8 13h16M28 13h1M6 14h16M29 14h1M5 15h1M8 15h12M29 15h1M7 16h1M10 16h8M9 17h1M12 17h4M11 18h1M13 18h1M13 20h1M13 21h1M13 22h1M13 23h1" />
<path stroke="#5d5d5d" d="M20 8h2M22 9h2M24 10h2M26 11h2M6 15h2M8 16h2M10 17h2M12 18h1" />
<path stroke="#1b1b1b" d="M27 12h1M25 13h2M23 14h2M4 15h1M21 15h2M5 16h1M19 16h2M3 17h1M5 17h3M17 17h2M28 17h1M4 18h6M15 18h2M26 18h1M4 19h11M24 19h1M3 20h10M22 20h1M4 21h9M20 21h1M6 22h7M18 22h1M8 23h5M16 23h1M10 24h3" />
</svg>