<svg xmlns="http://www.w3.org/2000/svg" viewBox="0 -0.5 32 32" shape-rendering="crispEdges">
<metadata>Made with Pixels to Svg https://codepen.io/shshaw/pen/XbxvNj</metadata>
<path stroke="#221c1a" d="M13 10h5M12 11h1M18 11h2M11 12h1M20 12h1M10 13h1M21 13h1M10 14h1M22 14h1M9 15h1M22 15h1M9 16h1M22 16h1M9 17h1M22 17h1M9 18h1M22 18h1M10 19h1M21 19h1M11 20h2M18 20h3M13 21h5" />
<path stroke="#5d5d5d" d="M13 11h1M12 12h1M19 12h1M11 14h1M13 15h1M14 16h1M21 16h1M16 17h1M20 17h1M11 18h1M12 19h3M14 20h3" />
<path stroke="#858585" d="M14 11h4M13 12h6M13 13h8M13 14h9M11 15h2M14 15h8M11 16h3M15 16h6M12 17h3M17 17h3" />
<path stroke="#3d3d3d" d="M11 13h2M12 14h1M10 15h1M10 16h1M10 17h2M15 17h1M21 17h1M10 18h1M12 18h10M11 19h1M15 19h6M13 20h1M17 20h1" />
</svg>