<svg xmlns="http://www.w3.org/2000/svg" viewBox="0 -0.5 32 32" shape-rendering="crispEdges">
<metadata>Made with Pixels to Svg https://codepen.io/shshaw/pen/XbxvNj</metadata>
<path stroke="#221c1a" d="M19 1h4M18 2h1M23 2h2M18 3h1M25 3h1M18 4h1M25 4h1M17 5h1M25 5h1M17 6h1M24 6h1M17 7h1M23 7h1M17 8h1M23 8h1M11 9h3M16 9h1M22 9h1M10 10h1M14 10h1M16 10h1M22 10h1M10 11h1M14 11h1M16 11h1M21 11h1M11 12h1M15 12h1M21 12h1M11 13h1M15 13h1M20 13h1M12 14h1M15 14h1M20 14h1M12 15h1M20 15h1M12 16h1M19 16h1M12 17h1M19 17h1M12 18h1M18 18h1M12 19h1M18 19h1M11 20h1M17 20h1M11 21h1M17 21h1M10 22h1M16 22h1M9 23h1M16 23h1M8 24h1M15 24h1M8 25h1M14 25h1M7 26h1M14 26h1M7 27h1M13 27h1M7 28h1M13 28h1M8 29h1M12 29h1M9 30h3" />
<path stroke="#bb7547" d="M19 2h1M22 2h1M20 4h1M24 4h1M19 5h4M18 6h4M18 7h5M18 8h4M19 9h3M18 10h3M11 11h1M17 11h4M12 12h2M17 12h3M13 13h2M16 13h4M13 14h2M16 14h4M13 15h2M16 15h3M13 16h2M16 16h3M13 17h1M16 17h2M15 18h3M13 19h4M13 20h4M12 21h4M11 22h5M11 23h4M10 24h3M14 24h1M9 25h4M9 26h4M10 27h3" />
<path stroke="#dba463" d="M20 2h2M19 3h6M21 4h3M11 10h2M12 11h2" />
<path stroke="#8f4d57" d="M19 4h1M18 5h1M23 5h2M22 6h2M22 8h1M17 9h2M13 10h1M17 10h1M21 10h1M14 12h1M16 12h1M20 12h1M12 13h1M15 15h1M19 15h1M15 16h1M14 17h2M18 17h1M13 18h2M17 19h1M12 20h1M16 21h1M10 23h1M15 23h1M9 24h1M13 24h1M13 25h1M8 26h1M13 26h1M8 27h2M8 28h5M9 29h3" />
</svg>