<svg xmlns="http://www.w3.org/2000/svg" viewBox="0 -0.5 32 32" shape-rendering="crispEdges">
<metadata>Made with Pixels to Svg https://codepen.io/shshaw/pen/XbxvNj</metadata>
<path stroke="#571c27" d="M15 2h2M14 3h1M17 3h1M14 4h1M17 4h1M13 5h1M18 5h1M13 6h1M18 6h1M12 7h1M19 7h1M12 8h1M19 8h1M11 9h1M20 9h1M11 10h1M20 10h1M9 11h2M21 11h2M7 12h2M23 12h2M5 13h2M25 13h2M3 14h2M27 14h2M2 15h1M29 15h1M2 16h1M29 16h1M3 17h2M27 17h2M5 18h2M25 18h2M7 19h2M23 19h2M9 20h2M21 20h2M11 21h1M20 21h1M11 22h1M20 22h1M12 23h1M19 23h1M12 24h1M19 24h1M13 25h1M18 25h1M13 26h1M18 26h1M14 27h1M17 27h1M14 28h1M17 28h1M15 29h2" />
<path stroke="#ed7614" d="M15 3h1M14 5h1M15 6h1M13 7h3M14 8h2M12 9h3M13 10h2M3 16h1M7 16h3M24 16h1M28 16h1M5 17h1M8 17h3M22 17h2M26 17h1M7 18h1M21 18h2M24 18h1M9 19h1M11 19h2M22 19h1M11 20h2M12 22h1M14 22h2M13 23h3M13 24h2M14 26h1M15 28h1" />
<path stroke="#ffa214" d="M16 3h1M15 4h1M15 5h1M17 5h1M14 6h1M18 7h1M13 8h1M15 9h1M19 9h1M12 10h1M15 10h1M12 11h2M19 11h2M9 12h1M19 12h2M22 12h1M7 13h1M24 13h1M5 14h1M26 14h1M3 15h1M28 15h1M4 16h3M10 16h1M21 16h3M25 16h3M6 17h2M21 17h1M24 17h2M8 18h4M20 18h1M23 18h1M10 19h1M20 19h2M13 20h1M12 21h4M13 22h1M19 22h1M15 24h1M18 24h1M14 25h2M15 26h1M17 26h1M15 27h1M16 28h1" />
<path stroke="#ffc825" d="M16 4h1M16 7h1M16 8h1M16 9h2M16 10h4M11 11h1M18 11h1M10 12h1M12 12h1M21 12h1M8 13h1M11 13h1M20 13h2M23 13h1M6 14h1M21 14h2M25 14h1M4 15h1M9 15h2M21 15h3M27 15h1M19 19h1M18 20h1M20 20h1M16 21h1M19 21h1M16 22h1M18 23h1M17 25h1M16 27h1" />
<path stroke="#ffeb57" d="M16 5h1M16 6h2M17 7h1M17 8h2M18 9h1M11 12h1M9 13h2M22 13h1M7 14h4M23 14h2M5 15h4M24 15h3M19 20h1M17 21h2M17 22h2M16 23h2M16 24h2M16 25h1M16 26h1" />
<path stroke="#c64524" d="M14 11h4M13 12h1M18 12h1M12 13h1M19 13h1M11 14h1M20 14h1M11 15h1M20 15h1M11 16h1M20 16h1M11 17h1M20 17h1M12 18h1M19 18h1M13 19h1M18 19h1M14 20h4" />
<path stroke="#a3a7c2" d="M14 12h1M13 13h1M12 14h1M12 15h1M19 17h1M18 18h1M16 19h2" />
<path stroke="#dfe0e8" d="M15 12h3M18 13h1M19 14h1M19 15h1M12 16h1M19 16h1M12 17h1M13 18h1M14 19h2" />
<path stroke="#4fa4b8" d="M14 13h1M17 13h1M13 14h1M18 14h1M14 15h1M14 16h1M15 17h2M18 17h1M17 18h1" />
<path stroke="#4c6885" d="M15 13h2M17 14h1M18 15h1M13 17h1M14 18h1" />
<path stroke="#3a3f5e" d="M14 14h1M13 15h1M13 16h1M18 16h1M14 17h1M17 17h1M15 18h2" />
<path stroke="#92e8c0" d="M15 14h2M15 15h1M17 15h1M15 16h3" />
<path stroke="#f5ffe8" d="M16 15h1" />
</svg>