<svg xmlns="http://www.w3.org/2000/svg" viewBox="0 -0.5 32 32" shape-rendering="crispEdges">
<metadata>Made with Pixels to Svg https://codepen.io/shshaw/pen/XbxvNj</metadata>
<path stroke="#322b28" d="M11 7h11M9 8h2M22 8h2M8 9h1M24 9h1M7 10h1M25 10h1M6 11h1M26 11h1M6 12h1M26 12h1M5 13h1M27 13h1M5 14h1M27 14h1M5 15h1M27 15h1M5 16h1M27 16h1M5 17h1M27 17h1M5 18h1M27 18h1M5 19h1M27 19h1M5 20h1M27 20h1M5 21h1M26 21h1M6 22h1M25 22h1M7 23h1M23 23h2M8 24h2M21 24h2M10 25h11" />
<path stroke="#e4d2aa" d="M11 8h11M9 9h2M22 9h2M8 10h1M24 10h1M7 11h1M25 11h1M7 12h1M25 12h1M7 13h1M25 13h1M6 14h2M25 14h2M6 15h2M25 15h2M6 16h2M25 16h1M7 17h1M24 17h2M7 18h2M24 18h1M8 19h3M22 19h2M9 20h13M11 21h9" />
<path stroke="#c7b08b" d="M11 9h1M21 9h1M9 10h1M8 11h1M24 11h1M6 13h1M26 13h1M26 16h1M6 17h1M8 17h1M26 17h1M9 18h1M23 18h1M26 18h1M6 19h2M11 19h1M21 19h1M25 19h2M6 20h1M8 20h1M22 20h1M24 20h2M7 21h1M10 21h1M20 21h1M24 21h2M7 22h1M13 22h2M16 22h3M21 22h1M8 23h1M13 23h2M17 23h5M14 24h2M17 24h3" />
<path stroke="#e07438" d="M12 9h1M18 9h2M10 10h1M19 10h2M23 10h1M8 12h1M9 13h2M9 14h1M8 16h1M10 16h1M11 17h2M12 19h1M20 19h1" />
<path stroke="#ff8933" d="M13 9h5M20 9h1M11 10h1M14 10h5M21 10h2M9 11h2M13 11h1M16 11h8M9 12h1M11 12h4M17 12h1M21 12h4M8 13h1M11 13h3M21 13h2M24 13h1M8 14h1M10 14h2M19 14h6M8 15h6M21 15h2M24 15h1M9 16h1M11 16h4M16 16h6M24 16h1M9 17h2M13 17h2M16 17h4M23 17h1M10 18h8M21 18h2M13 19h7" />
<path stroke="#f0b541" d="M12 10h2M11 11h2M10 12h1M23 13h1M23 15h1M22 16h2M20 17h3M18 18h3" />
<path stroke="#cf752b" d="M14 11h1M18 12h1M14 13h4M20 13h1M12 14h1M15 14h1M17 14h2M14 15h1M17 15h1M20 15h1M15 17h1" />
<path stroke="#ab5130" d="M15 11h1M15 12h2M19 12h2M18 13h2M13 14h2M16 14h1M15 15h2M18 15h2M15 16h1" />
<path stroke="#a08662" d="M6 18h1M25 18h1M24 19h1M7 20h1M23 20h1M26 20h1M6 21h1M8 21h2M21 21h3M8 22h5M15 22h1M19 22h2M22 22h3M9 23h4M15 23h2M22 23h1M10 24h4M16 24h1M20 24h1" />
</svg>