<svg xmlns="http://www.w3.org/2000/svg" viewBox="0 -0.5 32 32" shape-rendering="crispEdges">
<metadata>Made with Pixels to Svg https://codepen.io/shshaw/pen/XbxvNj</metadata>
<path stroke="#1b1f21" d="M15 3h3M20 3h3M14 4h1M18 4h2M23 4h1M6 5h6M14 5h1M24 5h1M5 6h1M12 6h1M14 6h1M24 6h1M5 7h1M13 7h2M25 7h1M4 8h2M14 8h1M25 8h1M3 9h1M25 9h1M3 10h1M24 10h1M3 11h1M24 11h1M26 11h3M4 12h1M24 12h2M29 12h1M4 13h1M29 13h1M3 14h1M29 14h1M3 15h1M29 15h1M3 16h1M28 16h1M3 17h1M28 17h2M4 18h1M29 18h1M3 19h2M29 19h1M3 20h1M28 20h1M3 21h1M19 21h2M27 21h1M4 22h1M19 22h1M21 22h2M26 22h1M5 23h2M14 23h2M19 23h1M23 23h3M6 24h1M10 24h4M15 24h1M20 24h1M6 25h4M15 25h1M20 25h1M16 26h1M20 26h1M16 27h5" />
<path stroke="#ffeb57" d="M15 4h2M21 4h2M15 5h3M20 5h4M6 6h5M15 6h1M17 6h1M22 6h2M6 7h2M10 7h3M15 7h1M23 7h1M6 8h2M11 8h2M23 8h1M7 9h2M12 9h1M23 9h1M9 10h1M12 10h1M26 12h2M26 13h3M5 14h2M27 14h2M4 15h4M27 15h1M4 16h1M25 16h2M5 17h1M26 18h3M27 19h2M4 20h3M24 20h4M4 21h2M5 22h4" />
<path stroke="#14a02e" d="M17 4h1M11 6h1M16 6h1M18 6h1M8 7h1M16 7h1M18 7h1M21 7h1M8 8h3M16 8h3M20 8h1M22 8h1M4 9h1M9 9h2M13 9h1M17 9h1M19 9h2M22 9h1M24 9h1M5 10h3M10 10h2M15 10h1M17 10h1M19 10h1M22 10h1M7 11h3M11 11h1M14 11h1M17 11h1M19 11h1M21 11h1M23 11h1M9 12h4M17 12h2M20 12h3M7 13h1M11 13h3M15 13h4M20 13h1M24 13h1M4 14h1M10 14h1M13 14h2M16 14h2M19 14h1M21 14h1M25 14h2M8 15h1M11 15h1M14 15h4M19 15h1M22 15h4M28 15h1M6 16h2M10 16h4M15 16h4M21 16h1M4 17h1M7 17h2M14 17h4M20 17h1M23 17h2M26 17h2M9 18h2M13 18h4M18 18h5M5 19h2M10 19h2M15 19h4M21 19h6M8 20h2M12 20h6M6 21h2M10 21h3M16 21h2M21 21h1M25 21h2M16 22h3M7 23h1M12 23h2M16 23h3M9 24h1M16 24h3M17 25h3M18 26h2" />
<path stroke="#9cdb43" d="M20 4h1M18 5h2M19 6h3M9 7h1M17 7h1M19 7h2M22 7h1M24 7h1M15 8h1M19 8h1M21 8h1M24 8h1M5 9h2M11 9h1M15 9h2M18 9h1M21 9h1M4 10h1M8 10h1M13 10h1M16 10h1M18 10h1M20 10h2M23 10h1M4 11h3M10 11h1M12 11h2M16 11h1M18 11h1M20 11h1M22 11h1M5 12h4M13 12h2M16 12h1M19 12h1M28 12h1M8 13h3M14 13h1M19 13h1M25 13h1M11 14h2M15 14h1M18 14h1M22 14h3M12 15h2M18 15h1M20 15h2M26 15h1M5 16h1M8 16h2M14 16h1M19 16h2M22 16h3M27 16h1M6 17h1M9 17h5M18 17h2M21 17h2M25 17h1M5 18h4M11 18h2M17 18h1M23 18h3M7 19h3M12 19h3M19 19h2M7 20h1M10 20h2M20 20h4M8 21h2M13 21h3M22 21h3M9 22h6M23 22h3M8 23h4M7 24h2" />
<path stroke="#24523b" d="M13 8h1M14 9h1M14 10h1M15 11h1M15 12h1M23 12h1M5 13h2M21 13h3M7 14h3M20 14h1M9 15h2" />
<path stroke="#1a7a3e" d="M18 20h2M18 21h1M15 22h1M19 24h1M16 25h1M17 26h1" />
</svg>