<svg xmlns="http://www.w3.org/2000/svg" viewBox="0 -0.5 32 32" shape-rendering="crispEdges">
<metadata>Made with Pixels to Svg https://codepen.io/shshaw/pen/XbxvNj</metadata>
<path stroke="#391f21" d="M29 0h2M28 1h1M30 1h1M27 2h1M30 2h1M26 3h1M29 3h1M25 4h1M28 4h1M24 5h1M27 5h1M23 6h1M26 6h1M20 7h3M25 7h1M17 8h3M24 8h1M8 9h6M16 9h1M24 9h1M5 10h3M14 10h2M19 10h2M24 10h1M4 11h1M14 11h1M19 11h2M23 11h1M4 12h3M13 12h1M23 12h1M7 13h3M12 13h1M23 13h1M10 14h2M22 14h1M10 15h1M22 15h1M9 16h1M21 16h1M8 17h1M20 17h2M7 18h1M19 18h1M22 18h1M7 19h1M18 19h1M22 19h1M6 20h1M17 20h1M22 20h1M6 21h1M16 21h2M22 21h1M6 22h1M15 22h1M18 22h1M22 22h1M5 23h1M14 23h1M18 23h1M22 23h1M3 24h2M12 24h2M18 24h1M21 24h1M1 25h2M9 25h3M19 25h1M21 25h1M0 26h1M8 26h1M19 26h1M21 26h1M0 27h2M7 27h1M19 27h2M2 28h1M7 28h1M3 29h1M6 29h1M4 30h1M6 30h1M4 31h2" />
<path stroke="#e07438" d="M29 1h1M28 2h2M27 3h2M26 4h2M25 5h2M24 6h2M23 7h2M21 8h3M18 9h6M17 10h2M21 10h2M15 11h1M17 11h2M21 11h2M14 12h2M18 12h5M14 13h1M18 13h4M12 14h1M16 14h2M11 15h2M15 15h6M11 16h1M16 16h5M9 17h1M14 17h1M16 17h4M9 18h1M13 18h3M8 19h1M13 19h5M11 20h1M13 20h4M10 21h3M7 22h1M10 22h5M7 23h2M10 23h4M6 24h4M4 25h1M6 25h3M2 26h2M5 26h1M4 27h1M6 27h1M3 28h1M5 28h1M5 29h1" />
<path stroke="#c64524" d="M20 8h1M17 9h1M9 10h5M16 10h1M23 10h1M6 11h3M16 11h1M8 12h3M16 12h2M13 13h1M15 13h3M22 13h1M13 14h3M18 14h4M13 15h2M21 15h1M10 16h1M12 16h4M10 17h4M15 17h1M8 18h1M10 18h3M16 18h3M21 18h1M9 19h4M21 19h1M7 20h4M12 20h1M21 20h1M7 21h3M13 21h3M19 21h1M21 21h1M8 22h2M19 22h1M21 22h1M6 23h1M9 23h1M19 23h2M5 24h1M10 24h2M20 24h1M3 25h1M5 25h1M20 25h1M1 26h1M4 26h1M6 26h2M2 27h2M5 27h1M4 28h1M6 28h1M4 29h1M5 30h1" />
<path stroke="#8e251d" d="M8 10h1M5 11h1M9 11h5M7 12h1M11 12h2M10 13h2M20 18h1M19 19h2M18 20h3M18 21h1M20 21h1M20 22h1M21 23h1M19 24h1M20 26h1" />
</svg>