<svg xmlns="http://www.w3.org/2000/svg" viewBox="0 -0.5 32 32" shape-rendering="crispEdges">
<metadata>Made with Pixels to Svg https://codepen.io/shshaw/pen/XbxvNj</metadata>
<path stroke="#1c121c" d="M7 9h6M19 9h6M7 10h1M13 10h2M17 10h2M24 10h1M7 11h1M14 11h1M17 11h1M24 11h1M7 12h1M14 12h1M17 12h1M24 12h1M8 13h1M14 13h1M17 13h1M23 13h1M8 14h1M13 14h1M18 14h1M23 14h1M7 15h1M13 15h1M18 15h1M24 15h1M5 16h2M13 16h1M18 16h1M25 16h2M4 17h1M13 17h1M18 17h1M27 17h1M3 18h1M13 18h1M18 18h1M28 18h1M3 19h1M13 19h1M18 19h1M28 19h1M3 20h1M12 20h2M18 20h2M28 20h1M3 21h1M10 21h2M20 21h2M28 21h1M3 22h7M22 22h7" />
<path stroke="#5d5d5d" d="M8 10h3M21 10h3M8 11h4M20 11h4M11 12h1M20 12h1M9 13h2M12 13h1M19 13h1M21 13h2M12 14h1M19 14h1M8 15h3M12 15h1M19 15h1M21 15h3M7 16h2M11 16h2M19 16h2M23 16h2M9 17h4M19 17h4M9 18h3M20 18h3M9 19h2M21 19h2M4 20h5M23 20h5M4 21h1M6 21h1M8 21h1M23 21h1M25 21h1M27 21h1" />
<path stroke="#3d3d3d" d="M11 10h2M19 10h2M12 11h2M18 11h2M8 12h3M12 12h2M18 12h2M21 12h3M13 13h1M18 13h1M9 14h2M21 14h2M9 16h1M22 16h1M12 18h1M19 18h1M11 19h2M19 19h2M9 20h3M20 20h3M5 21h1M7 21h1M9 21h1M22 21h1M24 21h1M26 21h1" />
<path stroke="#272727" d="M11 13h1M20 13h1M11 14h1M20 14h1M11 15h1M20 15h1M10 16h1M21 16h1" />
<path stroke="#b4b4b4" d="M5 17h3M24 17h3M4 18h1M7 18h2M23 18h2M27 18h1M8 19h1M23 19h1" />
<path stroke="#858585" d="M8 17h1M23 17h1M5 18h2M25 18h2M4 19h4M24 19h4" />
</svg>