<svg xmlns="http://www.w3.org/2000/svg" viewBox="0 -0.5 32 32" shape-rendering="crispEdges">
<metadata>Made with Pixels to Svg https://codepen.io/shshaw/pen/XbxvNj</metadata>
<path stroke="#3b2027" d="M19 4h2M18 5h1M21 5h1M18 6h1M21 6h1M19 7h2M15 10h1M18 10h1M15 11h1M17 11h1M14 12h1M17 12h1M14 13h1M16 13h1M13 14h1M16 14h1M13 15h1M15 15h1M12 16h1M15 16h1M12 17h1M14 17h1M11 18h1M14 18h1M11 19h1M13 19h1M10 20h1M13 20h1M10 21h1M12 21h1M9 22h1M12 22h1M9 23h1M11 23h1M8 24h1M11 24h1M8 25h1M11 25h1M9 26h2" />
<path stroke="#131313" d="M11 5h7M9 6h2M22 6h1M8 7h1M23 7h2M8 8h8M25 8h1M16 9h5M26 9h1M21 10h3M27 10h1M24 11h2M27 11h1M26 12h2" />
<path stroke="#ab5130" d="M19 5h1M19 6h2M17 10h1M16 12h1M15 14h1M14 16h1M13 18h1M12 20h1M11 22h1M10 25h1" />
<path stroke="#cf752b" d="M20 5h1M16 10h1M16 11h1M15 12h1M15 13h1M14 14h1M14 15h1M13 16h1M13 17h1M12 18h1M12 19h1M11 20h1M11 21h1M10 22h1M10 23h1M9 24h2M9 25h1" />
<path stroke="#5d5d5d" d="M11 6h1M14 6h1M16 6h1M10 7h8M20 8h4M22 9h4M24 10h3M26 11h1" />
<path stroke="#858585" d="M12 6h2M15 6h1" />
<path stroke="#3d3d3d" d="M17 6h1M9 7h1M18 7h1M21 7h2M16 8h4M24 8h1M21 9h1" />
</svg>