<svg xmlns="http://www.w3.org/2000/svg" viewBox="0 -0.5 32 32" shape-rendering="crispEdges">
<metadata>Made with Pixels to Svg https://codepen.io/shshaw/pen/XbxvNj</metadata>
<path stroke="#000000" d="M18 3h3M17 4h1M20 4h1M16 5h1M20 5h1M15 6h1M20 6h1M14 7h1M20 7h1M13 8h1M20 8h3M12 9h1M20 9h1M23 9h1M27 9h3M11 10h1M20 10h1M24 10h1M26 10h1M29 10h1M4 11h5M11 11h1M24 11h2M29 11h1M4 12h1M9 12h2M24 12h1M29 12h1M4 13h1M16 13h3M23 13h1M29 13h1M4 14h1M15 14h1M18 14h1M22 14h1M29 14h1M5 15h1M14 15h1M18 15h1M21 15h1M29 15h1M5 16h1M13 16h1M18 16h1M29 16h1M5 17h1M29 17h1M5 18h1M28 18h1M5 19h1M28 19h1M6 20h1M28 20h1M6 21h1M27 21h1M7 22h1M27 22h1M7 23h1M27 23h1M8 24h3M24 24h3M11 25h3M21 25h3M14 26h7" />
<path stroke="#3d3d3d" d="M18 4h2M19 5h1M19 6h1M18 7h1M12 10h3M21 10h1M20 11h2M5 12h1M15 12h2M19 12h1M27 13h1M10 14h1M23 14h1M7 15h1M10 15h2M24 15h2M7 16h6M17 16h1M8 17h2M12 17h5M19 17h2M23 17h2M27 17h1M9 18h1M13 18h2M21 18h3M10 19h1M13 19h1M20 19h2M26 19h1M16 20h5M22 20h2M25 20h1" />
<path stroke="#5d5d5d" d="M17 5h2M16 6h3M15 7h3M14 8h3M13 9h3M21 9h2M18 10h2M22 10h2M27 10h2M17 11h3M26 11h3M6 12h2M17 12h2M25 12h3M6 13h3M24 13h3M7 14h3M16 14h2M24 14h3M8 15h2M15 15h3M15 16h2M10 17h2M25 17h2M10 18h3M18 18h3M24 18h3M11 19h2M17 19h3M23 19h3M24 20h1" />
<path stroke="#272727" d="M19 7h1M17 8h3M16 9h4M15 10h3M12 11h5M22 11h1M8 12h1M13 12h2M23 12h1M28 12h1M5 13h1M9 13h1M19 13h4M28 13h1M6 14h1M11 14h2M19 14h2M27 14h2M6 15h1M12 15h2M23 15h1M26 15h3M14 16h1M20 16h1M25 16h4M7 17h1M17 17h2M21 17h2M28 17h1M7 18h2M15 18h3M27 18h1M8 19h2M14 19h1M22 19h1M27 19h1M9 20h2M15 20h1M21 20h1M26 20h2M13 21h6M20 21h3M24 21h3M13 22h6M20 22h3M24 22h1M14 23h3M21 23h1" />
<path stroke="#1b1b1b" d="M23 11h1M12 12h1M20 12h3M10 13h2M14 13h2M5 14h1M13 14h1M21 14h1M20 15h1M6 16h1M19 16h1M21 16h2M24 16h1M6 17h1M7 19h1M15 19h2M7 20h2M11 20h1M14 20h1M12 21h1M19 21h1M23 21h1M8 22h1M10 22h3M23 22h1M25 22h2M12 23h2M17 23h2M20 23h1M22 23h1M24 23h2M13 24h5M20 24h3M15 25h2" />
<path stroke="#131313" d="M11 12h1M12 13h2M14 14h1M19 15h1M22 15h1M23 16h1M6 18h1M6 19h1M12 20h2M7 21h5M9 22h1M19 22h1M8 23h4M19 23h1M23 23h1M26 23h1M11 24h2M18 24h2M23 24h1M14 25h1M17 25h4" />
</svg>