<svg xmlns="http://www.w3.org/2000/svg" viewBox="0 -0.5 32 32" shape-rendering="crispEdges">
<metadata>Made with Pixels to Svg https://codepen.io/shshaw/pen/XbxvNj</metadata>
<path stroke="#21181b" d="M14 8h7M13 9h1M21 9h2M12 10h1M23 10h1M11 11h1M24 11h1M11 12h1M24 12h1M8 13h3M25 13h1M7 14h1M25 14h1M6 15h1M26 15h1M5 16h1M26 16h1M5 17h1M26 17h1M4 18h1M26 18h1M4 19h1M27 19h1M4 20h1M27 20h1M4 21h1M27 21h1M4 22h1M27 22h1M5 23h1M27 23h1M6 24h1M27 24h1M7 25h5M24 25h3M12 26h2M21 26h3M14 27h7" />
<path stroke="#ab5130" d="M14 9h1M20 9h1M22 10h1M12 11h1M23 11h1M12 12h2M22 12h1M13 13h2M19 13h1M23 13h1M9 14h1M18 14h5M7 15h1M11 15h2M21 15h1M25 15h1M12 16h4M21 16h1M23 16h1M6 17h1M14 17h3M20 17h1M25 17h1M6 18h1M16 18h4M6 19h1M17 19h2M26 19h1M7 20h1M14 20h1M18 20h1M9 21h2M15 21h1M19 21h1M23 21h1M26 21h1M13 22h1M20 22h3M24 22h3M13 23h2M18 23h1M20 23h3M24 23h1M14 24h3M21 24h1" />
<path stroke="#cf752b" d="M15 9h5M13 10h9M13 11h10M14 12h8M15 13h4M24 13h1M23 14h2M8 15h3M23 15h2M7 16h2M24 16h2M9 17h5M7 18h8M20 18h6M7 19h8M19 19h7M8 20h6M19 20h8M16 21h3M20 21h3M24 21h2M14 22h5M15 23h3" />
<path stroke="#7d3833" d="M23 12h1M12 13h1M20 13h3M8 14h1M10 14h2M14 14h4M13 15h1M17 15h4M22 15h1M6 16h1M9 16h3M16 16h1M20 16h1M7 17h2M17 17h1M19 17h1M21 17h2M24 17h1M5 18h1M15 18h1M5 19h1M15 19h2M6 20h1M15 20h3M5 21h1M8 21h1M11 21h1M14 21h1M5 22h3M12 22h1M19 22h1M23 22h1M6 23h3M11 23h2M23 23h1M25 23h2M12 24h2M17 24h2M20 24h1M22 24h1M24 24h2M13 25h5M20 25h3M15 26h2" />
<path stroke="#3b2027" d="M11 13h1M12 14h2M14 15h3M17 16h3M22 16h1M18 17h1M23 17h1M5 20h1M6 21h2M12 21h2M8 22h4M9 23h2M19 23h1M7 24h5M19 24h1M23 24h1M26 24h1M12 25h1M18 25h2M23 25h1M14 26h1M17 26h4" />
</svg>