<svg xmlns="http://www.w3.org/2000/svg" viewBox="0 -0.5 32 32" shape-rendering="crispEdges">
<metadata>Made with Pixels to Svg https://codepen.io/shshaw/pen/XbxvNj</metadata>
<path stroke="#221c1a" d="M11 6h9M9 7h2M20 7h2M8 8h1M22 8h1M7 9h1M23 9h1M6 10h1M24 10h1M6 11h1M24 11h1M6 12h1M25 12h1M5 13h1M25 13h1M5 14h1M25 14h1M5 15h1M25 15h1M5 16h1M25 16h1M5 17h1M25 17h1M6 18h1M24 18h1M6 19h1M24 19h1M7 20h1M23 20h1M8 21h2M21 21h2M10 22h11M11 23h1M19 23h1M11 24h1M19 24h1M12 25h1M18 25h1M13 26h5" />
<path stroke="#c7b08b" d="M11 7h1M19 7h1M9 8h2M8 9h2M7 10h3M23 10h1M7 11h2M8 12h1M8 13h1M9 15h1M24 15h1M6 16h1M6 17h1M11 17h1M22 17h1M7 18h1M7 19h1M23 19h1M8 20h1M21 20h2M19 21h2M15 23h3M15 24h4M16 25h2" />
<path stroke="#e4d2aa" d="M12 7h7M11 8h11M10 9h13M10 10h13M9 11h15M9 12h16M9 13h16M9 14h16M10 15h14M10 16h14M12 17h10" />
<path stroke="#a08662" d="M7 12h1M6 13h2M6 14h3M6 15h3M7 16h3M24 16h1M7 17h4M23 17h2M8 18h16M8 19h15M9 20h12M10 21h9M12 23h3M18 23h1M12 24h3M13 25h3" />
</svg>