<svg xmlns="http://www.w3.org/2000/svg" viewBox="0 -0.5 32 32" shape-rendering="crispEdges">
<metadata>Made with Pixels to Svg https://codepen.io/shshaw/pen/XbxvNj</metadata>
<path stroke="#571c27" d="M10 7h12M9 8h1M22 8h1M8 9h1M23 9h1M7 10h1M24 10h1M7 11h1M24 11h1M7 12h1M24 12h1M7 13h1M24 13h1M7 14h1M24 14h1M7 15h1M24 15h1M7 16h1M24 16h1M7 17h1M24 17h1M7 18h1M24 18h1M7 19h1M24 19h1M7 20h1M24 20h1M7 21h1M24 21h1M8 22h1M23 22h1M9 23h1M22 23h1M10 24h12" />
<path stroke="#ed7614" d="M10 8h1M9 9h1M14 9h2M8 10h1M13 10h2M9 13h2M9 14h2M9 16h2M9 17h2M9 18h2M22 20h2M14 21h2M18 21h2M21 21h3M12 22h2M15 22h2M19 22h4M20 23h2" />
<path stroke="#ffc825" d="M11 8h1M16 8h5M12 9h2M11 10h1M10 11h1M20 11h1M23 11h1M8 12h1M15 12h1M21 12h3M8 13h1M15 13h2M21 13h1M19 14h1M12 15h2M19 15h1M21 15h2M12 16h2M19 16h1M21 16h2M12 17h1M16 17h1M21 17h2M8 18h1M15 18h2M8 19h1M12 19h1M14 19h3M23 19h1M8 20h1M11 20h1M14 23h2M19 23h1" />
<path stroke="#ffee83" d="M12 8h4M21 8h1M10 9h2M9 10h2M20 10h1M23 10h1M12 11h8M21 11h2M11 12h1M20 12h1M14 13h1M20 13h1M23 13h1M8 14h1M20 14h1M8 15h1M11 15h1M14 15h1M18 15h1M20 15h1M23 15h1M8 16h1M17 16h2M20 16h1M8 17h1M17 17h2M20 17h1M23 17h1M17 18h1M20 18h1M23 18h1M11 19h1M20 19h1M9 20h2M12 20h1M15 20h5M9 21h3M10 22h2M16 23h3" />
<path stroke="#ffa214" d="M16 9h4M12 10h1M15 10h5M8 11h2M11 11h1M9 12h2M12 12h3M19 12h1M12 13h2M17 13h2M22 13h1M12 14h1M16 14h3M21 14h2M9 15h2M15 15h3M14 16h3M23 16h1M13 17h3M19 17h1M12 18h3M18 18h2M21 18h2M9 19h2M13 19h1M17 19h3M21 19h2M20 20h2M8 21h1M12 21h2M16 21h2M20 21h1M9 22h1M14 22h1M17 22h2M10 23h4" />
<path stroke="#ffffff" d="M20 9h3M21 10h2M16 12h3M11 13h1M19 13h1M11 14h1M13 14h3M23 14h1M11 16h1M11 17h1M11 18h1M13 20h2" />
</svg>