<svg xmlns="http://www.w3.org/2000/svg" viewBox="0 -0.5 32 32" shape-rendering="crispEdges">
<metadata>Made with Pixels to Svg https://codepen.io/shshaw/pen/XbxvNj</metadata>
<path stroke="#0e071b" d="M20 3h2M3 4h2M19 4h1M21 4h1M3 5h1M5 5h2M19 5h1M21 5h1M4 6h1M7 6h2M18 6h1M21 6h1M4 7h1M9 7h1M18 7h1M20 7h1M5 8h1M9 8h1M18 8h2M24 8h3M5 9h1M9 9h1M12 9h4M24 9h1M27 9h1M6 10h3M12 10h1M16 10h1M23 10h1M28 10h1M12 11h1M17 11h1M23 11h1M28 11h1M10 12h2M18 12h1M23 12h1M26 12h3M9 13h1M19 13h1M24 13h2M5 14h4M20 14h1M5 15h1M21 15h1M5 16h1M22 16h1M5 17h1M22 17h1M5 18h1M22 18h1M6 19h1M21 19h1M7 20h2M15 20h6M9 21h2M17 21h1M27 21h2M11 22h2M18 22h1M25 22h2M28 22h1M3 23h4M13 23h2M18 23h1M22 23h3M27 23h1M3 24h1M7 24h1M15 24h4M22 24h1M27 24h1M3 25h1M8 25h1M21 25h1M26 25h1M4 26h1M8 26h1M21 26h5M5 27h4" />
<path stroke="#c7b08b" d="M20 4h1M4 5h1M20 5h1M5 6h2M19 6h2M6 7h2M8 8h1M25 9h2M25 10h3M15 11h2M25 11h2M15 12h3M11 13h2M16 13h1M11 14h3M18 14h2M7 15h2M12 15h3M18 15h3M7 16h3M13 16h3M19 16h3M8 17h2M14 17h2M20 17h2M12 21h4M14 22h3M27 22h1M16 23h2M25 23h2M5 24h2M24 24h2M5 25h2M22 25h3M6 26h2" />
<path stroke="#a08662" d="M5 7h1M8 7h1M19 7h1M6 8h2M6 9h3M14 10h2M24 10h1M14 11h1M24 11h1M27 11h1M24 12h2M17 13h2M10 14h1M17 14h1M10 15h2M11 16h1M6 17h1M12 17h1M7 18h2M10 18h1M13 18h1M15 18h1M17 18h1M20 18h2M8 19h2M16 19h1M18 19h1M10 20h1M16 21h1M13 22h1M17 22h1M15 23h1M4 24h1M23 24h1M26 24h1M4 25h1M7 25h1M25 25h1M5 26h1" />
<path stroke="#796755" d="M13 10h1M13 11h1M13 12h2M10 13h1M14 13h2M15 14h2M6 15h1M16 15h2M6 16h1M12 16h1M17 16h2M7 17h1M10 17h2M13 17h1M18 17h2M6 18h1M9 18h1M11 18h1M14 18h1M16 18h1M19 18h1M7 19h1M10 19h3M15 19h1M17 19h1M20 19h1M9 20h1M11 20h3M11 21h1" />
<path stroke="#5a4e44" d="M12 12h1M13 13h1M9 14h1M14 14h1M9 15h1M15 15h1M10 16h1M16 16h1M16 17h2M12 18h1M18 18h1M13 19h2M19 19h1M14 20h1" />
</svg>