<svg xmlns="http://www.w3.org/2000/svg" viewBox="0 -0.5 32 32" shape-rendering="crispEdges">
<metadata>Made with Pixels to Svg https://codepen.io/shshaw/pen/XbxvNj</metadata>
<path stroke="#1c121c" d="M5 6h22M3 7h2M27 7h2M2 8h1M29 8h1M1 9h1M30 9h1M1 10h1M30 10h1M1 11h1M30 11h1M1 12h1M30 12h1M1 13h1M30 13h1M1 14h1M30 14h1M1 15h1M30 15h1M1 16h1M30 16h1M2 17h1M29 17h1M3 18h1M28 18h1M3 19h1M28 19h1M4 20h1M27 20h1M4 21h1M27 21h1M4 22h1M27 22h1M4 23h1M27 23h1M5 24h1M26 24h1M6 25h2M24 25h2M8 26h16" />
<path stroke="#5daf8d" d="M5 7h1M26 7h1M2 9h1M29 9h1M2 16h1M29 16h1M5 17h1M26 17h1" />
<path stroke="#92dcba" d="M6 7h20M3 8h26M3 9h3M26 9h3M2 10h3M27 10h3M2 11h3M27 11h3M2 12h3M27 12h3M2 13h3M27 13h3M2 14h4M26 14h4M2 15h6M24 15h6M3 16h26M6 17h20" />
<path stroke="#328464" d="M6 9h2M24 9h2M5 10h1M8 10h1M23 10h1M26 10h1M6 11h1M25 11h1M5 12h1M26 12h1M5 13h1M26 13h1M6 14h1M25 14h1M5 19h2M26 19h2M5 20h4M13 20h14M5 21h5M12 21h15M5 22h5M12 22h15M6 23h4M12 23h14M6 24h3M12 24h13M13 25h10" />
<path stroke="#23674e" d="M8 9h16M6 10h2M24 10h2M5 11h1M26 11h1M3 17h2M27 17h2M4 18h24M4 19h1M7 19h19M9 20h4M10 21h2M10 22h2M5 23h1M10 23h2M26 23h1M9 24h3M25 24h1M8 25h5M23 25h1" />
<path stroke="#c64524" d="M9 10h7M18 10h5M7 11h3M23 11h2M6 12h2M15 12h2M24 12h2M6 13h2M10 13h6M25 13h1M7 14h3M13 14h2M8 15h1M13 15h1M20 15h2M23 15h1" />
<path stroke="#63ab3f" d="M16 10h2M15 11h1M17 11h1M14 12h1M23 13h2M11 14h2M23 14h2M9 15h3M22 15h1" />
<path stroke="#edab50" d="M10 11h2M19 11h3M9 12h4M17 12h3M21 12h2M8 13h1M16 13h1M18 13h5M15 14h2M19 14h2M15 15h4" />
<path stroke="#e07438" d="M12 11h3M18 11h1M22 11h1M8 12h1M13 12h1M20 12h1M9 13h1M17 13h1M17 14h2M21 14h1M14 15h1M19 15h1" />
<path stroke="#3b7d4f" d="M16 11h1M23 12h1M10 14h1M22 14h1M12 15h1" />
</svg>