<svg xmlns="http://www.w3.org/2000/svg" viewBox="0 -0.5 32 32" shape-rendering="crispEdges">
<metadata>Made with Pixels to Svg https://codepen.io/shshaw/pen/XbxvNj</metadata>
<path stroke="#1c121c" d="M26 2h3M23 3h3M29 3h1M21 4h2M26 4h1M29 4h1M20 5h1M29 5h1M19 6h1M28 6h1M18 7h1M28 7h1M17 8h1M27 8h1M9 9h8M26 9h1M9 10h1M15 10h1M26 10h1M9 11h1M14 11h1M25 11h1M10 12h1M13 12h1M22 12h1M25 12h1M10 13h1M12 13h1M22 13h1M25 13h1M11 14h1M23 14h1M25 14h1M11 15h1M22 15h1M24 15h2M10 16h1M21 16h1M10 17h1M20 17h1M9 18h1M19 18h1M9 19h1M18 19h2M8 20h1M17 20h1M19 20h1M7 21h1M15 21h2M19 21h1M5 22h2M13 22h2M17 22h1M19 22h1M3 23h2M6 23h1M11 23h2M18 23h2M1 24h2M6 24h1M10 24h1M1 25h1M7 25h3M2 26h3M9 26h1M5 27h1M8 27h1M5 28h1M8 28h1M5 29h1M7 29h1M6 30h2" />
<path stroke="#e69c69" d="M26 3h2M25 4h1M27 4h1M25 5h2M21 9h1M23 9h3M10 10h5M22 10h2M19 11h1M21 11h2M24 11h1M11 12h2M20 12h2M24 12h1M17 13h1M19 13h1M21 13h1M23 13h1M18 14h4M15 15h1M17 15h1M19 15h3M16 16h5M14 17h2M17 17h3M13 18h1M15 18h4M11 19h7M10 20h1M12 20h4M10 21h4M18 21h1M9 22h3M18 22h1M8 23h3M4 24h2M8 24h1M3 25h3M6 26h2M6 27h2M6 28h1" />
<path stroke="#bf6f4a" d="M28 3h1M24 4h1M28 4h1M23 5h2M27 5h2M20 6h2M23 6h5M19 7h1M21 7h2M24 7h4M19 8h5M17 9h4M22 9h1M17 10h1M19 10h3M25 10h1M15 11h4M20 11h1M14 12h1M16 12h4M13 13h4M18 13h1M20 13h1M13 14h1M15 14h3M22 14h1M12 15h3M16 15h1M18 15h1M12 16h1M14 16h2M11 17h3M16 17h1M11 18h2M14 18h1M10 19h1M9 20h1M11 20h1M16 20h1M8 21h1M14 21h1M7 22h2M12 22h1M7 24h1M9 24h1" />
<path stroke="#8a4836" d="M23 4h1M21 5h2M22 6h1M20 7h1M23 7h1M18 8h1M24 8h3M16 10h1M18 10h1M24 10h1M23 11h1M15 12h1M12 14h1M14 14h1M11 16h1M13 16h1M10 18h1M9 21h1M7 23h1" />
<path stroke="#bb7547" d="M10 11h2M23 12h1M11 13h1M24 13h1M24 14h1M18 20h1M17 21h1M5 23h1M3 24h1M2 25h1M6 25h1M5 26h1M8 26h1M7 28h1M6 29h1" />
<path stroke="#71413b" d="M12 11h2" />
</svg>