<svg xmlns="http://www.w3.org/2000/svg" viewBox="0 -0.5 32 32" shape-rendering="crispEdges">
<metadata>Made with Pixels to Svg https://codepen.io/shshaw/pen/XbxvNj</metadata>
<path stroke="#391f21" d="M12 2h6M8 3h5M18 3h1M7 4h1M14 4h1M19 4h1M6 5h1M15 5h1M20 5h1M5 6h1M16 6h1M20 6h1M5 7h1M10 7h2M17 7h1M21 7h1M5 8h1M9 8h1M12 8h1M17 8h1M21 8h1M5 9h1M9 9h1M13 9h1M17 9h1M21 9h1M5 10h1M10 10h1M13 10h1M18 10h1M20 10h1M5 11h1M10 11h1M14 11h1M17 11h4M6 12h1M11 12h1M14 12h3M21 12h1M7 13h1M12 13h1M14 13h1M21 13h1M8 14h1M12 14h2M21 14h1M9 15h3M22 15h1M7 16h4M22 16h1M6 17h1M10 17h1M20 17h2M5 18h1M11 18h1M19 18h1M22 18h1M5 19h1M10 19h1M12 19h1M17 19h2M23 19h1M5 20h2M9 20h1M13 20h4M19 20h1M24 20h1M7 21h2M13 21h1M16 21h1M20 21h1M24 21h1M8 22h1M13 22h1M17 22h1M20 22h1M24 22h1M9 23h1M12 23h1M14 23h1M17 23h1M20 23h1M24 23h1M9 24h1M11 24h1M14 24h1M18 24h2M24 24h1M9 25h3M15 25h1M24 25h1M11 26h1M16 26h1M23 26h1M12 27h1M17 27h1M22 27h1M12 28h1M18 28h4M13 29h1M19 29h1M14 30h5" />
<path stroke="#965b41" d="M13 3h1M17 3h1M11 5h2M6 6h1M14 6h1M9 7h1M12 7h1M15 7h1M13 8h1M7 9h1M11 9h1M14 9h1M16 9h1M18 9h1M20 9h1M7 10h1M9 10h1M11 10h1M16 10h1M6 11h1M12 11h1M12 12h1M20 12h1M11 13h1M13 13h1M15 13h1M9 14h1M20 14h1M12 15h1M18 15h1M11 16h1M16 16h1M21 16h1M9 17h1M14 17h1M19 17h1M10 18h1M12 18h1M17 18h1M21 18h1M6 19h1M9 19h1M15 19h1M19 19h2M8 20h1M12 20h1M21 20h1M11 21h1M15 21h1M19 21h1M9 22h1M12 22h1M16 22h1M19 22h1M10 23h1M16 23h1M21 23h1M12 24h2M20 24h1M22 24h1M12 25h1M19 25h1M21 25h1M12 26h2M18 27h4M13 28h1M14 29h1M18 29h1" />
<path stroke="#bb7547" d="M14 3h2M16 4h1M18 4h1M8 5h1M17 5h1M19 5h1M12 6h1M17 6h1M19 6h1M13 7h1M16 7h1M18 7h1M20 7h1M14 8h1M16 8h1M18 8h1M20 8h1M6 9h1M6 10h1M8 10h1M7 11h1M9 11h1M7 12h1M10 12h1M18 12h2M8 13h1M12 16h1M20 16h1M11 17h1M13 17h1M7 18h1M8 19h1M11 19h1M13 19h2M22 19h1M7 20h1M10 20h1M20 20h1M23 20h1M9 21h1M12 21h1M14 21h1M21 21h1M11 22h1M14 22h2M21 22h1M11 23h1M10 24h1M15 24h1M17 24h1M13 25h1M18 25h1M23 25h1M14 26h1M17 26h1M22 26h1M13 27h1M15 27h2M14 28h1M15 29h3" />
<path stroke="#71413b" d="M16 3h1M13 4h1M15 4h1M17 4h1M9 5h2M16 5h1M18 5h1M8 6h1M13 6h1M18 6h1M7 7h1M14 7h1M19 7h1M7 8h1M10 8h2M15 8h1M19 8h1M10 9h1M12 9h1M15 9h1M19 9h1M12 10h1M14 10h2M17 10h1M19 10h1M8 11h1M11 11h1M13 11h1M15 11h2M8 12h2M13 12h1M17 12h1M9 13h2M18 13h3M10 14h2M16 14h2M14 15h2M19 15h3M13 16h1M17 16h2M12 17h1M15 17h2M8 18h2M13 18h2M18 18h1M20 18h1M7 19h1M16 19h1M21 19h1M11 20h1M17 20h2M22 20h1M10 21h1M17 21h2M22 21h1M10 22h1M18 22h1M22 22h1M13 23h1M18 23h2M22 23h1M21 24h1M14 25h1M20 25h1M15 26h1M14 27h1M15 28h3" />
<path stroke="#dba463" d="M8 4h5M7 5h1M13 5h2M7 6h1M9 6h3M15 6h1M6 7h1M8 7h1M6 8h1M8 8h1M8 9h1M16 13h2M14 14h2M18 14h2M13 15h1M16 15h2M14 16h2M19 16h1M7 17h2M17 17h2M6 18h1M15 18h2M23 21h1M23 22h1M15 23h1M23 23h1M16 24h1M23 24h1M16 25h2M22 25h1M18 26h4" />
</svg>