<svg xmlns="http://www.w3.org/2000/svg" viewBox="0 -0.5 32 32" shape-rendering="crispEdges">
<metadata>Made with Pixels to Svg https://codepen.io/shshaw/pen/XbxvNj</metadata>
<path stroke="#1b1f21" d="M13 2h9M12 3h1M22 3h1M11 4h1M23 4h1M9 5h2M24 5h1M8 6h1M25 6h1M7 7h1M25 7h1M6 8h1M26 8h1M6 9h1M26 9h1M5 10h1M26 10h1M5 11h1M26 11h1M5 12h1M26 12h1M5 13h1M26 13h1M5 14h1M26 14h1M4 15h1M26 15h1M4 16h1M26 16h1M4 17h1M22 17h1M26 17h1M3 18h1M22 18h1M26 18h1M3 19h1M22 19h1M27 19h1M2 20h1M6 20h1M23 20h1M27 20h1M2 21h1M6 21h1M23 21h1M27 21h1M2 22h5M19 22h1M24 22h1M28 22h1M6 23h1M19 23h1M24 23h2M28 23h1M6 24h1M19 24h1M24 24h1M26 24h3M6 25h4M15 25h1M19 25h2M24 25h1M9 26h1M15 26h1M20 26h2M24 26h1M9 27h1M14 27h2M20 27h1M22 27h3M9 28h1M13 28h1M16 28h1M20 28h1M9 29h4M17 29h4" />
<path stroke="#707d37" d="M13 3h4M19 3h3M12 4h1M15 4h3M19 4h1M22 4h1M11 5h1M16 5h2M24 6h1M13 7h1M16 7h1M22 7h1M19 8h1M22 8h2M25 8h1M8 9h1M11 9h1M15 9h1M18 9h2M22 9h2M12 10h1M18 10h2M22 10h1M6 11h1M16 11h1M18 11h2M22 11h1M6 12h1M16 12h1M19 12h1M24 12h1M6 13h1M16 13h2M19 13h1M6 14h1M17 14h1M6 15h1M8 15h1M15 15h1M17 15h1M5 16h2M12 16h1M17 16h1M21 16h1M5 17h2M11 17h1M21 17h1M5 18h2M17 18h1M21 18h1M24 18h1M4 19h2M12 19h1M17 19h1M3 20h3M17 20h1M25 20h2M3 21h2M8 21h1M17 21h1M19 21h1M22 21h1M26 21h1M17 22h1M22 22h2M17 23h1M23 23h1M12 24h1M17 24h1M20 24h1M23 24h1M17 25h2M14 26h1M17 26h2M17 27h3M12 28h1M18 28h2" />
<path stroke="#325731" d="M17 3h2M13 4h2M18 4h1M20 4h2M12 5h4M18 5h6M9 6h3M17 6h2M21 6h3M8 7h2M17 7h2M23 7h2M7 8h2M12 8h1M16 8h3M24 8h1M7 9h1M12 9h1M16 9h2M24 9h1M6 10h2M11 10h1M15 10h3M23 10h2M7 11h1M11 11h1M15 11h1M17 11h1M23 11h2M7 12h1M11 12h1M15 12h1M17 12h2M22 12h2M7 13h1M11 13h1M15 13h1M18 13h1M22 13h2M7 14h1M11 14h1M15 14h2M18 14h1M22 14h2M5 15h1M7 15h1M11 15h1M16 15h1M18 15h1M22 15h2M7 16h2M11 16h1M16 16h1M18 16h1M22 16h2M7 17h2M12 17h1M16 17h3M23 17h1M4 18h1M7 18h2M12 18h1M16 18h1M18 18h1M23 18h1M6 19h3M16 19h1M18 19h1M23 19h2M26 19h1M7 20h2M12 20h1M16 20h1M18 20h1M22 20h1M24 20h1M5 21h1M7 21h1M12 21h1M16 21h1M18 21h1M24 21h2M7 22h1M12 22h1M16 22h1M18 22h1M25 22h3M12 23h1M16 23h1M18 23h1M26 23h2M11 24h1M16 24h1M18 24h1M10 25h2M16 25h1M10 26h1M16 26h1M19 26h1M16 27h1M17 28h1" />
<path stroke="#8e9c56" d="M12 6h5M19 6h2M10 7h3M14 7h2M19 7h3M9 8h3M13 8h3M20 8h2M9 9h2M13 9h2M20 9h2M25 9h1M8 10h3M13 10h2M20 10h2M25 10h1M8 11h3M12 11h3M20 11h2M25 11h1M8 12h3M12 12h3M20 12h2M25 12h1M8 13h3M12 13h3M20 13h2M24 13h2M8 14h3M12 14h3M19 14h3M24 14h2M9 15h2M12 15h3M19 15h3M24 15h2M9 16h2M13 16h3M19 16h2M24 16h2M9 17h2M13 17h3M19 17h2M24 17h2M9 18h3M13 18h3M19 18h2M25 18h1M9 19h3M13 19h3M19 19h3M25 19h1M9 20h3M13 20h3M19 20h3M9 21h3M13 21h3M20 21h2M8 22h4M13 22h3M20 22h2M7 23h5M13 23h3M20 23h3M7 24h4M13 24h3M21 24h2M12 25h3M21 25h3M11 26h3M22 26h2M10 27h4M10 28h2" />
</svg>