<svg xmlns="http://www.w3.org/2000/svg" viewBox="0 -0.5 32 32" shape-rendering="crispEdges">
<metadata>Made with Pixels to Svg https://codepen.io/shshaw/pen/XbxvNj</metadata>
<path stroke="#1c121c" d="M13 4h3M12 5h1M16 5h1M11 6h1M16 6h1M20 6h3M9 7h2M16 7h4M23 7h1M7 8h2M19 8h1M24 8h1M5 9h2M25 9h2M4 10h1M27 10h1M3 11h1M28 11h1M3 12h1M28 12h1M3 13h1M28 13h1M3 14h1M28 14h1M3 15h1M28 15h1M3 16h1M28 16h1M3 17h1M28 17h1M3 18h1M28 18h1M3 19h1M28 19h1M4 20h1M27 20h1M4 21h1M27 21h1M5 22h1M26 22h1M5 23h1M26 23h1M6 24h1M25 24h1M7 25h1M24 25h1M8 26h2M22 26h2M10 27h12" />
<path stroke="#3b7d4f" d="M13 5h3M14 6h2M13 7h1M15 7h1M9 8h1M12 8h1M15 8h1M21 8h2M8 9h1M14 9h1M18 9h2M22 9h1M13 10h1M19 10h2M8 11h4M14 11h3M20 11h4M6 12h2M24 12h2M5 13h1M13 13h4M26 13h1M12 14h1M16 14h1M14 15h1M16 15h1M11 16h1M13 16h1M11 17h1M13 17h1M15 17h1" />
<path stroke="#63ab3f" d="M12 6h2M11 7h2M14 7h1M20 7h3M10 8h2M13 8h2M20 8h1M23 8h1M9 9h5M15 9h3M20 9h2M23 9h1M7 10h6M14 10h5M21 10h4M6 11h2M17 11h3M24 11h2M5 12h1M8 12h1M15 12h1M23 12h1M26 12h1M6 13h1M21 13h1M25 13h1M5 14h1M8 14h1M13 14h3M26 14h1M5 15h1M12 15h2M15 15h1M26 15h1M6 16h1M12 16h1M14 16h2M17 16h2M25 16h1M8 17h1M12 17h1M14 17h1M23 17h1" />
<path stroke="#9d8b2a" d="M16 8h3M7 9h1M24 9h1M6 10h1M25 10h1M5 11h1M26 11h1M27 12h1M4 17h1M27 17h1M27 18h1M7 19h1M26 19h2M16 20h1M20 20h2M24 20h3M12 21h11M25 21h2M11 22h8M21 22h1M25 22h1M11 23h8M21 23h1M24 23h2M11 24h14M11 25h12M12 26h8" />
<path stroke="#d4b541" d="M5 10h1M26 10h1M4 11h1M27 11h1M4 12h1M4 13h1M4 14h1M4 15h1M27 15h1M4 16h2M27 16h1M5 17h3M6 18h4M8 19h2M23 19h1M23 21h2M19 22h2M22 22h3M19 23h2M22 23h2" />
<path stroke="#f5ffe8" d="M12 11h2M11 12h3M11 13h1M19 13h2M19 14h3M20 15h2" />
<path stroke="#c8d45d" d="M9 12h1M16 12h7M7 13h2M17 13h2M22 13h3M6 14h2M17 14h1M23 14h3M6 15h6M17 15h1M24 15h2M7 16h4M16 16h1M24 16h1M9 17h2M16 17h7" />
<path stroke="#4fa4b8" d="M10 12h1M14 12h1M9 13h1M9 14h2M18 14h1M22 14h1M18 15h1M23 15h1M19 16h1M22 16h2" />
<path stroke="#92e8c0" d="M10 13h1M12 13h1M11 14h1M19 15h1M22 15h1M20 16h2" />
<path stroke="#fae080" d="M27 13h1M27 14h1M26 16h1M24 17h3M10 18h16M10 19h13" />
<path stroke="#7b6c1b" d="M4 18h2M26 18h1M4 19h3M24 19h2M5 20h11M17 20h3M22 20h2M5 21h7M6 22h5M6 23h5M7 24h4M8 25h3M23 25h1M10 26h2M20 26h2" />
</svg>