<svg xmlns="http://www.w3.org/2000/svg" viewBox="0 -0.5 32 32" shape-rendering="crispEdges">
<metadata>Made with Pixels to Svg https://codepen.io/shshaw/pen/XbxvNj</metadata>
<path stroke="#1a1932" d="M19 1h6M19 2h1M25 2h2M20 3h1M27 3h1M21 4h1M28 4h1M22 5h1M29 5h1M22 6h1M29 6h1M21 7h1M30 7h1M20 8h1M30 8h1M20 9h1M25 9h2M30 9h1M19 10h1M24 10h1M27 10h1M30 10h1M18 11h1M22 11h2M28 11h1M30 11h1M17 12h1M21 12h1M29 12h2M16 13h1M20 13h1M15 14h1M19 14h1M14 15h1M18 15h1M13 16h1M17 16h1M12 17h1M16 17h1M11 18h1M15 18h1M10 19h1M14 19h1M9 20h1M13 20h1M8 21h1M12 21h1M7 22h1M11 22h1M6 23h1M10 23h1M5 24h1M9 24h1M4 25h1M8 25h1M3 26h1M7 26h1M2 27h1M6 27h1M1 28h1M5 28h1M1 29h1M4 29h1M2 30h2" />
<path stroke="#dae0ea" d="M20 2h4M22 3h4M23 4h3M23 5h2M23 6h2M27 6h2M22 7h2M25 7h4M21 8h1M24 8h6M21 9h1M24 9h1M28 9h2M21 10h3M29 10h1M29 11h1M18 12h1M17 13h3M16 14h1M18 14h1M15 15h1M17 15h1M14 16h1M16 16h1M14 17h2M12 18h1M11 19h3M11 20h2M9 21h1M8 22h3M7 23h1M9 23h1M6 24h1M8 24h1M5 25h1M7 25h1M5 26h2" />
<path stroke="#8b93af" d="M24 2h1M22 4h1M26 4h2M25 5h3M25 6h2M29 7h1M22 8h2M22 9h2M27 9h1M2 28h2M2 29h2" />
<path stroke="#b3b9d1" d="M21 3h1M26 3h1M28 5h1M24 7h1M20 10h1M28 10h1M19 11h3M19 12h2M17 14h1M16 15h1M15 16h1M13 17h1M13 18h2M10 20h1M10 21h2M8 23h1M7 24h1M6 25h1M4 26h1M3 27h3M4 28h1" />
</svg>