<svg xmlns="http://www.w3.org/2000/svg" viewBox="0 -0.5 32 32" shape-rendering="crispEdges">
<metadata>Made with Pixels to Svg https://codepen.io/shshaw/pen/XbxvNj</metadata>
<path stroke="#391f21" d="M20 0h4M18 1h2M23 1h1M17 2h1M23 2h1M14 3h3M23 3h1M14 4h1M21 4h2M14 5h1M22 5h1M13 6h1M22 6h1M13 7h1M21 7h1M13 8h1M22 8h1M13 9h1M22 9h1M11 10h2M22 10h1M11 11h1M21 11h1M11 12h1M20 12h1M11 13h1M18 13h2M9 14h3M20 14h1M9 15h1M20 15h1M9 16h1M20 16h1M9 17h1M19 17h1M10 18h1M17 18h2M10 19h1M19 19h1M9 20h1M19 20h1M9 21h1M19 21h1M9 22h1M17 22h2M9 23h1M18 23h1M10 24h1M18 24h1M10 25h1M17 25h1M11 26h1M16 26h1M11 27h1M14 27h2M11 28h1M14 28h1M11 29h1M14 29h1M11 30h1M13 30h1M11 31h2" />
<path stroke="#cf752b" d="M20 1h1M19 2h1M22 3h1M15 4h1M16 5h1M19 5h1M17 6h1M21 6h1M18 7h1M14 8h1M21 8h1M16 9h1M13 10h1M15 10h1M18 10h1M21 10h1M17 11h1M15 12h1M19 12h1M17 13h1M13 14h1M15 14h1M18 14h1M10 15h1M14 15h1M13 16h1M19 16h1M10 17h1M15 17h1M15 18h1M12 19h1M13 20h1M15 20h1M14 21h1M10 22h1M16 22h1M14 23h1M17 23h1M12 24h1M11 25h1M13 25h1M16 25h1M13 26h1M15 26h1M12 27h2M12 28h2M12 29h1M12 30h1" />
<path stroke="#f0b541" d="M21 1h2M18 2h1M20 2h3M17 3h2M20 3h2M17 4h2M15 5h1M17 5h1M20 5h2M14 6h3M19 6h2M14 7h3M19 7h2M15 8h2M18 8h2M15 9h1M20 9h2M19 10h2M12 11h3M18 11h3M12 12h3M17 12h2M13 13h3M14 14h1M19 14h1M11 15h1M17 15h3M10 16h3M16 16h3M11 17h3M16 17h2M12 18h2M13 19h1M17 19h2M10 20h2M16 20h3M10 21h3M15 21h3M11 22h2M12 23h1M15 23h2M14 24h3M14 25h1" />
<path stroke="#ab5130" d="M19 3h1M20 4h1M18 6h1M17 7h1M14 9h1M18 9h2M17 10h1M15 11h1M16 12h1M12 13h1M12 14h1M17 14h1M13 15h1M16 15h1M15 16h1M18 17h1M11 18h1M14 19h1M16 19h1M12 20h1M18 21h1M15 22h1M10 23h2M11 24h1M13 24h1M17 24h1M12 25h1M15 25h1M12 26h1M14 26h1M13 29h1" />
<path stroke="#7d3833" d="M16 4h1M19 4h1M18 5h1M17 8h1M20 8h1M17 9h1M14 10h1M16 10h1M16 11h1M16 13h1M16 14h1M12 15h1M15 15h1M14 16h1M14 17h1M14 18h1M16 18h1M11 19h1M15 19h1M14 20h1M13 21h1M13 22h2M13 23h1" />
</svg>