<svg xmlns="http://www.w3.org/2000/svg" viewBox="0 -0.5 32 32" shape-rendering="crispEdges">
<metadata>Made with Pixels to Svg https://codepen.io/shshaw/pen/XbxvNj</metadata>
<path stroke="#1c121c" d="M6 6h3M6 7h1M9 7h1M6 8h1M10 8h1M7 9h1M11 9h1M8 10h1M12 10h1M9 11h1M13 11h1M10 12h1M14 12h1M11 13h1M15 13h1M12 14h1M16 14h1M13 15h1M17 15h1M14 16h1M18 16h1M20 16h2M15 17h1M19 17h1M22 17h1M16 18h1M18 18h1M22 18h1M17 19h1M21 19h1M16 20h1M20 20h1M22 20h1M16 21h1M19 21h1M23 21h1M17 22h2M20 22h1M24 22h1M21 23h1M25 23h1M22 24h1M25 24h1M23 25h2" />
<path stroke="#bf6f4a" d="M7 7h2M7 8h3M8 9h3M9 10h3M11 11h2M11 12h3M12 13h3M13 14h2M14 15h3M16 16h1M20 17h2M19 18h2M18 19h2M17 20h2M17 21h1M21 21h2M22 22h2M23 23h2" />
<path stroke="#8a4836" d="M10 11h1M15 14h1M15 16h1M17 16h1M16 17h3M17 18h1M21 18h1M20 19h1M19 20h1M21 20h1M18 21h1M20 21h1M21 22h1M22 23h1M23 24h2" />
</svg>