<svg xmlns="http://www.w3.org/2000/svg" viewBox="0 -0.5 32 32" shape-rendering="crispEdges">
<metadata>Made with Pixels to Svg https://codepen.io/shshaw/pen/XbxvNj</metadata>
<path stroke="#391f21" d="M19 3h3M18 4h1M22 4h2M17 5h1M24 5h2M10 6h5M17 6h1M26 6h2M8 7h2M15 7h2M28 7h1M7 8h1M16 8h1M29 8h1M6 9h1M17 9h1M29 9h1M5 10h1M17 10h1M29 10h1M4 11h1M18 11h1M29 11h1M4 12h1M18 12h1M28 12h1M4 13h1M18 13h1M27 13h1M4 14h1M18 14h1M26 14h1M4 15h1M17 15h1M25 15h1M5 16h1M17 16h1M24 16h1M5 17h1M16 17h1M23 17h1M2 18h7M14 18h2M22 18h1M1 19h1M9 19h8M21 19h1M1 20h1M17 20h6M1 21h1M23 21h5M1 22h5M27 22h1M6 23h8M27 23h1M7 24h1M14 24h8M27 24h1M8 25h1M15 25h1M22 25h5M9 26h2M14 26h1M11 27h3" />
<path stroke="#e69c69" d="M19 4h2M19 5h5M22 6h4M11 7h3M24 7h2M27 7h1M9 8h7M25 8h1M27 8h2M8 9h3M14 9h3M27 9h2M7 10h3M11 10h3M15 10h2M7 11h2M10 11h2M13 11h2M16 11h2M7 12h2M10 12h1M14 12h1M16 12h2M7 13h2M10 13h3M14 13h1M16 13h2M7 14h3M13 14h2M16 14h1M12 15h2M15 15h2M10 16h2M14 16h3M10 17h5M3 19h5M4 20h12M8 21h14M16 22h11M24 23h3" />
<path stroke="#bf6f4a" d="M21 4h1M18 5h1M21 6h1M10 7h1M14 7h1M19 7h1M23 7h1M26 7h1M8 8h1M18 8h5M26 8h1M7 9h1M11 9h3M18 9h4M23 9h3M6 10h1M10 10h1M14 10h1M19 10h2M22 10h3M26 10h2M6 11h1M9 11h1M12 11h1M15 11h1M19 11h5M25 11h2M5 12h2M9 12h1M11 12h3M15 12h1M19 12h2M22 12h1M24 12h3M5 13h2M9 13h1M13 13h1M15 13h1M19 13h1M21 13h2M24 13h2M5 14h2M10 14h1M15 14h1M17 14h1M19 14h1M21 14h1M23 14h3M11 15h1M14 15h1M19 15h1M22 15h2M9 16h1M12 16h2M18 16h1M21 16h2M7 17h3M15 17h1M20 17h3M2 19h1M8 19h1M2 20h2M16 20h1M7 21h1M22 21h1M15 22h1M23 23h1" />
<path stroke="#8a4836" d="M18 6h3M17 7h2M20 7h3M17 8h1M23 8h2M22 9h1M26 9h1M18 10h1M21 10h1M25 10h1M28 10h1M5 11h1M24 11h1M27 11h2M21 12h1M23 12h1M27 12h1M20 13h1M23 13h1M26 13h1M11 14h2M20 14h1M22 14h1M5 15h6M18 15h1M20 15h2M24 15h1M6 16h3M19 16h2M23 16h1M6 17h1M17 17h3M9 18h5M16 18h6M17 19h4M2 21h5M6 22h9M14 23h9M8 24h6M22 24h5M9 25h6M11 26h3" />
</svg>