<svg xmlns="http://www.w3.org/2000/svg" viewBox="0 -0.5 32 32" shape-rendering="crispEdges">
<metadata>Made with Pixels to Svg https://codepen.io/shshaw/pen/XbxvNj</metadata>
<path stroke="#1c121c" d="M14 7h5M12 8h2M19 8h2M11 9h1M21 9h1M10 10h1M22 10h1M9 11h1M23 11h1M8 12h1M24 12h1M8 13h1M24 13h1M7 14h1M25 14h1M7 15h1M25 15h1M7 16h1M25 16h1M7 17h1M25 17h1M7 18h1M25 18h1M8 19h1M24 19h1M8 20h1M24 20h1M9 21h1M23 21h1M10 22h1M22 22h1M11 23h1M21 23h1M12 24h2M19 24h2M14 25h5" />
<path stroke="#8a4836" d="M14 8h1M17 8h2M12 9h2M16 9h2M20 9h1M11 10h2M15 10h1M19 10h1M10 11h1M18 11h1M22 11h1M16 12h2M23 12h1M10 13h1M15 13h2M22 13h2M15 14h1M21 14h2M24 14h1M8 15h1M14 15h1M21 15h1M24 15h1M20 16h1M23 16h1M11 17h1M22 17h1M10 18h1M21 18h1M24 18h1M9 19h1M12 19h1M16 19h1M23 19h1M9 20h1M11 20h1M15 20h1M22 20h2M10 21h1M14 21h2M22 21h1M13 22h2M18 22h1M21 22h1M12 23h2M17 23h1M20 23h1M16 24h1" />
<path stroke="#bf6f4a" d="M15 8h2M14 9h2M18 9h1M13 10h2M16 10h2M20 10h2M12 11h5M19 11h3M11 12h5M18 12h5M11 13h4M17 13h5M9 14h5M16 14h5M23 14h1M9 15h4M15 15h5M22 15h2M8 16h4M14 16h5M21 16h2M24 16h1M8 17h3M13 17h5M20 17h2M23 17h2M8 18h2M12 18h5M19 18h2M22 18h2M11 19h1M13 19h3M18 19h5M10 20h1M12 20h3M17 20h5M11 21h3M16 21h6M11 22h2M15 22h3M19 22h2M15 23h2M18 23h2M14 24h2M17 24h2" />
<path stroke="#5d2c28" d="M19 9h1M18 10h1M11 11h1M17 11h1M9 12h2M9 13h1M8 14h1M14 14h1M13 15h1M20 15h1M12 16h2M19 16h1M12 17h1M18 17h2M11 18h1M17 18h2M10 19h1M17 19h1M16 20h1M14 23h1" />
</svg>