<svg xmlns="http://www.w3.org/2000/svg" viewBox="0 -0.5 32 32" shape-rendering="crispEdges">
<metadata>Made with Pixels to Svg https://codepen.io/shshaw/pen/XbxvNj</metadata>
<path stroke="#03193f" d="M14 5h4M13 6h1M18 6h1M12 7h1M19 7h1M11 8h1M20 8h1M11 9h1M20 9h1M10 10h1M21 10h1M10 11h1M21 11h1M9 12h1M22 12h1M9 13h1M22 13h1M9 14h1M22 14h1M8 15h1M23 15h1M8 16h1M23 16h1M8 17h1M23 17h1M8 18h1M23 18h1M8 19h1M23 19h1M8 20h1M23 20h1M8 21h1M23 21h1M9 22h1M22 22h1M9 23h1M22 23h1M10 24h1M21 24h1M11 25h1M20 25h1M12 26h2M18 26h2M14 27h4" />
<path stroke="#0069aa" d="M14 6h1M17 6h1M12 9h1M11 10h3M11 11h3M11 12h3M15 12h2M10 13h1M12 13h1M14 13h2M10 14h2M13 14h2M17 14h2M20 14h2M9 15h3M13 15h1M16 15h3M21 15h2M11 16h1M15 16h3M14 17h3M20 17h2M9 18h1M13 18h3M20 18h3M9 19h3M13 19h2M18 19h1M21 19h2M9 20h2M13 20h1M17 20h2M9 21h1M11 21h2M16 21h2M20 21h1M10 22h1M13 22h1M21 22h1M10 23h1M13 23h1M15 23h2M18 23h1M11 24h2M14 24h4M19 24h1M13 25h6M14 26h4" />
<path stroke="#00cdf9" d="M15 6h1M13 7h1M16 7h1M18 7h1M13 8h1M18 8h2M14 9h1M17 9h1M14 10h1M17 10h1M17 11h2M14 12h1M18 12h4M13 13h1M19 13h2M12 14h1M15 14h1M12 15h1M14 15h2M12 16h1M14 16h1M19 16h1M12 17h1M19 17h1M12 18h1M16 18h1M19 18h1M16 20h1M20 20h1M21 21h1M16 22h2M19 22h2M19 23h2M18 24h1" />
<path stroke="#0098dc" d="M16 6h1M14 7h2M17 7h1M12 8h1M14 8h4M13 9h1M15 9h2M15 10h2M14 11h1M10 12h1M11 13h1M16 13h2M21 13h1M16 14h1M20 15h1M9 16h2M13 16h1M18 16h1M20 16h3M9 17h3M13 17h1M17 17h2M22 17h1M10 18h2M17 18h2M20 19h1M11 20h1M14 20h2M21 20h2M10 21h1M14 21h2M19 21h1M22 21h1M11 22h2M18 22h1M11 23h2M14 23h1M17 23h1M21 23h1M13 24h1M20 24h1M12 25h1M19 25h1" />
<path stroke="#94fdff" d="M18 9h2M18 10h3M15 11h2M19 11h2M17 12h1M18 13h1M19 14h1M19 15h1M12 19h1M15 19h3M19 19h1M12 20h1M19 20h1M13 21h1M18 21h1M14 22h2" />
</svg>